<svg xmlns="http://www.w3.org/2000/svg" width="66.584" height="66.585" viewBox="0 0 66.584 66.585">
  <g id="Book_icon" data-name="Book icon" transform="translate(1 1)">
    <path id="Path_322" data-name="Path 322" d="M-549.262,465.238v-40.27h44.994v40.27" transform="translate(559.056 -409.862)" fill="none" stroke="#ece7b1" stroke-linecap="round" stroke-linejoin="round" stroke-width="2"/>
    <line id="Line_11" data-name="Line 11" x2="23.887" transform="translate(25.394 20.805)" fill="#fff" stroke="#ece7b1" stroke-width="1"/>
    <line id="Line_12" data-name="Line 12" x2="23.887" transform="translate(25.394 20.805)" fill="none" stroke="#ece7b1" stroke-linecap="round" stroke-linejoin="round" stroke-width="2"/>
    <line id="Line_13" data-name="Line 13" x2="23.887" transform="translate(25.394 24.282)" fill="#fff" stroke="#ece7b1" stroke-width="1"/>
    <line id="Line_14" data-name="Line 14" x2="23.887" transform="translate(25.394 24.282)" fill="none" stroke="#ece7b1" stroke-linecap="round" stroke-linejoin="round" stroke-width="2"/>
    <line id="Line_15" data-name="Line 15" x2="17.468" transform="translate(25.394 27.759)" fill="#fff" stroke="#ece7b1" stroke-width="1"/>
    <line id="Line_16" data-name="Line 16" x2="17.468" transform="translate(25.394 27.759)" fill="none" stroke="#ece7b1" stroke-linecap="round" stroke-linejoin="round" stroke-width="2"/>
    <path id="Path_323" data-name="Path 323" d="M-533.953,398.775a32.294,32.294,0,0,1,32.291,32.292,32.293,32.293,0,0,1-32.293,32.293,32.293,32.293,0,0,1-32.291-32.292A32.293,32.293,0,0,1-533.953,398.775Z" transform="translate(566.245 -398.775)" fill="none" stroke="#ece7b1" stroke-linecap="round" stroke-linejoin="round" stroke-width="2"/>
    <path id="Path_324" data-name="Path 324" d="M-535.132,438.351a3.444,3.444,0,0,1-3.444,3.444,3.444,3.444,0,0,1-3.444-3.444,3.444,3.444,0,0,1,3.444-3.444A3.444,3.444,0,0,1-535.132,438.351Z" transform="translate(555.991 -414.069)" fill="none" stroke="#ece7b1" stroke-linecap="round" stroke-linejoin="round" stroke-width="2"/>
    <path id="Path_325" data-name="Path 325" d="M-538.314,437.648l1.153,1.153,4.686-4.686" transform="translate(554.422 -413.734)" fill="none" stroke="#ece7b1" stroke-linecap="round" stroke-linejoin="round" stroke-width="2"/>
    <line id="Line_17" data-name="Line 17" x2="23.887" transform="translate(25.394 34.614)" fill="#fff" stroke="#ece7b1" stroke-width="1"/>
    <line id="Line_18" data-name="Line 18" x2="23.887" transform="translate(25.394 34.614)" fill="none" stroke="#ece7b1" stroke-linecap="round" stroke-linejoin="round" stroke-width="2"/>
    <line id="Line_19" data-name="Line 19" x2="23.887" transform="translate(25.394 38.09)" fill="#fff" stroke="#ece7b1" stroke-width="1"/>
    <line id="Line_20" data-name="Line 20" x2="23.887" transform="translate(25.394 38.09)" fill="none" stroke="#ece7b1" stroke-linecap="round" stroke-linejoin="round" stroke-width="2"/>
    <line id="Line_21" data-name="Line 21" x2="17.468" transform="translate(25.394 41.567)" fill="#fff" stroke="#ece7b1" stroke-width="1"/>
    <line id="Line_22" data-name="Line 22" x2="17.468" transform="translate(25.394 41.567)" fill="none" stroke="#ece7b1" stroke-linecap="round" stroke-linejoin="round" stroke-width="2"/>
    <path id="Path_326" data-name="Path 326" d="M-535.132,462.294a3.444,3.444,0,0,1-3.444,3.444,3.444,3.444,0,0,1-3.444-3.444,3.444,3.444,0,0,1,3.444-3.444A3.444,3.444,0,0,1-535.132,462.294Z" transform="translate(555.991 -424.204)" fill="none" stroke="#ece7b1" stroke-linecap="round" stroke-linejoin="round" stroke-width="2"/>
    <line id="Line_23" data-name="Line 23" x2="23.887" transform="translate(25.394 48.422)" fill="#fff" stroke="#ece7b1" stroke-width="1"/>
    <line id="Line_24" data-name="Line 24" x2="23.887" transform="translate(25.394 48.422)" fill="none" stroke="#ece7b1" stroke-linecap="round" stroke-linejoin="round" stroke-width="2"/>
    <line id="Line_25" data-name="Line 25" x2="23.887" transform="translate(25.394 51.899)" fill="#fff" stroke="#ece7b1" stroke-width="1"/>
    <line id="Line_26" data-name="Line 26" x2="23.887" transform="translate(25.394 51.899)" fill="none" stroke="#ece7b1" stroke-linecap="round" stroke-linejoin="round" stroke-width="2"/>
    <line id="Line_27" data-name="Line 27" x2="17.468" transform="translate(25.394 55.376)" fill="#fff" stroke="#ece7b1" stroke-width="1"/>
    <line id="Line_28" data-name="Line 28" x2="17.468" transform="translate(25.394 55.376)" fill="none" stroke="#ece7b1" stroke-linecap="round" stroke-linejoin="round" stroke-width="2"/>
    <path id="Path_327" data-name="Path 327" d="M-535.132,486.238a3.444,3.444,0,0,1-3.444,3.444,3.444,3.444,0,0,1-3.444-3.444,3.444,3.444,0,0,1,3.444-3.444A3.444,3.444,0,0,1-535.132,486.238Z" transform="translate(555.991 -434.339)" fill="none" stroke="#ece7b1" stroke-linecap="round" stroke-linejoin="round" stroke-width="2"/>
    <path id="Path_328" data-name="Path 328" d="M-533.953,398.775a32.294,32.294,0,0,1,32.291,32.292,32.293,32.293,0,0,1-32.293,32.293,32.293,32.293,0,0,1-32.291-32.292A32.293,32.293,0,0,1-533.953,398.775Z" transform="translate(566.245 -398.775)" fill="#bfaf46" stroke="#bfaf46" stroke-linecap="round" stroke-linejoin="round" stroke-width="2"/>
    <path id="Path_329" data-name="Path 329" d="M-535.132,438.351a3.444,3.444,0,0,1-3.444,3.444,3.444,3.444,0,0,1-3.444-3.444,3.444,3.444,0,0,1,3.444-3.444A3.444,3.444,0,0,1-535.132,438.351Z" transform="translate(555.991 -414.069)" fill="none" stroke="#000" stroke-linecap="round" stroke-linejoin="round" stroke-width="2"/>
    <path id="Path_330" data-name="Path 330" d="M-538.314,437.648l1.153,1.153,4.686-4.686" transform="translate(554.422 -413.734)" fill="none" stroke="#000" stroke-linecap="round" stroke-linejoin="round" stroke-width="1"/>
    <line id="Line_29" data-name="Line 29" x2="23.887" transform="translate(25.394 34.614)" fill="none" stroke="#000" stroke-linecap="round" stroke-linejoin="round" stroke-width="2"/>
    <line id="Line_30" data-name="Line 30" x2="23.887" transform="translate(25.394 38.09)" fill="none" stroke="#000" stroke-linecap="round" stroke-linejoin="round" stroke-width="2"/>
    <line id="Line_31" data-name="Line 31" x2="17.468" transform="translate(25.394 41.567)" fill="none" stroke="#000" stroke-linecap="round" stroke-linejoin="round" stroke-width="2"/>
    <path id="Path_331" data-name="Path 331" d="M-535.132,462.294a3.444,3.444,0,0,1-3.444,3.444,3.444,3.444,0,0,1-3.444-3.444,3.444,3.444,0,0,1,3.444-3.444A3.444,3.444,0,0,1-535.132,462.294Z" transform="translate(555.991 -424.204)" fill="none" stroke="#000" stroke-linecap="round" stroke-linejoin="round" stroke-width="2"/>
    <line id="Line_32" data-name="Line 32" x2="23.887" transform="translate(25.394 48.422)" fill="none" stroke="#000" stroke-linecap="round" stroke-linejoin="round" stroke-width="2"/>
    <line id="Line_33" data-name="Line 33" x2="23.887" transform="translate(25.394 51.899)" fill="none" stroke="#000" stroke-linecap="round" stroke-linejoin="round" stroke-width="2"/>
    <line id="Line_34" data-name="Line 34" x2="17.468" transform="translate(25.394 55.376)" fill="none" stroke="#000" stroke-linecap="round" stroke-linejoin="round" stroke-width="2"/>
    <path id="Path_332" data-name="Path 332" d="M-535.132,486.238a3.444,3.444,0,0,1-3.444,3.444,3.444,3.444,0,0,1-3.444-3.444,3.444,3.444,0,0,1,3.444-3.444A3.444,3.444,0,0,1-535.132,486.238Z" transform="translate(555.991 -434.339)" fill="none" stroke="#000" stroke-linecap="round" stroke-linejoin="round" stroke-width="2"/>
    <path id="Path_333" data-name="Path 333" d="M-549.262,465.238v-40.27h44.994v40.27" transform="translate(559.056 -409.862)" fill="none" stroke="#000" stroke-linecap="round" stroke-linejoin="round" stroke-width="2"/>
    <line id="Line_35" data-name="Line 35" x2="23.887" transform="translate(25.394 20.805)" fill="none" stroke="#000" stroke-linecap="round" stroke-linejoin="round" stroke-width="2"/>
    <line id="Line_36" data-name="Line 36" x2="23.887" transform="translate(25.394 24.282)" fill="none" stroke="#000" stroke-linecap="round" stroke-linejoin="round" stroke-width="2"/>
    <line id="Line_37" data-name="Line 37" x2="17.468" transform="translate(25.394 27.759)" fill="none" stroke="#000" stroke-linecap="round" stroke-linejoin="round" stroke-width="2"/>
  </g>
</svg>
