<svg xmlns="http://www.w3.org/2000/svg" width="66.584" height="66.584" viewBox="0 0 66.584 66.584">
  <g id="Clienteles_icon" data-name="Clienteles icon" transform="translate(1 1)">
    <path id="Path_41" data-name="Path 41" d="M456.8,148.039a32.292,32.292,0,1,1-32.293,32.293A32.293,32.293,0,0,1,456.8,148.039Z" transform="translate(-424.508 -148.039)" fill="#bfaf46" stroke="#bfaf46" stroke-linecap="round" stroke-linejoin="round" stroke-width="2"/>
    <path id="Path_42" data-name="Path 42" d="M425.585,182.746c5.588,3.889,10.823,7.456,10.823,7.456l8.607-12.093-12.8-9.436" transform="translate(-424.964 -156.773)" fill="none" stroke="#000" stroke-linecap="round" stroke-linejoin="round" stroke-width="2"/>
    <path id="Path_43" data-name="Path 43" d="M456.61,188.781l3.5,2.51a5.084,5.084,0,0,1,7.24-.873c1.062.765,2.223,1.6,3.365,2.418" transform="translate(-438.096 -165.284)" fill="none" stroke="#000" stroke-linecap="round" stroke-linejoin="round" stroke-width="2"/>
    <path id="Path_44" data-name="Path 44" d="M473.1,219.2s4.612,3.158,7.134,4.831c1.79,1.189,2.954.76,3.459.037a2.532,2.532,0,0,0,.358-2.145" transform="translate(-445.077 -178.158)" fill="none" stroke="#000" stroke-linecap="round" stroke-linejoin="round" stroke-width="2"/>
    <path id="Path_45" data-name="Path 45" d="M477.991,212.3l8.66,5.927s1.731,1.089,2.7-.2c1.216-1.615-.788-2.822-.788-2.822l-7.921-5.592" transform="translate(-447.147 -174.105)" fill="none" stroke="#000" stroke-linecap="round" stroke-linejoin="round" stroke-width="2"/>
    <path id="Path_46" data-name="Path 46" d="M491.22,212.257s1.988,1.34,3.013-.018c1.216-1.613-.789-2.822-.789-2.822l-9.518-7.015" transform="translate(-449.659 -171.05)" fill="none" stroke="#000" stroke-linecap="round" stroke-linejoin="round" stroke-width="2"/>
    <path id="Path_47" data-name="Path 47" d="M447.4,201.717l3.046,2.385a3,3,0,0,0,.7,4.372c2.56,2.147,10.029,7.217,13.346,9.482,1.732,1.182,3.223,1.022,3.891.168a1.936,1.936,0,0,0,.453-1.659" transform="translate(-434.199 -170.76)" fill="none" stroke="#000" stroke-linecap="round" stroke-linejoin="round" stroke-width="2"/>
    <path id="Path_48" data-name="Path 48" d="M521.157,182.745c-5.589,3.89-10.826,7.458-10.826,7.458l-8.607-12.093,12.8-9.435" transform="translate(-457.193 -156.774)" fill="none" stroke="#000" stroke-linecap="round" stroke-linejoin="round" stroke-width="2"/>
    <path id="Path_49" data-name="Path 49" d="M489.359,188.781l-3.5,2.51s-2.658-3.707-6.911-.645-10.068,7.219-10.068,7.219" transform="translate(-443.289 -165.284)" fill="none" stroke="#000" stroke-linecap="round" stroke-linejoin="round" stroke-width="2"/>
    <path id="Path_50" data-name="Path 50" d="M478.946,192.016c-4.254,3.062-10.067,7.219-10.067,7.219A3.019,3.019,0,0,0,470,200.91c.884.6,2.416.734,4.083-.425,2.547-1.772,3.476-2.479,3.476-2.479" transform="translate(-443.29 -166.654)" fill="none" stroke="#000" stroke-linecap="round" stroke-linejoin="round" stroke-width="2"/>
    <path id="Path_51" data-name="Path 51" d="M508.89,201.717l-3.046,2.385a3,3,0,0,1-.7,4.372c-.607.509-1.657,1.331-2.666,2.073" transform="translate(-457.511 -170.76)" fill="none" stroke="#000" stroke-linecap="round" stroke-linejoin="round" stroke-width="2"/>
  </g>
</svg>
