<svg xmlns="http://www.w3.org/2000/svg" viewBox="0 0 66.584 66.585">
  <g id="Contact_icon" data-name="Contact icon" transform="translate(1 1)">
    <path id="Path_76" data-name="Path 76" d="M289.927,635.283a2.04,2.04,0,1,1-4.079,0v-2.649a2.04,2.04,0,1,1,4.079,0Z" transform="translate(-255.595 -622.513)" fill="none" stroke="#ece7b1" stroke-linecap="round" stroke-linejoin="round" stroke-width="2"/>
    <path id="Path_77" data-name="Path 77" d="M292.919,633.772a11.417,11.417,0,0,1,3.326,21.311" transform="translate(-258.588 -623.874)" fill="none" stroke="#ece7b1" stroke-linecap="round" stroke-linejoin="round" stroke-width="2"/>
    <path id="Path_78" data-name="Path 78" d="M276.284,655.4a11.418,11.418,0,0,1,2.682-21.629" transform="translate(-248.714 -623.874)" fill="none" stroke="#ece7b1" stroke-linecap="round" stroke-linejoin="round" stroke-width="2"/>
    <path id="Path_79" data-name="Path 79" d="M292.925,638.723a8.07,8.07,0,0,1,2.9,14.189" transform="translate(-258.591 -625.97)" fill="none" stroke="#ece7b1" stroke-linecap="round" stroke-linejoin="round" stroke-width="2"/>
    <path id="Path_80" data-name="Path 80" d="M278.842,653.146a8.071,8.071,0,0,1,2.58-14.425" transform="translate(-251.169 -625.969)" fill="none" stroke="#ece7b1" stroke-linecap="round" stroke-linejoin="round" stroke-width="2"/>
    <path id="Path_81" data-name="Path 81" d="M280.756,694.893s-5.532-1.68-5.361-8.828c.043-1.81.05-2.834.206-4.536.149-1.645,1.255-3.616,3.052-3" transform="translate(-251.169 -642.77)" fill="none" stroke="#ece7b1" stroke-linecap="round" stroke-linejoin="round" stroke-width="2"/>
    <path id="Path_82" data-name="Path 82" d="M296.446,688.051c1.043-.158,2.72-.864,2.866-3.748.133-2.627.311-4.544.284-6.941-.024-2.032,0-4.524-1.249-5.234a4.4,4.4,0,0,0-2.5-.261c-.156-1.614-.741-2.732-1.928-3.133a3.452,3.452,0,0,0-2.72.554s-.1-5.359-.428-7.152c-.264-1.433-1.027-2.735-2.735-2.735a2.763,2.763,0,0,0-2.544,1.516c.637,1.6.454,7.9.454,7.9s-.027-3.993-.13-5.573c-.122-1.857-.333-3.839-2.587-3.678-2.091.151-2.16,2.2-2.19,3.417-.051,2.173-.021,4.278-.067,5.765-.131,4.189-.236,8.383-.236,8.383" transform="translate(-253.43 -634.722)" fill="none" stroke="#ece7b1" stroke-linecap="round" stroke-linejoin="round" stroke-width="2"/>
    <path id="Path_83" data-name="Path 83" d="M298.038,710.53c-.571-4.388-3.459-6.574-7.958-6.617-4.443-.042-7.931,1.491-8.671,6.311" transform="translate(-253.717 -653.563)" fill="none" stroke="#ece7b1" stroke-linecap="round" stroke-linejoin="round" stroke-width="2"/>
    <path id="Path_84" data-name="Path 84" d="M298.236,717.4c-.654-5.366-4.146-8.036-9.608-8.088-5.971-.058-10.514,2.243-10.631,9.76l-.012.69" transform="translate(-252.267 -655.85)" fill="none" stroke="#ece7b1" stroke-linecap="round" stroke-linejoin="round" stroke-width="2"/>
    <path id="Path_85" data-name="Path 85" d="M265.684,616.609A32.292,32.292,0,1,1,233.391,648.9,32.293,32.293,0,0,1,265.684,616.609Z" transform="translate(-233.391 -616.609)" fill="none" stroke="#ece7b1" stroke-linecap="round" stroke-linejoin="round" stroke-width="2"/>
  </g>
</svg>
