<svg xmlns="http://www.w3.org/2000/svg" width="47.384" height="47.384" viewBox="0 0 47.384 47.384">
  <g id="FB_icon" data-name="FB icon" transform="translate(-1805.81 -1898.188)">
    <path id="Path_292" data-name="Path 292" d="M255.583,616.609A22.192,22.192,0,1,1,233.391,638.8,22.193,22.193,0,0,1,255.583,616.609Z" transform="translate(1573.919 1283.079)" fill="none" stroke="#d8d8d8" stroke-linecap="round" stroke-linejoin="round" stroke-width="3"/>
    <path id="Path_303" data-name="Path 303" d="M118.026,909.059l.735-4.795h-4.6v-3.112a2.4,2.4,0,0,1,2.7-2.591h2.092V894.48a25.508,25.508,0,0,0-3.713-.324c-3.789,0-6.266,2.3-6.266,6.454v3.655h-4.212v4.795h4.212v11.591a16.752,16.752,0,0,0,5.184,0V909.059Z" transform="translate(1717.641 1014.376)" fill="#d8d8d8"/>
  </g>
</svg>
