<svg xmlns="http://www.w3.org/2000/svg" width="47.384" height="47.384" viewBox="0 0 47.384 47.384">
  <g id="G_icon" data-name="G+ icon" transform="translate(-2016.165 -1898.188)">
    <path id="Path_295" data-name="Path 295" d="M255.583,616.609A22.192,22.192,0,1,1,233.391,638.8,22.193,22.193,0,0,1,255.583,616.609Z" transform="translate(1784.274 1283.079)" fill="none" stroke="#d8d8d8" stroke-linecap="round" stroke-linejoin="round" stroke-width="3"/>
    <g id="Group_20" data-name="Group 20" transform="translate(1230.111 1193.496)">
      <path id="Path_307" data-name="Path 307" d="M809.415,730.357h-5.571v-3.381c.033,0,.064,0,.094,0q4.55,0,9.1,0c.074,0,.1.02.114.095a9.55,9.55,0,0,1,.084,2.722,9.957,9.957,0,0,1-.973,3.507,8.476,8.476,0,0,1-4.839,4.328,10.126,10.126,0,0,1-4.344.57A9.647,9.647,0,0,1,796.556,735a9.355,9.355,0,0,1-2.393-4.837,9.636,9.636,0,0,1,2.387-8.387,9.536,9.536,0,0,1,5.094-2.99,9.854,9.854,0,0,1,3.191-.2,9.31,9.31,0,0,1,5.534,2.469c.021.019.043.036.07.059l-2.673,2.565c-.109-.094-.211-.188-.318-.275a5.456,5.456,0,0,0-2.849-1.194,6.114,6.114,0,0,0-6.679,4.692,6.26,6.26,0,0,0,1.9,6.145,5.826,5.826,0,0,0,3.225,1.5,6.152,6.152,0,0,0,3.617-.56,5.094,5.094,0,0,0,2.7-3.308c.026-.093.041-.189.061-.283A.137.137,0,0,0,809.415,730.357Z" fill="#d8d8d8"/>
      <path id="Path_308" data-name="Path 308" d="M1211.158,829.718h-2.851v2.85h-2.871v-2.846h-2.854v-2.873h2.847V824h2.872v2.846h2.857Z" transform="translate(-385.665 -99.542)" fill="#d8d8d8"/>
    </g>
  </g>
</svg>
