<svg xmlns="http://www.w3.org/2000/svg" width="159.369" height="66.585" viewBox="0 0 159.369 66.585">
  <g id="Home_Hover" data-name="Home Hover" transform="translate(-1806.834 -790)" opacity="0.904">
    <g id="Home" transform="translate(1807.834 791)" opacity="0.901">
      <g id="home_icon" data-name="home icon">
        <g id="Group_30" data-name="Group 30">
          <path id="Path_40" data-name="Path 40" d="M266.285,152.236a32.292,32.292,0,1,1-32.293,32.293A32.293,32.293,0,0,1,266.285,152.236Z" transform="translate(-233.992 -152.236)" fill="none" stroke="#ece7b1" stroke-linecap="round" stroke-linejoin="round" stroke-width="2"/>
          <g id="Group_22" data-name="Group 22" transform="translate(15.159 7.224)" opacity="0.902">
            <rect id="Rectangle_4" data-name="Rectangle 4" width="12.338" height="21.075" transform="translate(10.963 23.157)" fill="none" stroke="#ece7b1" stroke-linecap="round" stroke-linejoin="round" stroke-width="2"/>
            <path id="Path_39" data-name="Path 39" d="M277.41,164.761l-17.132,15.785v28.447h34.264V180.546Z" transform="translate(-260.278 -164.761)" fill="none" stroke="#ece7b1" stroke-linecap="round" stroke-linejoin="round" stroke-width="2"/>
          </g>
        </g>
      </g>
      <g id="home_arrow" data-name="home arrow" transform="translate(-76.738 -507.707)">
        <path id="arrow" d="M-6145.265,30a2,2,0,0,1-2-2V2a2,2,0,0,1,2-2h66.635a2,2,0,0,1,2,2V28a2,2,0,0,1-2,2ZM-6156,15.507l8.735-14.139V28.633Z" transform="translate(6311.736 525)" fill="#ece7b1"/>
        <text id="Home-2" data-name="Home" transform="translate(173.107 531)" font-size="15" font-family="Lato-Black, Lato Black" font-weight="800" letter-spacing="0.06em" opacity="0.901"><tspan x="0" y="15">HOME</tspan></text>
      </g>
    </g>
  </g>
</svg>
