<svg xmlns="http://www.w3.org/2000/svg" width="95.181" height="95.18" viewBox="0 0 95.181 95.18">
  <g id="icon" transform="translate(-56.525 -328.46)">
    <g id="Group_81" data-name="Group 81" transform="translate(57.525 329.46)">
      <path id="Path_596" data-name="Path 596" d="M104.116,329.46a46.59,46.59,0,1,1-46.591,46.591A46.592,46.592,0,0,1,104.116,329.46Z" transform="translate(-57.525 -329.46)" fill="none" stroke="#ccc" stroke-linecap="round" stroke-linejoin="round" stroke-width="2"/>
    </g>
    <g id="Group_82" data-name="Group 82" transform="translate(81.844 353.354)">
      <path id="Path_597" data-name="Path 597" d="M109.44,358.176a22.688,22.688,0,1,1-22.688,22.688A22.688,22.688,0,0,1,109.44,358.176Z" transform="translate(-86.752 -358.176)" fill="none" stroke="#ccc" stroke-linecap="round" stroke-linejoin="round" stroke-width="2"/>
    </g>
    <g id="Group_83" data-name="Group 83" transform="translate(92.31 382.783)">
      <path id="Path_598" data-name="Path 598" d="M123.641,393.781a13.96,13.96,0,0,1-24.311-.236" transform="translate(-99.33 -393.545)" fill="none" stroke="#ccc" stroke-linecap="round" stroke-linejoin="round" stroke-width="2"/>
    </g>
    <path id="Path_599" data-name="Path 599" d="M97.113,381.261c.288-1.9,2.176-3.8,5.451-3.8,3.367,0,5.36,2.09,5.36,3.8" transform="translate(-6.648 -8.061)" fill="none" stroke="#ccc" stroke-linecap="round" stroke-linejoin="round" stroke-width="2"/>
    <path id="Path_600" data-name="Path 600" d="M117.286,381.261c.289-1.9,2.176-3.8,5.451-3.8,3.367,0,5.36,2.09,5.36,3.8" transform="translate(-10.036 -8.061)" fill="none" stroke="#ccc" stroke-linecap="round" stroke-linejoin="round" stroke-width="2"/>
    <line id="Line_94" data-name="Line 94" x1="11.532" y1="6.714" transform="translate(70.312 356.726)" fill="none" stroke="#ccc" stroke-linecap="round" stroke-linejoin="round" stroke-width="2"/>
    <line id="Line_95" data-name="Line 95" y2="13.167" transform="translate(104.465 337.191)" fill="none" stroke="#ccc" stroke-linecap="round" stroke-linejoin="round" stroke-width="2"/>
    <line id="Line_96" data-name="Line 96" x2="6.584" y2="10.864" transform="translate(84.667 342.49)" fill="none" stroke="#ccc" stroke-linecap="round" stroke-linejoin="round" stroke-width="2"/>
    <line id="Line_97" data-name="Line 97" y2="13.328" transform="translate(104.465 401.582)" fill="none" stroke="#ccc" stroke-linecap="round" stroke-linejoin="round" stroke-width="2"/>
    <line id="Line_98" data-name="Line 98" x1="6.584" y2="11.524" transform="translate(84.667 398.729)" fill="none" stroke="#ccc" stroke-linecap="round" stroke-linejoin="round" stroke-width="2"/>
    <line id="Line_99" data-name="Line 99" x1="11.532" y2="6.584" transform="translate(70.312 389.057)" fill="none" stroke="#ccc" stroke-linecap="round" stroke-linejoin="round" stroke-width="2"/>
    <line id="Line_100" data-name="Line 100" x1="12.364" transform="translate(65.719 376.042)" fill="none" stroke="#ccc" stroke-linecap="round" stroke-linejoin="round" stroke-width="2"/>
    <line id="Line_101" data-name="Line 101" x2="1.803" y2="5.781" transform="translate(95.87 345.701)" fill="none" stroke="#ccc" stroke-linecap="round" stroke-linejoin="round" stroke-width="2"/>
    <line id="Line_102" data-name="Line 102" x2="4.429" y2="4.014" transform="translate(81.844 353.891)" fill="none" stroke="#ccc" stroke-linecap="round" stroke-linejoin="round" stroke-width="2"/>
    <line id="Line_103" data-name="Line 103" x2="5.941" y2="1.703" transform="translate(73.748 367.7)" fill="none" stroke="#ccc" stroke-linecap="round" stroke-linejoin="round" stroke-width="2"/>
    <line id="Line_104" data-name="Line 104" y1="1.456" x2="5.138" transform="translate(74.551 382.783)" fill="none" stroke="#ccc" stroke-linecap="round" stroke-linejoin="round" stroke-width="2"/>
    <line id="Line_105" data-name="Line 105" y1="4.128" x2="4.429" transform="translate(81.844 394.601)" fill="none" stroke="#ccc" stroke-linecap="round" stroke-linejoin="round" stroke-width="2"/>
    <line id="Line_106" data-name="Line 106" y1="5.299" x2="1.803" transform="translate(95.87 400.94)" fill="none" stroke="#ccc" stroke-linecap="round" stroke-linejoin="round" stroke-width="2"/>
    <line id="Line_107" data-name="Line 107" y1="6.714" x2="11.532" transform="translate(126.387 356.726)" fill="none" stroke="#ccc" stroke-linecap="round" stroke-linejoin="round" stroke-width="2"/>
    <line id="Line_108" data-name="Line 108" x1="6.584" y2="10.864" transform="translate(116.98 342.49)" fill="none" stroke="#ccc" stroke-linecap="round" stroke-linejoin="round" stroke-width="2"/>
    <line id="Line_109" data-name="Line 109" x2="6.584" y2="11.524" transform="translate(116.98 398.729)" fill="none" stroke="#ccc" stroke-linecap="round" stroke-linejoin="round" stroke-width="2"/>
    <line id="Line_110" data-name="Line 110" x2="11.532" y2="6.584" transform="translate(126.387 389.057)" fill="none" stroke="#ccc" stroke-linecap="round" stroke-linejoin="round" stroke-width="2"/>
    <line id="Line_111" data-name="Line 111" x2="12.364" transform="translate(130.147 376.042)" fill="none" stroke="#ccc" stroke-linecap="round" stroke-linejoin="round" stroke-width="2"/>
    <line id="Line_112" data-name="Line 112" x1="1.803" y2="5.781" transform="translate(110.557 345.701)" fill="none" stroke="#ccc" stroke-linecap="round" stroke-linejoin="round" stroke-width="2"/>
    <line id="Line_113" data-name="Line 113" x1="4.429" y2="4.014" transform="translate(121.958 353.891)" fill="none" stroke="#ccc" stroke-linecap="round" stroke-linejoin="round" stroke-width="2"/>
    <line id="Line_114" data-name="Line 114" x1="5.941" y2="1.703" transform="translate(128.542 367.7)" fill="none" stroke="#ccc" stroke-linecap="round" stroke-linejoin="round" stroke-width="2"/>
    <line id="Line_115" data-name="Line 115" x1="5.138" y1="1.456" transform="translate(128.542 382.783)" fill="none" stroke="#ccc" stroke-linecap="round" stroke-linejoin="round" stroke-width="2"/>
    <line id="Line_116" data-name="Line 116" x1="4.429" y1="4.128" transform="translate(121.958 394.601)" fill="none" stroke="#ccc" stroke-linecap="round" stroke-linejoin="round" stroke-width="2"/>
    <line id="Line_117" data-name="Line 117" x1="1.803" y1="5.299" transform="translate(110.557 400.94)" fill="none" stroke="#ccc" stroke-linecap="round" stroke-linejoin="round" stroke-width="2"/>
  </g>
</svg>
