<svg xmlns="http://www.w3.org/2000/svg" width="95.18" height="95.18" viewBox="0 0 95.18 95.18">
  <g id="icon" transform="translate(-58.512 -693.326)">
    <g id="Group_85" data-name="Group 85" transform="translate(59.512 694.326)">
      <path id="Path_612" data-name="Path 612" d="M106.1,694.326a46.59,46.59,0,1,1-46.591,46.591A46.591,46.591,0,0,1,106.1,694.326Z" transform="translate(-59.512 -694.326)" fill="none" stroke="#ccc" stroke-linecap="round" stroke-linejoin="round" stroke-width="2"/>
    </g>
    <path id="Path_613" data-name="Path 613" d="M107.272,734.987a7.167,7.167,0,1,0,14.334,0v-4.041a7.167,7.167,0,0,0-14.334,0Z" transform="translate(-8.021 -4.946)" fill="none" stroke="#ccc" stroke-linecap="round" stroke-linejoin="round" stroke-width="2"/>
    <path id="Path_614" data-name="Path 614" d="M107.8,754.156c1.79-2.174,3.917-3.881,6.73-3.881a8.231,8.231,0,0,1,5.368,2.466" transform="translate(-8.109 -9.396)" fill="none" stroke="#ccc" stroke-linecap="round" stroke-linejoin="round" stroke-width="2"/>
    <line id="Line_118" data-name="Line 118" y1="19.173" transform="translate(99.252 758.176)" fill="none" stroke="#ccc" stroke-linecap="round" stroke-linejoin="round" stroke-width="2"/>
    <line id="Line_119" data-name="Line 119" y2="19.173" transform="translate(113.585 758.176)" fill="none" stroke="#ccc" stroke-linecap="round" stroke-linejoin="round" stroke-width="2"/>
    <path id="Path_615" data-name="Path 615" d="M122.338,753.239s8.685,9.493,13.755,15.1l11.453,3.264a3.347,3.347,0,0,1,2.057,4.045c-.778,3-4.016,2.709-5.168,2.524-2.842-.459-10.029-2.592-10.029-2.592-2.282-1.762-10.27-7.507-10.27-7.507" transform="translate(-10.551 -9.894)" fill="none" stroke="#ccc" stroke-linecap="round" stroke-linejoin="round" stroke-width="2"/>
    <path id="Path_616" data-name="Path 616" d="M103.811,753.239s-8.686,9.493-13.755,15.1L78.6,771.6a3.347,3.347,0,0,0-2.057,4.045c.779,3,4.016,2.709,5.168,2.524,2.841-.459,10.029-2.592,10.029-2.592,2.282-1.762,10.27-7.507,10.27-7.507" transform="translate(-2.838 -9.894)" fill="none" stroke="#ccc" stroke-linecap="round" stroke-linejoin="round" stroke-width="2"/>
    <path id="Path_617" data-name="Path 617" d="M94.04,800.218c1.091-1.231,2.938-1.756,4.685-2.193,3.1-.775,28.948-6.151,28.948-6.151,5.428-1.086,8-1.414,9.03,2.463a4.511,4.511,0,0,1,.3,1.734" transform="translate(-5.798 -16.261)" fill="none" stroke="#ccc" stroke-linecap="round" stroke-linejoin="round" stroke-width="2"/>
    <path id="Path_618" data-name="Path 618" d="M92.357,804.562" transform="translate(-5.516 -18.513)" fill="none" stroke="#ccc" stroke-linecap="round" stroke-linejoin="round" stroke-width="2"/>
    <path id="Path_619" data-name="Path 619" d="M110.8,795.188c-7.083-1.491-15.534-3.237-15.534-3.237-5.428-1.086-8.693.448-9.643,4.714" transform="translate(-4.386 -16.338)" fill="none" stroke="#ccc" stroke-linecap="round" stroke-linejoin="round" stroke-width="2"/>
    <path id="Path_620" data-name="Path 620" d="M97.646,726.192a8.717,8.717,0,0,0-2.526,6.226,10.582,10.582,0,0,0,2.526,6.691" transform="translate(-5.98 -5.351)" fill="none" stroke="#ccc" stroke-linecap="round" stroke-linejoin="round" stroke-width="2"/>
    <path id="Path_621" data-name="Path 621" d="M93.845,719.8a15.889,15.889,0,0,0-4.6,11.349,19.284,19.284,0,0,0,4.6,12.2" transform="translate(-4.993 -4.279)" fill="none" stroke="#ccc" stroke-linecap="round" stroke-linejoin="round" stroke-width="2"/>
    <path id="Path_622" data-name="Path 622" d="M89.371,712.452a24.148,24.148,0,0,0-7,17.247,29.312,29.312,0,0,0,7,18.536" transform="translate(-3.84 -3.044)" fill="none" stroke="#ccc" stroke-linecap="round" stroke-linejoin="round" stroke-width="2"/>
    <path id="Path_623" data-name="Path 623" d="M132.667,739.562a8.714,8.714,0,0,0,2.525-6.226,10.581,10.581,0,0,0-2.525-6.691" transform="translate(-12.285 -5.428)" fill="none" stroke="#ccc" stroke-linecap="round" stroke-linejoin="round" stroke-width="2"/>
    <path id="Path_624" data-name="Path 624" d="M136.049,743.8a15.89,15.89,0,0,0,4.6-11.349,19.289,19.289,0,0,0-4.6-12.2" transform="translate(-12.853 -4.355)" fill="none" stroke="#ccc" stroke-linecap="round" stroke-linejoin="round" stroke-width="2"/>
    <path id="Path_625" data-name="Path 625" d="M140.04,748.687a24.146,24.146,0,0,0,7-17.246,29.312,29.312,0,0,0-7-18.536" transform="translate(-13.523 -3.12)" fill="none" stroke="#ccc" stroke-linecap="round" stroke-linejoin="round" stroke-width="2"/>
  </g>
</svg>
