<svg xmlns="http://www.w3.org/2000/svg" width="113.986" height="113.987" viewBox="0 0 113.986 113.987">
  <g id="icon" transform="translate(-66.929 -153.869)">
    <g id="Group_4" data-name="Group 4">
      <path id="Path_4" data-name="Path 4" d="M123.923,154.869a55.993,55.993,0,1,1-55.994,55.994A56,56,0,0,1,123.923,154.869Z" fill="none" stroke="#ccc" stroke-linecap="round" stroke-linejoin="round" stroke-width="2"/>
    </g>
    <path id="Path_5" data-name="Path 5" d="M90.863,205.6l7.232-4.9" fill="none" stroke="#ccc" stroke-linecap="round" stroke-linejoin="round" stroke-width="2"/>
    <path id="Path_291" data-name="Path 291" d="M0,0H51.229V65.6H0Z" transform="translate(98.309 172.621)" fill="none" stroke="#ccc" stroke-linecap="round" stroke-width="2"/>
    <path id="Path_6" data-name="Path 6" d="M90.863,205.6l33.06,22.42,33.059-22.42v36.84H90.863Z" fill="none" stroke="#ccc" stroke-linecap="round" stroke-linejoin="round" stroke-width="2"/>
    <path id="Path_7" data-name="Path 7" d="M156.981,242.444l-33.059-22.42-33.06,22.42Z" fill="none" stroke="#ccc" stroke-linecap="round" stroke-linejoin="round" stroke-width="2"/>
    <path id="Path_8" data-name="Path 8" d="M136.179,187.978a10.519,10.519,0,0,0-2.306-3.687,10.315,10.315,0,0,0-3.649-2.38,13.063,13.063,0,0,0-4.791-.846,14.085,14.085,0,0,0-10.17,4.307,15.618,15.618,0,0,0-3.183,4.975,17.041,17.041,0,0,0-1.188,6.485,14.653,14.653,0,0,0,.935,5.4,11.523,11.523,0,0,0,2.594,4.01,11.238,11.238,0,0,0,3.921,2.5,13.676,13.676,0,0,0,4.895.862,12.725,12.725,0,0,0,6.865-1.982.248.248,0,0,0,.088-.329l-.576-1.08a.25.25,0,0,0-.155-.124.256.256,0,0,0-.195.028,12.47,12.47,0,0,1-2.719,1.235,10.612,10.612,0,0,1-3.2.457,11.68,11.68,0,0,1-4.319-.775,9.51,9.51,0,0,1-3.333-2.192,9.942,9.942,0,0,1-2.157-3.478,13.139,13.139,0,0,1-.777-4.645,14.905,14.905,0,0,1,1.061-5.719,14.006,14.006,0,0,1,2.812-4.386,12.468,12.468,0,0,1,4.006-2.806,11.634,11.634,0,0,1,4.687-.987,11.067,11.067,0,0,1,4.1.72,8.731,8.731,0,0,1,3.063,2.012,8.9,8.9,0,0,1,1.944,3.152,11.911,11.911,0,0,1,.685,4.125,10.623,10.623,0,0,1-.472,3.307,8.949,8.949,0,0,1-1.19,2.434,5.292,5.292,0,0,1-1.58,1.5,3.271,3.271,0,0,1-1.654.506,2.106,2.106,0,0,1-1.783-.694c-.554-.712-.6-2.009-.132-3.87l1.295-6.8a.249.249,0,0,0-.246-.3h-1.222a.25.25,0,0,0-.244.195l-.217.964a3.53,3.53,0,0,0-2.924-1.447,5.49,5.49,0,0,0-2.958.812,7.725,7.725,0,0,0-2.176,2.026,9.246,9.246,0,0,0-1.35,2.7,9.432,9.432,0,0,0-.461,2.811,6.694,6.694,0,0,0,.338,2.225,4.683,4.683,0,0,0,.932,1.615,3.833,3.833,0,0,0,1.4.981,4.425,4.425,0,0,0,4.175-.456,10.953,10.953,0,0,0,1.788-1.507,2.808,2.808,0,0,0,1.134,1.792,4.335,4.335,0,0,0,2.536.711,5.31,5.31,0,0,0,2.4-.621,7,7,0,0,0,2.222-1.846,10,10,0,0,0,1.627-3.01,12.577,12.577,0,0,0,.625-4.132A13.447,13.447,0,0,0,136.179,187.978Zm-11.465,2.443a2.367,2.367,0,0,1,1.287.339,4.2,4.2,0,0,1,1.113,1.229l-1.087,6.062c-1.32,1.51-2.549,2.275-3.654,2.275a2.524,2.524,0,0,1-1.875-.755,3.8,3.8,0,0,1-.755-2.7,7.68,7.68,0,0,1,.349-2.232,7.576,7.576,0,0,1,.993-2.091,5.576,5.576,0,0,1,1.567-1.533A3.727,3.727,0,0,1,124.714,190.421Z" fill="#ccc"/>
    <path id="Path_290" data-name="Path 290" d="M98.308,205.6l-7.444-4.9" transform="translate(58.674)" fill="none" stroke="#ccc" stroke-linecap="round" stroke-linejoin="round" stroke-width="2"/>
  </g>
</svg>
