<svg xmlns="http://www.w3.org/2000/svg" width="95.18" height="95.18" viewBox="0 0 95.18 95.18">
  <g id="icon" transform="translate(-58.512 -891.357)">
    <g id="Group_86" data-name="Group 86" transform="translate(59.512 892.357)">
      <path id="Path_626" data-name="Path 626" d="M106.1,892.357a46.59,46.59,0,1,1-46.591,46.591A46.591,46.591,0,0,1,106.1,892.357Z" transform="translate(-59.512 -892.357)" fill="none" stroke="#ccc" stroke-linecap="round" stroke-linejoin="round" stroke-width="2"/>
    </g>
    <path id="Path_627" data-name="Path 627" d="M101.921,930.5a6.171,6.171,0,0,0,12.342,0v-3.48a6.171,6.171,0,1,0-12.342,0Z" transform="translate(-7.122 -4.785)" fill="none" stroke="#ccc" stroke-linecap="round" stroke-linejoin="round" stroke-width="2"/>
    <path id="Path_628" data-name="Path 628" d="M102.373,947c1.541-1.873,3.373-3.342,5.794-3.342a7.086,7.086,0,0,1,4.623,2.123" transform="translate(-7.198 -8.616)" fill="none" stroke="#ccc" stroke-linecap="round" stroke-linejoin="round" stroke-width="2"/>
    <path id="Path_629" data-name="Path 629" d="M98.906,968.262v16.5h16.915l-.344-21.71" transform="translate(-6.616 -11.872)" fill="none" stroke="#ccc" stroke-linecap="round" stroke-linejoin="round" stroke-width="2"/>
    <path id="Path_630" data-name="Path 630" d="M118.161,960.224s4.624,4.433,6.588,5.95c0,0,6.723,1.11,9.17,1.505.992.16,3.779.412,4.45-2.173a2.882,2.882,0,0,0-1.771-3.482l-9.862-2.811c-4.365-4.825-11.844-13-11.844-13" transform="translate(-9.3 -9.045)" fill="none" stroke="#ccc" stroke-linecap="round" stroke-linejoin="round" stroke-width="2"/>
    <path id="Path_631" data-name="Path 631" d="M108.439,961.953a2.718,2.718,0,0,1,2.86,2.891c0,3.232-2.865,3.251-4.237,3.231-2.035-.029-11.758-.013-15.169-.007a3.806,3.806,0,0,1-2.972-1.313c-1.791-2.187.334-4.919.334-4.919" transform="translate(-4.818 -11.668)" fill="none" stroke="#ccc" stroke-linecap="round" stroke-linejoin="round" stroke-width="2"/>
    <path id="Path_632" data-name="Path 632" d="M101.312,946.214s-7.479,8.173-11.844,13" transform="translate(-5.031 -9.045)" fill="none" stroke="#ccc" stroke-linecap="round" stroke-linejoin="round" stroke-width="2"/>
    <path id="Path_633" data-name="Path 633" d="M108.537,914.453v-5.135l4.163,2.568V905.3" transform="translate(-8.233 -2.174)" fill="none" stroke="#ccc" stroke-linecap="round" stroke-linejoin="round" stroke-width="2"/>
    <path id="Path_634" data-name="Path 634" d="M116.691,917.718l3.61-3.653,1.156,4.752,4.63-4.685" transform="translate(-9.603 -3.646)" fill="none" stroke="#ccc" stroke-linecap="round" stroke-linejoin="round" stroke-width="2"/>
    <path id="Path_635" data-name="Path 635" d="M100.087,917.669l-3.61-3.653-1.156,4.752-4.63-4.685" transform="translate(-5.236 -3.638)" fill="none" stroke="#ccc" stroke-linecap="round" stroke-linejoin="round" stroke-width="2"/>
    <path id="Path_636" data-name="Path 636" d="M107.782,965.452l3.349-19.238L92.491,956.44" transform="translate(-5.538 -9.045)" fill="none" stroke="#ccc" stroke-linecap="round" stroke-linejoin="round" stroke-width="2"/>
    <path id="Path_637" data-name="Path 637" d="M144.874,933.456h-4.912v-4.912a2.133,2.133,0,0,0-2.127-2.127h-4.043a2.133,2.133,0,0,0-2.127,2.127v4.912h-4.912a2.133,2.133,0,0,0-2.127,2.127v4.042a2.133,2.133,0,0,0,2.127,2.128h4.912v4.912a2.133,2.133,0,0,0,2.127,2.127h4.043a2.133,2.133,0,0,0,2.127-2.127v-4.912h4.912A2.133,2.133,0,0,0,147,939.625v-4.042A2.133,2.133,0,0,0,144.874,933.456Z" transform="translate(-10.935 -5.72)" fill="none" stroke="#ccc" stroke-linecap="round" stroke-linejoin="round" stroke-width="2"/>
  </g>
</svg>
