<svg xmlns="http://www.w3.org/2000/svg" width="95.181" height="95.18" viewBox="0 0 95.181 95.18">
  <g id="icon" transform="translate(-70.221 -352.199)">
    <g id="Group_75" data-name="Group 75" transform="translate(71.221 353.199)">
      <path id="Path_552" data-name="Path 552" d="M117.811,353.2a46.59,46.59,0,1,1-46.59,46.59A46.592,46.592,0,0,1,117.811,353.2Z" transform="translate(-71.221 -353.199)" fill="none" stroke="#ccc" stroke-linecap="round" stroke-linejoin="round" stroke-width="2"/>
    </g>
    <path id="Path_553" data-name="Path 553" d="M126.431,370.259l-.07-5.135,4.2,2.511-.09-6.586" transform="translate(-9.26 -1.318)" fill="none" stroke="#ccc" stroke-linecap="round" stroke-linejoin="round" stroke-width="2"/>
    <path id="Path_554" data-name="Path 554" d="M134.628,373.412l3.559-3.7,1.221,4.736,4.565-4.748" transform="translate(-10.648 -2.771)" fill="none" stroke="#ccc" stroke-linecap="round" stroke-linejoin="round" stroke-width="2"/>
    <path id="Path_555" data-name="Path 555" d="M118.014,373.586l-3.659-3.6-1.091,4.768-4.693-4.621" transform="translate(-6.272 -2.819)" fill="none" stroke="#ccc" stroke-linecap="round" stroke-linejoin="round" stroke-width="2"/>
    <path id="Path_556" data-name="Path 556" d="M126.431,447.844l-.07,5.135,4.2-2.511-.09,6.586" transform="translate(-9.26 -15.895)" fill="none" stroke="#ccc" stroke-linecap="round" stroke-linejoin="round" stroke-width="2"/>
    <path id="Path_557" data-name="Path 557" d="M134.628,445.592l3.559,3.7,1.221-4.736,4.565,4.748" transform="translate(-10.648 -15.343)" fill="none" stroke="#ccc" stroke-linecap="round" stroke-linejoin="round" stroke-width="2"/>
    <path id="Path_558" data-name="Path 558" d="M118.014,445.414l-3.659,3.6-1.091-4.768-4.693,4.621" transform="translate(-6.272 -15.291)" fill="none" stroke="#ccc" stroke-linecap="round" stroke-linejoin="round" stroke-width="2"/>
    <g id="Group_76" data-name="Group 76" transform="translate(119.518 377.522)">
      <path id="Path_559" data-name="Path 559" d="M137.154,423.463a4.361,4.361,0,0,0,4.884,1.945,4.247,4.247,0,0,0,3.175-4.09" transform="translate(-130.59 -388.961)" fill="none" stroke="#ccc" stroke-linecap="round" stroke-linejoin="round" stroke-width="2"/>
      <path id="Path_560" data-name="Path 560" d="M129.4,384.193l-.075,3.221.04,21.746-.054,14.078s-.629,2.889,3.03,4.3c2.293.884,4.51-1.062,4.51-1.062s.484.676,3.012.3c2.418-.356,4.454-3.132,4.454-3.132a6.238,6.238,0,0,0,3.911-3.438c1.317-2.581.8-3.343.8-3.343s2.084.136,3.273-3.227a4.984,4.984,0,0,0,.007-4.032s1.815-.553,1.889-3.774-2.264-4.015-2.264-4.015a4.069,4.069,0,0,0,.622-4.273c-.935-2.8-2.686-2.554-2.686-2.554s1.127-3.149-.546-5.236a5.1,5.1,0,0,0-5.29-1.9s1.013-.83-1.771-2.9a5.214,5.214,0,0,0-4.429-.915,7.672,7.672,0,0,0-4.385-1.612,4.832,4.832,0,0,0-4.05,1.762" transform="translate(-129.266 -382.431)" fill="none" stroke="#ccc" stroke-linecap="round" stroke-linejoin="round" stroke-width="2"/>
      <path id="Path_561" data-name="Path 561" d="M150.5,404.859a3.762,3.762,0,0,0-.61-4.512,3.186,3.186,0,0,0-4.15-.86" transform="translate(-132.033 -385.224)" fill="none" stroke="#ccc" stroke-linecap="round" stroke-linejoin="round" stroke-width="2"/>
      <path id="Path_562" data-name="Path 562" d="M153.529,397.526s-.7,2.388-2.46,2.554" transform="translate(-132.927 -384.966)" fill="none" stroke="#ccc" stroke-linecap="round" stroke-linejoin="round" stroke-width="2"/>
      <path id="Path_563" data-name="Path 563" d="M146.624,431.141a4.668,4.668,0,0,1-2.851-1.7,4.442,4.442,0,0,1-.748-2.392" transform="translate(-131.576 -389.924)" fill="none" stroke="#ccc" stroke-linecap="round" stroke-linejoin="round" stroke-width="2"/>
      <path id="Path_564" data-name="Path 564" d="M129.357,400.7s2.383,3.217,6.488.448c3.191-2.153.966-6.921.966-6.921" transform="translate(-129.281 -384.412)" fill="none" stroke="#ccc" stroke-linecap="round" stroke-linejoin="round" stroke-width="2"/>
      <path id="Path_565" data-name="Path 565" d="M135.9,403.829s-.932,2.105,1.372,4.432a3.972,3.972,0,0,0,4.1.95" transform="translate(-130.348 -386.025)" fill="none" stroke="#ccc" stroke-linecap="round" stroke-linejoin="round" stroke-width="2"/>
    </g>
    <g id="Group_77" data-name="Group 77" transform="translate(90.992 377.522)">
      <path id="Path_566" data-name="Path 566" d="M115.431,423.463a4.361,4.361,0,0,1-4.884,1.945,4.248,4.248,0,0,1-3.176-4.09" transform="translate(-97.063 -388.961)" fill="none" stroke="#ccc" stroke-linecap="round" stroke-linejoin="round" stroke-width="2"/>
      <path id="Path_567" data-name="Path 567" d="M119.784,384.193l.075,3.221-.04,21.746.054,14.078s.629,2.889-3.03,4.3c-2.294.884-4.511-1.062-4.511-1.062s-.483.676-3.012.3c-2.417-.356-4.453-3.132-4.453-3.132a6.238,6.238,0,0,1-3.912-3.438c-1.317-2.581-.8-3.343-.8-3.343s-2.084.136-3.273-3.227a4.984,4.984,0,0,1-.007-4.032s-1.814-.553-1.889-3.774,2.265-4.015,2.265-4.015a4.069,4.069,0,0,1-.622-4.273c.936-2.8,2.687-2.554,2.687-2.554s-1.127-3.149.545-5.236a5.1,5.1,0,0,1,5.291-1.9s-1.013-.83,1.771-2.9a5.216,5.216,0,0,1,4.43-.915,7.668,7.668,0,0,1,4.384-1.612,4.834,4.834,0,0,1,4.05,1.762" transform="translate(-94.982 -382.431)" fill="none" stroke="#ccc" stroke-linecap="round" stroke-linejoin="round" stroke-width="2"/>
      <path id="Path_568" data-name="Path 568" d="M102.649,404.859a3.761,3.761,0,0,1,.609-4.512,3.187,3.187,0,0,1,4.151-.86" transform="translate(-96.188 -385.224)" fill="none" stroke="#ccc" stroke-linecap="round" stroke-linejoin="round" stroke-width="2"/>
      <path id="Path_569" data-name="Path 569" d="M100.187,397.526s.7,2.388,2.46,2.554" transform="translate(-95.856 -384.966)" fill="none" stroke="#ccc" stroke-linecap="round" stroke-linejoin="round" stroke-width="2"/>
      <path id="Path_570" data-name="Path 570" d="M106.862,431.141a4.668,4.668,0,0,0,2.851-1.7,4.451,4.451,0,0,0,.748-2.392" transform="translate(-96.977 -389.924)" fill="none" stroke="#ccc" stroke-linecap="round" stroke-linejoin="round" stroke-width="2"/>
      <path id="Path_571" data-name="Path 571" d="M123.2,400.7s-2.383,3.217-6.488.448c-3.191-2.153-.966-6.921-.966-6.921" transform="translate(-98.342 -384.412)" fill="none" stroke="#ccc" stroke-linecap="round" stroke-linejoin="round" stroke-width="2"/>
      <path id="Path_572" data-name="Path 572" d="M117.17,403.829s.932,2.105-1.371,4.432a3.972,3.972,0,0,1-4.1.95" transform="translate(-97.789 -386.025)" fill="none" stroke="#ccc" stroke-linecap="round" stroke-linejoin="round" stroke-width="2"/>
    </g>
  </g>
</svg>
