<svg xmlns="http://www.w3.org/2000/svg" width="95.181" height="95.181" viewBox="0 0 95.181 95.181">
  <g id="icon" transform="translate(-252.173 -333.607)">
    <g id="Group_88" data-name="Group 88" transform="translate(253.173 334.607)">
      <path id="Path_643" data-name="Path 643" d="M299.764,334.607A46.59,46.59,0,1,1,253.173,381.2,46.592,46.592,0,0,1,299.764,334.607Z" transform="translate(-253.173 -334.607)" fill="none" stroke="#ccc" stroke-linecap="round" stroke-linejoin="round" stroke-width="2"/>
    </g>
    <line id="Line_120" data-name="Line 120" x1="11.532" y1="6.714" transform="translate(265.96 361.041)" fill="none" stroke="#ccc" stroke-linecap="round" stroke-linejoin="round" stroke-width="2"/>
    <line id="Line_121" data-name="Line 121" y2="13.167" transform="translate(300.113 341.506)" fill="none" stroke="#ccc" stroke-linecap="round" stroke-linejoin="round" stroke-width="2"/>
    <line id="Line_122" data-name="Line 122" x2="6.584" y2="10.864" transform="translate(280.315 346.805)" fill="none" stroke="#ccc" stroke-linecap="round" stroke-linejoin="round" stroke-width="2"/>
    <line id="Line_123" data-name="Line 123" x1="6.584" y2="11.524" transform="translate(280.315 403.044)" fill="none" stroke="#ccc" stroke-linecap="round" stroke-linejoin="round" stroke-width="2"/>
    <line id="Line_124" data-name="Line 124" x1="11.532" y2="6.584" transform="translate(265.96 393.372)" fill="none" stroke="#ccc" stroke-linecap="round" stroke-linejoin="round" stroke-width="2"/>
    <line id="Line_125" data-name="Line 125" x1="12.364" transform="translate(261.368 380.356)" fill="none" stroke="#ccc" stroke-linecap="round" stroke-linejoin="round" stroke-width="2"/>
    <line id="Line_126" data-name="Line 126" x2="1.803" y2="5.781" transform="translate(291.519 350.016)" fill="none" stroke="#ccc" stroke-linecap="round" stroke-linejoin="round" stroke-width="2"/>
    <line id="Line_127" data-name="Line 127" x2="4.429" y2="4.014" transform="translate(277.493 358.206)" fill="none" stroke="#ccc" stroke-linecap="round" stroke-linejoin="round" stroke-width="2"/>
    <line id="Line_128" data-name="Line 128" x2="5.941" y2="1.703" transform="translate(269.396 372.015)" fill="none" stroke="#ccc" stroke-linecap="round" stroke-linejoin="round" stroke-width="2"/>
    <line id="Line_129" data-name="Line 129" y1="1.456" x2="5.138" transform="translate(270.199 387.098)" fill="none" stroke="#ccc" stroke-linecap="round" stroke-linejoin="round" stroke-width="2"/>
    <line id="Line_130" data-name="Line 130" y1="4.128" x2="4.429" transform="translate(277.493 398.916)" fill="none" stroke="#ccc" stroke-linecap="round" stroke-linejoin="round" stroke-width="2"/>
    <line id="Line_131" data-name="Line 131" y1="6.714" x2="11.532" transform="translate(322.035 361.041)" fill="none" stroke="#ccc" stroke-linecap="round" stroke-linejoin="round" stroke-width="2"/>
    <line id="Line_132" data-name="Line 132" x1="6.584" y2="10.864" transform="translate(312.628 346.805)" fill="none" stroke="#ccc" stroke-linecap="round" stroke-linejoin="round" stroke-width="2"/>
    <line id="Line_133" data-name="Line 133" x2="6.584" y2="11.524" transform="translate(312.628 403.044)" fill="none" stroke="#ccc" stroke-linecap="round" stroke-linejoin="round" stroke-width="2"/>
    <line id="Line_134" data-name="Line 134" x2="11.532" y2="6.584" transform="translate(322.035 393.372)" fill="none" stroke="#ccc" stroke-linecap="round" stroke-linejoin="round" stroke-width="2"/>
    <line id="Line_135" data-name="Line 135" x2="12.364" transform="translate(325.795 380.356)" fill="none" stroke="#ccc" stroke-linecap="round" stroke-linejoin="round" stroke-width="2"/>
    <line id="Line_136" data-name="Line 136" x1="1.803" y2="5.781" transform="translate(306.205 350.016)" fill="none" stroke="#ccc" stroke-linecap="round" stroke-linejoin="round" stroke-width="2"/>
    <line id="Line_137" data-name="Line 137" x1="4.429" y2="4.014" transform="translate(317.606 358.206)" fill="none" stroke="#ccc" stroke-linecap="round" stroke-linejoin="round" stroke-width="2"/>
    <line id="Line_138" data-name="Line 138" x1="5.941" y2="1.703" transform="translate(324.19 372.015)" fill="none" stroke="#ccc" stroke-linecap="round" stroke-linejoin="round" stroke-width="2"/>
    <line id="Line_139" data-name="Line 139" x1="5.138" y1="1.456" transform="translate(324.19 387.098)" fill="none" stroke="#ccc" stroke-linecap="round" stroke-linejoin="round" stroke-width="2"/>
    <line id="Line_140" data-name="Line 140" x1="4.429" y1="4.128" transform="translate(317.606 398.916)" fill="none" stroke="#ccc" stroke-linecap="round" stroke-linejoin="round" stroke-width="2"/>
    <path id="Path_644" data-name="Path 644" d="M300.747,388.035s.072-5.864.286-9.93c.15-2.89,1.548-3.8,2.733-3.768a3.405,3.405,0,0,1,2.6,1.332" transform="translate(-7.989 -6.672)" fill="none" stroke="#ccc" stroke-linecap="round" stroke-linejoin="round" stroke-width="2"/>
    <path id="Path_645" data-name="Path 645" d="M307.113,387.039l.357-12.694s.211-2.744,2.374-2.76c2.719-.016,2.419,3.114,2.419,3.114l-.1,4.23" transform="translate(-9.058 -6.21)" fill="none" stroke="#ccc" stroke-linecap="round" stroke-linejoin="round" stroke-width="2"/>
    <path id="Path_646" data-name="Path 646" d="M313.254,376.571s-.014-3.287,2.556-3.273c2.718.014,2.416,3.114,2.416,3.114l-.075,2.031" transform="translate(-10.09 -6.498)" fill="none" stroke="#ccc" stroke-linecap="round" stroke-linejoin="round" stroke-width="2"/>
    <path id="Path_647" data-name="Path 647" d="M294.611,384.545c.027-.69.038-.968.061-1.529.113-2.817,1.481-4.3,2.937-4.339a2.606,2.606,0,0,1,2.156.84" transform="translate(-6.959 -7.401)" fill="none" stroke="#ccc" stroke-linecap="round" stroke-linejoin="round" stroke-width="2"/>
    <path id="Path_648" data-name="Path 648" d="M311.848,388.625s.317,3.6-2.253,3.59c-2.718-.014-2.417-3.114-2.417-3.114l.123-3.317" transform="translate(-9.068 -8.594)" fill="none" stroke="#ccc" stroke-linecap="round" stroke-linejoin="round" stroke-width="2"/>
    <path id="Path_649" data-name="Path 649" d="M306.1,389.389s-.369,3.267-2.94,3.253c-2.718-.014-2.416-3.114-2.416-3.114l.075-2.031" transform="translate(-7.987 -8.882)" fill="none" stroke="#ccc" stroke-linecap="round" stroke-linejoin="round" stroke-width="2"/>
    <path id="Path_650" data-name="Path 650" d="M299.771,387.2s-.288,4.126-2.859,4.112c-2.718-.014-2.393-3.55-2.393-3.55l.075-2.031" transform="translate(-6.941 -8.585)" fill="none" stroke="#ccc" stroke-linecap="round" stroke-linejoin="round" stroke-width="2"/>
    <path id="Path_651" data-name="Path 651" d="M312.741,384.777c-.015.69,0,2.036-.007,2.6-.057,2.82,1.218,4.383,2.669,4.508a2.6,2.6,0,0,0,2.2-.707" transform="translate(-10.002 -8.425)" fill="none" stroke="#ccc" stroke-linecap="round" stroke-linejoin="round" stroke-width="2"/>
    <path id="Path_652" data-name="Path 652" d="M298.456,427.921l.255-23.484s-3.894.221-4.16-4.265c-.038-.637-.06-1.427-.07-2.33l.171-7" transform="translate(-6.937 -9.444)" fill="none" stroke="#ccc" stroke-linecap="round" stroke-linejoin="round" stroke-width="2"/>
    <path id="Path_653" data-name="Path 653" d="M317.014,419.356c.021-1.31-2.425-15.04-1.663-16.19.86-1.3,1.573-.865,3.916-2.4,2.433-1.6,3.532-2.572,3.779-4.347.434-3.118.278-4,1.4-6.672a8.266,8.266,0,0,0,.648-3.474c-.253-1.439-2.807-3.927-3.635-4.8-.957-1.012-3.689-1.128-6.658-1.35a2.913,2.913,0,0,0-2.955,1.5c-.233.706-.346,1.947,1.586,2.929a21.506,21.506,0,0,0,4.516,1.815c1.328.349,1.3,3.956-2.069,4.725" transform="translate(-9.833 -7.641)" fill="none" stroke="#ccc" stroke-linecap="round" stroke-linejoin="round" stroke-width="2"/>
  </g>
</svg>
