<svg xmlns="http://www.w3.org/2000/svg" width="95.179" height="95.18" viewBox="0 0 95.179 95.18">
  <g id="icon" transform="translate(-264.797 -712.345)">
    <g id="Group_93" data-name="Group 93" transform="translate(265.797 713.345)">
      <path id="Path_688" data-name="Path 688" d="M312.387,713.345a46.59,46.59,0,1,1-46.59,46.592A46.593,46.593,0,0,1,312.387,713.345Z" transform="translate(-265.797 -713.345)" fill="none" stroke="#ccc" stroke-linecap="round" stroke-linejoin="round" stroke-width="2"/>
    </g>
    <path id="Path_689" data-name="Path 689" d="M277.459,797.076a9.507,9.507,0,0,0,.329-3.358c-.124-2.356-.992-2.48-3.1-7.068a14.113,14.113,0,0,1,1.556-14.757c1.894-2.4,5.16-3.322,8.076-3.605,4.367-.423,11.017,1.35,12.228,6.228a12.4,12.4,0,0,1,.338,5.314c-.373,1.86,2.108,5.828,2.727,6.7s-2.108,1.026-2.108,1.026l.248,2.226-1.736.716,1.2,1.072s-1.063.448-1.119,1.008,0,2.07-.056,2.35-.84.392-1.343.5a38.071,38.071,0,0,1-5.036.335c-1.609-.357-1.544,6.517-1.544,7.308" transform="translate(-1.261 -9.217)" fill="none" stroke="#ccc" stroke-linecap="round" stroke-linejoin="round" stroke-width="2"/>
    <path id="Path_690" data-name="Path 690" d="M360.138,797.076a9.526,9.526,0,0,1-.329-3.358c.124-2.356.992-2.48,3.1-7.068a14.112,14.112,0,0,0-1.556-14.757c-1.894-2.4-5.16-3.322-8.076-3.605-4.366-.423-11.016,1.35-12.228,6.228a12.385,12.385,0,0,0-.337,5.314c.372,1.86-2.108,5.828-2.728,6.7s2.108,1.026,2.108,1.026l-.249,2.226,1.737.716-1.2,1.072s1.063.448,1.119,1.008,0,2.07.057,2.35.839.392,1.343.5a38.049,38.049,0,0,0,5.036.335c1.61-.357,1.545,6.517,1.545,7.308" transform="translate(-12.108 -9.217)" fill="none" stroke="#ccc" stroke-linecap="round" stroke-linejoin="round" stroke-width="2"/>
    <g id="Group_95" data-name="Group 95" transform="translate(301.104 757.861)">
      <path id="Path_691" data-name="Path 691" d="M330.766,779.707l.028-2.588-2.354-.195a8.982,8.982,0,0,0-1.654-4.179l1.6-1.771-1.895-1.763L324.73,770.7a8.989,8.989,0,0,0-3.961-1.591l-.144-2.263h-2.588l-.2,2.318c-.1.017-.2.027-.3.047a9.009,9.009,0,0,0-3.444,1.563l-1.9-1.374-1.8,1.856,1.685,1.582a9,9,0,0,0-1.578,4.071l-2.267.134-.007,2.588,2.368.18a8.971,8.971,0,0,0,1.524,3.5l-1.7,1.99,1.84,1.821,1.925-1.739a8.99,8.99,0,0,0,3.6,1.551l.122,2.559,2.587.069.208-2.559a8.986,8.986,0,0,0,3.862-1.48l1.76,1.574,1.828-1.831-1.473-1.77a9,9,0,0,0,1.652-3.624Z" transform="translate(-308.23 -766.846)" fill="none" stroke="#ccc" stroke-linecap="round" stroke-linejoin="round" stroke-width="2"/>
      <g id="Group_94" data-name="Group 94" transform="translate(6.759 6.836)">
        <path id="Path_692" data-name="Path 692" d="M320.877,775.062a4.519,4.519,0,1,1-.965.1A4.523,4.523,0,0,1,320.877,775.062Z" transform="translate(-316.353 -775.062)" fill="none" stroke="#ccc" stroke-linecap="round" stroke-linejoin="round" stroke-width="2"/>
      </g>
    </g>
    <path id="Path_693" data-name="Path 693" d="M315.434,741.486l7.708-15.8-.266,10.55,4.1-.456-7.137,15.7.27-10.518Z" transform="translate(-8.336 -2.073)" fill="none" stroke="#ccc" stroke-linecap="round" stroke-linejoin="round" stroke-width="2"/>
    <path id="Path_694" data-name="Path 694" d="M337.419,741.193h16.53v17.036" transform="translate(-12.028 -4.677)" fill="none" stroke="#ccc" stroke-linecap="round" stroke-linejoin="round" stroke-width="2"/>
    <path id="Path_695" data-name="Path 695" d="M303.987,740.725h-16.53V758.15" transform="translate(-3.638 -4.598)" fill="none" stroke="#ccc" stroke-linecap="round" stroke-linejoin="round" stroke-width="2"/>
  </g>
</svg>
