<svg xmlns="http://www.w3.org/2000/svg" width="95.179" height="95.179" viewBox="0 0 95.179 95.179">
  <g id="icon" transform="translate(-424.064 -539.514)">
    <g id="Group_69" data-name="Group 69" transform="translate(425.064 540.514)">
      <path id="Path_511" data-name="Path 511" d="M471.654,540.514a46.59,46.59,0,1,1-46.59,46.59A46.591,46.591,0,0,1,471.654,540.514Z" transform="translate(-425.064 -540.514)" fill="none" stroke="#ccc" stroke-linecap="round" stroke-linejoin="round" stroke-width="2"/>
    </g>
    <line id="Line_76" data-name="Line 76" x1="8.317" y1="0.694" transform="translate(447.009 581.72)" fill="none" stroke="#ccc" stroke-linecap="round" stroke-linejoin="round" stroke-width="2"/>
    <line id="Line_77" data-name="Line 77" y1="0.54" x2="8.317" transform="translate(447.009 585.961)" fill="none" stroke="#ccc" stroke-linecap="round" stroke-linejoin="round" stroke-width="2"/>
    <path id="Path_512" data-name="Path 512" d="M450,587.046s-1.731-2.453-3.727-1.078c-2.067,1.424,0,4.01,0,4.01s-3.418-.694-3.418,2.542c0,2.424,3.565,1.905,3.565,1.905s-1.687,3.275.843,4.139a2.224,2.224,0,0,0,3.149-1.89" transform="translate(-2.987 -7.563)" fill="none" stroke="#ccc" stroke-linecap="round" stroke-linejoin="round" stroke-width="2"/>
    <line id="Line_78" data-name="Line 78" y1="0.694" x2="8.317" transform="translate(487.982 581.72)" fill="none" stroke="#ccc" stroke-linecap="round" stroke-linejoin="round" stroke-width="2"/>
    <line id="Line_79" data-name="Line 79" x1="8.317" y1="0.54" transform="translate(487.982 585.961)" fill="none" stroke="#ccc" stroke-linecap="round" stroke-linejoin="round" stroke-width="2"/>
    <path id="Path_513" data-name="Path 513" d="M510.594,587.046s1.731-2.453,3.727-1.078c2.068,1.424,0,4.01,0,4.01s3.419-.694,3.419,2.542c0,2.424-3.566,1.905-3.566,1.905s1.688,3.275-.842,4.139a2.224,2.224,0,0,1-3.149-1.89" transform="translate(-14.295 -7.563)" fill="none" stroke="#ccc" stroke-linecap="round" stroke-linejoin="round" stroke-width="2"/>
    <path id="Path_514" data-name="Path 514" d="M506.931,631.4c-.579-2.212-1.073-4.152-1.434-5.642-.8-3.307-1.875-5.053-4.04-6.013s-13.785-4.961-13.785-4.961V608" transform="translate(-10.515 -11.334)" fill="none" stroke="#ccc" stroke-linecap="round" stroke-linejoin="round" stroke-width="2"/>
    <path id="Path_515" data-name="Path 515" d="M451.3,631.4c.578-2.212,1.073-4.152,1.434-5.642.8-3.307,1.875-5.053,4.04-6.013s13.785-4.961,13.785-4.961V608" transform="translate(-4.406 -11.334)" fill="none" stroke="#ccc" stroke-linecap="round" stroke-linejoin="round" stroke-width="2"/>
    <path id="Path_516" data-name="Path 516" d="M487.949,593.3v-3.368a8.61,8.61,0,1,0-17.219,0V593.3" transform="translate(-7.669 -6.853)" fill="none" stroke="#ccc" stroke-linecap="round" stroke-linejoin="round" stroke-width="2"/>
    <path id="Path_517" data-name="Path 517" d="M487.949,595.719v3.333a8.61,8.61,0,1,1-17.219,0v-3.333" transform="translate(-7.669 -9.271)" fill="none" stroke="#ccc" stroke-linecap="round" stroke-linejoin="round" stroke-width="2"/>
    <path id="Path_518" data-name="Path 518" d="M475.435,560.006l7.434-15.234-.257,10.175,3.957-.44-6.883,15.144.26-10.144Z" transform="translate(-8.46 -0.715)" fill="none" stroke="#ccc" stroke-linecap="round" stroke-linejoin="round" stroke-width="2"/>
    <path id="Path_519" data-name="Path 519" d="M445.675,563.343" transform="translate(-3.462 -3.834)" fill="none" stroke="#ccc" stroke-linecap="round" stroke-linejoin="round" stroke-width="2"/>
    <path id="Path_520" data-name="Path 520" d="M501.371,570.084l8.535-8.189s2.238-2.031.625-3.644a2.289,2.289,0,0,0-3.281.048l-8.712,9.277s-1.395,1.37-.2,2.509A2,2,0,0,0,501.371,570.084Z" transform="translate(-12.225 -2.86)" fill="none" stroke="#ccc" stroke-linecap="round" stroke-linejoin="round" stroke-width="2"/>
    <path id="Path_521" data-name="Path 521" d="M492.325,576.377a1.85,1.85,0,1,1,1.85,1.85A1.85,1.85,0,0,1,492.325,576.377Z" transform="translate(-11.296 -5.712)" fill="none" stroke="#ccc" stroke-linecap="round" stroke-linejoin="round" stroke-width="2"/>
    <path id="Path_522" data-name="Path 522" d="M465.312,577.543a1.85,1.85,0,1,1,1.85,1.85A1.85,1.85,0,0,1,465.312,577.543Z" transform="translate(-6.759 -5.908)" fill="none" stroke="#ccc" stroke-linecap="round" stroke-linejoin="round" stroke-width="2"/>
    <path id="Path_523" data-name="Path 523" d="M452.726,566.651c-1.008.81-2.235-.534-2.792-1.329s-4.135-4.794.87-8.29a6.289,6.289,0,0,1,8.581.635,5.744,5.744,0,0,1,.82,6.076s2.064,2.977,2.743,4.187c.3.527.6,1.784-.332,2.327-1.321.768-2.42-.8-2.42-.8l-3.5-5.009s1.494-1.7.62-3.207a2.721,2.721,0,0,0-3.638-1.184c-1.144.424-2.482,1.619-1.216,3.54C452.463,563.6,454.093,565.553,452.726,566.651Z" transform="translate(-3.881 -2.538)" fill="none" stroke="#ccc" stroke-linecap="round" stroke-linejoin="round" stroke-width="2"/>
  </g>
</svg>
