<svg xmlns="http://www.w3.org/2000/svg" width="113.987" height="113.987" viewBox="0 0 113.987 113.987">
  <g id="icon" transform="translate(-425.372 -40.207)">
    <g id="Group_31" data-name="Group 31">
      <path id="Path_359" data-name="Path 359" d="M482.366,41.207A55.993,55.993,0,1,1,426.372,97.2,55.994,55.994,0,0,1,482.366,41.207Z" fill="none" stroke="#ccc" stroke-linecap="round" stroke-linejoin="round" stroke-width="2"/>
    </g>
    <g id="Group_32" data-name="Group 32">
      <path id="Path_360" data-name="Path 360" d="M482.366,41.207a55.993,55.993,0,1,1-55.994,56A55.995,55.995,0,0,1,482.366,41.207Z" fill="none" stroke="#ccc" stroke-linecap="round" stroke-linejoin="round" stroke-width="2"/>
    </g>
    <path id="Path_361" data-name="Path 361" d="M436.3,129.03c.71-2.695,2.184-10.76,2.387-11.6.7-2.887,1.637-4.408,3.527-5.246s12.024-4.328,12.024-4.328v-5.917" fill="none" stroke="#ccc" stroke-linecap="round" stroke-linejoin="round" stroke-width="2"/>
    <path id="Path_362" data-name="Path 362" d="M487.383,152.2c-.5-1.927-7.7-33.467-8.019-34.766-.7-2.887-1.635-4.408-3.524-5.246s-12.029-4.328-12.029-4.328v-5.917" fill="none" stroke="#ccc" stroke-linecap="round" stroke-linejoin="round" stroke-width="2"/>
    <path id="Path_363" data-name="Path 363" d="M482.215,129.314c.5-1.928,2.8-10.582,3.114-11.882.7-2.887,1.636-4.408,3.526-5.246s12.025-4.328,12.025-4.328v-5.917" fill="none" stroke="#ccc" stroke-linecap="round" stroke-linejoin="round" stroke-width="2"/>
    <path id="Path_364" data-name="Path 364" d="M528.978,128.233c-.886-3.694-2.866-10.383-2.968-10.8-.7-2.887-1.634-4.408-3.523-5.246s-12.029-4.328-12.029-4.328v-5.917" fill="none" stroke="#ccc" stroke-linecap="round" stroke-linejoin="round" stroke-width="2"/>
    <path id="Path_365" data-name="Path 365" d="M466.538,94.24V87.082a7.513,7.513,0,1,0-15.026,0V94.24" fill="none" stroke="#ccc" stroke-linecap="round" stroke-linejoin="round" stroke-width="2"/>
    <path id="Path_366" data-name="Path 366" d="M454.233,101.941a7.84,7.84,0,0,1-2.721-6.009V94.24" fill="none" stroke="#ccc" stroke-linecap="round" stroke-linejoin="round" stroke-width="2"/>
    <path id="Path_367" data-name="Path 367" d="M466.538,94.24v1.692a7.894,7.894,0,0,1-2.727,6.009" fill="none" stroke="#ccc" stroke-linecap="round" stroke-linejoin="round" stroke-width="2"/>
    <path id="Path_368" data-name="Path 368" d="M513.184,95.932a7.513,7.513,0,0,1-15.025,0v-8.85a7.513,7.513,0,1,1,15.025,0Z" fill="none" stroke="#ccc" stroke-linecap="round" stroke-linejoin="round" stroke-width="2"/>
    <path id="Path_369" data-name="Path 369" d="M473.122,75.966,487.2,47.106l-.486,19.277,7.5-.833L481.175,94.24l.493-19.218Z" fill="none" stroke="#ccc" stroke-linecap="round" stroke-linejoin="round" stroke-width="2.267"/>
  </g>
</svg>
