<svg xmlns="http://www.w3.org/2000/svg" width="69.061" height="69.135" viewBox="0 0 69.061 69.135">
  <g id="Icon" transform="translate(2 2)" opacity="0.898">
    <path id="Path_1064" data-name="Path 1064" d="M33.032,1A32.032,32.032,0,1,1,1,33.032,32.032,32.032,0,0,1,33.032,1Z" transform="translate(-0.501 -0.501)" fill="none" stroke="#ece7b1" stroke-linecap="round" stroke-linejoin="round" stroke-width="2"/>
    <path id="Rectangle_60" data-name="Rectangle 60" d="M3.023,0H32.847a3.022,3.022,0,0,1,3.022,3.022V33.7a3.022,3.022,0,0,1-3.022,3.022H3.023A3.023,3.023,0,0,1,0,33.694V3.023A3.023,3.023,0,0,1,3.023,0Z" transform="translate(14.596 15.399)" fill="none" stroke="#ece7b1" stroke-linecap="round" stroke-linejoin="round" stroke-width="2"/>
    <line id="Line_304" data-name="Line 304" x2="35.869" transform="translate(14.596 20.31)" fill="none" stroke="#beae46" stroke-linecap="round" stroke-linejoin="round" stroke-width="2"/>
    <path id="Path_1065" data-name="Path 1065" d="M25.642,35.632v7.294a3.424,3.424,0,0,0,3.587,3.234,3.424,3.424,0,0,0,3.587-3.234V35.632Z" transform="translate(-11.046 -15.321)" fill="none" stroke="#ece7b1" stroke-linecap="round" stroke-linejoin="round" stroke-width="2"/>
    <path id="Path_1066" data-name="Path 1066" d="M38.183,35.632v7.294a3.606,3.606,0,0,0,7.174,0V35.632Z" transform="translate(-16.413 -15.321)" fill="none" stroke="#ece7b1" stroke-linecap="round" stroke-linejoin="round" stroke-width="2"/>
    <path id="Path_1067" data-name="Path 1067" d="M50.723,35.632v7.294a3.606,3.606,0,0,0,7.174,0V35.632Z" transform="translate(-21.779 -15.321)" fill="none" stroke="#ece7b1" stroke-linecap="round" stroke-linejoin="round" stroke-width="2"/>
    <path id="Path_1068" data-name="Path 1068" d="M63.264,35.632v7.294a3.606,3.606,0,0,0,7.174,0V35.632Z" transform="translate(-27.146 -15.321)" fill="none" stroke="#ece7b1" stroke-linecap="round" stroke-linejoin="round" stroke-width="2"/>
    <path id="Path_1069" data-name="Path 1069" d="M75.8,35.632v7.294a3.606,3.606,0,0,0,7.174,0V35.632Z" transform="translate(-32.513 -15.321)" fill="none" stroke="#ece7b1" stroke-linecap="round" stroke-linejoin="round" stroke-width="2"/>
    <path id="Rectangle_61" data-name="Rectangle 61" d="M1.246,0H16.969a1.246,1.246,0,0,1,1.246,1.246V9.362a1.245,1.245,0,0,1-1.245,1.245H1.246A1.246,1.246,0,0,1,0,9.361V1.246A1.246,1.246,0,0,1,1.246,0Z" transform="translate(17.903 34.665)" fill="none" stroke="#ece7b1" stroke-linecap="round" stroke-linejoin="round" stroke-width="2"/>
    <path id="Rectangle_62" data-name="Rectangle 62" d="M1.18,0H6.7A1.181,1.181,0,0,1,7.882,1.181v15.09a1.18,1.18,0,0,1-1.18,1.18H1.18A1.18,1.18,0,0,1,0,16.271V1.18A1.18,1.18,0,0,1,1.18,0Z" transform="translate(39.277 34.665)" fill="none" stroke="#ece7b1" stroke-linecap="round" stroke-linejoin="round" stroke-width="2"/>
    <rect id="Rectangle_63" data-name="Rectangle 63" width="69.061" height="69.135" transform="translate(-2 -2)" fill="none"/>
  </g>
</svg>
