<svg xmlns="http://www.w3.org/2000/svg" width="95.182" height="95.18" viewBox="0 0 95.182 95.18">
  <g id="icon" transform="translate(-258.06 -507.881)">
    <g id="Group_84" data-name="Group 84" transform="translate(259.06 508.881)">
      <path id="Path_601" data-name="Path 601" d="M305.652,508.881a46.59,46.59,0,1,1-46.592,46.591A46.592,46.592,0,0,1,305.652,508.881Z" transform="translate(-259.06 -508.881)" fill="none" stroke="#ccc" stroke-linecap="round" stroke-linejoin="round" stroke-width="2"/>
    </g>
    <path id="Path_602" data-name="Path 602" d="M340.927,599.766c-.578-2.211-1.073-4.152-1.434-5.642-.8-3.307-1.875-5.052-4.041-6.013s-13.786-4.961-13.786-4.961v-6.78" transform="translate(-10.513 -11.333)" fill="none" stroke="#ccc" stroke-linecap="round" stroke-linejoin="round" stroke-width="2"/>
    <path id="Path_603" data-name="Path 603" d="M285.294,599.766c.579-2.211,1.073-4.152,1.434-5.642.8-3.307,1.875-5.052,4.041-6.013s13.786-4.961,13.786-4.961v-6.78" transform="translate(-4.405 -11.333)" fill="none" stroke="#ccc" stroke-linecap="round" stroke-linejoin="round" stroke-width="2"/>
    <path id="Path_604" data-name="Path 604" d="M321.947,561.668V558.3a8.61,8.61,0,1,0-17.22,0v3.369" transform="translate(-7.669 -6.853)" fill="none" stroke="#ccc" stroke-linecap="round" stroke-linejoin="round" stroke-width="2"/>
    <path id="Path_605" data-name="Path 605" d="M321.947,564.086v3.332a8.61,8.61,0,1,1-17.22,0v-3.332" transform="translate(-7.669 -9.27)" fill="none" stroke="#ccc" stroke-linecap="round" stroke-linejoin="round" stroke-width="2"/>
    <path id="Path_606" data-name="Path 606" d="M308.736,523.52a1.962,1.962,0,0,0,2.529-1.266c.473-.947.274-2.6,3.235-2.618,2.146-.015,3.657,1.043,3.657,3.6s-2.3,3.627-5.492,3.627V531.4a1.358,1.358,0,0,0,1.529,1.609,1.556,1.556,0,0,0,1.617-1.626c.006-.777,0-1.994,0-1.994a5.832,5.832,0,0,0,5.7-6.153c0-6.037-3.941-7.029-6.581-7.029-2,0-5.765.232-6.931,5.1C308,521.31,307.458,523.08,308.736,523.52Z" transform="translate(-8.199 -1.231)" fill="none" stroke="#ccc" stroke-linecap="round" stroke-linejoin="round" stroke-width="1.568"/>
    <path id="Path_607" data-name="Path 607" d="M312.828,542.126a2.029,2.029,0,1,1,2.029,2.029A2.029,2.029,0,0,1,312.828,542.126Z" transform="translate(-9.029 -5.242)" fill="none" stroke="#ccc" stroke-linecap="round" stroke-linejoin="round" stroke-width="1.746"/>
    <path id="Path_608" data-name="Path 608" d="M293.353,564.992l-8.016.1v4.33l-6.017-6.993,5.835-6.38.111,4,8.188-.055" transform="translate(-3.402 -7.921)" fill="none" stroke="#ccc" stroke-linecap="round" stroke-linejoin="round" stroke-width="1.746"/>
    <path id="Path_609" data-name="Path 609" d="M335.943,564.992l8.016.1v4.33l6.017-6.993-5.835-6.38-.111,4L335.842,560" transform="translate(-12.894 -7.921)" fill="none" stroke="#ccc" stroke-linecap="round" stroke-linejoin="round" stroke-width="1.746"/>
    <path id="Path_610" data-name="Path 610" d="M330.633,549.1c2.639-.29,4.121-3.273,5.436-5.531s5.408-10.348,5.408-10.348l3.631,1.9-2.6-8.579-8.208,2.893,3.322,1.737s-2.069,4.164-2.969,5.7a21.259,21.259,0,0,1-3.037,3.5,8.6,8.6,0,0,1-2.871,1.808,16.085,16.085,0,0,1-4.548,1.043" transform="translate(-10.938 -2.966)" fill="none" stroke="#ccc" stroke-linecap="round" stroke-linejoin="round" stroke-width="1.746"/>
    <path id="Path_611" data-name="Path 611" d="M295.255,549.1c-2.64-.29-4.122-3.273-5.437-5.531s-5.408-10.348-5.408-10.348l-3.631,1.9,2.6-8.579,8.208,2.893-3.322,1.737s2.069,4.164,2.969,5.7a21.257,21.257,0,0,0,3.037,3.5,8.606,8.606,0,0,0,2.871,1.808,16.085,16.085,0,0,0,4.548,1.043" transform="translate(-3.647 -2.966)" fill="none" stroke="#ccc" stroke-linecap="round" stroke-linejoin="round" stroke-width="1.746"/>
  </g>
</svg>
