<svg xmlns="http://www.w3.org/2000/svg" width="95.178" height="95.178" viewBox="0 0 95.178 95.178">
  <g id="icon" transform="translate(-69.448 -542.117)">
    <g id="Group_78" data-name="Group 78" transform="translate(70.448 543.117)">
      <path id="Path_573" data-name="Path 573" d="M117.038,543.117a46.589,46.589,0,1,1-46.59,46.59A46.59,46.59,0,0,1,117.038,543.117Z" transform="translate(-70.448 -543.117)" fill="none" stroke="#ccc" stroke-linecap="round" stroke-linejoin="round" stroke-width="2"/>
    </g>
    <line id="Line_92" data-name="Line 92" y2="11.37" transform="translate(130.658 546.42)" fill="none" stroke="#ccc" stroke-linecap="round" stroke-linejoin="round" stroke-width="2"/>
    <line id="Line_93" data-name="Line 93" y2="13.735" transform="translate(134.794 546.42)" fill="none" stroke="#ccc" stroke-linecap="round" stroke-linejoin="round" stroke-width="2"/>
    <path id="Path_574" data-name="Path 574" d="M141.854,560.79l5.425,2.77s2.313.775,1.385,2.465c-.859,1.564-2.321.572-2.925.326-1.5-.612-5.3-2.643-5.3-2.643s-2.049-.726-1.182-2.348S141.854,560.79,141.854,560.79Z" transform="translate(-11.521 -2.913)" fill="none" stroke="#ccc" stroke-linecap="round" stroke-linejoin="round" stroke-width="2"/>
    <path id="Path_575" data-name="Path 575" d="M141.854,565.507l5.425,2.77s2.313.775,1.385,2.465c-.859,1.564-2.321.572-2.925.325-1.5-.611-5.3-2.643-5.3-2.643s-2.049-.726-1.182-2.348S141.854,565.507,141.854,565.507Z" transform="translate(-11.521 -3.705)" fill="none" stroke="#ccc" stroke-linecap="round" stroke-linejoin="round" stroke-width="2"/>
    <path id="Path_576" data-name="Path 576" d="M145.337,572.257c3.145,2.082,6.19,6.71,4.377,10.65a6.7,6.7,0,0,1-6.54,3.919c-2.94,0-6.225-1.729-6.484-5.188a8.012,8.012,0,0,1,1.955-6.311,24.65,24.65,0,0,1,2.108-1.9,48.282,48.282,0,0,1,4.064,3.8c1.064,1.267,1.607,1.737,1.39,3.871a2.3,2.3,0,0,1-1.147,1.742,3.147,3.147,0,0,1-3.322-.077,2.431,2.431,0,0,1-1.244-1.732c-.26-1.9.362-3.477,2.965-5.2" transform="translate(-11.12 -4.894)" fill="none" stroke="#ccc" stroke-linecap="round" stroke-linejoin="round" stroke-width="2"/>
    <path id="Path_577" data-name="Path 577" d="M141.443,572.951c-.99-.854-.76-2.373-.16-3.517" transform="translate(-11.81 -4.42)" fill="none" stroke="#ccc" stroke-linecap="round" stroke-linejoin="round" stroke-width="2"/>
    <path id="Path_578" data-name="Path 578" d="M129.019,606.423a5.1,5.1,0,1,1,5.1,5.1A5.1,5.1,0,0,1,129.019,606.423Z" transform="translate(-9.837 -9.776)" fill="none" stroke="#ccc" stroke-linecap="round" stroke-linejoin="round" stroke-width="2"/>
    <path id="Path_579" data-name="Path 579" d="M120.111,615.9a2.811,2.811,0,1,1,3.472,1.936A2.811,2.811,0,0,1,120.111,615.9Z" transform="translate(-8.323 -11.623)" fill="none" stroke="#ccc" stroke-linecap="round" stroke-linejoin="round" stroke-width="2"/>
    <path id="Path_580" data-name="Path 580" d="M129.788,649.594c-.481-1.839-2.539-9.187-2.838-10.426-.665-2.75-1.559-4.2-3.36-5s-11.464-4.126-11.464-4.126V624.4" transform="translate(-7 -13.653)" fill="none" stroke="#ccc" stroke-linecap="round" stroke-linejoin="round" stroke-width="2"/>
    <path id="Path_581" data-name="Path 581" d="M85.917,634.9a4.977,4.977,0,0,1,1.191-.731c1.8-.8,11.464-4.126,11.464-4.126V624.4" transform="translate(-2.598 -13.653)" fill="none" stroke="#ccc" stroke-linecap="round" stroke-linejoin="round" stroke-width="2"/>
    <path id="Path_582" data-name="Path 582" d="M112.357,612.178v-2.8a7.16,7.16,0,1,0-14.319,0v2.8" transform="translate(-4.634 -9.926)" fill="none" stroke="#ccc" stroke-linecap="round" stroke-linejoin="round" stroke-width="2"/>
    <path id="Path_583" data-name="Path 583" d="M112.357,614.189v2.772a7.16,7.16,0,1,1-14.319,0v-2.772" transform="translate(-4.634 -11.937)" fill="none" stroke="#ccc" stroke-linecap="round" stroke-linejoin="round" stroke-width="2"/>
    <path id="Path_584" data-name="Path 584" d="M166.242,574.275c-1.155,1.48-2.374,1.917-4.886,1.917,0,0,.061,6.889-4.634,10.079s-11.532,0-11.532,0-1.536,3.467-6.923,3.619-6.838-3.91-6.838-3.91-6.672,4.352-12.764.581a11.219,11.219,0,0,1-5.3-10.37s-8.048-1.208-7.757-8.474,9.283-7.959,9.283-7.959.357-5.746,5.269-8.453a12.668,12.668,0,0,1,11.268-1.008s1.481-3.825,8.987-3.126" transform="translate(-5.904 -0.667)" fill="none" stroke="#ccc" stroke-linecap="round" stroke-linejoin="round" stroke-width="2"/>
  </g>
</svg>
