<svg xmlns="http://www.w3.org/2000/svg" width="95.18" height="95.18" viewBox="0 0 95.18 95.18">
  <g id="icon" transform="translate(-263.216 -330.05)">
    <g id="Group_91" data-name="Group 91" transform="translate(264.216 331.05)">
      <path id="Path_668" data-name="Path 668" d="M310.806,331.05a46.59,46.59,0,1,1-46.59,46.59A46.591,46.591,0,0,1,310.806,331.05Z" transform="translate(-264.216 -331.05)" fill="none" stroke="#ccc" stroke-linecap="round" stroke-linejoin="round" stroke-width="2"/>
    </g>
    <path id="Path_669" data-name="Path 669" d="M314.845,407.289a4.671,4.671,0,0,1,3.3-7.974v-6.08a.851.851,0,0,0-.848-.849h-6.08a4.672,4.672,0,0,1-9.343,0H295.8a.851.851,0,0,0-.848.849v21.5a.85.85,0,0,0,.848.848h21.5a.85.85,0,0,0,.848-.848v-6.08A4.658,4.658,0,0,1,314.845,407.289Z" transform="translate(-5.162 -10.301)" fill="none" stroke="#ccc" stroke-linecap="round" stroke-linejoin="round" stroke-width="2"/>
    <path id="Path_670" data-name="Path 670" d="M307.885,377.985a4.656,4.656,0,0,0-.009-3.575l5.611-2.341a.85.85,0,0,0,.456-1.109l-2.341-5.611a4.671,4.671,0,0,0-3.6-8.622l-2.341-5.611a.851.851,0,0,0-1.109-.456l-19.845,8.281a.851.851,0,0,0-.456,1.109l8.281,19.844a.851.851,0,0,0,1.109.457l5.611-2.341a4.671,4.671,0,0,0,8.631-.022Z" transform="translate(-3.354 -3.282)" fill="none" stroke="#ccc" stroke-linecap="round" stroke-linejoin="round" stroke-width="2"/>
    <path id="Path_671" data-name="Path 671" d="M326.134,372.779a4.672,4.672,0,0,1-3.3,7.974v6.08a.851.851,0,0,0,.849.848h6.079a4.672,4.672,0,1,1,9.343,0h6.08a.851.851,0,0,0,.848-.848v-21.5a.851.851,0,0,0-.848-.848h-21.5a.851.851,0,0,0-.849.848v6.08A4.654,4.654,0,0,1,326.134,372.779Z" transform="translate(-9.844 -5.615)" fill="none" stroke="#ccc" stroke-linecap="round" stroke-linejoin="round" stroke-width="2"/>
    <path id="Path_672" data-name="Path 672" d="M330.185,388.14a4.659,4.659,0,0,0-1.369,3.3h-6.08a.851.851,0,0,0-.848.849v6.08a4.671,4.671,0,1,0,0,9.342v6.08a.85.85,0,0,0,.848.848h21.5a.85.85,0,0,0,.848-.848v-21.5a.851.851,0,0,0-.848-.849h-6.08a4.672,4.672,0,0,0-7.974-3.3Z" transform="translate(-8.901 -9.358)" fill="none" stroke="#ccc" stroke-linecap="round" stroke-linejoin="round" stroke-width="2"/>
  </g>
</svg>
