<svg xmlns="http://www.w3.org/2000/svg" width="95.18" height="95.179" viewBox="0 0 95.18 95.179">
  <g id="icon" transform="translate(-60.309 -143.466)">
    <g id="Group_74" data-name="Group 74" transform="translate(61.309 144.466)">
      <path id="Path_538" data-name="Path 538" d="M107.9,144.466a46.59,46.59,0,1,1-46.591,46.59A46.592,46.592,0,0,1,107.9,144.466Z" transform="translate(-61.309 -144.466)" fill="none" stroke="#ccc" stroke-linecap="round" stroke-linejoin="round" stroke-width="2"/>
    </g>
    <path id="Path_539" data-name="Path 539" d="M109.817,180.823a6.171,6.171,0,1,0,12.342,0v-3.48a6.171,6.171,0,0,0-12.342,0Z" transform="translate(-8.147 -4.485)" fill="none" stroke="#ccc" stroke-linecap="round" stroke-linejoin="round" stroke-width="2"/>
    <path id="Path_540" data-name="Path 540" d="M110.27,197.329c1.541-1.872,3.372-3.342,5.794-3.342a7.083,7.083,0,0,1,4.622,2.123" transform="translate(-8.223 -8.317)" fill="none" stroke="#ccc" stroke-linecap="round" stroke-linejoin="round" stroke-width="2"/>
    <line id="Line_90" data-name="Line 90" y1="16.509" transform="translate(101.671 200.564)" fill="none" stroke="#ccc" stroke-linecap="round" stroke-linejoin="round" stroke-width="2"/>
    <line id="Line_91" data-name="Line 91" y2="16.509" transform="translate(114.013 200.564)" fill="none" stroke="#ccc" stroke-linecap="round" stroke-linejoin="round" stroke-width="2"/>
    <path id="Path_541" data-name="Path 541" d="M122.789,196.539s7.479,8.174,11.843,13l9.862,2.811a2.883,2.883,0,0,1,1.771,3.482c-.671,2.585-3.458,2.333-4.45,2.173-2.447-.394-8.636-2.231-8.636-2.231-1.964-1.518-8.843-6.464-8.843-6.464" transform="translate(-10.325 -8.745)" fill="none" stroke="#ccc" stroke-linecap="round" stroke-linejoin="round" stroke-width="2"/>
    <path id="Path_542" data-name="Path 542" d="M106.837,196.539s-7.479,8.174-11.843,13l-9.862,2.811a2.883,2.883,0,0,0-1.771,3.482c.671,2.585,3.458,2.333,4.45,2.173,2.447-.394,8.636-2.231,8.636-2.231,1.964-1.518,8.842-6.464,8.842-6.464" transform="translate(-3.684 -8.745)" fill="none" stroke="#ccc" stroke-linecap="round" stroke-linejoin="round" stroke-width="2"/>
    <path id="Path_543" data-name="Path 543" d="M127.214,229.8c4.674-.934,6.884-1.217,7.775,2.121s-.506,6.2-4.293,6.865-24.322,2.9-27.717,3.143c-2.6.187-4.718,1.874-5.388-1.141-.915-4.113,2.028-5.024,4.7-5.691S127.214,229.8,127.214,229.8Z" transform="translate(-6.065 -14.228)" fill="none" stroke="#ccc" stroke-linecap="round" stroke-linejoin="round" stroke-width="2"/>
    <path id="Path_544" data-name="Path 544" d="M117.194,242.784c4.985.543,9.462,1,10.894,1.1,2.6.187,4.718,1.874,5.388-1.141a3.35,3.35,0,0,0,.141-1.935" transform="translate(-9.385 -16.18)" fill="none" stroke="#ccc" stroke-linecap="round" stroke-linejoin="round" stroke-width="2"/>
    <path id="Path_545" data-name="Path 545" d="M112.913,232.592c-6.1-1.284-13.374-2.787-13.374-2.787-4.674-.934-6.884-1.217-7.775,2.121s.506,6.2,4.293,6.865c.181.032-.255-.038,0,0" transform="translate(-5.071 -14.228)" fill="none" stroke="#ccc" stroke-linecap="round" stroke-linejoin="round" stroke-width="2"/>
    <path id="Path_546" data-name="Path 546" d="M116.434,164.779v-5.135l4.163,2.568v-6.587" transform="translate(-9.258 -1.874)" fill="none" stroke="#ccc" stroke-linecap="round" stroke-linejoin="round" stroke-width="2"/>
    <path id="Path_547" data-name="Path 547" d="M124.588,168.044l3.61-3.653,1.156,4.752,4.63-4.685" transform="translate(-10.627 -3.346)" fill="none" stroke="#ccc" stroke-linecap="round" stroke-linejoin="round" stroke-width="2"/>
    <path id="Path_548" data-name="Path 548" d="M107.984,167.995l-3.61-3.653-1.156,4.752-4.63-4.685" transform="translate(-6.261 -3.338)" fill="none" stroke="#ccc" stroke-linecap="round" stroke-linejoin="round" stroke-width="2"/>
    <path id="Path_549" data-name="Path 549" d="M95.636,191.5c-1.709-1.752-4.8-2.454-7.944.944-3.147-3.4-6.236-2.7-7.944-.944a5.06,5.06,0,0,0-.46,6.052c1.295,1.806,8.4,8.388,8.4,8.388s7.11-6.582,8.4-8.388A5.061,5.061,0,0,0,95.636,191.5Z" transform="translate(-2.886 -7.654)" fill="none" stroke="#ccc" stroke-linecap="round" stroke-linejoin="round" stroke-width="2"/>
    <path id="Path_550" data-name="Path 550" d="M143.245,198.784a3.741,3.741,0,1,1,3.74,3.741A3.74,3.74,0,0,1,143.245,198.784Z" transform="translate(-13.761 -8.494)" fill="none" stroke="#ccc" stroke-linecap="round" stroke-linejoin="round" stroke-width="2"/>
    <path id="Path_551" data-name="Path 551" d="M154.781,195.143l-2.044-3.505a.465.465,0,0,0-.581-.195l-2.6,1.083a.465.465,0,0,1-.64-.364l-.388-2.751a.465.465,0,0,0-.461-.4h-4.239a.466.466,0,0,0-.461.4l-.387,2.751a.465.465,0,0,1-.64.364l-2.6-1.083a.466.466,0,0,0-.582.195l-2.044,3.505a.467.467,0,0,0,.069.559l1.847,1.9a.466.466,0,0,1-.018.667l-1.607,1.484a.465.465,0,0,0-.1.552l1.776,3.507a.465.465,0,0,0,.55.235l2.49-.751a.466.466,0,0,1,.585.327l.681,2.566a.466.466,0,0,0,.45.346h4.226a.465.465,0,0,0,.449-.346l.682-2.566a.466.466,0,0,1,.584-.327l2.49.751a.465.465,0,0,0,.55-.235l1.776-3.507a.465.465,0,0,0-.1-.552l-1.607-1.484a.466.466,0,0,1-.017-.667l1.847-1.9A.465.465,0,0,0,154.781,195.143Z" transform="translate(-12.719 -7.481)" fill="none" stroke="#ccc" stroke-linecap="round" stroke-linejoin="round" stroke-width="2"/>
  </g>
</svg>
