<svg xmlns="http://www.w3.org/2000/svg" width="95.18" height="95.18" viewBox="0 0 95.18 95.18">
  <g id="icon" transform="translate(1 1)">
    <g id="Group_51" data-name="Group 51" transform="translate(0 0)">
      <path id="Path_438" data-name="Path 438" d="M295.079,541.489a46.59,46.59,0,1,1-46.591,46.591A46.591,46.591,0,0,1,295.079,541.489Z" transform="translate(-248.488 -541.489)" fill="none" stroke="#ccc" stroke-linecap="round" stroke-linejoin="round" stroke-width="2"/>
    </g>
    <g id="Group_52" data-name="Group 52" transform="translate(13.687 21.56)">
      <path id="Path_439" data-name="Path 439" d="M299.255,586.168a4.12,4.12,0,1,0,8.24,0v-2.323a4.12,4.12,0,1,0-8.24,0Z" transform="translate(-270.7 -569.47)" fill="none" stroke="#ccc" stroke-linecap="round" stroke-linejoin="round" stroke-width="2"/>
      <path id="Path_440" data-name="Path 440" d="M299.557,597.623a5.085,5.085,0,0,1,3.868-2.231,4.732,4.732,0,0,1,3.087,1.418" transform="translate(-270.751 -572.101)" fill="none" stroke="#ccc" stroke-linecap="round" stroke-linejoin="round" stroke-width="2"/>
      <path id="Path_441" data-name="Path 441" d="M307.495,607.343V621.13h-8.24V607.343" transform="translate(-270.7 -574.108)" fill="none" stroke="#ccc" stroke-linecap="round" stroke-linejoin="round" stroke-width="2"/>
      <path id="Path_442" data-name="Path 442" d="M315.823,605.775c-2.915-3.222-7.907-8.679-7.907-8.679" transform="translate(-272.155 -572.387)" fill="none" stroke="#ccc" stroke-linecap="round" stroke-linejoin="round" stroke-width="2"/>
      <path id="Path_443" data-name="Path 443" d="M309.158,607.343s4.592,3.3,5.9,4.315" transform="translate(-272.363 -574.108)" fill="none" stroke="#ccc" stroke-linecap="round" stroke-linejoin="round" stroke-width="2"/>
      <path id="Path_444" data-name="Path 444" d="M291.39,605.435c2.915-3.222,7.529-8.339,7.529-8.339" transform="translate(-269.379 -572.387)" fill="none" stroke="#ccc" stroke-linecap="round" stroke-linejoin="round" stroke-width="2"/>
      <path id="Path_445" data-name="Path 445" d="M298.111,607.343s-4.063,3.3-5.375,4.315" transform="translate(-269.605 -574.108)" fill="none" stroke="#ccc" stroke-linecap="round" stroke-linejoin="round" stroke-width="2"/>
      <path id="Path_446" data-name="Path 446" d="M341.8,576.011a5.506,5.506,0,0,1-11.012,0v-3.1a5.506,5.506,0,1,1,11.012,0Z" transform="translate(-275.996 -567.4)" fill="none" stroke="#ccc" stroke-linecap="round" stroke-linejoin="round" stroke-width="2"/>
      <path id="Path_447" data-name="Path 447" d="M330.791,600v17.938H341.8V593.845a5.5,5.5,0,0,0-5.506-5.507c-2.286,0-4.023,1.476-5.412,3.331" transform="translate(-275.996 -570.916)" fill="none" stroke="#ccc" stroke-linecap="round" stroke-linejoin="round" stroke-width="2"/>
      <path id="Path_448" data-name="Path 448" d="M328.218,600.416s-6.86,6.634-8.623,8.153c-1.022.88-2.634,1.182-3.431.355-.776-.8-.408-1.764.194-2.658,1.015-1.509,12.919-15.2,12.919-15.2" transform="translate(-273.466 -571.374)" fill="none" stroke="#ccc" stroke-linecap="round" stroke-linejoin="round" stroke-width="2"/>
      <path id="Path_449" data-name="Path 449" d="M317.97,607.527" transform="translate(-273.843 -574.139)" fill="none" stroke="#ccc" stroke-linecap="round" stroke-linejoin="round" stroke-width="2"/>
      <path id="Path_450" data-name="Path 450" d="M330.791,602.355" transform="translate(-275.996 -573.27)" fill="none" stroke="#ccc" stroke-linecap="round" stroke-linejoin="round" stroke-width="2"/>
      <path id="Path_451" data-name="Path 451" d="M264.937,576.011a5.506,5.506,0,0,0,11.012,0v-3.1a5.506,5.506,0,1,0-11.012,0Z" transform="translate(-264.937 -567.4)" fill="none" stroke="#ccc" stroke-linecap="round" stroke-linejoin="round" stroke-width="2"/>
      <path id="Path_452" data-name="Path 452" d="M275.949,600v17.938H264.937V593.845a5.5,5.5,0,0,1,5.506-5.507c2.286,0,4.022,1.476,5.412,3.331" transform="translate(-264.937 -570.916)" fill="none" stroke="#ccc" stroke-linecap="round" stroke-linejoin="round" stroke-width="2"/>
      <path id="Path_453" data-name="Path 453" d="M278.009,600.416s6.86,6.634,8.623,8.153c1.022.88,2.633,1.182,3.431.355.775-.8.407-1.764-.195-2.658-1.015-1.509-12.919-15.2-12.919-15.2" transform="translate(-266.954 -571.374)" fill="none" stroke="#ccc" stroke-linecap="round" stroke-linejoin="round" stroke-width="2"/>
      <path id="Path_454" data-name="Path 454" d="M278.171,602.355" transform="translate(-267.159 -573.27)" fill="none" stroke="#ccc" stroke-linecap="round" stroke-linejoin="round" stroke-width="2"/>
      <path id="Path_455" data-name="Path 455" d="M309.8,606.905" transform="translate(-272.47 -574.034)" fill="none" stroke="#ccc" stroke-linecap="round" stroke-linejoin="round" stroke-width="2"/>
    </g>
  </g>
</svg>
