<svg xmlns="http://www.w3.org/2000/svg" width="95.18" height="95.18" viewBox="0 0 95.18 95.18">
  <g id="icon" transform="translate(-725.928 -534.577)">
    <g id="Group_99" data-name="Group 99" transform="translate(726.928 535.577)">
      <path id="Path_724" data-name="Path 724" d="M773.518,535.577a46.59,46.59,0,1,1-46.59,46.59A46.591,46.591,0,0,1,773.518,535.577Z" transform="translate(-726.928 -535.577)" fill="none" stroke="#ccc" stroke-linecap="round" stroke-linejoin="round" stroke-width="2"/>
    </g>
    <path id="Path_725" data-name="Path 725" d="M774.111,598.845l.074-10.813s-12.674-14.821-13.934-16.556c-1.238-1.7-.97-3.268.23-4.387,1.37-1.277,3.295-.459,4.79,1.036s9.094,11.645,11.115,13.234a9.317,9.317,0,0,0,5.171,1.683,7.57,7.57,0,0,0,4.954-1.741c1.208-1.116,9.156-11.15,10.27-12.687,1.065-1.469,3.25-2.276,4.542-1.257,1.312,1.037,1.776,2.415.7,3.906-1.3,1.808-13.459,17.445-13.459,17.445l-.249,6.451" transform="translate(-5.461 -5.186)" fill="none" stroke="#ccc" stroke-linecap="round" stroke-linejoin="round" stroke-width="2"/>
    <path id="Path_726" data-name="Path 726" d="M770.495,604.659a15.254,15.254,0,0,1,5.068.882c1.7.916,6.022,11.91,6.676,14.266a9.26,9.26,0,0,1,0,5.759c-.438,1.028-.785,1.964-3.926,1.048s-10.6-5.89-12.172-6.676-3.142-3.272-1.833-5.235,3.665-1.7,5.367-.919,8.376,4.845,8.376,4.845" transform="translate(-6.196 -11.602)" fill="none" stroke="#ccc" stroke-linecap="round" stroke-linejoin="round" stroke-width="2"/>
    <path id="Path_727" data-name="Path 727" d="M751.811,615.523s1.905-1.575,2.953-2.361a3.011,3.011,0,0,1,3.853.731,3.5,3.5,0,0,1-.757,4.871c-1.06.819-3.47,3.253-5.891,5.261-1.405,1.166-3.182,1.747-4.486.743-1.543-1.187-1.5-3.179-.255-5.173s6.984-12.771,9.692-13.518" transform="translate(-3.255 -11.84)" fill="none" stroke="#ccc" stroke-linecap="round" stroke-linejoin="round" stroke-width="2"/>
    <circle id="Ellipse_9" data-name="Ellipse 9" cx="6.8" cy="6.8" r="6.8" transform="translate(750.833 594.538) rotate(-80.783)" fill="none" stroke="#ccc" stroke-linecap="round" stroke-linejoin="round" stroke-width="2"/>
    <path id="Path_728" data-name="Path 728" d="M803.142,600.3a6.583,6.583,0,0,1,10.406,1.7" transform="translate(-12.8 -10.561)" fill="none" stroke="#ccc" stroke-linecap="round" stroke-linejoin="round" stroke-width="2"/>
    <path id="Path_729" data-name="Path 729" d="M812.824,610.412a6.8,6.8,0,0,1-5.724,3.127c-3.756,0-6.8-2.539-6.8-6.294" transform="translate(-12.322 -12.036)" fill="none" stroke="#ccc" stroke-linecap="round" stroke-linejoin="round" stroke-width="2"/>
    <path id="Path_730" data-name="Path 730" d="M779.448,574.755a5.47,5.47,0,1,1,5.47,5.469A5.47,5.47,0,0,1,779.448,574.755Z" transform="translate(-8.82 -5.661)" fill="none" stroke="#ccc" stroke-linecap="round" stroke-linejoin="round" stroke-width="2"/>
    <line id="Line_172" data-name="Line 172" x2="0.548" y2="9.225" transform="translate(771.064 614.627)" fill="none" stroke="#ccc" stroke-linecap="round" stroke-linejoin="round" stroke-width="2"/>
    <line id="Line_173" data-name="Line 173" x2="1.363" y2="15.711" transform="translate(753.217 608.14)" fill="none" stroke="#ccc" stroke-linecap="round" stroke-linejoin="round" stroke-width="2"/>
    <path id="Path_731" data-name="Path 731" d="M804.226,633.634l4.029-13.112s2.862,2.439,3.6,3.181a2.518,2.518,0,0,0,2.757.706,3.9,3.9,0,0,0,2.332-3.145c.212-1.59.251-17.637.146-19.121s.216-4.459-2.832-4.459c-2.744,0-3.563,2.191-3.484,4.588.048,1.484-.131,12.418-.131,12.418s-3.984-2.332-5.786-2.65a91.427,91.427,0,0,0-9.223-1.167c-.954.106.318-1.378.318-1.378.848-1.909,3.63-8.381,4.372-10.077s1.043-4.338-1.086-5.3c-1.643-.74-3.57-.169-4.837,2.5-.672,1.414-7.529,14.68-7.973,15.846s-.549,3.287.511,4.348,4.559.212,5.619,0l-3.71,16.823" transform="translate(-9.94 -9.782)" fill="none" stroke="#ccc" stroke-linecap="round" stroke-linejoin="round" stroke-width="2"/>
    <path id="Path_732" data-name="Path 732" d="M750.575,579.53l.8,5.316H746.31l2.408,4.649-4.694,1.142,2.286,3.9-3.9,2.555" transform="translate(-2.6 -7.382)" fill="none" stroke="#ccc" stroke-linecap="round" stroke-linejoin="round" stroke-width="2"/>
    <path id="Path_733" data-name="Path 733" d="M742,575.366l.8,5.316h-5.065l2.408,4.649-4.694,1.142,2.286,3.9-3.9,2.555" transform="translate(-1.16 -6.682)" fill="none" stroke="#ccc" stroke-linecap="round" stroke-linejoin="round" stroke-width="2"/>
    <line id="Line_174" data-name="Line 174" y1="6.578" x2="3.258" transform="translate(797.891 576.006)" fill="none" stroke="#ccc" stroke-linecap="round" stroke-linejoin="round" stroke-width="2"/>
    <line id="Line_175" data-name="Line 175" y1="4.132" x2="4.643" transform="translate(801.149 580.656)" fill="none" stroke="#ccc" stroke-linecap="round" stroke-linejoin="round" stroke-width="2"/>
    <line id="Line_176" data-name="Line 176" y1="6.715" transform="translate(793.805 576.006)" fill="none" stroke="#ccc" stroke-linecap="round" stroke-linejoin="round" stroke-width="2"/>
    <path id="Path_734" data-name="Path 734" d="M767.81,560.274l-8.365-10.507a.473.473,0,0,1,.526-.741l12.548,4.387a.473.473,0,0,0,.628-.468l-.608-12.861a.473.473,0,0,1,.864-.288l7.072,10.406a.473.473,0,0,0,.777.008l7.5-10.59a.473.473,0,0,1,.859.273v13.369a.473.473,0,0,0,.639.443l11.734-4.4a.473.473,0,0,1,.542.731l-7.578,9.9" transform="translate(-5.443 -0.645)" fill="none" stroke="#ccc" stroke-linecap="round" stroke-linejoin="round" stroke-width="2"/>
  </g>
</svg>
