<svg xmlns="http://www.w3.org/2000/svg" width="95.18" height="95.18" viewBox="0 0 95.18 95.18">
  <g id="icon" transform="translate(1 1)">
    <path id="Path_479" data-name="Path 479" d="M129.646,407.116c-3.1-3.174-8.691-4.444-14.391,1.709-5.7-6.153-11.3-4.883-14.391-1.709a9.168,9.168,0,0,0-.832,10.963c2.344,3.272,15.223,15.193,15.223,15.193s12.879-11.922,15.223-15.193A9.169,9.169,0,0,0,129.646,407.116Z" transform="translate(-81.069 -349.761)" fill="none" stroke="#ccc" stroke-linecap="round" stroke-linejoin="round" stroke-width="2"/>
    <path id="Path_480" data-name="Path 480" d="M159.461,407.116c-3.1-3.174-8.691-4.444-14.391,1.709-5.7-6.153-11.3-4.883-14.39-1.709a9.168,9.168,0,0,0-.833,10.963c2.344,3.272,15.223,15.193,15.223,15.193s12.879-11.922,15.223-15.193A9.166,9.166,0,0,0,159.461,407.116Z" transform="translate(-86.077 -349.761)" fill="none" stroke="#ccc" stroke-linecap="round" stroke-linejoin="round" stroke-width="2"/>
    <g id="Group_58" data-name="Group 58" transform="translate(0 0)">
      <path id="Path_481" data-name="Path 481" d="M124.123,338.719A46.59,46.59,0,1,1,77.532,385.31,46.591,46.591,0,0,1,124.123,338.719Z" transform="translate(-77.532 -338.719)" fill="none" stroke="#ccc" stroke-linecap="round" stroke-linejoin="round" stroke-width="2"/>
    </g>
    <path id="Path_482" data-name="Path 482" d="M122.153,376.235H145.3a3.894,3.894,0,0,0,3.883-3.883V357.481A3.9,3.9,0,0,0,145.3,353.6H113.834a3.9,3.9,0,0,0-3.882,3.883v14.871a3.894,3.894,0,0,0,3.882,3.883h2.717" transform="translate(-82.976 -341.218)" fill="none" stroke="#ccc" stroke-linecap="round" stroke-linejoin="round" stroke-width="2.32"/>
    <path id="Path_483" data-name="Path 483" d="M147.472,388.156a3.453,3.453,0,1,0-3.452,3.452A3.453,3.453,0,0,0,147.472,388.156Z" transform="translate(-88.118 -346.441)" fill="none" stroke="#ccc" stroke-linecap="round" stroke-linejoin="round" stroke-width="2"/>
    <path id="Path_484" data-name="Path 484" d="M149.76,399.662a1.9,1.9,0,1,0-2.351,1.311A1.9,1.9,0,0,0,149.76,399.662Z" transform="translate(-89.034 -348.546)" fill="none" stroke="#ccc" stroke-linecap="round" stroke-linejoin="round" stroke-width="2"/>
    <path id="Path_485" data-name="Path 485" d="M117.625,388.156a3.453,3.453,0,1,1,3.453,3.452A3.453,3.453,0,0,1,117.625,388.156Z" transform="translate(-84.265 -346.441)" fill="none" stroke="#ccc" stroke-linecap="round" stroke-linejoin="round" stroke-width="2"/>
    <path id="Path_486" data-name="Path 486" d="M115.962,399.662a1.9,1.9,0,1,1,2.352,1.311A1.905,1.905,0,0,1,115.962,399.662Z" transform="translate(-83.974 -348.546)" fill="none" stroke="#ccc" stroke-linecap="round" stroke-linejoin="round" stroke-width="2"/>
    <circle id="Ellipse_7" data-name="Ellipse 7" cx="6.161" cy="6.161" r="6.161" transform="translate(34.308 25.378) rotate(-45)" fill="none" stroke="#ccc" stroke-linecap="round" stroke-linejoin="round" stroke-width="2.32"/>
    <circle id="Ellipse_8" data-name="Ellipse 8" cx="6.161" cy="6.161" r="6.161" transform="translate(41.446 22.019) rotate(-45)" fill="none" stroke="#ccc" stroke-linecap="round" stroke-linejoin="round" stroke-width="2.32"/>
  </g>
</svg>
