<svg xmlns="http://www.w3.org/2000/svg" width="95.182" height="95.18" viewBox="0 0 95.182 95.18">
  <g id="icon" transform="translate(-69.504 -134.914)">
    <g id="Group_87" data-name="Group 87" transform="translate(70.504 135.914)">
      <path id="Path_638" data-name="Path 638" d="M117.1,135.914A46.59,46.59,0,1,1,70.5,182.505,46.592,46.592,0,0,1,117.1,135.914Z" transform="translate(-70.504 -135.914)" fill="none" stroke="#ccc" stroke-linecap="round" stroke-linejoin="round" stroke-width="2"/>
    </g>
    <path id="Path_639" data-name="Path 639" d="M88.466,214.07l11.883-20.331a1.286,1.286,0,0,1,2.02-.26l3.723,3.723a.975.975,0,0,0,1.511-.165l12.752-20a1.091,1.091,0,0,1,1.81-.043l6.541,9.243a1.2,1.2,0,0,0,1.9.076l2.469-2.959a.923.923,0,0,1,1.494.1l18.96,30.629a1.352,1.352,0,0,1-1.15,2.064H89.661A1.384,1.384,0,0,1,88.466,214.07Z" transform="translate(-2.984 -6.821)" fill="none" stroke="#ccc" stroke-linecap="round" stroke-linejoin="round" stroke-width="2"/>
    <path id="Path_640" data-name="Path 640" d="M127.611,171.852V151.826" transform="translate(-9.59 -2.672)" fill="none" stroke="#ccc" stroke-linecap="round" stroke-linejoin="round" stroke-width="2"/>
    <path id="Path_641" data-name="Path 641" d="M123.895,151.826H105.573l6.5,6.5-6.6,6.6h18.415" transform="translate(-5.873 -2.672)" fill="none" stroke="#ccc" stroke-linecap="round" stroke-linejoin="round" stroke-width="2"/>
    <path id="Path_642" data-name="Path 642" d="M118.8,189.495l4.661,4.2a.743.743,0,0,0,1.115-.137l2.2-3.273a.744.744,0,0,1,1.172-.082l3.014,3.366a.744.744,0,0,0,1.165-.072l3.614-5.212" transform="translate(-8.11 -8.795)" fill="none" stroke="#ccc" stroke-linecap="round" stroke-linejoin="round" stroke-width="2"/>
  </g>
</svg>
