<svg xmlns="http://www.w3.org/2000/svg" width="95.181" height="95.181" viewBox="0 0 95.181 95.181">
  <g id="icon" transform="translate(1 1)">
    <path id="Path_461" data-name="Path 461" d="M476.88,972.318c-1.795-1.8-5.012-2.5-8.243,1.068-3.307-3.495-6.508-2.732-8.264-.892a5.256,5.256,0,0,0-.41,6.293c1.365,1.862,8.824,8.622,8.824,8.622s7.314-6.918,8.638-8.808A5.257,5.257,0,0,0,476.88,972.318Z" transform="translate(-421.869 -953.725)" fill="none" stroke="#ccc" stroke-linecap="round" stroke-linejoin="round" stroke-width="2"/>
    <g id="Group_55" data-name="Group 55" transform="translate(17.81 36.858)">
      <path id="Path_462" data-name="Path 462" d="M460.473,1027.26a15,15,0,1,1,.566-27.378,18.758,18.758,0,0,1,3.492-2.49c-.136-.084-.261-.18-.4-.26a18.877,18.877,0,1,0-.289,32.777" transform="translate(-435.757 -994.568)" fill="none" stroke="#ccc" stroke-linecap="round" stroke-linejoin="round" stroke-width="2"/>
      <path id="Path_463" data-name="Path 463" d="M473.588,1000.144a15,15,0,1,1-.575,27.349,18.749,18.749,0,0,1-3.5,2.5c.136.084.26.18.4.26a18.877,18.877,0,1,0,.289-32.777" transform="translate(-441.426 -994.651)" fill="none" stroke="#ccc" stroke-linecap="round" stroke-linejoin="round" stroke-width="2"/>
      <path id="Path_464" data-name="Path 464" d="M473.037,1028.518a18.861,18.861,0,0,0,.575-27.349,14.959,14.959,0,0,0-3.458,2.048,14.978,14.978,0,0,1-.5,23.093" transform="translate(-441.449 -995.677)" fill="none" stroke="#ccc" stroke-linecap="round" stroke-linejoin="round" stroke-width="2"/>
      <path id="Path_465" data-name="Path 465" d="M464.894,1000.954a18.86,18.86,0,0,0-.566,27.378,14.991,14.991,0,0,0,3.486-2.059,14.976,14.976,0,0,1,.5-23.093" transform="translate(-439.613 -995.64)" fill="none" stroke="#ccc" stroke-linecap="round" stroke-linejoin="round" stroke-width="2"/>
    </g>
    <g id="Group_56" data-name="Group 56" transform="translate(0 0)">
      <path id="Path_466" data-name="Path 466" d="M460.944,950.271a46.59,46.59,0,1,1-46.591,46.591A46.592,46.592,0,0,1,460.944,950.271Z" transform="translate(-414.353 -950.271)" fill="none" stroke="#ccc" stroke-linecap="round" stroke-linejoin="round" stroke-width="2"/>
    </g>
  </g>
</svg>
