<svg xmlns="http://www.w3.org/2000/svg" width="95.18" height="95.18" viewBox="0 0 95.18 95.18">
  <g id="icon" transform="translate(1 1)">
    <g id="Group_48" data-name="Group 48" transform="translate(0 0)">
      <path id="Path_428" data-name="Path 428" d="M293.335,335.749a46.59,46.59,0,1,1-46.591,46.591A46.591,46.591,0,0,1,293.335,335.749Z" transform="translate(-246.744 -335.749)" fill="none" stroke="#ccc" stroke-linecap="round" stroke-linejoin="round" stroke-width="2"/>
    </g>
    <g id="Group_50" data-name="Group 50" transform="translate(14.973 15.275)">
      <g id="Group_49" data-name="Group 49" transform="translate(0 6.988)">
        <path id="Path_429" data-name="Path 429" d="M312.333,402.176a21.8,21.8,0,0,0,12.341-19.354,20.509,20.509,0,0,0-20.8-20.317c-8.3,0-15.814,5.411-19.087,12.479l4.83.038c3.555-4.868,6.839-7.65,13.867-8.133,9.139-.627,17.007,7.436,16.588,16.588-.319,6.961-3.309,10.4-7.891,13.954Z" transform="translate(-268.106 -362.505)" fill="none" stroke="#ccc" stroke-linecap="round" stroke-linejoin="round" stroke-width="2"/>
        <path id="Path_430" data-name="Path 430" d="M277.892,387.843a16.93,16.93,0,0,0-8.693,14.439,16.668,16.668,0,0,0,16.817,16.451c6.285,0,11.194-3.65,14.007-8.8l4.774-.016a20.518,20.518,0,0,1-19.2,13.123A21.08,21.08,0,0,1,264.739,402.1a20.567,20.567,0,0,1,13.108-18.97Z" transform="translate(-264.739 -365.969)" fill="none" stroke="#ccc" stroke-linecap="round" stroke-linejoin="round" stroke-width="2"/>
        <path id="Path_431" data-name="Path 431" d="M310.914,397.115a21.171,21.171,0,0,0-14.906-14.947l.024,4.547a15.441,15.441,0,0,1,10.264,10.4Z" transform="translate(-269.99 -365.807)" fill="none" stroke="#ccc" stroke-linecap="round" stroke-linejoin="round" stroke-width="2"/>
        <path id="Path_432" data-name="Path 432" d="M283.622,393.473a20.67,20.67,0,0,0,14.946,14.9l.182-4.609A16.44,16.44,0,0,1,288.1,393Z" transform="translate(-267.91 -367.626)" fill="none" stroke="#ccc" stroke-linecap="round" stroke-linejoin="round" stroke-width="2"/>
      </g>
      <path id="Path_433" data-name="Path 433" d="M278.62,384.134" transform="translate(-267.07 -359.149)" fill="none" stroke="#ccc" stroke-linecap="round" stroke-linejoin="round" stroke-width="2"/>
      <path id="Path_434" data-name="Path 434" d="M278.62,384.134" transform="translate(-267.07 -359.149)" fill="none" stroke="#ccc" stroke-linecap="round" stroke-linejoin="round" stroke-width="2"/>
      <line id="Line_53" data-name="Line 53" x2="3.581" y2="3.581" transform="translate(49.256 55.357)" fill="none" stroke="#ccc" stroke-linecap="round" stroke-linejoin="round" stroke-width="2"/>
      <line id="Line_54" data-name="Line 54" x2="4.976" transform="translate(52.506 47.819)" fill="none" stroke="#ccc" stroke-linecap="round" stroke-linejoin="round" stroke-width="2"/>
      <line id="Line_55" data-name="Line 55" y2="4.825" transform="translate(41.793 58.468)" fill="none" stroke="#ccc" stroke-linecap="round" stroke-linejoin="round" stroke-width="2"/>
      <line id="Line_56" data-name="Line 56" x1="3.581" y1="3.581" transform="translate(4.491 10.577)" fill="none" stroke="#ccc" stroke-linecap="round" stroke-linejoin="round" stroke-width="2"/>
      <line id="Line_57" data-name="Line 57" x1="4.976" transform="translate(0 21.667)" fill="none" stroke="#ccc" stroke-linecap="round" stroke-linejoin="round" stroke-width="2"/>
      <line id="Line_58" data-name="Line 58" y1="4.825" transform="translate(15.581 6.132)" fill="none" stroke="#ccc" stroke-linecap="round" stroke-linejoin="round" stroke-width="2"/>
      <path id="Path_435" data-name="Path 435" d="M327.225,369.862l10.166-2.653.452-5.616-7.529-7.485-5.545.607-3.012,9.861" transform="translate(-274.314 -354.107)" fill="none" stroke="#ccc" stroke-linecap="round" stroke-linejoin="round" stroke-width="2"/>
      <line id="Line_59" data-name="Line 59" x2="12.621" y2="12.495" transform="translate(50.455 0.607)" fill="none" stroke="#ccc" stroke-linecap="round" stroke-linejoin="round" stroke-width="2"/>
      <path id="Path_436" data-name="Path 436" d="M336.232,360.285l-1.7,3.845-7.906,4.986" transform="translate(-275.132 -355.144)" fill="none" stroke="#ccc" stroke-linecap="round" stroke-linejoin="round" stroke-width="2"/>
      <path id="Path_437" data-name="Path 437" d="M332.876,356.9l-3.854,1.948-4.285,7.1" transform="translate(-274.815 -354.576)" fill="none" stroke="#ccc" stroke-linecap="round" stroke-linejoin="round" stroke-width="2"/>
    </g>
  </g>
</svg>
