<svg xmlns="http://www.w3.org/2000/svg" width="95.181" height="95.18" viewBox="0 0 95.181 95.18">
  <g id="icon" transform="translate(1 1)">
    <g id="Group_46" data-name="Group 46" transform="translate(0 0)">
      <path id="Path_417" data-name="Path 417" d="M461.189,141.933A46.59,46.59,0,1,1,414.6,188.524,46.592,46.592,0,0,1,461.189,141.933Z" transform="translate(-414.598 -141.933)" fill="none" stroke="#ccc" stroke-linecap="round" stroke-linejoin="round" stroke-width="2"/>
    </g>
    <g id="Group_47" data-name="Group 47" transform="translate(0.521 28.749)">
      <path id="Path_418" data-name="Path 418" d="M433.668,200.287s1.725,7.147,2.649,9.366,2.208,2.46,3.02,2.1c1.1-.5.924-1.294.924-1.294s-4.19-19.472-4.56-19.842c0,0-1.656-1.068-5.64-1.136h-1.943c-3.984.068-5.639,1.136-5.639,1.136-.37.37-4.561,19.842-4.561,19.842s-.18.8.924,1.294c.811.364,2.1.123,3.02-2.1s2.649-9.366,2.649-9.366" transform="translate(-415.675 -178.666)" fill="none" stroke="#ccc" stroke-linecap="round" stroke-linejoin="round" stroke-width="1.568"/>
      <path id="Path_419" data-name="Path 419" d="M432.759,234.688s-1.306-22.013-.751-22.383a4.78,4.78,0,0,1,2.773-.8c1.355,0,2.526.8,2.526,1.786V234.9s.272,2.394-1.636,2.23" transform="translate(-418.019 -182.365)" fill="none" stroke="#ccc" stroke-linecap="round" stroke-linejoin="round" stroke-width="1.568"/>
      <path id="Path_420" data-name="Path 420" d="M425,227.444s-.711-13.167-.711-14.153,1.171-1.786,2.527-1.786a4.779,4.779,0,0,1,2.772.8c.555.37-.354,20.246-.354,20.246" transform="translate(-416.747 -182.365)" fill="none" stroke="#ccc" stroke-linecap="round" stroke-linejoin="round" stroke-width="1.568"/>
      <ellipse id="Ellipse_4" data-name="Ellipse 4" cx="4.236" cy="4.236" rx="4.236" ry="4.236" transform="translate(9.18)" fill="none" stroke="#ccc" stroke-linecap="round" stroke-linejoin="round" stroke-width="1.568"/>
      <path id="Path_421" data-name="Path 421" d="M455.531,200.287s-1.726,7.147-2.649,9.366-2.209,2.46-3.02,2.1c-1.105-.5-.924-1.294-.924-1.294s4.293-18.83,4.663-19.2c0,0,1.553-1.71,5.537-1.778h1.942c3.985.068,5.337,1.252,5.337,1.252.37.37,5.3,13.849,5.3,13.849s.181.8-.924,1.294c-.811.364-2.1.123-3.02-2.1a25.978,25.978,0,0,1-1.2-3.337l-.592,9.153" transform="translate(-420.884 -178.666)" fill="none" stroke="#ccc" stroke-linecap="round" stroke-linejoin="round" stroke-width="1.568"/>
      <path id="Path_422" data-name="Path 422" d="M468.323,234.027v-19.9c0-.986,0-3.5-2.719-3.5-3.182,0-2.675,2.7-2.718,3.318-.046.665.88,20.077.88,20.077s-.122,1.785,2.237,1.785C468.4,235.812,468.323,234.027,468.323,234.027Z" transform="translate(-423.227 -182.219)" fill="none" stroke="#ccc" stroke-linecap="round" stroke-linejoin="round" stroke-width="1.568"/>
      <path id="Path_423" data-name="Path 423" d="M490.546,216.96H488.98c-.192.968-4.677,17.374-4.677,17.374s-.272,1.765-2.624,1.3c-2.313-.46-1.846-2.187-1.846-2.187s3.433-18.949,3.608-19.593a4.6,4.6,0,0,1,1.137-2.266c1.38-1.466,5.438-.972,5.438-.972" transform="translate(-426.067 -182.203)" fill="none" stroke="#ccc" stroke-linecap="round" stroke-linejoin="round" stroke-width="1.568"/>
      <path id="Path_424" data-name="Path 424" d="M460.338,234.027v-19.9c0-.986,0-3.5-2.719-3.5-3.182,0-2.675,2.7-2.717,3.318-.047.665.879,20.077.879,20.077s-.121,1.785,2.237,1.785C460.416,235.812,460.338,234.027,460.338,234.027Z" transform="translate(-421.886 -182.219)" fill="none" stroke="#ccc" stroke-linecap="round" stroke-linejoin="round" stroke-width="1.568"/>
      <ellipse id="Ellipse_5" data-name="Ellipse 5" cx="4.236" cy="4.236" rx="4.236" ry="4.236" transform="translate(34.989)" fill="none" stroke="#ccc" stroke-linecap="round" stroke-linejoin="round" stroke-width="1.568"/>
      <ellipse id="Ellipse_6" data-name="Ellipse 6" cx="4.236" cy="4.236" rx="4.236" ry="4.236" transform="translate(75.032)" fill="none" stroke="#ccc" stroke-linecap="round" stroke-linejoin="round" stroke-width="1.568"/>
      <path id="Path_425" data-name="Path 425" d="M502.428,200.844s1.008-4.079,1.821-7.215,2.184-3.332,3.93-3.131c2.921.337,4.029,1.534,3.507,4.868-.721,4.6-2.34,11.507-2.34,11.507l-12.626-2.008a2.05,2.05,0,0,1-.85-2.471c.553-1.738,3.016-.984,3.016-.984l7.395,1.083,1.559-6.548" transform="translate(-428.746 -178.828)" fill="none" stroke="#ccc" stroke-linecap="round" stroke-linejoin="round" stroke-width="1.568"/>
      <path id="Path_426" data-name="Path 426" d="M518.084,211.991V190.28s-.6-1.8-3.944,0-5.481,16.431-5.481,16.431h-13.6s-2.739,0-3.233,2.015c-.648,2.648.711,2.747,1.074,3.328.84,1.345.483,17.117.483,17.117h13.966" transform="translate(-428.059 -178.666)" fill="none" stroke="#ccc" stroke-linecap="round" stroke-linejoin="round" stroke-width="1.568"/>
      <path id="Path_427" data-name="Path 427" d="M415.224,189.476h52.305v16.6a1.758,1.758,0,0,1,1.944.924c.877,1.6-.921,2.915-1.578,3.77s-.161,18.912-.161,18.912h-7.167" transform="translate(-415.224 -178.666)" fill="none" stroke="#ccc" stroke-linecap="round" stroke-linejoin="round" stroke-width="1.568"/>
      <line id="Line_50" data-name="Line 50" x1="14.289" transform="translate(19.567 51.015)" fill="none" stroke="#ccc" stroke-linecap="round" stroke-linejoin="round" stroke-width="1.568"/>
      <line id="Line_51" data-name="Line 51" x1="13.793" transform="translate(19.287 33.852)" fill="none" stroke="#ccc" stroke-linecap="round" stroke-linejoin="round" stroke-width="1.568"/>
      <line id="Line_52" data-name="Line 52" x1="6.731" transform="translate(45.574 27.41)" fill="none" stroke="#ccc" stroke-linecap="round" stroke-linejoin="round" stroke-width="1.568"/>
    </g>
  </g>
</svg>
