<svg xmlns="http://www.w3.org/2000/svg" width="113.986" height="113.987" viewBox="0 0 113.986 113.987">
  <g id="icon" transform="translate(-429.793 -784.036)">
    <path id="Path_9" data-name="Path 9" d="M502.51,821.818a9.708,9.708,0,0,0,.453,2.831,16.632,16.632,0,0,0,2.092,3.714,7.121,7.121,0,0,1-6.336-2.609,7.589,7.589,0,0,1-1.484-3.936" fill="none" stroke="#ccc" stroke-linecap="round" stroke-linejoin="round" stroke-width="2"/>
    <g id="Group_6" data-name="Group 6">
      <path id="Path_10" data-name="Path 10" d="M486.787,785.036a55.993,55.993,0,1,1-55.994,55.995A56,56,0,0,1,486.787,785.036Z" fill="none" stroke="#ccc" stroke-linecap="round" stroke-linejoin="round" stroke-width="2"/>
    </g>
    <path id="Path_11" data-name="Path 11" d="M497.235,821.818H471.68a5.806,5.806,0,0,1-5.789-5.79V801.135a5.806,5.806,0,0,1,5.789-5.789h30.83a5.806,5.806,0,0,1,5.788,5.789v14.893a5.807,5.807,0,0,1-5.788,5.79" fill="none" stroke="#ccc" stroke-linecap="round" stroke-linejoin="round" stroke-width="2"/>
    <path id="Path_12" data-name="Path 12" d="M525.56,832.193a6.737,6.737,0,1,1-13.475,0v-3.8a6.737,6.737,0,1,1,13.475,0Z" fill="none" stroke="#ccc" stroke-linecap="round" stroke-linejoin="round" stroke-width="2"/>
    <path id="Path_13" data-name="Path 13" d="M448.632,832.193a6.737,6.737,0,1,0,13.474,0v-3.8a6.737,6.737,0,1,0-13.474,0Z" fill="none" stroke="#ccc" stroke-linecap="round" stroke-linejoin="round" stroke-width="2"/>
    <path id="Path_14" data-name="Path 14" d="M470.019,885.485v-11.65h-14.65a6.735,6.735,0,0,1-6.737-6.736V849.713a6.737,6.737,0,1,1,13.474,0v14.648h9.651a6.737,6.737,0,0,1,6.737,6.737v14.387" fill="none" stroke="#ccc" stroke-linecap="round" stroke-linejoin="round" stroke-width="2"/>
    <path id="Path_15" data-name="Path 15" d="M470.019,885.485a4.207,4.207,0,0,0,4.208,4.208,4.259,4.259,0,0,0,4.267-4.208" fill="none" stroke="#ccc" stroke-linecap="round" stroke-linejoin="round" stroke-width="2"/>
    <path id="Path_16" data-name="Path 16" d="M504.172,885.485v-11.65h14.65a6.736,6.736,0,0,0,6.738-6.736V849.713a6.737,6.737,0,1,0-13.475,0v14.648h-9.65A6.737,6.737,0,0,0,495.7,871.1v14.387" fill="none" stroke="#ccc" stroke-linecap="round" stroke-linejoin="round" stroke-width="2"/>
    <path id="Path_17" data-name="Path 17" d="M504.172,885.485a4.207,4.207,0,0,1-4.208,4.208,4.26,4.26,0,0,1-4.267-4.208" fill="none" stroke="#ccc" stroke-linecap="round" stroke-linejoin="round" stroke-width="2"/>
  </g>
</svg>
