<svg xmlns="http://www.w3.org/2000/svg" width="95.178" height="95.178" viewBox="0 0 95.178 95.178">
  <g id="icon" transform="translate(-74.697 -340.98)">
    <g id="Group_68" data-name="Group 68" transform="translate(75.697 341.98)">
      <path id="Path_504" data-name="Path 504" d="M122.287,341.98a46.589,46.589,0,1,1-46.59,46.59A46.59,46.59,0,0,1,122.287,341.98Z" transform="translate(-75.697 -341.98)" fill="none" stroke="#ccc" stroke-linecap="round" stroke-linejoin="round" stroke-width="2"/>
    </g>
    <path id="Path_505" data-name="Path 505" d="M136.227,406.261a5.672,5.672,0,0,1-11.343,0v-3.2a5.672,5.672,0,1,1,11.343,0Z" transform="translate(-8.261 -9.307)" fill="none" stroke="#ccc" stroke-linecap="round" stroke-linejoin="round" stroke-width="2"/>
    <path id="Path_506" data-name="Path 506" d="M134.957,421.747V437h-12.5v-14.96a3.192,3.192,0,0,0-1-2.317l-11.035-8.133,6.151-19.6a2.979,2.979,0,0,1,3.1-1.561c1.025.3,1.736,1.132,1.407,2.833l-4.1,15.987,6.512,4.174a12.965,12.965,0,0,0,1.885.931,10.824,10.824,0,0,0,2.752.566,10.183,10.183,0,0,0,2.61-.026" transform="translate(-5.832 -8.13)" fill="none" stroke="#ccc" stroke-linecap="round" stroke-linejoin="round" stroke-width="2"/>
    <path id="Path_507" data-name="Path 507" d="M139.058,421.907a3.19,3.19,0,0,1,1-2.318l9.064-7.247-5.115-19.925c-.63-1.98-1.826-2.474-3.205-1.98a2.318,2.318,0,0,0-1.525,2.837l3.53,16.717-6.093,4.085a7.9,7.9,0,0,1-1.875.8" transform="translate(-9.933 -8.109)" fill="none" stroke="#ccc" stroke-linecap="round" stroke-linejoin="round" stroke-width="2"/>
    <path id="Path_508" data-name="Path 508" d="M131.6,354.105l-3.418,11.1,4.089-.795-1.465,12.416,7.645-16.152-4.386.765,2.875-8.367Z" transform="translate(-8.815 -1.862)" fill="none" stroke="#ccc" stroke-linecap="round" stroke-linejoin="round" stroke-width="2"/>
    <path id="Path_509" data-name="Path 509" d="M153.546,360.7l-9.227,7.048,3.79,1.728-8.4,9.256,15.6-8.708L151.3,368.1l7.2-5.142Z" transform="translate(-10.751 -3.144)" fill="none" stroke="#ccc" stroke-linecap="round" stroke-linejoin="round" stroke-width="2"/>
    <path id="Path_510" data-name="Path 510" d="M111.319,358.33l7.7,8.686-4.051.969,6.473,10.7L107.8,367.141l4.309-1.119-6.081-6.427Z" transform="translate(-5.094 -2.746)" fill="none" stroke="#ccc" stroke-linecap="round" stroke-linejoin="round" stroke-width="2"/>
  </g>
</svg>
