<svg xmlns="http://www.w3.org/2000/svg" width="95.18" height="95.18" viewBox="0 0 95.18 95.18">
  <g id="icon" transform="translate(-81.079 -523.645)">
    <g id="Group_92" data-name="Group 92" transform="translate(82.079 524.645)">
      <path id="Path_673" data-name="Path 673" d="M128.67,524.645a46.59,46.59,0,1,1-46.591,46.591A46.592,46.592,0,0,1,128.67,524.645Z" transform="translate(-82.079 -524.645)" fill="none" stroke="#ccc" stroke-linecap="round" stroke-linejoin="round" stroke-width="2"/>
    </g>
    <path id="Path_674" data-name="Path 674" d="M153.56,580.657c-1.892-1.209-9.148-6.3-9.148-6.3v12.429" transform="translate(-10.468 -8.349)" fill="none" stroke="#ccc" stroke-linecap="round" stroke-linejoin="round" stroke-width="2"/>
    <path id="Path_675" data-name="Path 675" d="M119.747,581.215c1.892-1.208,10.516-6.855,10.516-6.855v12.429" transform="translate(-6.326 -8.349)" fill="none" stroke="#ccc" stroke-linecap="round" stroke-linejoin="round" stroke-width="2"/>
    <path id="Path_676" data-name="Path 676" d="M118.542,576.134c2.917-2.277,9.758-8.454,11.3-8.894,1.33-.379,1.513-.3,4.782-.278h.884c3.269-.019,3.452-.1,4.782.278,1.54.44,7.955,6.278,10.872,8.556" transform="translate(-6.123 -7.103)" fill="none" stroke="#ccc" stroke-linecap="round" stroke-linejoin="round" stroke-width="2"/>
    <path id="Path_677" data-name="Path 677" d="M133.7,559.4a3.9,3.9,0,1,1,3.9,3.9A3.9,3.9,0,0,1,133.7,559.4Z" transform="translate(-8.669 -5.182)" fill="none" stroke="#ccc" stroke-linecap="round" stroke-linejoin="round" stroke-width="2"/>
    <path id="Path_678" data-name="Path 678" d="M143.409,606.287s-.007-15.654-.007-16.52,0-3.071-2.5-3.071c-2.927,0-2.461,2.373-2.5,2.914-.042.583.215,16.679.215,16.679s.057,2.5,2.282,2.5A2.45,2.45,0,0,0,143.409,606.287Z" transform="translate(-9.457 -10.421)" fill="none" stroke="#ccc" stroke-linecap="round" stroke-linejoin="round" stroke-width="2"/>
    <path id="Path_679" data-name="Path 679" d="M137.382,606.287s-.007-15.654-.007-16.52,0-3.071-2.5-3.071c-2.927,0-2.46,2.373-2.5,2.914-.042.583.215,16.679.215,16.679s.057,2.5,2.282,2.5A2.451,2.451,0,0,0,137.382,606.287Z" transform="translate(-8.445 -10.421)" fill="none" stroke="#ccc" stroke-linecap="round" stroke-linejoin="round" stroke-width="2"/>
    <path id="Path_680" data-name="Path 680" d="M167.249,560.265a3.9,3.9,0,1,1,4.5,3.183A3.9,3.9,0,0,1,167.249,560.265Z" transform="translate(-14.293 -5.217)" fill="none" stroke="#ccc" stroke-linecap="round" stroke-linejoin="round" stroke-width="2"/>
    <path id="Path_681" data-name="Path 681" d="M166.765,569.581s-9.229,6.909-10.465,7.716c-1.115.729-1.427,1.783-.939,2.558.542.861,1.563.924,2.752.218,1.445-.858,13.345-6.788,13.345-6.788" transform="translate(-12.269 -7.546)" fill="none" stroke="#ccc" stroke-linecap="round" stroke-linejoin="round" stroke-width="2"/>
    <path id="Path_682" data-name="Path 682" d="M167,569.2c.468-.243,2.507-1.666,4-1.837,2.688-.309,4.106.522,4.615,3.585.7,4.228,1.148,9.886,1.148,9.886s.236,2.365.216,4.494a4.072,4.072,0,0,1-2.47,3.728,8.138,8.138,0,0,1-.929.316,6.545,6.545,0,0,1-1.734.219l-9.837.013c-.024.907-.559,13.672-.559,13.672s.2,2.1-2.381,2.1c-2.547,0-2.533-1.811-2.533-1.811s.171-14.671.23-15.281c0,0-.084-2.583,1.777-3.38a14.222,14.222,0,0,1,4.253-.582l5.662-.057V582.77s-.125-4.428-.172-8.157" transform="translate(-12.504 -7.163)" fill="none" stroke="#ccc" stroke-linecap="round" stroke-linejoin="round" stroke-width="2"/>
    <path id="Path_683" data-name="Path 683" d="M107.322,560.265a3.9,3.9,0,1,0-4.5,3.183A3.9,3.9,0,0,0,107.322,560.265Z" transform="translate(-2.94 -5.217)" fill="none" stroke="#ccc" stroke-linecap="round" stroke-linejoin="round" stroke-width="2"/>
    <path id="Path_684" data-name="Path 684" d="M114.737,580.82c-1.444-.858-13.344-6.788-13.344-6.788" transform="translate(-3.244 -8.294)" fill="none" stroke="#ccc" stroke-linecap="round" stroke-linejoin="round" stroke-width="2"/>
    <path id="Path_685" data-name="Path 685" d="M107.031,569.581s8.342,6.189,9.578,7" transform="translate(-4.19 -7.546)" fill="none" stroke="#ccc" stroke-linecap="round" stroke-linejoin="round" stroke-width="2"/>
    <path id="Path_686" data-name="Path 686" d="M105.017,569.2c-.468-.243-2.507-1.666-4-1.837-2.688-.309-4.106.522-4.615,3.585-.7,4.228-1.148,9.886-1.148,9.886s-.236,2.365-.216,4.494a4.071,4.071,0,0,0,2.47,3.728,8.12,8.12,0,0,0,.928.316,6.555,6.555,0,0,0,1.735.219l9.837.013c.024.907.559,13.672.559,13.672s-.2,2.1,2.381,2.1c2.546,0,2.532-1.811,2.532-1.811s-.171-14.671-.23-15.281c0,0,.085-2.583-1.776-3.38a14.222,14.222,0,0,0-4.253-.582l-5.662-.057V582.77s.125-4.428.171-8.157" transform="translate(-2.177 -7.163)" fill="none" stroke="#ccc" stroke-linecap="round" stroke-linejoin="round" stroke-width="2"/>
    <path id="Path_687" data-name="Path 687" d="M120.3,581.183c-1.4,1.066-2.254.89-2.975.3-.749-.612-.846-2.052.925-3.5" transform="translate(-5.834 -8.958)" fill="none" stroke="#ccc" stroke-linecap="round" stroke-linejoin="round" stroke-width="2"/>
  </g>
</svg>
