<svg xmlns="http://www.w3.org/2000/svg" width="95.181" height="95.181" viewBox="0 0 95.181 95.181">
  <g id="icon" transform="translate(1 1)">
    <g id="Group_59" data-name="Group 59" transform="translate(0)">
      <path id="Path_487" data-name="Path 487" d="M475.032,533.416a46.59,46.59,0,1,1-46.592,46.591A46.592,46.592,0,0,1,475.032,533.416Z" transform="translate(-428.44 -533.416)" fill="none" stroke="#ccc" stroke-linecap="round" stroke-linejoin="round" stroke-width="2"/>
    </g>
    <g id="Group_60" data-name="Group 60" transform="translate(18.761 11.127)">
      <path id="Path_488" data-name="Path 488" d="M490,553.093H490a6.47,6.47,0,0,0-6.464-6.3c-1.852,0-4.689.974-4.941,4.1-.039.668-.076,1.008-.3.981a4.551,4.551,0,0,0-5.031,4.325c0,3.575,2.9,5.524,6.474,5.524H490a4.314,4.314,0,0,0,0-8.629Z" transform="translate(-454.727 -546.789)" fill="none" stroke="#ccc" stroke-linecap="round" stroke-linejoin="round" stroke-width="2"/>
      <path id="Path_489" data-name="Path 489" d="M503.714,601.525V589.577c0-1.716-1.9-3.12-4.224-3.12H459.722c-2.322,0-4.224,1.4-4.224,3.12v11.948" transform="translate(-451.745 -553.451)" fill="none" stroke="#ccc" stroke-linecap="round" stroke-linejoin="round" stroke-width="2"/>
      <path id="Path_490" data-name="Path 490" d="M464.275,623.928V625.6c0,.8-.884,1.451-1.965,1.451h-2.964c-1.081,0-1.965-.653-1.965-1.451v-1.676" transform="translate(-452.061 -559.743)" fill="none" stroke="#ccc" stroke-linecap="round" stroke-linejoin="round" stroke-width="2"/>
      <path id="Path_491" data-name="Path 491" d="M508.7,623.928V625.6c0,.8-.884,1.451-1.966,1.451h-2.963c-1.081,0-1.965-.653-1.965-1.451v-1.676" transform="translate(-459.522 -559.743)" fill="none" stroke="#ccc" stroke-linecap="round" stroke-linejoin="round" stroke-width="2"/>
      <path id="Path_492" data-name="Path 492" d="M475.025,603.176a42.6,42.6,0,0,0,3.482-3.6,3.448,3.448,0,0,0-.313-4.124c-1.164-1.194-3.268-1.672-5.413.643-2.143-2.315-4.249-1.837-5.413-.643a3.448,3.448,0,0,0-.313,4.124,43.454,43.454,0,0,0,3.545,3.657" transform="translate(-453.595 -554.795)" fill="none" stroke="#ccc" stroke-linecap="round" stroke-linejoin="round" stroke-width="2"/>
      <path id="Path_493" data-name="Path 493" d="M495.857,603.176a42.64,42.64,0,0,0,3.483-3.6,3.448,3.448,0,0,0-.314-4.124c-1.164-1.194-3.268-1.672-5.412.643-2.144-2.315-4.249-1.837-5.413-.643a3.449,3.449,0,0,0-.314,4.124,43.62,43.62,0,0,0,3.545,3.657" transform="translate(-457.094 -554.795)" fill="none" stroke="#ccc" stroke-linecap="round" stroke-linejoin="round" stroke-width="2"/>
      <rect id="Rectangle_16" data-name="Rectangle 16" width="55.691" height="14.934" rx="7" transform="translate(0 48.663)" fill="none" stroke="#ccc" stroke-linecap="round" stroke-linejoin="round" stroke-width="2"/>
      <path id="Path_494" data-name="Path 494" d="M461.524,605.273c3.727,4.775,11.769,9.457,19.078,9.457s14.473-4.634,19.3-9.457" transform="translate(-452.757 -556.61)" fill="none" stroke="#ccc" stroke-linecap="round" stroke-linejoin="round" stroke-width="2"/>
      <path id="Path_495" data-name="Path 495" d="M480.734,565.137l-3.586,5.837h4.934l-4.1,7.931,12.135-10.879-5.273-.1,2.338-2.787" transform="translate(-455.381 -549.87)" fill="none" stroke="#ccc" stroke-linecap="round" stroke-linejoin="round" stroke-width="2"/>
    </g>
  </g>
</svg>
