<svg xmlns="http://www.w3.org/2000/svg" width="95.179" height="95.178" viewBox="0 0 95.179 95.178">
  <g id="icon" transform="translate(-56.525 1)">
    <g id="Group_79" data-name="Group 79" transform="translate(57.525)">
      <path id="Path_585" data-name="Path 585" d="M104.115,0a46.589,46.589,0,1,1-46.59,46.59A46.591,46.591,0,0,1,104.115,0Z" transform="translate(-57.525)" fill="none" stroke="#ccc" stroke-linecap="round" stroke-linejoin="round" stroke-width="2"/>
    </g>
    <path id="Path_586" data-name="Path 586" d="M128.3,43.063" transform="translate(-11.887 -7.233)" fill="none" stroke="#ccc" stroke-linecap="round" stroke-linejoin="round" stroke-width="2"/>
    <path id="Path_587" data-name="Path 587" d="M136.143,40.835" transform="translate(-13.204 -6.858)" fill="none" stroke="#ccc" stroke-linecap="round" stroke-linejoin="round" stroke-width="2"/>
    <g id="Group_80" data-name="Group 80" transform="translate(85.131 13.972)">
      <path id="Path_588" data-name="Path 588" d="M109.305,47.416s3.672,7.112,4.509,7.949a66.879,66.879,0,0,1,2.092-8.409V44.591a7.574,7.574,0,0,1-1.491-.054" transform="translate(-93.827 -21.452)" fill="none" stroke="#ccc" stroke-linecap="round" stroke-linejoin="round" stroke-width="2"/>
      <path id="Path_589" data-name="Path 589" d="M103.428,35.295a10.279,10.279,0,0,1-.248-1.248c-.412-.019-.836-.031-1.276-.031-9.762,0-11.2,7.99-11.2,10.958V81.131h22.078V67.4a4.91,4.91,0,0,1-1.458.225c-2.028,0-4.448-1.959-6.168-5.4-1.968-3.934-8-11.817-8-11.817" transform="translate(-90.703 -19.685)" fill="none" stroke="#ccc" stroke-linecap="round" stroke-linejoin="round" stroke-width="2"/>
      <path id="Path_590" data-name="Path 590" d="M113.859,43.028c-1.982-.27-4.364-1.394-6.46-4.432a9.771,9.771,0,0,1-1.4-3.043" transform="translate(-93.271 -19.943)" fill="none" stroke="#ccc" stroke-linecap="round" stroke-linejoin="round" stroke-width="2"/>
      <path id="Path_591" data-name="Path 591" d="M115.282,40.434v-.5a7.227,7.227,0,0,0,1.012-.133h0a8.1,8.1,0,0,1,.676-1.147c1.409-1.928,4.7-7.528,10.8-5.443a9.662,9.662,0,0,0,.411-12.145,9.882,9.882,0,0,0-13.742-2.524L109.854,21.7a9.874,9.874,0,0,0-4.174,9.451" transform="translate(-93.204 -16.793)" fill="none" stroke="#ccc" stroke-linecap="round" stroke-linejoin="round" stroke-width="2"/>
      <path id="Path_592" data-name="Path 592" d="M117.238,67.82a8.9,8.9,0,0,0,3.532-2.5c1.228-1.227,2.7-15.514,4.681-20.76.883-2.343,7.551-6.923,4.276-8.043" transform="translate(-95.16 -20.106)" fill="none" stroke="#ccc" stroke-linecap="round" stroke-linejoin="round" stroke-width="2"/>
      <path id="Path_593" data-name="Path 593" d="M118.25,44.442a20.438,20.438,0,0,0-1.012,2.5" transform="translate(-95.16 -21.436)" fill="none" stroke="#ccc" stroke-linecap="round" stroke-linejoin="round" stroke-width="2"/>
    </g>
    <path id="Path_594" data-name="Path 594" d="M133.927,48.294s-2.692,5.889-3.3,7.349c-1.61,3.885-.514,8.1,3.591,8.1,3.633,0,5.344-4.5,3.569-7.826C137.353,55.1,133.927,48.294,133.927,48.294Z" transform="translate(-12.159 -8.111)" fill="none" stroke="#ccc" stroke-linecap="round" stroke-linejoin="round" stroke-width="2"/>
    <path id="Path_595" data-name="Path 595" d="M128.773,72.07s-2.693,5.889-3.3,7.349c-1.61,3.886-.515,8.1,3.591,8.1,3.633,0,5.344-4.5,3.569-7.825C132.2,78.875,128.773,72.07,128.773,72.07Z" transform="translate(-11.293 -12.104)" fill="none" stroke="#ccc" stroke-linecap="round" stroke-linejoin="round" stroke-width="2"/>
  </g>
</svg>
