<svg xmlns="http://www.w3.org/2000/svg" width="95.179" height="95.179" viewBox="0 0 95.179 95.179">
  <g id="icon" transform="translate(-73.422 -1051.692)">
    <g id="Group_71" data-name="Group 71" transform="translate(74.422 1052.692)">
      <path id="Path_528" data-name="Path 528" d="M121.012,1052.692a46.589,46.589,0,1,1-46.59,46.59A46.591,46.591,0,0,1,121.012,1052.692Z" transform="translate(-74.422 -1052.692)" fill="none" stroke="#ccc" stroke-linecap="round" stroke-linejoin="round" stroke-width="2"/>
    </g>
    <g id="Group_72" data-name="Group 72" transform="translate(82.369 1063.146)">
      <path id="Path_529" data-name="Path 529" d="M156.924,1082.051H145.2v-11.72a5.09,5.09,0,0,0-5.075-5.075h-9.647a5.09,5.09,0,0,0-5.075,5.075v11.72h-11.72a5.09,5.09,0,0,0-5.076,5.075v1.91c6.744.215,15.063,3.249,16.756,10.066a19.853,19.853,0,0,1,.541,8.519c-.6,2.981,3.379,9.342,4.373,10.734a.748.748,0,0,1,.128.285c.024,0,.048,0,.072,0h9.647a5.09,5.09,0,0,0,5.075-5.076v-11.72h11.72a5.09,5.09,0,0,0,5.076-5.076v-9.646A5.09,5.09,0,0,0,156.924,1082.051Z" transform="translate(-88.111 -1065.256)" fill="none" stroke="#ccc" stroke-linecap="round" stroke-linejoin="round" stroke-width="2"/>
      <path id="Path_530" data-name="Path 530" d="M110.276,1155.651c0-1.269,1.749-12.286,4.329-11.715a60.855,60.855,0,0,0,8.073-.538c.807-.179,2.063-.359,2.153-.807s0-2.871.089-3.767,1.794-1.614,1.794-1.614l-1.917-1.719,2.782-1.146-.4-3.569s3.749-.22,3.507-1.359" transform="translate(-88.39 -1076.031)" fill="none" stroke="#ccc" stroke-linecap="round" stroke-linejoin="round" stroke-width="2"/>
      <path id="Path_531" data-name="Path 531" d="M104.474,1093.833a22.348,22.348,0,0,0-2.845.083c-4.674.454-9.909,1.939-12.944,5.779a22.62,22.62,0,0,0-2.494,23.655c3.379,7.354,4.771,7.553,4.969,11.33a15.234,15.234,0,0,1-.527,5.383" transform="translate(-83.973 -1070.053)" fill="none" stroke="#ccc" stroke-linecap="round" stroke-linejoin="round" stroke-width="2"/>
    </g>
    <g id="Group_73" data-name="Group 73" transform="translate(86.659 1091.587)">
      <path id="Path_532" data-name="Path 532" d="M105.619,1115.454h9.923s2.947.447,3.589-1.925a2.194,2.194,0,0,0-1.671-2.844,1.877,1.877,0,0,0,1.113-1.92c.07-2.714-2.993-2.714-2.993-2.714a2.62,2.62,0,0,0-1.461-2.854,3.023,3.023,0,0,0-2.854,0,2.41,2.41,0,0,0-1.741-2.714,2.973,2.973,0,0,0-2.853.766,2.567,2.567,0,0,0-2.506-1.81,2.524,2.524,0,0,0-2.366,2.157,1.982,1.982,0,0,0-2.506-.974,2.619,2.619,0,0,0-1.74,2.366,3.794,3.794,0,0,0-3.272.418,3.192,3.192,0,0,0-1.113,3.341,1.968,1.968,0,0,0-2.784.73c-.989,1.4.487,3.209.487,3.209a2.781,2.781,0,0,0-1.74,2.187,4.483,4.483,0,0,0,1.462,2.923,3.364,3.364,0,0,0-.557,2.993,3.832,3.832,0,0,0,2.575,2.367h6.056s3.532-.332,2.169-3.2l2.525-.038a2,2,0,0,0,1.917-.909A1.906,1.906,0,0,0,105.619,1115.454Z" transform="translate(-89.129 -1099.438)" fill="none" stroke="#ccc" stroke-linecap="round" stroke-linejoin="round" stroke-width="2"/>
      <line id="Line_88" data-name="Line 88" x2="5.914" transform="translate(7.676 18.479)" fill="none" stroke="#ccc" stroke-linecap="round" stroke-linejoin="round" stroke-width="2"/>
      <path id="Path_533" data-name="Path 533" d="M101.834,1117.613a2.412,2.412,0,0,1,.295-2.578c1.032-1.032,4.461-.4,4.461-.4s3.228.979,4.454.25a2.432,2.432,0,0,0,1.216-2.395" transform="translate(-91.22 -1101.63)" fill="none" stroke="#ccc" stroke-linecap="round" stroke-linejoin="round" stroke-width="2"/>
      <path id="Path_534" data-name="Path 534" d="M96.451,1112.208s-.653-1.763.516-2.727a3.925,3.925,0,0,1,2.579-.7,10.3,10.3,0,0,0,3.352-.041,2.244,2.244,0,0,0,1.253-2.243" transform="translate(-90.328 -1100.624)" fill="none" stroke="#ccc" stroke-linecap="round" stroke-linejoin="round" stroke-width="2"/>
      <path id="Path_535" data-name="Path 535" d="M104.011,1109.586a3.231,3.231,0,0,0,2.733,1.1,2.328,2.328,0,0,0,2.48-1.419" transform="translate(-91.629 -1101.089)" fill="none" stroke="#ccc" stroke-linecap="round" stroke-linejoin="round" stroke-width="2"/>
      <path id="Path_536" data-name="Path 536" d="M107.922,1102.314s-.676,1.821.663,2.615c.994.59,1.542.453,3.278.516a5.451,5.451,0,0,1,3.829,1.275,4.454,4.454,0,0,1,1.089,3.506" transform="translate(-92.257 -1099.921)" fill="none" stroke="#ccc" stroke-linecap="round" stroke-linejoin="round" stroke-width="2"/>
      <line id="Line_89" data-name="Line 89" x1="1.407" transform="translate(1.464 16.357)" fill="none" stroke="#ccc" stroke-linecap="round" stroke-linejoin="round" stroke-width="2"/>
      <path id="Path_537" data-name="Path 537" d="M94.16,1116.242a2.358,2.358,0,0,0-1.58,2.375,2,2,0,0,0,1.6,2.123" transform="translate(-89.709 -1102.26)" fill="none" stroke="#ccc" stroke-linecap="round" stroke-linejoin="round" stroke-width="2"/>
    </g>
  </g>
</svg>
