<svg xmlns="http://www.w3.org/2000/svg" width="113.987" height="113.987" viewBox="0 0 113.987 113.987">
  <g id="Icon" transform="translate(-248.568 -573.981)">
    <g id="Group_8" data-name="Group 8">
      <path id="Path_18" data-name="Path 18" d="M305.563,574.981a55.993,55.993,0,1,1-55.995,55.995A56,56,0,0,1,305.563,574.981Z" fill="none" stroke="#ccc" stroke-linecap="round" stroke-linejoin="round" stroke-width="2"/>
    </g>
    <g id="Group_10" data-name="Group 10">
      <g id="Group_9" data-name="Group 9">
        <path id="Path_19" data-name="Path 19" d="M342.84,633.18A35.254,35.254,0,0,0,311.4,594.45" fill="none" stroke="#ccc" stroke-linecap="round" stroke-linejoin="round" stroke-width="2"/>
        <path id="Path_20" data-name="Path 20" d="M310.674,601.473a28.179,28.179,0,0,1,25.141,30.976" fill="none" stroke="#ccc" stroke-linecap="round" stroke-linejoin="round" stroke-width="2"/>
        <path id="Path_21" data-name="Path 21" d="M328.808,631.721A21.132,21.132,0,0,0,309.943,608.5" fill="none" stroke="#ccc" stroke-linecap="round" stroke-linejoin="round" stroke-width="2"/>
      </g>
    </g>
    <g id="Group_12" data-name="Group 12">
      <g id="Group_11" data-name="Group 11">
        <path id="Path_22" data-name="Path 22" d="M326.444,666.627a46.435,46.435,0,0,1-4.123,3.165,13.062,13.062,0,0,1-10.56,1.188c-9.18-3.143-16.531-10.251-23.85-18.082a90.835,90.835,0,0,1-13.754-19.352c-1.37-2.514-2.32-5.044-3.48-7.782a33.869,33.869,0,0,1-2.572-9.739c-.284-4.49,2.015-7.56,4.7-9.978.731-.658,2.14-1.8,2.884-2.374" fill="none" stroke="#ccc" stroke-linecap="round" stroke-linejoin="round" stroke-width="2" fill-rule="evenodd"/>
        <path id="Path_23" data-name="Path 23" d="M289.214,621.366c-2.478,2.242-3.264,7.123-1.31,12.008,2.355,5.9,7.679,12.667,12.9,15.851,2.823,1.718,7.5,2.732,11.133.539" fill="none" stroke="#ccc" stroke-linecap="round" stroke-linejoin="round" stroke-width="2" fill-rule="evenodd"/>
      </g>
      <path id="Path_24" data-name="Path 24" d="M298.395,612.645a3.31,3.31,0,0,1-.484,4.644l-4.167,3.384a3.313,3.313,0,0,1-4.646-.483l-12.662-15.6a3.313,3.313,0,0,1,.484-4.646l4.168-3.383a3.31,3.31,0,0,1,4.644.484Z" fill="none" stroke="#ccc" stroke-linecap="round" stroke-linejoin="round" stroke-width="2"/>
      <path id="Path_25" data-name="Path 25" d="M335.3,658.111a3.313,3.313,0,0,1-.483,4.645l-4.168,3.383a3.313,3.313,0,0,1-4.645-.483l-12.663-15.6a3.314,3.314,0,0,1,.484-4.647l4.168-3.382a3.314,3.314,0,0,1,4.646.482Z" fill="none" stroke="#ccc" stroke-linecap="round" stroke-linejoin="round" stroke-width="2"/>
    </g>
  </g>
</svg>
