<svg xmlns="http://www.w3.org/2000/svg" width="95.134" height="95.133" viewBox="0 0 95.134 95.133">
  <g id="icon" transform="translate(-80.353 -132.62)">
    <rect id="Rectangle_20" data-name="Rectangle 20" width="10.266" height="10.266" rx="2.096" transform="translate(123.531 150.962)" fill="none" stroke="#ccc" stroke-linecap="round" stroke-linejoin="round" stroke-width="2"/>
    <rect id="Rectangle_21" data-name="Rectangle 21" width="10.266" height="10.266" rx="2.096" transform="translate(141.978 174.371)" fill="none" stroke="#ccc" stroke-linecap="round" stroke-linejoin="round" stroke-width="2"/>
    <rect id="Rectangle_22" data-name="Rectangle 22" width="10.266" height="10.266" rx="2.096" transform="translate(123.531 174.371)" fill="none" stroke="#ccc" stroke-linecap="round" stroke-linejoin="round" stroke-width="2"/>
    <rect id="Rectangle_23" data-name="Rectangle 23" width="10.266" height="10.266" rx="2.096" transform="translate(105.083 174.371)" fill="none" stroke="#ccc" stroke-linecap="round" stroke-linejoin="round" stroke-width="2"/>
    <rect id="Rectangle_24" data-name="Rectangle 24" width="10.266" height="10.266" rx="2.096" transform="translate(132.754 194.552)" fill="none" stroke="#ccc" stroke-linecap="round" stroke-linejoin="round" stroke-width="2"/>
    <rect id="Rectangle_25" data-name="Rectangle 25" width="10.266" height="10.266" rx="2.096" transform="translate(151.202 194.552)" fill="none" stroke="#ccc" stroke-linecap="round" stroke-linejoin="round" stroke-width="2"/>
    <rect id="Rectangle_26" data-name="Rectangle 26" width="10.266" height="10.266" rx="2.096" transform="translate(114.307 194.552)" fill="none" stroke="#ccc" stroke-linecap="round" stroke-linejoin="round" stroke-width="2"/>
    <rect id="Rectangle_27" data-name="Rectangle 27" width="10.266" height="10.266" rx="2.096" transform="translate(95.86 194.552)" fill="none" stroke="#ccc" stroke-linecap="round" stroke-linejoin="round" stroke-width="2"/>
    <path id="Path_661" data-name="Path 661" d="M144.414,160.645h12.145a1.17,1.17,0,0,1,1.169,1.169v17.107" transform="translate(-10.617 -4.55)" fill="none" stroke="#ccc" stroke-linecap="round" stroke-linejoin="round" stroke-width="2"/>
    <line id="Line_165" data-name="Line 165" y2="13.143" transform="translate(128.664 161.228)" fill="none" stroke="#ccc" stroke-linecap="round" stroke-linejoin="round" stroke-width="2"/>
    <path id="Path_662" data-name="Path 662" d="M129.374,160.645H117.229a1.169,1.169,0,0,0-1.169,1.169v17.107" transform="translate(-5.843 -4.55)" fill="none" stroke="#ccc" stroke-linecap="round" stroke-linejoin="round" stroke-width="2"/>
    <path id="Path_663" data-name="Path 663" d="M114.193,194.966v3.656a1.17,1.17,0,0,1-1.169,1.169h-6.885a1.169,1.169,0,0,0-1.169,1.169v3.92" transform="translate(-3.976 -10.328)" fill="none" stroke="#ccc" stroke-linecap="round" stroke-linejoin="round" stroke-width="2"/>
    <path id="Path_664" data-name="Path 664" d="M160.424,194.966v3.656a1.169,1.169,0,0,0,1.168,1.169h6.886a1.169,1.169,0,0,1,1.169,1.169v3.92" transform="translate(-13.313 -10.328)" fill="none" stroke="#ccc" stroke-linecap="round" stroke-linejoin="round" stroke-width="2"/>
    <path id="Path_665" data-name="Path 665" d="M136.375,194.966v3.788a1.169,1.169,0,0,1-1.169,1.168H128.32a1.169,1.169,0,0,0-1.169,1.169v3.788" transform="translate(-7.711 -10.328)" fill="none" stroke="#ccc" stroke-linecap="round" stroke-linejoin="round" stroke-width="2"/>
    <path id="Path_666" data-name="Path 666" d="M138.242,194.966v3.788a1.169,1.169,0,0,0,1.169,1.168H146.3a1.17,1.17,0,0,1,1.169,1.169v3.788" transform="translate(-9.578 -10.328)" fill="none" stroke="#ccc" stroke-linecap="round" stroke-linejoin="round" stroke-width="2"/>
    <g id="Group_90" data-name="Group 90" transform="translate(81.353 133.62)">
      <path id="Path_667" data-name="Path 667" d="M127.921,133.62a46.567,46.567,0,1,1-46.568,46.567A46.568,46.568,0,0,1,127.921,133.62Z" transform="translate(-81.353 -133.62)" fill="none" stroke="#ccc" stroke-linecap="round" stroke-linejoin="round" stroke-width="2"/>
    </g>
  </g>
</svg>
