<svg xmlns="http://www.w3.org/2000/svg" width="95.18" height="95.179" viewBox="0 0 95.18 95.179">
  <g id="icon" transform="translate(-74.697 -148.135)">
    <g id="Group_61" data-name="Group 61" transform="translate(75.697 149.135)">
      <path id="Path_499" data-name="Path 499" d="M122.288,149.135A46.59,46.59,0,1,1,75.7,195.726,46.591,46.591,0,0,1,122.288,149.135Z" transform="translate(-75.697 -149.135)" fill="none" stroke="#ccc" stroke-linecap="round" stroke-linejoin="round" stroke-width="2"/>
    </g>
    <g id="Group_62" data-name="Group 62" transform="translate(109.147 168.234)">
      <rect id="Rectangle_17" data-name="Rectangle 17" width="35.038" height="10.162" rx="2" transform="translate(3.918 46.993) rotate(-63.836)" fill="none" stroke="#ccc" stroke-linecap="round" stroke-linejoin="round" stroke-width="2"/>
      <rect id="Rectangle_18" data-name="Rectangle 18" width="8.235" height="5.609" rx="1" transform="translate(21.511 16.599) rotate(-63.836)" fill="none" stroke="#ccc" stroke-linecap="round" stroke-linejoin="round" stroke-width="2"/>
      <line id="Line_63" data-name="Line 63" y1="10.395" x2="5.107" transform="translate(27.559 0)" fill="none" stroke="#ccc" stroke-linecap="round" stroke-linejoin="round" stroke-width="2"/>
      <line id="Line_64" data-name="Line 64" y1="10.394" x2="5.107" transform="translate(3.472 49.283)" fill="none" stroke="#ccc" stroke-linecap="round" stroke-linejoin="round" stroke-width="2"/>
      <line id="Line_65" data-name="Line 65" x2="3.799" y2="1.866" transform="translate(16.797 20.778)" fill="none" stroke="#ccc" stroke-linecap="round" stroke-linejoin="round" stroke-width="2"/>
      <line id="Line_66" data-name="Line 66" x2="3.799" y2="1.866" transform="translate(14.196 26.072)" fill="none" stroke="#ccc" stroke-linecap="round" stroke-linejoin="round" stroke-width="2"/>
      <line id="Line_67" data-name="Line 67" x2="3.799" y2="1.866" transform="translate(11.643 31.269)" fill="none" stroke="#ccc" stroke-linecap="round" stroke-linejoin="round" stroke-width="2"/>
      <line id="Line_68" data-name="Line 68" x2="3.799" y2="1.866" transform="translate(9.073 36.501)" fill="none" stroke="#ccc" stroke-linecap="round" stroke-linejoin="round" stroke-width="2"/>
      <line id="Line_69" data-name="Line 69" x2="15.492" y2="7.611" transform="translate(0.729 45.426)" fill="none" stroke="#ccc" stroke-linecap="round" stroke-linejoin="round" stroke-width="2"/>
      <line id="Line_70" data-name="Line 70" x2="6.945" y2="3.412" transform="translate(0 57.971)" fill="none" stroke="#ccc" stroke-linecap="round" stroke-linejoin="round" stroke-width="2"/>
    </g>
    <g id="Group_63" data-name="Group 63" transform="translate(132.805 215.028)">
      <path id="Path_500" data-name="Path 500" d="M144.492,238.217l2.292-7.374a3.589,3.589,0,0,1,4.479-2.356h0a3.589,3.589,0,0,1,2.355,4.479l-2.292,7.375a3.588,3.588,0,0,1-4.478,2.355h0A3.588,3.588,0,0,1,144.492,238.217Z" transform="translate(-144.331 -228.327)" fill="none" stroke="#ccc" stroke-linecap="round" stroke-linejoin="round" stroke-width="2"/>
      <line id="Line_71" data-name="Line 71" x1="6.834" y1="2.124" transform="translate(1.306 6.203)" fill="none" stroke="#ccc" stroke-linecap="round" stroke-linejoin="round" stroke-width="2"/>
    </g>
    <g id="Group_64" data-name="Group 64" transform="translate(142.79 202.146)">
      <path id="Path_501" data-name="Path 501" d="M164.155,223.794l-6.31-4.451a3.587,3.587,0,0,1-.862-4.986h0a3.587,3.587,0,0,1,4.986-.862l6.311,4.45a3.589,3.589,0,0,1,.862,4.987h0A3.589,3.589,0,0,1,164.155,223.794Z" transform="translate(-156.332 -212.845)" fill="none" stroke="#ccc" stroke-linecap="round" stroke-linejoin="round" stroke-width="2"/>
      <line id="Line_72" data-name="Line 72" x1="4.124" y2="5.849" transform="translate(4.668 2.875)" fill="none" stroke="#ccc" stroke-linecap="round" stroke-linejoin="round" stroke-width="2"/>
    </g>
    <g id="Group_65" data-name="Group 65" transform="translate(146.316 183.267)">
      <path id="Path_502" data-name="Path 502" d="M172.289,196.4l-5.764,5.138a3.589,3.589,0,0,1-5.052-.29h0a3.589,3.589,0,0,1,.29-5.052l5.764-5.138a3.589,3.589,0,0,1,5.052.29h0A3.589,3.589,0,0,1,172.289,196.4Z" transform="translate(-160.57 -190.155)" fill="none" stroke="#ccc" stroke-linecap="round" stroke-linejoin="round" stroke-width="2"/>
      <line id="Line_73" data-name="Line 73" x2="4.762" y2="5.342" transform="translate(4.075 3.472)" fill="none" stroke="#ccc" stroke-linecap="round" stroke-linejoin="round" stroke-width="2"/>
    </g>
    <g id="Group_66" data-name="Group 66" transform="translate(85.186 179.911)">
      <rect id="Rectangle_19" data-name="Rectangle 19" width="43.023" height="4.52" rx="2" transform="matrix(0.701, -0.713, 0.713, 0.701, 0, 30.686)" fill="none" stroke="#ccc" stroke-linecap="round" stroke-linejoin="round" stroke-width="2"/>
      <line id="Line_74" data-name="Line 74" x2="3.224" y2="3.168" transform="translate(28.087 2.104)" fill="none" stroke="#ccc" stroke-linecap="round" stroke-linejoin="round" stroke-width="2"/>
      <line id="Line_75" data-name="Line 75" x2="3.224" y2="3.168" transform="translate(12.107 18.366)" fill="none" stroke="#ccc" stroke-linecap="round" stroke-linejoin="round" stroke-width="2"/>
    </g>
    <path id="Path_503" data-name="Path 503" d="M123.158,157.072a2.571,2.571,0,0,0-.174,2.665,5.539,5.539,0,0,1-.206,5.532,5.684,5.684,0,0,0-.008,4.918,5.078,5.078,0,0,1,.546,5.056,5.01,5.01,0,0,0-.206,2.213" transform="translate(-7.812 -1.333)" fill="none" stroke="#ccc" stroke-linecap="round" stroke-linejoin="round" stroke-width="2"/>
  </g>
</svg>
