<svg xmlns="http://www.w3.org/2000/svg" width="95.181" height="95.181" viewBox="0 0 95.181 95.181">
  <g id="icon" transform="translate(1 1)">
    <path id="Path_467" data-name="Path 467" d="M434.794,205.808c1.563-1.244,5.24-2.865,5.924-4.856.772-2.252-.933-4.671-.741-6.968.23-2.762,1.666-5.735,2.844-8.2a117.623,117.623,0,0,1,6.407-11.087c1.61-2.6,3.4-7.393,7.083-4.519,4.129,3.225.423,12.008-1.974,15.124" transform="translate(-419.467 -149.493)" fill="none" stroke="#ccc" stroke-linecap="round" stroke-linejoin="round" stroke-width="2.151"/>
    <path id="Path_468" data-name="Path 468" d="M499.178,225.989c-.67-1.078-2.523-2.832-2.507-4.169.019-1.512,1.555-2.594,1.93-4.01a16.19,16.19,0,0,0,.05-5.512,74.832,74.832,0,0,0-1.465-8c-.408-1.9-.458-5.147-3.272-4.214-3.158,1.048-2.817,7.091-2.049,9.467" transform="translate(-428.963 -154.637)" fill="none" stroke="#ccc" stroke-linecap="round" stroke-linejoin="round" stroke-width="2.151"/>
    <path id="Path_469" data-name="Path 469" d="M471.85,212.222s-3.708-6.27-5.666-9.694c-1.394-2.431-.733-3.909.25-4.5a3.3,3.3,0,0,1,2.819-.28" transform="translate(-424.604 -154.239)" fill="none" stroke="#ccc" stroke-linecap="round" stroke-linejoin="round" stroke-width="2.151"/>
    <path id="Path_470" data-name="Path 470" d="M476.388,207.9l-6.957-11.774s-1.268-2.346.486-3.493c2.207-1.439,3.6,1.269,3.6,1.269l6.587,10.784" transform="translate(-425.209 -153.343)" fill="none" stroke="#ccc" stroke-linecap="round" stroke-linejoin="round" stroke-width="2.151"/>
    <path id="Path_471" data-name="Path 471" d="M475.259,194.931s-1.736-2.671.365-4.007c2.221-1.414,3.6,1.269,3.6,1.269l9.826,15.78" transform="translate(-426.149 -153.057)" fill="none" stroke="#ccc" stroke-linecap="round" stroke-linejoin="round" stroke-width="2.151"/>
    <path id="Path_472" data-name="Path 472" d="M483.222,233.49l-2.839-4.167s-3.055,2.222-5.626-1.292-8.52-13.665-11.177-18.176c-1.385-2.354-1.05-4.28.117-5.074a2.525,2.525,0,0,1,2.2-.448" transform="translate(-424.148 -155.364)" fill="none" stroke="#ccc" stroke-linecap="round" stroke-linejoin="round" stroke-width="2.151"/>
    <path id="Path_473" data-name="Path 473" d="M486.4,198.112s7.023-5.543,11.74-9.585c3.354-2.869,3.157-5.409,2.013-6.81a5.19,5.19,0,0,0-4.032-1.908" transform="translate(-428.132 -151.26)" fill="none" stroke="#ccc" stroke-linecap="round" stroke-linejoin="round" stroke-width="2.151"/>
    <path id="Path_474" data-name="Path 474" d="M480.171,189.646,495.185,177.4s3.122-2.808,1.128-5.438c-2.511-3.3-6.016-.026-6.016-.026l-15.479,12.508" transform="translate(-426.188 -149.695)" fill="none" stroke="#ccc" stroke-linecap="round" stroke-linejoin="round" stroke-width="2.151"/>
    <path id="Path_475" data-name="Path 475" d="M485.642,172.529s3.989-3.041,1.58-6.136c-2.545-3.273-6.013-.024-6.013-.024l-22.926,18.2a15.137,15.137,0,0,1,.881,5.679,23.728,23.728,0,0,1-.881,6.486" transform="translate(-423.411 -148.762)" fill="none" stroke="#ccc" stroke-linecap="round" stroke-linejoin="round" stroke-width="2.151"/>
    <path id="Path_476" data-name="Path 476" d="M498.236,202.306l1.791-1.5c3.3-2.759,3.823-5.793,2.514-7.588a3.974,3.974,0,0,0-3.021-1.826" transform="translate(-430.121 -153.206)" fill="none" stroke="#ccc" stroke-linecap="round" stroke-linejoin="round" stroke-width="2.151"/>
    <path id="Path_477" data-name="Path 477" d="M450.343,231.193l6.417-4.678s3.354,4.913,9.026,1.061c.805-.546,1.781-1.255,2.881-2.083" transform="translate(-422.078 -158.932)" fill="none" stroke="#ccc" stroke-linecap="round" stroke-linejoin="round" stroke-width="2.151"/>
    <g id="Group_57" data-name="Group 57" transform="translate(0 0)">
      <path id="Path_478" data-name="Path 478" d="M462.964,145.5a46.59,46.59,0,1,1-46.591,46.591A46.592,46.592,0,0,1,462.964,145.5Z" transform="translate(-416.373 -145.498)" fill="none" stroke="#ccc" stroke-linecap="round" stroke-linejoin="round" stroke-width="2"/>
    </g>
  </g>
</svg>
