<svg xmlns="http://www.w3.org/2000/svg" width="95.181" height="95.18" viewBox="0 0 95.181 95.18">
  <g id="icon" transform="translate(1 1)">
    <g id="Group_53" data-name="Group 53" transform="translate(0 0)">
      <path id="Path_456" data-name="Path 456" d="M131.762,741.191a46.59,46.59,0,1,1-46.591,46.591A46.592,46.592,0,0,1,131.762,741.191Z" transform="translate(-85.171 -741.191)" fill="none" stroke="#ccc" stroke-linecap="round" stroke-linejoin="round" stroke-width="2"/>
    </g>
    <path id="Path_457" data-name="Path 457" d="M175.442,780.849a6.719,6.719,0,0,1-13.437,0V777.06a6.719,6.719,0,0,1,13.437,0Z" transform="translate(-98.074 -746.086)" fill="none" stroke="#ccc" stroke-linecap="round" stroke-linejoin="round" stroke-width="2"/>
    <path id="Path_458" data-name="Path 458" d="M165.374,792.635a15.732,15.732,0,0,1,3.092.389c2.985.866,5,4.788,5,8.116v18.066h-14.81v-17.72a3.776,3.776,0,0,0-1.182-2.745l-14.4-13.619a3.251,3.251,0,0,1,4.471-4.722l12.424,10.429a6.474,6.474,0,0,0,2.189,1.221A11.919,11.919,0,0,0,165.374,792.635Z" transform="translate(-94.724 -747.626)" fill="none" stroke="#ccc" stroke-linecap="round" stroke-linejoin="round" stroke-width="2"/>
    <path id="Path_459" data-name="Path 459" d="M104.176,780.849a6.719,6.719,0,0,0,13.437,0V777.06a6.719,6.719,0,0,0-13.437,0Z" transform="translate(-88.363 -746.086)" fill="none" stroke="#ccc" stroke-linecap="round" stroke-linejoin="round" stroke-width="2"/>
    <path id="Path_460" data-name="Path 460" d="M110.617,792.635a15.731,15.731,0,0,0-3.092.389c-2.985.866-5,4.788-5,8.116v18.066h14.809v-17.72a3.777,3.777,0,0,1,1.182-2.745l14.4-13.619a3.252,3.252,0,0,0-4.472-4.722l-12.424,10.429a6.474,6.474,0,0,1-2.189,1.221A11.919,11.919,0,0,1,110.617,792.635Z" transform="translate(-88.086 -747.626)" fill="none" stroke="#ccc" stroke-linecap="round" stroke-linejoin="round" stroke-width="2"/>
    <line id="Line_60" data-name="Line 60" y1="7.414" x2="7.414" transform="translate(51.904 21.737)" fill="none" stroke="#ccc" stroke-linecap="round" stroke-linejoin="round" stroke-width="2"/>
    <line id="Line_61" data-name="Line 61" x1="7.414" y1="7.414" transform="translate(33.348 21.737)" fill="none" stroke="#ccc" stroke-linecap="round" stroke-linejoin="round" stroke-width="2"/>
    <line id="Line_62" data-name="Line 62" y1="11.05" transform="translate(46.327 15.93)" fill="none" stroke="#ccc" stroke-linecap="round" stroke-linejoin="round" stroke-width="2"/>
  </g>
</svg>
