<svg xmlns="http://www.w3.org/2000/svg" width="95.181" height="95.181" viewBox="0 0 95.181 95.181">
  <g id="icon" transform="translate(-69.491 -329.062)">
    <g id="Group_98" data-name="Group 98" transform="translate(70.491 330.062)">
      <path id="Path_718" data-name="Path 718" d="M117.082,330.062a46.59,46.59,0,1,1-46.591,46.591A46.591,46.591,0,0,1,117.082,330.062Z" transform="translate(-70.491 -330.062)" fill="none" stroke="#ccc" stroke-linecap="round" stroke-linejoin="round" stroke-width="2"/>
    </g>
    <path id="Path_719" data-name="Path 719" d="M100.152,381.385l-7.8,2.707s-3.53,3.035-4.64,4.06c-.776.716-1.324,1.724-.188,2.759,1.068.974,2.126-.017,2.6-.375.721-.544,3.594-3.252,4.24-3.467a40.675,40.675,0,0,1,4.385-1.222,16.2,16.2,0,0,1,4.306,1.625,11.961,11.961,0,0,1,4.031,3.191,32.328,32.328,0,0,1,2.157,3.665c.144.432.612,3.37.862,4.888.234,1.415.666,2.551,2.035,2.384,1.193-.146,1.5-.969,1.37-2.471-.1-1.146-.314-4.081-.529-4.872s-3.738-7.906-4.241-8.625,1.365-5.966,1.509-6.325,9.919.575,10.71.647,10.872-3.894,11.428-4.1a2.122,2.122,0,0,0,1.294-2.732,2.386,2.386,0,0,0-3.009-1.474c-1.078.287-9.857,3.559-10.288,3.7s-8.841-1.8-8.841-1.8,5.391-5.965,5.75-6.684,1.227-11.106,1.311-12.109c.107-1.281,0-2.935-1.841-3.041a2.3,2.3,0,0,0-2.518,2.163l-1.756,11.262s-6.05,3.163-6.769,3.738a10.744,10.744,0,0,0-1.94,2.156A21.626,21.626,0,0,0,102.2,374.7C101.913,375.639,100.152,381.385,100.152,381.385Z" transform="translate(-2.752 -3.636)" fill="none" stroke="#ccc" stroke-linecap="round" stroke-linejoin="round" stroke-width="2"/>
    <path id="Path_720" data-name="Path 720" d="M164.464,348.992l-7.338,1.944-4.874-2.029H147.24v14.56l7.4,6.206-10.025,8.579,6.8,5.981v26.494" transform="translate(-12.448 -3.165)" fill="none" stroke="#ccc" stroke-linecap="round" stroke-linejoin="round" stroke-width="2"/>
    <path id="Path_721" data-name="Path 721" d="M157.81,396.813V402.9l5.251,4.416-3.719,3.1v8.354" transform="translate(-14.664 -11.21)" fill="none" stroke="#ccc" stroke-linecap="round" stroke-linejoin="round" stroke-width="2"/>
    <path id="Path_722" data-name="Path 722" d="M163.88,356.366v6.922l3.938,2.864V375.1l-5.132,4.4v5.742" transform="translate(-15.483 -4.417)" fill="none" stroke="#ccc" stroke-linecap="round" stroke-linejoin="round" stroke-width="2"/>
    <line id="Line_171" data-name="Line 171" x2="69.469" transform="translate(82.223 407.562)" fill="none" stroke="#ccc" stroke-linecap="round" stroke-linejoin="round" stroke-width="2"/>
    <path id="Path_723" data-name="Path 723" d="M97.017,401.386a4.531,4.531,0,1,1,4.531,4.531A4.531,4.531,0,0,1,97.017,401.386Z" transform="translate(-4.455 -11.217)" fill="none" stroke="#ccc" stroke-linecap="round" stroke-linejoin="round" stroke-width="2"/>
  </g>
</svg>
