<svg xmlns="http://www.w3.org/2000/svg" width="113.987" height="113.987" viewBox="0 0 113.987 113.987">
  <g id="Icon" transform="translate(-430.102 -994.092)">
    <g id="Group_14" data-name="Group 14">
      <path id="Path_26" data-name="Path 26" d="M487.1,995.092a55.993,55.993,0,1,1-55.994,55.994A56,56,0,0,1,487.1,995.092Z" fill="none" stroke="#ccc" stroke-linecap="round" stroke-linejoin="round" stroke-width="2"/>
    </g>
    <path id="Path_27" data-name="Path 27" d="M506.023,1040.768l-9.913,5.722v-4.93a1.551,1.551,0,0,0-1.546-1.546H468.918a1.551,1.551,0,0,0-1.547,1.546v19.048a1.552,1.552,0,0,0,1.547,1.548h25.646a1.552,1.552,0,0,0,1.546-1.548v-4.93l9.913,5.723Z" fill="none" stroke="#ccc" stroke-linecap="round" stroke-linejoin="round" stroke-width="2"/>
    <path id="Rectangle_2" data-name="Rectangle 2" d="M7.981,0H74.64a7.979,7.979,0,0,1,7.979,7.979v40.56a7.98,7.98,0,0,1-7.98,7.98H7.98A7.98,7.98,0,0,1,0,48.539V7.981A7.981,7.981,0,0,1,7.981,0Z" transform="translate(445.477 1022.826)" fill="none" stroke="#ccc" stroke-linecap="round" stroke-linejoin="round" stroke-width="2"/>
    <rect id="Rectangle_3" data-name="Rectangle 3" width="62.416" height="46.252" transform="translate(455.578 1027.96)" fill="none" stroke="#ccc" stroke-linecap="round" stroke-linejoin="round" stroke-width="2"/>
    <circle id="Ellipse_1" data-name="Ellipse 1" cx="2.25" cy="2.25" r="2.25" transform="translate(448.369 1048.836)" fill="none" stroke="#ccc" stroke-linecap="round" stroke-linejoin="round" stroke-width="2"/>
  </g>
</svg>
