<svg xmlns="http://www.w3.org/2000/svg" width="95.179" height="95.33" viewBox="0 0 95.179 95.33">
  <g id="icon" transform="translate(-264.676 -906.919)">
    <g id="Group_96" data-name="Group 96" transform="translate(265.676 907.919)">
      <path id="Path_696" data-name="Path 696" d="M312.267,907.919a46.59,46.59,0,1,1-46.591,46.591A46.592,46.592,0,0,1,312.267,907.919Z" transform="translate(-265.676 -907.919)" fill="none" stroke="#ccc" stroke-linecap="round" stroke-linejoin="round" stroke-width="2"/>
    </g>
    <path id="Path_697" data-name="Path 697" d="M300.651,985.036v5.755s9.863,3.4,11.7,4.212,2.752,2.3,3.431,5.1c.305,1.266.7,4.387,1.14,6.6l1.214,7.339" transform="translate(-5.874 -12.951)" fill="none" stroke="#ccc" stroke-linecap="round" stroke-linejoin="round" stroke-width="2"/>
    <path id="Path_698" data-name="Path 698" d="M276.689,994.559c1.84-.813,10.595-3.768,10.595-3.768v-5.755" transform="translate(-1.849 -12.951)" fill="none" stroke="#ccc" stroke-linecap="round" stroke-linejoin="round" stroke-width="2"/>
    <path id="Path_699" data-name="Path 699" d="M300.888,972.554v-2.861a7.309,7.309,0,1,0-14.619,0v2.861" transform="translate(-3.458 -9.147)" fill="none" stroke="#ccc" stroke-linecap="round" stroke-linejoin="round" stroke-width="2"/>
    <path id="Path_700" data-name="Path 700" d="M300.888,974.607v2.829a7.309,7.309,0,1,1-14.619,0v-2.829" transform="translate(-3.458 -11.199)" fill="none" stroke="#ccc" stroke-linecap="round" stroke-linejoin="round" stroke-width="2"/>
    <path id="Path_701" data-name="Path 701" d="M330.648,953.112c-.245-.934-.454-1.755-.606-2.385-.338-1.4-.793-2.137-1.708-2.543s-5.829-2.1-5.829-2.1v-2.866" transform="translate(-9.544 -5.929)" fill="none" stroke="#ccc" stroke-linecap="round" stroke-linejoin="round" stroke-width="2"/>
    <path id="Path_702" data-name="Path 702" d="M307.128,953.112c.245-.934.453-1.755.606-2.385.338-1.4.793-2.137,1.708-2.543s5.828-2.1,5.828-2.1v-2.866" transform="translate(-6.961 -5.929)" fill="none" stroke="#ccc" stroke-linecap="round" stroke-linejoin="round" stroke-width="2"/>
    <path id="Path_703" data-name="Path 703" d="M322.623,937.006v-1.424a3.64,3.64,0,1,0-7.28,0v1.424" transform="translate(-8.341 -4.034)" fill="none" stroke="#ccc" stroke-linecap="round" stroke-linejoin="round" stroke-width="2"/>
    <path id="Path_704" data-name="Path 704" d="M322.623,938.028v1.409a3.64,3.64,0,1,1-7.28,0v-1.409" transform="translate(-8.341 -5.056)" fill="none" stroke="#ccc" stroke-linecap="round" stroke-linejoin="round" stroke-width="2"/>
    <path id="Path_705" data-name="Path 705" d="M364.487,952.809c-.245-.935-.454-1.756-.607-2.385-.338-1.4-.793-2.137-1.708-2.542s-5.828-2.1-5.828-2.1v-2.866" transform="translate(-15.226 -5.877)" fill="none" stroke="#ccc" stroke-linecap="round" stroke-linejoin="round" stroke-width="2"/>
    <path id="Path_706" data-name="Path 706" d="M340.966,952.809c.245-.935.454-1.756.607-2.385.338-1.4.793-2.137,1.708-2.542s5.828-2.1,5.828-2.1v-2.866" transform="translate(-12.644 -5.877)" fill="none" stroke="#ccc" stroke-linecap="round" stroke-linejoin="round" stroke-width="2"/>
    <path id="Path_707" data-name="Path 707" d="M356.462,936.7v-1.424a3.64,3.64,0,1,0-7.28,0V936.7" transform="translate(-14.024 -3.983)" fill="none" stroke="#ccc" stroke-linecap="round" stroke-linejoin="round" stroke-width="2"/>
    <path id="Path_708" data-name="Path 708" d="M356.462,937.724v1.409a3.64,3.64,0,1,1-7.28,0v-1.409" transform="translate(-14.024 -5.005)" fill="none" stroke="#ccc" stroke-linecap="round" stroke-linejoin="round" stroke-width="2"/>
    <path id="Path_709" data-name="Path 709" d="M315.651,982.081c4.333-.117,7.635.353,11.4-1.058,1.038-.389,3.164-1.893,3.528-2.94a25.686,25.686,0,0,0,.658-5.622c.09-1.725.018-6.229.018-6.229l-3.633-.016,5.778-6.143,6.057,6.226-3.97-.018s-.115,8.782-.051,11.313c.2,7.9-2.457,10.883-7.092,11.542" transform="translate(-8.393 -8.759)" fill="none" stroke="#ccc" stroke-linecap="round" stroke-linejoin="round" stroke-width="2"/>
  </g>
</svg>
