<svg xmlns="http://www.w3.org/2000/svg" width="95.181" height="95.18" viewBox="0 0 95.181 95.18">
  <g id="icon" transform="translate(-255.215 -734.904)">
    <g id="Group_70" data-name="Group 70" transform="translate(256.215 735.904)">
      <path id="Path_524" data-name="Path 524" d="M302.805,735.9a46.59,46.59,0,1,1-46.59,46.59A46.592,46.592,0,0,1,302.805,735.9Z" transform="translate(-256.215 -735.904)" fill="none" stroke="#ccc" stroke-linecap="round" stroke-linejoin="round" stroke-width="2"/>
    </g>
    <path id="Path_525" data-name="Path 525" d="M326.416,815.245c-3.417-5.756-4.073-8.722-3.84-13.139s1.859-4.648,5.81-13.247,3.7-19.29-2.916-27.657c-3.549-4.49-9.669-6.226-15.135-6.757-8.184-.795-20.648,2.529-22.918,11.672a23.23,23.23,0,0,0-.632,9.96c.7,3.486-3.951,10.923-5.113,12.55s3.951,1.924,3.951,1.924l-.465,4.172,3.254,1.341-2.242,2.009s1.993.84,2.1,1.888,0,3.881.1,4.4,1.573.734,2.517.944a71.212,71.212,0,0,0,9.439.629c3.016-.668,4.5,9.424,4.5,10.907" transform="translate(-4.246 -3.095)" fill="none" stroke="#ccc" stroke-linecap="round" stroke-linejoin="round" stroke-width="2"/>
    <path id="Path_526" data-name="Path 526" d="M319.34,767.6h-.013c-.136-3.6-3.411-6.962-8.693-6.962-2.78,0-8.052,1.472-8.43,4.695-.059.688-.113,1.038-.455,1.009-4.229-.358-6.552,2.316-6.552,4.65,0,3.682,3.352,5.495,8.72,5.495h15.424c3.578,0,5.508-1.877,5.508-4.331S322.917,767.6,319.34,767.6Z" transform="translate(-6.546 -4.154)" fill="none" stroke="#ccc" stroke-linecap="round" stroke-linejoin="round" stroke-width="2"/>
    <path id="Path_527" data-name="Path 527" d="M310.849,780.449,308.3,786.66h3.511l-2.921,8.44,8.635-11.577-3.752-.108,1.663-2.966" transform="translate(-8.747 -7.481)" fill="none" stroke="#ccc" stroke-linecap="round" stroke-linejoin="round" stroke-width="2"/>
    <line id="Line_80" data-name="Line 80" y1="4.731" x2="2.636" transform="translate(293.016 785.254)" fill="none" stroke="#ccc" stroke-linecap="round" stroke-linejoin="round" stroke-width="2"/>
    <line id="Line_81" data-name="Line 81" y1="4.731" x2="2.636" transform="translate(293.016 775.278)" fill="none" stroke="#ccc" stroke-linecap="round" stroke-linejoin="round" stroke-width="2"/>
    <line id="Line_82" data-name="Line 82" y1="4.268" x2="2.378" transform="translate(297.827 793.665)" fill="none" stroke="#ccc" stroke-linecap="round" stroke-linejoin="round" stroke-width="2"/>
    <line id="Line_83" data-name="Line 83" y1="4.731" x2="2.636" transform="translate(313.083 775.278)" fill="none" stroke="#ccc" stroke-linecap="round" stroke-linejoin="round" stroke-width="2"/>
    <line id="Line_84" data-name="Line 84" y1="4.731" x2="2.636" transform="translate(286.482 776.063)" fill="none" stroke="#ccc" stroke-linecap="round" stroke-linejoin="round" stroke-width="2"/>
    <line id="Line_85" data-name="Line 85" y1="4.731" x2="2.636" transform="translate(314.915 782.289)" fill="none" stroke="#ccc" stroke-linecap="round" stroke-linejoin="round" stroke-width="2"/>
    <line id="Line_86" data-name="Line 86" y1="4.731" x2="2.636" transform="translate(306.344 784.655)" fill="none" stroke="#ccc" stroke-linecap="round" stroke-linejoin="round" stroke-width="2"/>
    <line id="Line_87" data-name="Line 87" y1="4.731" x2="2.636" transform="translate(307.662 793.202)" fill="none" stroke="#ccc" stroke-linecap="round" stroke-linejoin="round" stroke-width="2"/>
  </g>
</svg>
