<svg xmlns="http://www.w3.org/2000/svg" width="95.181" height="95.18" viewBox="0 0 95.181 95.18">
  <g id="icon" transform="translate(-69.124 -532.056)">
    <g id="Group_89" data-name="Group 89" transform="translate(70.124 533.056)">
      <path id="Path_654" data-name="Path 654" d="M116.716,533.056a46.59,46.59,0,1,1-46.592,46.591A46.592,46.592,0,0,1,116.716,533.056Z" transform="translate(-70.124 -533.056)" fill="none" stroke="#ccc" stroke-linecap="round" stroke-linejoin="round" stroke-width="2"/>
    </g>
    <line id="Line_141" data-name="Line 141" x1="12.19" y1="7.097" transform="translate(80.984 559.726)" fill="none" stroke="#ccc" stroke-linecap="round" stroke-linejoin="round" stroke-width="2"/>
    <line id="Line_142" data-name="Line 142" y2="13.918" transform="translate(117.084 539.077)" fill="none" stroke="#ccc" stroke-linecap="round" stroke-linejoin="round" stroke-width="2"/>
    <line id="Line_143" data-name="Line 143" x2="6.959" y2="11.483" transform="translate(96.158 544.678)" fill="none" stroke="#ccc" stroke-linecap="round" stroke-linejoin="round" stroke-width="2"/>
    <line id="Line_144" data-name="Line 144" y2="14.087" transform="translate(117.084 607.138)" fill="none" stroke="#ccc" stroke-linecap="round" stroke-linejoin="round" stroke-width="2"/>
    <line id="Line_145" data-name="Line 145" x1="6.959" y2="12.181" transform="translate(96.158 604.123)" fill="none" stroke="#ccc" stroke-linecap="round" stroke-linejoin="round" stroke-width="2"/>
    <line id="Line_146" data-name="Line 146" x1="12.19" y2="6.959" transform="translate(80.984 593.899)" fill="none" stroke="#ccc" stroke-linecap="round" stroke-linejoin="round" stroke-width="2"/>
    <line id="Line_147" data-name="Line 147" x1="13.069" transform="translate(76.13 580.142)" fill="none" stroke="#ccc" stroke-linecap="round" stroke-linejoin="round" stroke-width="2"/>
    <line id="Line_148" data-name="Line 148" x2="1.906" y2="6.11" transform="translate(108 548.073)" fill="none" stroke="#ccc" stroke-linecap="round" stroke-linejoin="round" stroke-width="2"/>
    <line id="Line_149" data-name="Line 149" x2="4.681" y2="4.243" transform="translate(93.174 556.729)" fill="none" stroke="#ccc" stroke-linecap="round" stroke-linejoin="round" stroke-width="2"/>
    <line id="Line_150" data-name="Line 150" x2="6.28" y2="1.801" transform="translate(84.616 571.325)" fill="none" stroke="#ccc" stroke-linecap="round" stroke-linejoin="round" stroke-width="2"/>
    <line id="Line_151" data-name="Line 151" y1="1.539" x2="5.431" transform="translate(85.465 587.268)" fill="none" stroke="#ccc" stroke-linecap="round" stroke-linejoin="round" stroke-width="2"/>
    <line id="Line_152" data-name="Line 152" y1="4.363" x2="4.681" transform="translate(93.174 599.759)" fill="none" stroke="#ccc" stroke-linecap="round" stroke-linejoin="round" stroke-width="2"/>
    <line id="Line_153" data-name="Line 153" y1="5.601" x2="1.906" transform="translate(108 606.459)" fill="none" stroke="#ccc" stroke-linecap="round" stroke-linejoin="round" stroke-width="2"/>
    <line id="Line_154" data-name="Line 154" y1="7.097" x2="12.19" transform="translate(140.255 559.726)" fill="none" stroke="#ccc" stroke-linecap="round" stroke-linejoin="round" stroke-width="2"/>
    <line id="Line_155" data-name="Line 155" x1="6.959" y2="11.483" transform="translate(130.313 544.678)" fill="none" stroke="#ccc" stroke-linecap="round" stroke-linejoin="round" stroke-width="2"/>
    <line id="Line_156" data-name="Line 156" x2="6.959" y2="12.181" transform="translate(130.313 604.123)" fill="none" stroke="#ccc" stroke-linecap="round" stroke-linejoin="round" stroke-width="2"/>
    <line id="Line_157" data-name="Line 157" x2="12.19" y2="6.959" transform="translate(140.255 593.899)" fill="none" stroke="#ccc" stroke-linecap="round" stroke-linejoin="round" stroke-width="2"/>
    <line id="Line_158" data-name="Line 158" x2="13.069" transform="translate(144.23 580.142)" fill="none" stroke="#ccc" stroke-linecap="round" stroke-linejoin="round" stroke-width="2"/>
    <line id="Line_159" data-name="Line 159" x1="1.906" y2="6.11" transform="translate(123.523 548.073)" fill="none" stroke="#ccc" stroke-linecap="round" stroke-linejoin="round" stroke-width="2"/>
    <line id="Line_160" data-name="Line 160" x1="4.681" y2="4.243" transform="translate(135.574 556.729)" fill="none" stroke="#ccc" stroke-linecap="round" stroke-linejoin="round" stroke-width="2"/>
    <line id="Line_161" data-name="Line 161" x1="6.28" y2="1.801" transform="translate(142.533 571.325)" fill="none" stroke="#ccc" stroke-linecap="round" stroke-linejoin="round" stroke-width="2"/>
    <line id="Line_162" data-name="Line 162" x1="5.431" y1="1.539" transform="translate(142.533 587.268)" fill="none" stroke="#ccc" stroke-linecap="round" stroke-linejoin="round" stroke-width="2"/>
    <line id="Line_163" data-name="Line 163" x1="4.681" y1="4.363" transform="translate(135.574 599.759)" fill="none" stroke="#ccc" stroke-linecap="round" stroke-linejoin="round" stroke-width="2"/>
    <line id="Line_164" data-name="Line 164" x1="1.906" y1="5.601" transform="translate(123.523 606.459)" fill="none" stroke="#ccc" stroke-linecap="round" stroke-linejoin="round" stroke-width="2"/>
    <path id="Path_655" data-name="Path 655" d="M137.8,588.234c-2.287.191-8.767,0-10.482-1.222s-6.289-5.067-11.434-4.877-8.005,3.621-9.911,6.1a37.724,37.724,0,0,0,9.148,1.621,49,49,0,0,0,10.064-1.24" transform="translate(-6.021 -8.241)" fill="none" stroke="#ccc" stroke-linecap="round" stroke-linejoin="round" stroke-width="2"/>
    <path id="Path_656" data-name="Path 656" d="M104.6,577.819c4.574-.953,5.8-3.229,11.841-3.229,3.112,0,5.592.235,10.838,3.229,4.771,2.723,5.938,3.043,13.836,1.033" transform="translate(-5.79 -6.975)" fill="none" stroke="#ccc" stroke-linecap="round" stroke-linejoin="round" stroke-width="2"/>
    <path id="Path_657" data-name="Path 657" d="M117.533,601.175c.025-4.068,0-8.137,0-8.137" transform="translate(-7.962 -10.073)" fill="none" stroke="#ccc" stroke-linecap="round" stroke-linejoin="round" stroke-width="2"/>
    <path id="Path_658" data-name="Path 658" d="M121.347,593.038c2.315,1.851,5.171,3.774,7.273,5.224a16.461,16.461,0,0,0,6.48,2.976c3.108.529,5.416.634,7.565-.719s1.264-3.2-.074-4.2c-1.4-1.042-3.422-1.321-3.951-.238-.715,1.464,1.744,2.452,1.744,2.452" transform="translate(-8.602 -10.073)" fill="none" stroke="#ccc" stroke-linecap="round" stroke-linejoin="round" stroke-width="2"/>
    <path id="Path_659" data-name="Path 659" d="M120.732,582.38c2.11.776,2.108,2.391,2.11,4a3.217,3.217,0,0,1-2.742,3.432" transform="translate(-8.393 -8.283)" fill="none" stroke="#ccc" stroke-linecap="round" stroke-linejoin="round" stroke-width="2"/>
    <path id="Path_660" data-name="Path 660" d="M114.647,582.542c-2.031.906-2.031,3.3-2.031,3.943a3.2,3.2,0,0,0,2.119,3.356" transform="translate(-7.136 -8.31)" fill="none" stroke="#ccc" stroke-linecap="round" stroke-linejoin="round" stroke-width="2"/>
  </g>
</svg>
