<svg xmlns="http://www.w3.org/2000/svg" width="47.384" height="47.384" viewBox="0 0 47.384 47.384">
  <g id="IG_icon" data-name="IG icon" transform="translate(-1875.928 -1898.188)">
    <path id="Path_293" data-name="Path 293" d="M255.583,616.609A22.192,22.192,0,1,1,233.391,638.8,22.193,22.193,0,0,1,255.583,616.609Z" transform="translate(1644.037 1283.079)" fill="none" stroke="#fff" stroke-linecap="round" stroke-linejoin="round" stroke-width="3"/>
    <g id="Group_19" data-name="Group 19" transform="translate(1883.825 1906.085)">
      <path id="Path_304" data-name="Path 304" d="M15.8,6.19c3.128,0,3.5.012,4.734.068a6.485,6.485,0,0,1,2.176.4,3.88,3.88,0,0,1,2.224,2.224,6.485,6.485,0,0,1,.4,2.176c.056,1.235.068,1.606.068,4.734s-.012,3.5-.068,4.734a6.485,6.485,0,0,1-.4,2.176,3.88,3.88,0,0,1-2.224,2.224,6.485,6.485,0,0,1-2.176.4c-1.235.056-1.606.068-4.734.068s-3.5-.012-4.734-.068a6.485,6.485,0,0,1-2.176-.4,3.88,3.88,0,0,1-2.224-2.224,6.485,6.485,0,0,1-.4-2.176C6.2,19.294,6.19,18.924,6.19,15.8s.012-3.5.068-4.734a6.485,6.485,0,0,1,.4-2.176A3.88,3.88,0,0,1,8.885,6.662a6.485,6.485,0,0,1,2.176-.4C12.3,6.2,12.667,6.19,15.8,6.19m0-2.111c-3.182,0-3.581.013-4.831.071a8.6,8.6,0,0,0-2.844.545A5.991,5.991,0,0,0,4.694,8.121a8.6,8.6,0,0,0-.545,2.844c-.057,1.25-.071,1.649-.071,4.831s.013,3.581.071,4.831a8.6,8.6,0,0,0,.545,2.844A5.991,5.991,0,0,0,8.121,26.9a8.6,8.6,0,0,0,2.844.545c1.25.057,1.649.071,4.831.071s3.581-.013,4.831-.071A8.6,8.6,0,0,0,23.47,26.9,5.991,5.991,0,0,0,26.9,23.47a8.6,8.6,0,0,0,.545-2.844c.057-1.25.071-1.649.071-4.831s-.013-3.581-.071-4.831A8.6,8.6,0,0,0,26.9,8.121,5.991,5.991,0,0,0,23.47,4.694a8.6,8.6,0,0,0-2.844-.545c-1.25-.057-1.649-.071-4.831-.071Z" fill="#fff"/>
      <path id="Path_305" data-name="Path 305" d="M132.652,126.635a6.017,6.017,0,1,0,6.017,6.017A6.017,6.017,0,0,0,132.652,126.635Zm0,9.922a3.905,3.905,0,1,1,3.906-3.905A3.905,3.905,0,0,1,132.652,136.557Z" transform="translate(-116.856 -116.856)" fill="#fff"/>
      <circle id="Ellipse_3" data-name="Ellipse 3" cx="1.406" cy="1.406" r="1.406" transform="translate(20.644 8.135)" fill="#fff"/>
    </g>
  </g>
</svg>
