<svg xmlns="http://www.w3.org/2000/svg" width="47.384" height="47.384" viewBox="0 0 47.384 47.384">
  <g id="LinkedIn_icon" data-name="LinkedIn icon" transform="translate(-2086.283 -1898.188)">
    <path id="Path_296" data-name="Path 296" d="M255.583,616.609A22.192,22.192,0,1,1,233.391,638.8,22.193,22.193,0,0,1,255.583,616.609Z" transform="translate(1854.392 1283.079)" fill="none" stroke="#d8d8d8" stroke-linecap="round" stroke-linejoin="round" stroke-width="3"/>
    <g id="Group_21" data-name="Group 21" transform="translate(1305.809 643.207)">
      <path id="Path_309" data-name="Path 309" d="M959.222,1425.41h-4.249v-13.534h4.063v1.746l.047.016c.034-.042.072-.081.1-.125a4.369,4.369,0,0,1,3.364-1.979,6.892,6.892,0,0,1,2.3.191,3.891,3.891,0,0,1,2.895,2.9,9.822,9.822,0,0,1,.37,2.74c.009,2.578,0,5.155,0,7.733v.31h-4.236c-.009-.139-.024-.267-.024-.4,0-2.207.01-4.414-.009-6.621a7.8,7.8,0,0,0-.176-1.648,1.734,1.734,0,0,0-1.861-1.466,3.729,3.729,0,0,0-.916.083,2,2,0,0,0-1.511,1.665,6.332,6.332,0,0,0-.161,1.333c-.016,2.224-.007,4.449-.007,6.673Z" transform="translate(-153.792 -136.598)" fill="#d8d8d8"/>
      <path id="Path_310" data-name="Path 310" d="M801.566,1433.308v-13.53H805.8v13.53Z" transform="translate(-7.229 -144.498)" fill="#d8d8d8"/>
      <path id="Path_311" data-name="Path 311" d="M796.45,1273.445a2.456,2.456,0,1,1,2.463-2.437A2.435,2.435,0,0,1,796.45,1273.445Z" transform="translate(0 0)" fill="#d8d8d8"/>
    </g>
  </g>
</svg>
