<svg xmlns="http://www.w3.org/2000/svg" width="193.368" height="66.585" viewBox="0 0 193.368 66.585">
  <g id="Modality" transform="translate(-1506.904 -1068.14)">
    <g id="Modality_arrow" data-name="Modality arrow" transform="translate(1428.166 563.35)" opacity="0.002">
      <path id="arrow" d="M-6145.265,30a2,2,0,0,1-2-2V2a2,2,0,0,1,2-2h103.635a2,2,0,0,1,2,2V28a2,2,0,0,1-2,2ZM-6156,15.507l8.735-14.139V28.633Z" transform="translate(6311.736 525)" fill="#bfaf46" opacity="0.901"/>
      <text id="Modality-2" data-name="Modality" transform="translate(173.107 531)" font-size="15" font-family="Lato-Black, Lato Black" font-weight="800" letter-spacing="0.06em" opacity="0"><tspan x="0" y="15">MODALITY</tspan></text>
    </g>
    <g id="Modality_icon" data-name="Modality icon" transform="translate(1507.904 1069.141)" opacity="0.9">
      <path id="Path_52" data-name="Path 52" d="M463.5,574.98a32.292,32.292,0,1,1-32.292,32.294A32.294,32.294,0,0,1,463.5,574.98Z" transform="translate(-431.208 -574.98)" fill="none" stroke="#bfaf46" stroke-linecap="round" stroke-linejoin="round" stroke-width="2"/>
      <rect id="Rectangle_5" data-name="Rectangle 5" width="34.843" height="20.907" transform="translate(12.481 20.207)" fill="none" stroke="#bfaf46" stroke-linecap="round" stroke-linejoin="round" stroke-width="2"/>
      <ellipse id="Ellipse_2" data-name="Ellipse 2" cx="1.298" cy="1.298" rx="1.298" ry="1.298" transform="translate(8.324 29.363)" fill="none" stroke="#bfaf46" stroke-linecap="round" stroke-linejoin="round" stroke-width="2"/>
      <path id="Path_53" data-name="Path 53" d="M456.853,639.786c.219-.834.4-1.567.54-2.129.3-1.249.709-1.908,1.527-2.271s5.2-1.874,5.2-1.874v-2.561" transform="translate(-442.063 -598.672)" fill="none" stroke="#bfaf46" stroke-linecap="round" stroke-linejoin="round" stroke-width="2"/>
      <path id="Path_54" data-name="Path 54" d="M483.925,639.784c-.217-.834-.4-1.565-.541-2.127-.3-1.249-.708-1.908-1.525-2.271s-5.207-1.874-5.207-1.874v-2.561" transform="translate(-450.443 -598.672)" fill="none" stroke="#bfaf46" stroke-linecap="round" stroke-linejoin="round" stroke-width="2"/>
      <path id="Path_55" data-name="Path 55" d="M473.924,620.511v-3.1a3.252,3.252,0,1,0-6.5,0v3.1" transform="translate(-446.536 -591.564)" fill="none" stroke="#bfaf46" stroke-linecap="round" stroke-linejoin="round" stroke-width="2"/>
      <path id="Path_56" data-name="Path 56" d="M473.924,621.066v3.1a3.252,3.252,0,1,1-6.5,0v-3.1" transform="translate(-446.536 -594.487)" fill="none" stroke="#bfaf46" stroke-linecap="round" stroke-linejoin="round" stroke-width="2"/>
      <path id="Path_57" data-name="Path 57" d="M483.059,634.813c1.568-.567,3.693-1.3,3.693-1.3v-2.561" transform="translate(-453.156 -598.672)" fill="none" stroke="#bfaf46" stroke-linecap="round" stroke-linejoin="round" stroke-width="2"/>
      <path id="Path_58" data-name="Path 58" d="M503.926,639.787c-.219-.835-.405-1.568-.542-2.131-.3-1.249-.708-1.908-1.526-2.271s-5.207-1.874-5.207-1.874v-2.561" transform="translate(-458.909 -598.672)" fill="none" stroke="#bfaf46" stroke-linecap="round" stroke-linejoin="round" stroke-width="2"/>
      <path id="Path_59" data-name="Path 59" d="M493.924,620.511v-3.1a3.252,3.252,0,1,0-6.5,0v3.1" transform="translate(-455.002 -591.564)" fill="none" stroke="#bfaf46" stroke-linecap="round" stroke-linejoin="round" stroke-width="2"/>
      <path id="Path_60" data-name="Path 60" d="M493.924,621.066v3.1a3.252,3.252,0,1,1-6.5,0v-3.1" transform="translate(-455.002 -594.487)" fill="none" stroke="#bfaf46" stroke-linecap="round" stroke-linejoin="round" stroke-width="2"/>
      <path id="Path_61" data-name="Path 61" d="M476.269,640.535a4.616,4.616,0,0,0,4.6,4.6h22.593a4.616,4.616,0,0,0,4.6-4.6V630.08a4.615,4.615,0,0,0-4.6-4.6" transform="translate(-450.281 -596.355)" fill="none" stroke="#bfaf46" stroke-linecap="round" stroke-linejoin="round" stroke-width="2"/>
      <rect id="Rectangle_6" data-name="Rectangle 6" width="46.494" height="26.829" rx="7.98" transform="translate(6.656 17.246)" fill="none" stroke="#bfaf46" stroke-linecap="round" stroke-linejoin="round" stroke-width="2"/>
    </g>
  </g>
</svg>
