<svg xmlns="http://www.w3.org/2000/svg" width="113.987" height="113.987" viewBox="0 0 113.987 113.987">
  <g id="Philosophy_icon" data-name="Philosophy icon" transform="translate(-67.315 -667.425)">
    <g id="Group_105" data-name="Group 105" transform="translate(68.315 668.425)">
      <path id="Path_866" data-name="Path 866" d="M124.309,668.425A55.994,55.994,0,1,1,68.315,724.42,56,56,0,0,1,124.309,668.425Z" transform="translate(-68.315 -668.425)" fill="none" stroke="#ccc" stroke-linecap="round" stroke-linejoin="round" stroke-width="2"/>
    </g>
    <path id="Path_867" data-name="Path 867" d="M142.1,760.829a20.969,20.969,0,0,1-.726-7.4c.274-5.2,2.188-5.468,6.835-15.584s5.3-23.528-3.43-32.534c-5.631-5.806-11.374-7.325-17.8-7.949-9.627-.934-21.384,2.813-26.134,12.825-1.649,3.476-3.585,9.16-1.569,12.621,2.1,3.614-4.648,12.85-6.015,14.764s7.139,3.148,7.139,3.148.706,14.112,1.258,14.413c4.109,2.242,11.541,2.785,13.549,2.8" transform="translate(0 0)" fill="none" stroke="#ccc" stroke-linecap="round" stroke-linejoin="round" stroke-width="2"/>
    <circle id="Ellipse_17" data-name="Ellipse 17" cx="16.698" cy="16.698" r="16.698" transform="translate(108.414 706.043)" fill="none" stroke="#ccc" stroke-linecap="round" stroke-linejoin="round" stroke-width="2"/>
    <path id="Path_868" data-name="Path 868" d="M124.9,706.068c3.385-.025,8.7,3.082,8.7,8.728,0,5.171-4.455,7.6-8.7,8-4.889.453-8.168,3.618-8.168,8.656,0,6.47,5.347,7.99,8.381,7.99" transform="translate(0 0)" fill="none" stroke="#ccc" stroke-linecap="round" stroke-linejoin="round" stroke-width="2"/>
    <circle id="Ellipse_18" data-name="Ellipse 18" cx="2.792" cy="2.792" r="2.792" transform="translate(122.321 728.658)" fill="none" stroke="#ccc" stroke-linecap="round" stroke-linejoin="round" stroke-width="2"/>
    <circle id="Ellipse_19" data-name="Ellipse 19" cx="2.792" cy="2.792" r="2.792" transform="translate(122.321 711.774)" fill="none" stroke="#ccc" stroke-linecap="round" stroke-linejoin="round" stroke-width="2"/>
    <path id="Path_869" data-name="Path 869" d="M121.464,755.68a9.244,9.244,0,0,1-6.259,2.254v8.134" transform="translate(0 0)" fill="none" stroke="#ccc" stroke-linecap="round" stroke-linejoin="round" stroke-width="2"/>
    <line id="Line_187" data-name="Line 187" x1="10.602" transform="translate(81.352 722.742)" fill="none" stroke="#ccc" stroke-linecap="round" stroke-linejoin="round" stroke-width="2"/>
    <line id="Line_188" data-name="Line 188" x1="8.913" transform="translate(158.271 722.742)" fill="none" stroke="#ccc" stroke-linecap="round" stroke-linejoin="round" stroke-width="2"/>
    <line id="Line_189" data-name="Line 189" y1="8.387" transform="translate(125.112 682.774)" fill="none" stroke="#ccc" stroke-linecap="round" stroke-linejoin="round" stroke-width="2"/>
    <line id="Line_190" data-name="Line 190" x1="6.7" y1="6.7" transform="translate(94.176 692.31)" fill="none" stroke="#ccc" stroke-linecap="round" stroke-linejoin="round" stroke-width="2"/>
    <line id="Line_191" data-name="Line 191" y1="6.08" x2="6.08" transform="translate(148.67 694.027)" fill="none" stroke="#ccc" stroke-linecap="round" stroke-linejoin="round" stroke-width="2"/>
    <line id="Line_192" data-name="Line 192" x1="9.035" y1="4.407" transform="translate(84.423 706.872)" fill="none" stroke="#ccc" stroke-linecap="round" stroke-linejoin="round" stroke-width="2"/>
    <line id="Line_193" data-name="Line 193" x1="3.296" y1="8.251" transform="translate(108.782 685.069)" fill="none" stroke="#ccc" stroke-linecap="round" stroke-linejoin="round" stroke-width="2"/>
    <line id="Line_194" data-name="Line 194" y1="7.812" x2="3.233" transform="translate(137.234 685.509)" fill="none" stroke="#ccc" stroke-linecap="round" stroke-linejoin="round" stroke-width="2"/>
    <line id="Line_195" data-name="Line 195" y1="4.042" x2="8.678" transform="translate(155.46 706.991)" fill="none" stroke="#ccc" stroke-linecap="round" stroke-linejoin="round" stroke-width="2"/>
    <line id="Line_196" data-name="Line 196" x2="7.45" y2="3.877" transform="translate(155.908 734.989)" fill="none" stroke="#ccc" stroke-linecap="round" stroke-linejoin="round" stroke-width="2"/>
  </g>
</svg>
