<svg xmlns="http://www.w3.org/2000/svg" width="47.384" height="47.384" viewBox="0 0 47.384 47.384">
  <g id="Pinterest_icon" data-name="Pinterest icon" transform="translate(-2156.401 -1898.188)">
    <path id="Path_297" data-name="Path 297" d="M255.583,616.609A22.192,22.192,0,1,1,233.391,638.8,22.193,22.193,0,0,1,255.583,616.609Z" transform="translate(1924.51 1283.079)" fill="none" stroke="#fff" stroke-linecap="round" stroke-linejoin="round" stroke-width="3"/>
    <path id="Path_312" data-name="Path 312" d="M12.679,0A12.683,12.683,0,0,0,8.056,24.493,12.207,12.207,0,0,1,8.1,20.85c.23-.991,1.482-6.3,1.482-6.3A4.619,4.619,0,0,1,9.2,12.669c0-1.764,1.023-3.079,2.3-3.079a1.593,1.593,0,0,1,1.607,1.785A25.07,25.07,0,0,1,12.053,15.6a1.844,1.844,0,0,0,1.878,2.3c2.254,0,3.986-2.379,3.986-5.8a5,5,0,0,0-5.3-5.155,5.487,5.487,0,0,0-5.729,5.5,4.949,4.949,0,0,0,.939,2.891.377.377,0,0,1,.083.365c-.094.4-.313,1.263-.355,1.44-.052.23-.188.282-.428.167-1.586-.741-2.578-3.047-2.578-4.915,0-4,2.9-7.67,8.38-7.67,4.393,0,7.816,3.131,7.816,7.326,0,4.373-2.755,7.889-6.574,7.889a3.369,3.369,0,0,1-2.9-1.461l-.793,3.016A13.814,13.814,0,0,1,8.9,24.816,12.691,12.691,0,1,0,12.679,0Z" transform="translate(2167.792 1909.213)" fill="#fff"/>
  </g>
</svg>
