<svg xmlns="http://www.w3.org/2000/svg" width="182.368" height="66.585" viewBox="0 0 182.368 66.585">
  <g id="Services_Hover" data-name="Services Hover" transform="translate(-1806.834 -1160.857)" opacity="0.9">
    <g id="Services_arrow" data-name="Services arrow" transform="translate(1731.096 657.148)">
      <path id="arrow" d="M-6145.265,30a2,2,0,0,1-2-2V2a2,2,0,0,1,2-2h89.636a2,2,0,0,1,2,2V28a2,2,0,0,1-2,2ZM-6156,15.507l8.735-14.139V28.633Z" transform="translate(6311.736 525)" fill="#ece8aa"/>
      <text id="services" transform="translate(173.107 531)" font-size="15" font-family="Lato-Black, Lato Black" font-weight="800" letter-spacing="0.06em" opacity="0.901"><tspan x="0" y="15">SERVICES</tspan></text>
    </g>
    <g id="Services_icon" data-name="Services icon" transform="translate(1807.834 1161.857)">
      <path id="Path_334" data-name="Path 334" d="M-922.5,445.572l.007,3.739a4.771,4.771,0,0,1,4.635,5.033c0,1.227-.2,7.336-.2,8.655a1.588,1.588,0,0,1-1.205.443,2.024,2.024,0,0,1-1.506-2.193" transform="translate(973.082 -421.334)" fill="none" stroke="#ece7b1" stroke-linecap="round" stroke-linejoin="round" stroke-width="2"/>
      <path id="Path_335" data-name="Path 335" d="M-936.616,472.3s.113,4.776.213,7.364c.068,1.836.949,2.43,1.7,2.419a2.17,2.17,0,0,0,1.668-.825" transform="translate(979.057 -432.649)" fill="none" stroke="#ece7b1" stroke-linecap="round" stroke-linejoin="round" stroke-width="2"/>
      <path id="Path_336" data-name="Path 336" d="M-930.76,473.238l.217,8.969s.11,1.746,1.484,1.776c1.727.035,1.565-1.958,1.565-1.958l-.08-8.291" transform="translate(976.578 -433.044)" fill="none" stroke="#ece7b1" stroke-linecap="round" stroke-linejoin="round" stroke-width="2"/>
      <path id="Path_337" data-name="Path 337" d="M-926.625,476.159s-.039,2.088,1.595,2.1c1.727.016,1.563-1.958,1.563-1.958l.131-12.216a5.511,5.511,0,0,1-5.347-2.326" transform="translate(975.699 -428.187)" fill="none" stroke="#ece7b1" stroke-linecap="round" stroke-linejoin="round" stroke-width="2"/>
      <path id="Path_338" data-name="Path 338" d="M-939.465,445.742l-.132,3.3a2.568,2.568,0,0,0-2.681,2.673c-.211,2.851,0,10.564.091,14,.045,1.792.9,2.745,1.827,2.783a1.654,1.654,0,0,0,1.378-.514" transform="translate(981.492 -421.406)" fill="none" stroke="#ece7b1" stroke-linecap="round" stroke-linejoin="round" stroke-width="2"/>
      <path id="Path_339" data-name="Path 339" d="M-941.946,404.9c-.1,7.3.3,23.344.3,23.344l13.481-.062.2-16.253" transform="translate(981.32 -404.118)" fill="none" stroke="#ece7b1" stroke-linecap="round" stroke-linejoin="round" stroke-width="2"/>
      <path id="Path_340" data-name="Path 340" d="M-989.334,445.572l-.008,3.739a4.771,4.771,0,0,0-4.635,5.033c0,1.227.2,7.336.2,8.655a1.588,1.588,0,0,0,1.205.443,2.024,2.024,0,0,0,1.506-2.193" transform="translate(1003.337 -421.334)" fill="none" stroke="#ece7b1" stroke-linecap="round" stroke-linejoin="round" stroke-width="2"/>
      <path id="Path_341" data-name="Path 341" d="M-974.442,472.3s-.113,4.776-.213,7.364c-.068,1.836-.949,2.43-1.7,2.419a2.17,2.17,0,0,1-1.668-.825" transform="translate(996.585 -432.649)" fill="none" stroke="#ece7b1" stroke-linecap="round" stroke-linejoin="round" stroke-width="2"/>
      <path id="Path_342" data-name="Path 342" d="M-980.067,473.238l-.217,8.969s-.11,1.746-1.484,1.776c-1.727.035-1.565-1.958-1.565-1.958l.08-8.291" transform="translate(998.833 -433.044)" fill="none" stroke="#ece7b1" stroke-linecap="round" stroke-linejoin="round" stroke-width="2"/>
      <path id="Path_343" data-name="Path 343" d="M-985.727,476.159s.039,2.088-1.595,2.1c-1.727.016-1.563-1.958-1.563-1.958l-.131-12.216a5.511,5.511,0,0,0,5.347-2.326" transform="translate(1001.238 -428.187)" fill="none" stroke="#ece7b1" stroke-linecap="round" stroke-linejoin="round" stroke-width="2"/>
      <path id="Path_344" data-name="Path 344" d="M-971.447,445.742l.132,3.3a2.568,2.568,0,0,1,2.681,2.673c.211,2.851,0,10.564-.091,14-.045,1.792-.9,2.745-1.827,2.783a1.654,1.654,0,0,1-1.378-.514" transform="translate(994.005 -421.406)" fill="none" stroke="#ece7b1" stroke-linecap="round" stroke-linejoin="round" stroke-width="2"/>
      <path id="Path_345" data-name="Path 345" d="M-976.751,404.9c.1,7.3-.3,23.344-.3,23.344l-13.481-.062-.2-16.253" transform="translate(1001.961 -404.118)" fill="none" stroke="#ece7b1" stroke-linecap="round" stroke-linejoin="round" stroke-width="2"/>
      <path id="Path_346" data-name="Path 346" d="M-977.914,403.544a32.293,32.293,0,0,1,32.291,32.292,32.293,32.293,0,0,1-32.293,32.293,32.293,32.293,0,0,1-32.291-32.291A32.294,32.294,0,0,1-977.914,403.544Z" transform="translate(1010.207 -403.544)" fill="none" stroke="#ece7b1" stroke-linecap="round" stroke-linejoin="round" stroke-width="2"/>
      <path id="Path_347" data-name="Path 347" d="M-922.5,445.572l.007,3.739a4.771,4.771,0,0,1,4.635,5.033c0,1.227-.2,7.336-.2,8.655a1.588,1.588,0,0,1-1.205.443,2.024,2.024,0,0,1-1.506-2.193" transform="translate(973.082 -421.334)" fill="none" stroke="#ece7b1" stroke-linecap="round" stroke-linejoin="round" stroke-width="2"/>
      <path id="Path_348" data-name="Path 348" d="M-936.616,472.3s.113,4.776.213,7.364c.068,1.836.949,2.43,1.7,2.419a2.17,2.17,0,0,0,1.668-.825" transform="translate(979.057 -432.649)" fill="none" stroke="#ece7b1" stroke-linecap="round" stroke-linejoin="round" stroke-width="2"/>
      <path id="Path_349" data-name="Path 349" d="M-930.76,473.238l.217,8.969s.11,1.746,1.484,1.776c1.727.035,1.565-1.958,1.565-1.958l-.08-8.291" transform="translate(976.578 -433.044)" fill="none" stroke="#ece7b1" stroke-linecap="round" stroke-linejoin="round" stroke-width="2"/>
      <path id="Path_350" data-name="Path 350" d="M-926.625,476.159s-.039,2.088,1.595,2.1c1.727.016,1.563-1.958,1.563-1.958l.131-12.216a5.511,5.511,0,0,1-5.347-2.326" transform="translate(975.699 -428.187)" fill="none" stroke="#ece7b1" stroke-linecap="round" stroke-linejoin="round" stroke-width="2"/>
      <path id="Path_351" data-name="Path 351" d="M-939.465,445.742l-.132,3.3a2.568,2.568,0,0,0-2.681,2.673c-.211,2.851,0,10.564.091,14,.045,1.792.9,2.745,1.827,2.783a1.654,1.654,0,0,0,1.378-.514" transform="translate(981.492 -421.406)" fill="none" stroke="#ece7b1" stroke-linecap="round" stroke-linejoin="round" stroke-width="2"/>
      <path id="Path_352" data-name="Path 352" d="M-941.946,404.9c-.1,7.3.3,23.344.3,23.344l13.481-.062.2-16.253" transform="translate(981.32 -404.118)" fill="none" stroke="#ece7b1" stroke-linecap="round" stroke-linejoin="round" stroke-width="2"/>
      <path id="Path_353" data-name="Path 353" d="M-989.334,445.572l-.008,3.739a4.771,4.771,0,0,0-4.635,5.033c0,1.227.2,7.336.2,8.655a1.588,1.588,0,0,0,1.205.443,2.024,2.024,0,0,0,1.506-2.193" transform="translate(1003.337 -421.334)" fill="none" stroke="#ece7b1" stroke-linecap="round" stroke-linejoin="round" stroke-width="2"/>
      <path id="Path_354" data-name="Path 354" d="M-974.442,472.3s-.113,4.776-.213,7.364c-.068,1.836-.949,2.43-1.7,2.419a2.17,2.17,0,0,1-1.668-.825" transform="translate(996.585 -432.649)" fill="none" stroke="#ece7b1" stroke-linecap="round" stroke-linejoin="round" stroke-width="2"/>
      <path id="Path_355" data-name="Path 355" d="M-980.067,473.238l-.217,8.969s-.11,1.746-1.484,1.776c-1.727.035-1.565-1.958-1.565-1.958l.08-8.291" transform="translate(998.833 -433.044)" fill="none" stroke="#ece7b1" stroke-linecap="round" stroke-linejoin="round" stroke-width="2"/>
      <path id="Path_356" data-name="Path 356" d="M-985.727,476.159s.039,2.088-1.595,2.1c-1.727.016-1.563-1.958-1.563-1.958l-.131-12.216a5.511,5.511,0,0,0,5.347-2.326" transform="translate(1001.238 -428.187)" fill="none" stroke="#ece7b1" stroke-linecap="round" stroke-linejoin="round" stroke-width="2"/>
      <path id="Path_357" data-name="Path 357" d="M-971.447,445.742l.132,3.3a2.568,2.568,0,0,1,2.681,2.673c.211,2.851,0,10.564-.091,14-.045,1.792-.9,2.745-1.827,2.783a1.654,1.654,0,0,1-1.378-.514" transform="translate(994.005 -421.406)" fill="none" stroke="#ece7b1" stroke-linecap="round" stroke-linejoin="round" stroke-width="2"/>
      <path id="Path_358" data-name="Path 358" d="M-976.751,404.9c.1,7.3-.3,23.344-.3,23.344l-13.481-.062-.2-16.253" transform="translate(1001.961 -404.118)" fill="none" stroke="#ece7b1" stroke-linecap="round" stroke-linejoin="round" stroke-width="2"/>
    </g>
  </g>
</svg>
