<svg xmlns="http://www.w3.org/2000/svg" width="113.986" height="113.987" viewBox="0 0 113.986 113.987">
  <g id="Therapist_Icon" data-name="Therapist Icon" transform="translate(-251.068 -416.556)">
    <g id="Group_104" data-name="Group 104" transform="translate(252.068 417.556)">
      <path id="Path_857" data-name="Path 857" d="M308.062,417.556a55.994,55.994,0,1,1-55.994,55.995A56,56,0,0,1,308.062,417.556Z" transform="translate(-252.068 -417.556)" fill="none" stroke="#ccc" stroke-linecap="round" stroke-linejoin="round" stroke-width="2"/>
    </g>
    <path id="Path_858" data-name="Path 858" d="M324.98,492.8H323.1c-.231,1.162-5.62,20.88-5.62,20.88s-.328,2.122-3.154,1.56c-2.78-.552-2.219-2.627-2.219-2.627s4.126-22.775,4.336-23.547a5.533,5.533,0,0,1,1.367-2.723c1.659-1.763,6.535-1.168,6.535-1.168" transform="translate(0 0)" fill="none" stroke="#ccc" stroke-linecap="round" stroke-linejoin="round" stroke-width="2"/>
    <circle id="Ellipse_12" data-name="Ellipse 12" cx="5.091" cy="5.091" r="5.091" transform="translate(337.663 451.031)" fill="none" stroke="#ccc" stroke-linecap="round" stroke-linejoin="round" stroke-width="2"/>
    <path id="Path_859" data-name="Path 859" d="M336.04,477.489s1.211-4.9,2.188-8.671,2.625-4.005,4.723-3.763c3.511.4,4.843,1.844,4.215,5.851-.866,5.532-2.812,13.83-2.812,13.83l-15.174-2.413a2.465,2.465,0,0,1-1.021-2.97c.665-2.09,3.625-1.182,3.625-1.182l8.887,1.3,1.874-7.869" transform="translate(0 0)" fill="none" stroke="#ccc" stroke-linecap="round" stroke-linejoin="round" stroke-width="2"/>
    <path id="Path_860" data-name="Path 860" d="M355.682,503.017V464.988s-.72-2.168-4.74,0-6.588,19.748-6.588,19.748H328.009s-3.292,0-3.885,2.421c-.779,3.183.856,3.3,1.291,4,1.009,1.616.58,20.572.58,20.572h22.793" transform="translate(0 0)" fill="none" stroke="#ccc" stroke-linecap="round" stroke-linejoin="round" stroke-width="2"/>
    <path id="Path_861" data-name="Path 861" d="M291.143,492.813h1.883c.231,1.162,5.62,20.88,5.62,20.88s.327,2.121,3.154,1.56c2.78-.553,2.219-2.627,2.219-2.627s-4.126-22.775-4.336-23.548a5.536,5.536,0,0,0-1.367-2.723c-1.659-1.762-6.535-1.167-6.535-1.167" transform="translate(0 0)" fill="none" stroke="#ccc" stroke-linecap="round" stroke-linejoin="round" stroke-width="2"/>
    <circle id="Ellipse_13" data-name="Ellipse 13" cx="5.091" cy="5.091" r="5.091" transform="translate(268.279 451.04)" fill="none" stroke="#ccc" stroke-linecap="round" stroke-linejoin="round" stroke-width="2"/>
    <path id="Path_862" data-name="Path 862" d="M280.083,477.5s-1.211-4.9-2.189-8.671-2.624-4.005-4.723-3.763c-3.511.4-4.842,1.844-4.215,5.851.867,5.532,2.812,13.829,2.812,13.829l15.174-2.413a2.463,2.463,0,0,0,1.021-2.969c-.665-2.09-3.625-1.182-3.625-1.182l-8.886,1.3-1.874-7.869" transform="translate(0 0)" fill="none" stroke="#ccc" stroke-linecap="round" stroke-linejoin="round" stroke-width="2"/>
    <path id="Path_863" data-name="Path 863" d="M260.441,503.016V465s.72-2.168,4.74,0,6.587,19.747,6.587,19.747h16.345s3.292,0,3.885,2.422c.78,3.183-.855,3.3-1.291,4-1.008,1.616-.58,20.572-.58,20.572h-23.01" transform="translate(0 0)" fill="none" stroke="#ccc" stroke-linecap="round" stroke-linejoin="round" stroke-width="2"/>
    <path id="Path_864" data-name="Path 864" d="M306.588,451.807v1.475A3.626,3.626,0,0,0,310.2,456.9h13.6a5.121,5.121,0,0,0,1,2.663,4.819,4.819,0,0,0,4.286,1.764,11.26,11.26,0,0,1-1.415-2.512,6.539,6.539,0,0,1-.306-1.915h.587a3.626,3.626,0,0,0,3.616-3.615v-8.216a3.626,3.626,0,0,0-3.616-3.616h-4.875" transform="translate(0 0)" fill="none" stroke="#ccc" stroke-linecap="round" stroke-linejoin="round" stroke-width="2"/>
    <path id="Path_865" data-name="Path 865" d="M318.466,430.728h-29.3a3.626,3.626,0,0,0-3.615,3.615v13.849a3.626,3.626,0,0,0,3.615,3.615h2.53a9.528,9.528,0,0,1-.448,2.8,16.419,16.419,0,0,1-2.068,3.674,7.046,7.046,0,0,0,6.266-2.581,7.512,7.512,0,0,0,1.467-3.893h21.554a3.627,3.627,0,0,0,3.616-3.615V434.343A3.627,3.627,0,0,0,318.466,430.728Z" transform="translate(0 0)" fill="none" stroke="#ccc" stroke-linecap="round" stroke-linejoin="round" stroke-width="2"/>
    <circle id="Ellipse_14" data-name="Ellipse 14" cx="1.093" cy="1.093" r="1.093" transform="translate(293.41 440.357)" fill="none" stroke="#ccc" stroke-linecap="round" stroke-linejoin="round" stroke-width="3.906"/>
    <circle id="Ellipse_15" data-name="Ellipse 15" cx="1.093" cy="1.093" r="1.093" transform="translate(303.016 440.357)" fill="none" stroke="#ccc" stroke-linecap="round" stroke-linejoin="round" stroke-width="3.906"/>
    <circle id="Ellipse_16" data-name="Ellipse 16" cx="1.093" cy="1.093" r="1.093" transform="translate(312.623 440.357)" fill="none" stroke="#ccc" stroke-linecap="round" stroke-linejoin="round" stroke-width="3.906"/>
  </g>
</svg>
