<svg xmlns="http://www.w3.org/2000/svg" width="47.384" height="47.384" viewBox="0 0 47.384 47.384">
  <g id="Twitter_icon" data-name="Twitter icon" transform="translate(-1946.046 -1898.188)">
    <path id="Path_294" data-name="Path 294" d="M255.583,616.609A22.192,22.192,0,1,1,233.391,638.8,22.193,22.193,0,0,1,255.583,616.609Z" transform="translate(1714.155 1283.079)" fill="none" stroke="#fff" stroke-linecap="round" stroke-linejoin="round" stroke-width="3"/>
    <path id="Path_306" data-name="Path 306" d="M82.619,118.1A14.045,14.045,0,0,0,96.76,103.958c0-.215,0-.429-.014-.643a10.113,10.113,0,0,0,2.479-2.573,9.921,9.921,0,0,1-2.854.782,4.987,4.987,0,0,0,2.185-2.749A9.96,9.96,0,0,1,95.4,99.981a4.975,4.975,0,0,0-8.47,4.533,14.11,14.11,0,0,1-10.244-5.193,4.974,4.974,0,0,0,1.539,6.635,4.933,4.933,0,0,1-2.251-.622c0,.021,0,.042,0,.063a4.972,4.972,0,0,0,3.987,4.873,4.963,4.963,0,0,1-2.244.085,4.976,4.976,0,0,0,4.643,3.452,9.973,9.973,0,0,1-6.173,2.128A10.109,10.109,0,0,1,75,115.866a14.071,14.071,0,0,0,7.619,2.232" transform="translate(1883.43 1814.279)" fill="#fff"/>
  </g>
</svg>
