<svg xmlns="http://www.w3.org/2000/svg" width="66.584" height="66.585" viewBox="0 0 66.584 66.585">
  <g id="Visual_Art_icon" data-name="Visual Art icon" transform="translate(1 1)">
    <path id="Path_72" data-name="Path 72" d="M453.906,379.473a32.292,32.292,0,1,1-32.293,32.293A32.293,32.293,0,0,1,453.906,379.473Z" transform="translate(-421.613 -379.473)" fill="#bfaf46" stroke="#bfaf46" stroke-linecap="round" stroke-linejoin="round" stroke-width="2"/>
    <path id="Path_62" data-name="Path 62" d="M448.683,447.62l3.893-1.367a5.262,5.262,0,0,1,3.559-6.656c.97-.339,4.906-1.577,7.351-2.367" transform="translate(-433.071 -403.92)" fill="none" stroke="#000" stroke-linecap="round" stroke-linejoin="round" stroke-width="2"/>
    <path id="Path_63" data-name="Path 63" d="M478.171,467.165l-.205,10.243h-2.794l-.182-9.036" transform="translate(-444.207 -416.592)" fill="none" stroke="#000" stroke-linecap="round" stroke-linejoin="round" stroke-width="2"/>
    <path id="Path_64" data-name="Path 64" d="M474.279,433.67l-.246-12.178h4.262l-.221,10.96" transform="translate(-443.802 -397.259)" fill="none" stroke="#000" stroke-linecap="round" stroke-linejoin="round" stroke-width="2"/>
    <path id="Path_65" data-name="Path 65" d="M477.561,406.806h-2.794l-.734,8.47h4.261Z" transform="translate(-443.802 -391.043)" fill="none" stroke="#000" stroke-linecap="round" stroke-linejoin="round" stroke-width="2"/>
    <path id="Path_66" data-name="Path 66" d="M474.225,398.364a8.868,8.868,0,0,1-1.463-5.169,7.845,7.845,0,0,1,4.256-6.334,8.855,8.855,0,0,0,0,3.6c.456,1.317,1.382,2.367,1.331,4.04a10.368,10.368,0,0,1-1.331,3.865Z" transform="translate(-443.26 -382.6)" fill="none" stroke="#000" stroke-linecap="round" stroke-linejoin="round" stroke-width="2"/>
    <path id="Path_67" data-name="Path 67" d="M481.657,456.188s.768-.388,3.426-1.43c1.888-.739,2.186-1.871,1.9-2.652a2.384,2.384,0,0,0-1.463-1.437" transform="translate(-447.029 -409.609)" fill="none" stroke="#000" stroke-linecap="round" stroke-linejoin="round" stroke-width="2"/>
    <path id="Path_68" data-name="Path 68" d="M480.031,449.873l5.1-2.016s1.779-.749,1.309-2.192c-.59-1.813-2.606-.919-2.606-.919l-4.441,1.628" transform="translate(-446.07 -407.009)" fill="none" stroke="#000" stroke-linecap="round" stroke-linejoin="round" stroke-width="2"/>
    <path id="Path_69" data-name="Path 69" d="M480.135,442.047s2.267-.783,1.69-2.489c-.612-1.805-2.608-.918-2.608-.918l-9.37,3.145" transform="translate(-442.03 -404.425)" fill="none" stroke="#000" stroke-linecap="round" stroke-linejoin="round" stroke-width="2"/>
    <path id="Path_70" data-name="Path 70" d="M454.247,465.412l3.491-1.063a2.835,2.835,0,0,0,3.757,1.822c3.047-.816,6.838-2.374,10.383-3.712,1.85-.7,2.533-1.938,2.235-2.915a1.823,1.823,0,0,0-1.036-1.249" transform="translate(-435.427 -412.837)" fill="none" stroke="#000" stroke-linecap="round" stroke-linejoin="round" stroke-width="2"/>
    <path id="Path_71" data-name="Path 71" d="M435.947,467.361c4.043-1.5,7.05-2.632,7.05-2.632l-4.961-14.02-11.869,3.978" transform="translate(-423.541 -409.626)" fill="none" stroke="#000" stroke-linecap="round" stroke-linejoin="round" stroke-width="2"/>
  </g>
</svg>
