<svg xmlns="http://www.w3.org/2000/svg" width="29.69" height="29.691" viewBox="0 0 29.69 29.691">
  <g id="G_icon" data-name="G+ icon" transform="translate(1 1)">
    <path id="Path_295" data-name="Path 295" d="M247.236,616.609a13.845,13.845,0,1,1-13.846,13.846A13.846,13.846,0,0,1,247.236,616.609Z" transform="translate(-233.391 -616.609)" fill="none" stroke="#9e9ea0" stroke-linecap="round" stroke-linejoin="round" stroke-width="2"/>
    <g id="Group_20" data-name="Group 20" transform="translate(4.021 7.703)">
      <path id="Path_307" data-name="Path 307" d="M803.617,725.912h-3.476V723.8l.059,0h5.678c.046,0,.062.012.071.059a5.965,5.965,0,0,1,.053,1.7,6.216,6.216,0,0,1-.607,2.188,5.288,5.288,0,0,1-3.019,2.7,6.317,6.317,0,0,1-2.71.355,6.018,6.018,0,0,1-4.071-1.991,5.836,5.836,0,0,1-1.493-3.018,6.012,6.012,0,0,1,1.489-5.232,5.949,5.949,0,0,1,3.178-1.865,6.147,6.147,0,0,1,1.991-.124,5.809,5.809,0,0,1,3.452,1.54l.044.037-1.668,1.6c-.068-.059-.132-.117-.2-.172a3.4,3.4,0,0,0-1.778-.745,3.815,3.815,0,0,0-4.167,2.927,3.905,3.905,0,0,0,1.183,3.834,3.634,3.634,0,0,0,2.012.933,3.838,3.838,0,0,0,2.256-.35,3.177,3.177,0,0,0,1.686-2.064c.016-.058.026-.118.038-.177A.085.085,0,0,0,803.617,725.912Z" transform="translate(-793.999 -718.539)" fill="#9e9ea0"/>
      <path id="Path_308" data-name="Path 308" d="M1207.932,827.566h-1.779v1.778h-1.791v-1.776h-1.78v-1.792h1.776V824h1.791v1.776h1.783Z" transform="translate(-1188.284 -820.305)" fill="#9e9ea0"/>
    </g>
  </g>
</svg>
