<svg xmlns="http://www.w3.org/2000/svg" width="83.683" height="83.682" viewBox="0 0 83.683 83.682">
  <g id="Group_70" data-name="Group 70" transform="translate(-255.215 -734.904)">
    <g id="Group_69" data-name="Group 69" transform="translate(256.215 735.904)">
      <path id="Path_621" data-name="Path 621" d="M297.056,735.9a40.841,40.841,0,1,1-40.841,40.841A40.843,40.843,0,0,1,297.056,735.9Z" transform="translate(-256.215 -735.904)" fill="none" stroke="#ccc" stroke-linecap="round" stroke-linejoin="round" stroke-width="2"/>
    </g>
    <path id="Path_622" data-name="Path 622" d="M320.874,807.729c-3-5.046-3.57-7.646-3.366-11.518s1.629-4.074,5.093-11.613a23.184,23.184,0,0,0-2.557-24.244c-3.111-3.936-8.476-5.458-13.268-5.923-7.174-.7-18.1,2.217-20.09,10.232a20.364,20.364,0,0,0-.554,8.731c.611,3.055-3.463,9.575-4.482,11s3.464,1.686,3.464,1.686l-.408,3.657,2.853,1.176-1.966,1.761s1.747.736,1.839,1.655,0,3.4.092,3.861,1.379.643,2.206.827a62.42,62.42,0,0,0,8.274.551c2.644-.586,3.946,8.261,3.946,9.562" transform="translate(-6.842 -4.987)" fill="none" stroke="#ccc" stroke-linecap="round" stroke-linejoin="round" stroke-width="2"/>
    <path id="Path_623" data-name="Path 623" d="M316.36,766.74h-.012c-.12-3.156-2.99-6.1-7.621-6.1-2.437,0-7.058,1.29-7.39,4.115-.052.6-.1.91-.4.885-3.707-.314-5.744,2.03-5.744,4.076,0,3.228,2.939,4.817,7.644,4.817H316.36c3.136,0,4.829-1.646,4.829-3.8S319.5,766.74,316.36,766.74Z" transform="translate(-10.548 -6.693)" fill="none" stroke="#ccc" stroke-linecap="round" stroke-linejoin="round" stroke-width="2"/>
    <path id="Path_624" data-name="Path 624" d="M310.534,780.449l-2.237,5.445h3.078l-2.56,7.4,7.57-10.149-3.289-.095,1.458-2.6" transform="translate(-14.094 -12.054)" fill="none" stroke="#ccc" stroke-linecap="round" stroke-linejoin="round" stroke-width="2"/>
    <line id="Line_80" data-name="Line 80" y1="4.148" x2="2.31" transform="translate(288.475 779.164)" fill="none" stroke="#ccc" stroke-linecap="round" stroke-linejoin="round" stroke-width="2"/>
    <line id="Line_81" data-name="Line 81" y1="4.148" x2="2.31" transform="translate(288.475 770.419)" fill="none" stroke="#ccc" stroke-linecap="round" stroke-linejoin="round" stroke-width="2"/>
    <line id="Line_82" data-name="Line 82" y1="3.742" x2="2.084" transform="translate(292.693 786.537)" fill="none" stroke="#ccc" stroke-linecap="round" stroke-linejoin="round" stroke-width="2"/>
    <line id="Line_83" data-name="Line 83" y1="4.148" x2="2.31" transform="translate(306.066 770.419)" fill="none" stroke="#ccc" stroke-linecap="round" stroke-linejoin="round" stroke-width="2"/>
    <line id="Line_84" data-name="Line 84" y1="4.148" x2="2.31" transform="translate(282.747 771.107)" fill="none" stroke="#ccc" stroke-linecap="round" stroke-linejoin="round" stroke-width="2"/>
    <line id="Line_85" data-name="Line 85" y1="4.148" x2="2.31" transform="translate(307.672 776.566)" fill="none" stroke="#ccc" stroke-linecap="round" stroke-linejoin="round" stroke-width="2"/>
    <line id="Line_86" data-name="Line 86" y1="4.148" x2="2.31" transform="translate(300.159 778.639)" fill="none" stroke="#ccc" stroke-linecap="round" stroke-linejoin="round" stroke-width="2"/>
    <line id="Line_87" data-name="Line 87" y1="4.148" x2="2.31" transform="translate(301.314 786.132)" fill="none" stroke="#ccc" stroke-linecap="round" stroke-linejoin="round" stroke-width="2"/>
  </g>
</svg>
