<svg xmlns="http://www.w3.org/2000/svg" width="82.653" height="82.653" viewBox="0 0 82.653 82.653">
  <g id="icon" transform="translate(-80.353 -132.62)">
    <rect id="Rectangle_20" data-name="Rectangle 20" width="8.89" height="8.89" rx="2.096" transform="translate(117.879 148.638)" fill="none" stroke="#ccc" stroke-linecap="round" stroke-linejoin="round" stroke-width="2"/>
    <rect id="Rectangle_21" data-name="Rectangle 21" width="8.89" height="8.89" rx="2.096" transform="translate(133.854 168.91)" fill="none" stroke="#ccc" stroke-linecap="round" stroke-linejoin="round" stroke-width="2"/>
    <rect id="Rectangle_22" data-name="Rectangle 22" width="8.89" height="8.89" rx="2.096" transform="translate(117.879 168.91)" fill="none" stroke="#ccc" stroke-linecap="round" stroke-linejoin="round" stroke-width="2"/>
    <rect id="Rectangle_23" data-name="Rectangle 23" width="8.89" height="8.89" rx="2.096" transform="translate(101.903 168.91)" fill="none" stroke="#ccc" stroke-linecap="round" stroke-linejoin="round" stroke-width="2"/>
    <rect id="Rectangle_24" data-name="Rectangle 24" width="8.89" height="8.89" rx="2.096" transform="translate(125.866 186.386)" fill="none" stroke="#ccc" stroke-linecap="round" stroke-linejoin="round" stroke-width="2"/>
    <rect id="Rectangle_25" data-name="Rectangle 25" width="8.89" height="8.89" rx="2.096" transform="translate(141.842 186.386)" fill="none" stroke="#ccc" stroke-linecap="round" stroke-linejoin="round" stroke-width="2"/>
    <rect id="Rectangle_26" data-name="Rectangle 26" width="8.89" height="8.89" rx="2.096" transform="translate(109.891 186.386)" fill="none" stroke="#ccc" stroke-linecap="round" stroke-linejoin="round" stroke-width="2"/>
    <rect id="Rectangle_27" data-name="Rectangle 27" width="8.89" height="8.89" rx="2.096" transform="translate(93.916 186.386)" fill="none" stroke="#ccc" stroke-linecap="round" stroke-linejoin="round" stroke-width="2"/>
    <path id="Path_758" data-name="Path 758" d="M144.414,160.645h10.518a1.013,1.013,0,0,1,1.013,1.013v14.814" transform="translate(-17.645 -7.562)" fill="none" stroke="#ccc" stroke-linecap="round" stroke-linejoin="round" stroke-width="2"/>
    <line id="Line_165" data-name="Line 165" y2="11.382" transform="translate(122.324 157.529)" fill="none" stroke="#ccc" stroke-linecap="round" stroke-linejoin="round" stroke-width="2"/>
    <path id="Path_759" data-name="Path 759" d="M127.59,160.645H117.073a1.013,1.013,0,0,0-1.013,1.013v14.814" transform="translate(-9.711 -7.562)" fill="none" stroke="#ccc" stroke-linecap="round" stroke-linejoin="round" stroke-width="2"/>
    <path id="Path_760" data-name="Path 760" d="M112.957,194.966v3.166a1.013,1.013,0,0,1-1.013,1.013h-5.962a1.012,1.012,0,0,0-1.013,1.013v3.394" transform="translate(-6.608 -17.165)" fill="none" stroke="#ccc" stroke-linecap="round" stroke-linejoin="round" stroke-width="2"/>
    <path id="Path_761" data-name="Path 761" d="M160.424,194.966v3.166a1.012,1.012,0,0,0,1.012,1.013H167.4a1.013,1.013,0,0,1,1.013,1.013v3.394" transform="translate(-22.125 -17.165)" fill="none" stroke="#ccc" stroke-linecap="round" stroke-linejoin="round" stroke-width="2"/>
    <path id="Path_762" data-name="Path 762" d="M135.139,194.966v3.28a1.012,1.012,0,0,1-1.013,1.012h-5.962a1.013,1.013,0,0,0-1.013,1.013v3.28" transform="translate(-12.815 -17.165)" fill="none" stroke="#ccc" stroke-linecap="round" stroke-linejoin="round" stroke-width="2"/>
    <path id="Path_763" data-name="Path 763" d="M138.242,194.966v3.28a1.012,1.012,0,0,0,1.013,1.012h5.962a1.013,1.013,0,0,1,1.013,1.013v3.28" transform="translate(-15.918 -17.165)" fill="none" stroke="#ccc" stroke-linecap="round" stroke-linejoin="round" stroke-width="2"/>
    <g id="Group_90" data-name="Group 90" transform="translate(81.353 133.62)">
      <path id="Path_764" data-name="Path 764" d="M121.68,133.62a40.326,40.326,0,1,1-40.327,40.326A40.328,40.328,0,0,1,121.68,133.62Z" transform="translate(-81.353 -133.62)" fill="none" stroke="#ccc" stroke-linecap="round" stroke-linejoin="round" stroke-width="2"/>
    </g>
  </g>
</svg>
