<svg xmlns="http://www.w3.org/2000/svg" width="83.135" height="83.135" viewBox="0 0 83.135 83.135">
  <g id="icon" transform="translate(1 1)">
    <g id="Group_36" data-name="Group 36" transform="translate(0 0)">
      <path id="Path_373" data-name="Path 373" d="M139.065,255.461a40.557,40.557,0,0,0-60.557,53.32m5.834,6.567a40.561,40.561,0,0,0,60.476-53.289" transform="translate(-70.981 -244.692)" fill="none" stroke="#ccc" stroke-linecap="round" stroke-linejoin="round" stroke-width="2"/>
    </g>
    <g id="Group_37" data-name="Group 37" transform="translate(8.585 8.344)">
      <path id="Path_374" data-name="Path 374" d="M87.128,278.5a32.221,32.221,0,0,0,47.19,41.9" transform="translate(-82.83 -262.351)" fill="none" stroke="#ccc" stroke-linecap="round" stroke-linejoin="round" stroke-width="2"/>
      <path id="Path_375" data-name="Path 375" d="M144.23,308.119a32.216,32.216,0,0,0-48.056-42.691" transform="translate(-86.506 -256.209)" fill="none" stroke="#ccc" stroke-linecap="round" stroke-linejoin="round" stroke-width="2"/>
    </g>
    <g id="Group_38" data-name="Group 38" transform="translate(16.705 16.464)">
      <path id="Path_376" data-name="Path 376" d="M133.362,272.835a24.1,24.1,0,0,0-35.478,31.739" transform="translate(-94.038 -267.417)" fill="none" stroke="#ccc" stroke-linecap="round" stroke-linejoin="round" stroke-width="2"/>
      <path id="Path_377" data-name="Path 377" d="M107.607,315.552a24.1,24.1,0,0,0,35.185-31.4" transform="translate(-97.776 -272.028)" fill="none" stroke="#ccc" stroke-linecap="round" stroke-linejoin="round" stroke-width="2"/>
    </g>
    <g id="Group_39" data-name="Group 39" transform="translate(24.666 24.678)">
      <path id="Path_378" data-name="Path 378" d="M138.059,301.593c6.82-14.013-9.515-28.767-22.774-20.4" transform="translate(-107.852 -278.754)" fill="none" stroke="#ccc" stroke-linecap="round" stroke-linejoin="round" stroke-width="2"/>
      <path id="Path_379" data-name="Path 379" d="M106.631,291.076c-6.566,13.459,8.277,27.924,21.544,21.118" transform="translate(-105.026 -282.149)" fill="none" stroke="#ccc" stroke-linecap="round" stroke-linejoin="round" stroke-width="2"/>
    </g>
    <g id="Group_40" data-name="Group 40" transform="translate(32.451 32.451)">
      <path id="Path_380" data-name="Path 380" d="M125.824,289.725a8.1,8.1,0,1,0,6.015,6.235" transform="translate(-115.772 -289.483)" fill="none" stroke="#ccc" stroke-linecap="round" stroke-linejoin="round" stroke-width="2"/>
    </g>
    <line id="Line_40" data-name="Line 40" y2="8.344" transform="translate(40.568)" fill="none" stroke="#ccc" stroke-linecap="round" stroke-linejoin="round" stroke-width="2"/>
    <line id="Line_41" data-name="Line 41" y2="8.203" transform="translate(40.808 16.464)" fill="none" stroke="#ccc" stroke-linecap="round" stroke-linejoin="round" stroke-width="2"/>
    <line id="Line_42" data-name="Line 42" x2="7.784" transform="translate(48.684 40.567)" fill="none" stroke="#ccc" stroke-linecap="round" stroke-linejoin="round" stroke-width="2"/>
    <line id="Line_43" data-name="Line 43" x2="8.12" transform="translate(64.91 40.567)" fill="none" stroke="#ccc" stroke-linecap="round" stroke-linejoin="round" stroke-width="2"/>
    <line id="Line_44" data-name="Line 44" y2="8.203" transform="translate(40.567 56.468)" fill="none" stroke="#ccc" stroke-linecap="round" stroke-linejoin="round" stroke-width="2"/>
    <line id="Line_45" data-name="Line 45" y2="8.344" transform="translate(40.807 72.791)" fill="none" stroke="#ccc" stroke-linecap="round" stroke-linejoin="round" stroke-width="2"/>
  </g>
</svg>
