<svg xmlns="http://www.w3.org/2000/svg" width="83.138" height="83.137" viewBox="0 0 83.138 83.137">
  <g id="icon" transform="translate(-70.221 -352.199)">
    <g id="Group_75" data-name="Group 75" transform="translate(71.221 353.199)">
      <path id="Path_649" data-name="Path 649" d="M111.79,353.2a40.569,40.569,0,1,1-40.569,40.569A40.57,40.57,0,0,1,111.79,353.2Z" transform="translate(-71.221 -353.199)" fill="none" stroke="#ccc" stroke-linecap="round" stroke-linejoin="round" stroke-width="2"/>
    </g>
    <path id="Path_650" data-name="Path 650" d="M126.422,369.069l-.061-4.471,3.655,2.186-.078-5.735" transform="translate(-15.19 -2.162)" fill="none" stroke="#ccc" stroke-linecap="round" stroke-linejoin="round" stroke-width="2"/>
    <path id="Path_651" data-name="Path 651" d="M134.628,372.932l3.1-3.223,1.063,4.124,3.975-4.134" transform="translate(-17.467 -4.545)" fill="none" stroke="#ccc" stroke-linecap="round" stroke-linejoin="round" stroke-width="2"/>
    <path id="Path_652" data-name="Path 652" d="M116.793,373.12l-3.186-3.137-.95,4.151-4.087-4.024" transform="translate(-10.289 -4.623)" fill="none" stroke="#ccc" stroke-linecap="round" stroke-linejoin="round" stroke-width="2"/>
    <path id="Path_653" data-name="Path 653" d="M126.422,447.844l-.061,4.471,3.655-2.186-.078,5.735" transform="translate(-15.19 -26.073)" fill="none" stroke="#ccc" stroke-linecap="round" stroke-linejoin="round" stroke-width="2"/>
    <path id="Path_654" data-name="Path 654" d="M134.628,445.459l3.1,3.223,1.063-4.124,3.975,4.134" transform="translate(-17.467 -25.167)" fill="none" stroke="#ccc" stroke-linecap="round" stroke-linejoin="round" stroke-width="2"/>
    <path id="Path_655" data-name="Path 655" d="M116.793,445.264l-3.186,3.137-.95-4.151-4.087,4.024" transform="translate(-10.289 -25.082)" fill="none" stroke="#ccc" stroke-linecap="round" stroke-linejoin="round" stroke-width="2"/>
    <g id="Group_76" data-name="Group 76" transform="translate(113.276 374.378)">
      <path id="Path_656" data-name="Path 656" d="M137.154,423.186a3.8,3.8,0,0,0,4.253,1.693,3.7,3.7,0,0,0,2.765-3.562" transform="translate(-131.439 -393.143)" fill="none" stroke="#ccc" stroke-linecap="round" stroke-linejoin="round" stroke-width="2"/>
      <path id="Path_657" data-name="Path 657" d="M129.379,383.965l-.065,2.8.035,18.935-.047,12.258s-.548,2.516,2.639,3.744c2,.77,3.927-.924,3.927-.924s.422.589,2.623.264c2.105-.31,3.878-2.727,3.878-2.727a5.431,5.431,0,0,0,3.405-2.994c1.147-2.247.7-2.911.7-2.911s1.815.118,2.85-2.81a4.34,4.34,0,0,0,.006-3.511s1.58-.482,1.645-3.286a3.375,3.375,0,0,0-1.971-3.5,3.543,3.543,0,0,0,.541-3.721c-.814-2.439-2.339-2.224-2.339-2.224s.982-2.742-.475-4.559a4.437,4.437,0,0,0-4.607-1.656s.882-.723-1.543-2.521a4.54,4.54,0,0,0-3.857-.8,6.68,6.68,0,0,0-3.818-1.4,4.207,4.207,0,0,0-3.526,1.534" transform="translate(-129.266 -382.431)" fill="none" stroke="#ccc" stroke-linecap="round" stroke-linejoin="round" stroke-width="2"/>
      <path id="Path_658" data-name="Path 658" d="M149.889,404.11a3.276,3.276,0,0,0-.531-3.929,2.774,2.774,0,0,0-3.614-.749" transform="translate(-133.805 -387.012)" fill="none" stroke="#ccc" stroke-linecap="round" stroke-linejoin="round" stroke-width="2"/>
      <path id="Path_659" data-name="Path 659" d="M153.211,397.526s-.609,2.079-2.142,2.224" transform="translate(-135.272 -386.589)" fill="none" stroke="#ccc" stroke-linecap="round" stroke-linejoin="round" stroke-width="2"/>
      <path id="Path_660" data-name="Path 660" d="M146.158,430.612a4.065,4.065,0,0,1-2.483-1.478,3.868,3.868,0,0,1-.651-2.083" transform="translate(-133.056 -394.723)" fill="none" stroke="#ccc" stroke-linecap="round" stroke-linejoin="round" stroke-width="2"/>
      <path id="Path_661" data-name="Path 661" d="M129.357,399.864s2.075,2.8,5.649.39c2.779-1.874.841-6.027.841-6.027" transform="translate(-129.291 -385.681)" fill="none" stroke="#ccc" stroke-linecap="round" stroke-linejoin="round" stroke-width="2"/>
      <path id="Path_662" data-name="Path 662" d="M135.875,403.829s-.811,1.833,1.195,3.86a3.459,3.459,0,0,0,3.57.827" transform="translate(-131.042 -388.326)" fill="none" stroke="#ccc" stroke-linecap="round" stroke-linejoin="round" stroke-width="2"/>
    </g>
    <g id="Group_77" data-name="Group 77" transform="translate(88.436 374.378)">
      <path id="Path_663" data-name="Path 663" d="M114.389,423.186a3.8,3.8,0,0,1-4.253,1.693,3.7,3.7,0,0,1-2.766-3.562" transform="translate(-98.395 -393.143)" fill="none" stroke="#ccc" stroke-linecap="round" stroke-linejoin="round" stroke-width="2"/>
      <path id="Path_664" data-name="Path 664" d="M116.579,383.965l.065,2.8-.035,18.935.047,12.258s.548,2.516-2.639,3.744c-2,.77-3.928-.924-3.928-.924s-.421.589-2.623.264c-2.1-.31-3.878-2.727-3.878-2.727a5.432,5.432,0,0,1-3.406-2.994c-1.147-2.247-.7-2.911-.7-2.911s-1.815.118-2.85-2.81a4.34,4.34,0,0,1-.006-3.511s-1.579-.482-1.645-3.286a3.376,3.376,0,0,1,1.972-3.5,3.543,3.543,0,0,1-.542-3.721c.815-2.439,2.339-2.224,2.339-2.224s-.982-2.742.475-4.559a4.439,4.439,0,0,1,4.607-1.656s-.882-.723,1.542-2.521a4.542,4.542,0,0,1,3.857-.8,6.677,6.677,0,0,1,3.818-1.4,4.209,4.209,0,0,1,3.527,1.534" transform="translate(-94.982 -382.431)" fill="none" stroke="#ccc" stroke-linecap="round" stroke-linejoin="round" stroke-width="2"/>
      <path id="Path_665" data-name="Path 665" d="M102.586,404.11a3.275,3.275,0,0,1,.53-3.929,2.775,2.775,0,0,1,3.615-.749" transform="translate(-96.96 -387.012)" fill="none" stroke="#ccc" stroke-linecap="round" stroke-linejoin="round" stroke-width="2"/>
      <path id="Path_666" data-name="Path 666" d="M100.187,397.526s.608,2.079,2.142,2.224" transform="translate(-96.416 -386.589)" fill="none" stroke="#ccc" stroke-linecap="round" stroke-linejoin="round" stroke-width="2"/>
      <path id="Path_667" data-name="Path 667" d="M106.862,430.612a4.065,4.065,0,0,0,2.483-1.478,3.875,3.875,0,0,0,.651-2.083" transform="translate(-98.255 -394.723)" fill="none" stroke="#ccc" stroke-linecap="round" stroke-linejoin="round" stroke-width="2"/>
      <path id="Path_668" data-name="Path 668" d="M122.137,399.864s-2.075,2.8-5.649.39c-2.779-1.874-.841-6.027-.841-6.027" transform="translate(-100.494 -385.681)" fill="none" stroke="#ccc" stroke-linecap="round" stroke-linejoin="round" stroke-width="2"/>
      <path id="Path_669" data-name="Path 669" d="M116.462,403.829s.811,1.833-1.194,3.86a3.459,3.459,0,0,1-3.57.827" transform="translate(-99.587 -388.326)" fill="none" stroke="#ccc" stroke-linecap="round" stroke-linejoin="round" stroke-width="2"/>
    </g>
  </g>
</svg>
