<svg xmlns="http://www.w3.org/2000/svg" width="81.957" height="81.957" viewBox="0 0 81.957 81.957">
  <g id="icon" transform="translate(1 1)">
    <g id="Group_4" data-name="Group 4">
      <path id="Path_4" data-name="Path 4" d="M107.908,154.869a39.979,39.979,0,1,1-39.979,39.979A39.98,39.98,0,0,1,107.908,154.869Z" transform="translate(-67.929 -154.869)" fill="none" stroke="#ccc" stroke-linecap="round" stroke-linejoin="round" stroke-width="2"/>
    </g>
    <path id="Path_5" data-name="Path 5" d="M90.863,204.2l5.163-3.5" transform="translate(-74.489 -167.977)" fill="none" stroke="#ccc" stroke-linecap="round" stroke-linejoin="round" stroke-width="2"/>
    <path id="Path_291" data-name="Path 291" d="M0,0H36.576V46.835H0Z" transform="translate(21.691 12.675)" fill="none" stroke="#ccc" stroke-linecap="round" stroke-width="2"/>
    <path id="Path_6" data-name="Path 6" d="M90.863,205.6l23.6,16.008,23.6-16.008v26.3H90.863Z" transform="translate(-74.489 -169.38)" fill="none" stroke="#ccc" stroke-linecap="round" stroke-linejoin="round" stroke-width="2"/>
    <path id="Path_7" data-name="Path 7" d="M138.071,236.032l-23.6-16.008-23.6,16.008Z" transform="translate(-74.489 -173.504)" fill="none" stroke="#ccc" stroke-linecap="round" stroke-linejoin="round" stroke-width="2"/>
    <path id="Path_8" data-name="Path 8" d="M128.947,186a7.511,7.511,0,0,0-1.646-2.632,7.365,7.365,0,0,0-2.605-1.7,9.327,9.327,0,0,0-3.421-.6,10.056,10.056,0,0,0-7.261,3.075,11.151,11.151,0,0,0-2.273,3.552,12.167,12.167,0,0,0-.848,4.63,10.462,10.462,0,0,0,.668,3.856,8.227,8.227,0,0,0,1.852,2.863,8.024,8.024,0,0,0,2.8,1.788,9.765,9.765,0,0,0,3.495.615,9.085,9.085,0,0,0,4.9-1.415.177.177,0,0,0,.063-.235l-.411-.771a.178.178,0,0,0-.111-.089.183.183,0,0,0-.139.02,8.9,8.9,0,0,1-1.941.882,7.576,7.576,0,0,1-2.285.326,8.339,8.339,0,0,1-3.084-.553,6.79,6.79,0,0,1-2.38-1.565,7.1,7.1,0,0,1-1.54-2.483,9.381,9.381,0,0,1-.555-3.316,10.642,10.642,0,0,1,.758-4.083,10,10,0,0,1,2.008-3.132,8.9,8.9,0,0,1,2.86-2,8.307,8.307,0,0,1,3.346-.7,7.9,7.9,0,0,1,2.928.514,6.234,6.234,0,0,1,2.187,1.437,6.356,6.356,0,0,1,1.388,2.251,8.5,8.5,0,0,1,.489,2.945,7.585,7.585,0,0,1-.337,2.361,6.389,6.389,0,0,1-.85,1.738,3.779,3.779,0,0,1-1.128,1.068,2.336,2.336,0,0,1-1.181.361,1.5,1.5,0,0,1-1.273-.5c-.4-.508-.428-1.434-.094-2.763l.925-4.858a.178.178,0,0,0-.176-.211H123.2a.179.179,0,0,0-.174.139l-.155.688a2.52,2.52,0,0,0-2.088-1.033,3.92,3.92,0,0,0-2.112.58,5.515,5.515,0,0,0-1.554,1.447,6.6,6.6,0,0,0-.964,1.928,6.735,6.735,0,0,0-.329,2.007,4.779,4.779,0,0,0,.241,1.589,3.344,3.344,0,0,0,.665,1.153,2.737,2.737,0,0,0,1,.7,3.159,3.159,0,0,0,2.981-.326,7.82,7.82,0,0,0,1.277-1.076,2,2,0,0,0,.81,1.279,3.1,3.1,0,0,0,1.811.508,3.791,3.791,0,0,0,1.714-.443,5,5,0,0,0,1.586-1.318,7.141,7.141,0,0,0,1.162-2.149,8.98,8.98,0,0,0,.446-2.95A9.6,9.6,0,0,0,128.947,186Zm-8.186,1.744a1.69,1.69,0,0,1,.919.242,3,3,0,0,1,.795.877l-.776,4.328a3.83,3.83,0,0,1-2.609,1.624,1.8,1.8,0,0,1-1.339-.539,2.716,2.716,0,0,1-.539-1.93,5.483,5.483,0,0,1,.249-1.594,5.409,5.409,0,0,1,.709-1.493,3.981,3.981,0,0,1,1.119-1.095A2.661,2.661,0,0,1,120.761,187.745Z" transform="translate(-80.217 -162.361)" fill="#ccc"/>
    <path id="Path_290" data-name="Path 290" d="M96.178,204.2l-5.315-3.5" transform="translate(-32.596 -167.977)" fill="none" stroke="#ccc" stroke-linecap="round" stroke-linejoin="round" stroke-width="2"/>
  </g>
</svg>
