<svg xmlns="http://www.w3.org/2000/svg" width="83.137" height="83.136" viewBox="0 0 83.137 83.136">
  <g id="icon" transform="translate(-60.309 -143.466)">
    <g id="Group_74" data-name="Group 74" transform="translate(61.309 144.466)">
      <path id="Path_635" data-name="Path 635" d="M101.878,144.466a40.568,40.568,0,1,1-40.569,40.569A40.57,40.57,0,0,1,101.878,144.466Z" transform="translate(-61.309 -144.466)" fill="none" stroke="#ccc" stroke-linecap="round" stroke-linejoin="round" stroke-width="2"/>
    </g>
    <path id="Path_636" data-name="Path 636" d="M109.817,179.576a5.373,5.373,0,1,0,10.747,0v-3.03a5.373,5.373,0,0,0-10.747,0Z" transform="translate(-13.363 -7.357)" fill="none" stroke="#ccc" stroke-linecap="round" stroke-linejoin="round" stroke-width="2"/>
    <path id="Path_637" data-name="Path 637" d="M110.27,196.9c1.342-1.63,2.936-2.91,5.046-2.91a6.167,6.167,0,0,1,4.025,1.849" transform="translate(-13.488 -13.642)" fill="none" stroke="#ccc" stroke-linecap="round" stroke-linejoin="round" stroke-width="2"/>
    <line id="Line_90" data-name="Line 90" y1="14.375" transform="translate(96.454 193.313)" fill="none" stroke="#ccc" stroke-linecap="round" stroke-linejoin="round" stroke-width="2"/>
    <line id="Line_91" data-name="Line 91" y2="14.375" transform="translate(107.201 193.313)" fill="none" stroke="#ccc" stroke-linecap="round" stroke-linejoin="round" stroke-width="2"/>
    <path id="Path_638" data-name="Path 638" d="M122.789,196.539s6.512,7.118,10.313,11.319l8.588,2.447a2.51,2.51,0,0,1,1.542,3.032c-.584,2.251-3.011,2.032-3.875,1.892-2.131-.343-7.52-1.942-7.52-1.942-1.711-1.322-7.7-5.629-7.7-5.629" transform="translate(-16.937 -14.345)" fill="none" stroke="#ccc" stroke-linecap="round" stroke-linejoin="round" stroke-width="2"/>
    <path id="Path_639" data-name="Path 639" d="M103.787,196.539s-6.512,7.118-10.313,11.319l-8.588,2.447a2.51,2.51,0,0,0-1.542,3.032c.584,2.251,3.011,2.032,3.875,1.892,2.131-.343,7.52-1.942,7.52-1.942,1.711-1.322,7.7-5.629,7.7-5.629" transform="translate(-6.042 -14.345)" fill="none" stroke="#ccc" stroke-linecap="round" stroke-linejoin="round" stroke-width="2"/>
    <path id="Path_640" data-name="Path 640" d="M123.364,229.725c4.07-.814,5.995-1.06,6.77,1.847s-.441,5.4-3.738,5.978-21.178,2.524-24.135,2.737c-2.266.163-4.108,1.632-4.691-.993-.8-3.581,1.766-4.375,4.091-4.956S123.364,229.725,123.364,229.725Z" transform="translate(-9.948 -23.339)" fill="none" stroke="#ccc" stroke-linecap="round" stroke-linejoin="round" stroke-width="2"/>
    <path id="Path_641" data-name="Path 641" d="M117.194,242.529c4.341.473,8.239.87,9.486.959,2.266.163,4.108,1.632,4.691-.993a2.917,2.917,0,0,0,.123-1.685" transform="translate(-15.395 -26.541)" fill="none" stroke="#ccc" stroke-linecap="round" stroke-linejoin="round" stroke-width="2"/>
    <path id="Path_642" data-name="Path 642" d="M110.146,232.152c-5.31-1.118-11.646-2.427-11.646-2.427-4.07-.814-5.995-1.06-6.77,1.847s.441,5.4,3.738,5.978c.158.028-.222-.033,0,0" transform="translate(-8.318 -23.339)" fill="none" stroke="#ccc" stroke-linecap="round" stroke-linejoin="round" stroke-width="2"/>
    <path id="Path_643" data-name="Path 643" d="M116.434,163.6v-4.472l3.625,2.236v-5.735" transform="translate(-15.186 -3.074)" fill="none" stroke="#ccc" stroke-linecap="round" stroke-linejoin="round" stroke-width="2"/>
    <path id="Path_644" data-name="Path 644" d="M124.588,167.572l3.143-3.181,1.007,4.138,4.031-4.079" transform="translate(-17.432 -5.489)" fill="none" stroke="#ccc" stroke-linecap="round" stroke-linejoin="round" stroke-width="2"/>
    <path id="Path_645" data-name="Path 645" d="M106.769,167.523l-3.143-3.181-1.007,4.138L98.588,164.4" transform="translate(-10.27 -5.476)" fill="none" stroke="#ccc" stroke-linecap="round" stroke-linejoin="round" stroke-width="2"/>
    <path id="Path_646" data-name="Path 646" d="M93.42,191.313c-1.488-1.526-4.178-2.137-6.918.822-2.74-2.958-5.43-2.347-6.918-.822a4.406,4.406,0,0,0-.4,5.27c1.127,1.573,7.318,7.3,7.318,7.3s6.191-5.731,7.318-7.3A4.407,4.407,0,0,0,93.42,191.313Z" transform="translate(-4.734 -12.555)" fill="none" stroke="#ccc" stroke-linecap="round" stroke-linejoin="round" stroke-width="2"/>
    <path id="Path_647" data-name="Path 647" d="M143.245,198.3a3.257,3.257,0,1,1,3.257,3.257A3.257,3.257,0,0,1,143.245,198.3Z" transform="translate(-22.572 -13.933)" fill="none" stroke="#ccc" stroke-linecap="round" stroke-linejoin="round" stroke-width="2"/>
    <path id="Path_648" data-name="Path 648" d="M152.488,194.35l-1.78-3.052a.4.4,0,0,0-.506-.17l-2.268.943a.405.405,0,0,1-.557-.317l-.338-2.4a.405.405,0,0,0-.4-.348h-3.691a.406.406,0,0,0-.4.348l-.337,2.4a.405.405,0,0,1-.557.317l-2.268-.943a.405.405,0,0,0-.506.17l-1.78,3.052a.406.406,0,0,0,.06.487l1.608,1.65a.406.406,0,0,1-.016.581l-1.4,1.293a.4.4,0,0,0-.086.481l1.546,3.054a.405.405,0,0,0,.479.205l2.168-.654a.406.406,0,0,1,.509.285l.593,2.234a.406.406,0,0,0,.392.3h3.68a.405.405,0,0,0,.391-.3l.594-2.234a.405.405,0,0,1,.509-.285l2.168.654a.4.4,0,0,0,.479-.205l1.547-3.054a.405.405,0,0,0-.087-.481l-1.4-1.293a.406.406,0,0,1-.015-.581l1.608-1.65A.405.405,0,0,0,152.488,194.35Z" transform="translate(-20.863 -12.271)" fill="none" stroke="#ccc" stroke-linecap="round" stroke-linejoin="round" stroke-width="2"/>
  </g>
</svg>
