<svg xmlns="http://www.w3.org/2000/svg" width="83.68" height="83.681" viewBox="0 0 83.68 83.681">
  <g id="icon" transform="translate(-81.079 -523.645)">
    <g id="Group_92" data-name="Group 92" transform="translate(82.079 524.645)">
      <path id="Path_770" data-name="Path 770" d="M122.92,524.645a40.84,40.84,0,1,1-40.841,40.841A40.842,40.842,0,0,1,122.92,524.645Z" transform="translate(-82.079 -524.645)" fill="none" stroke="#ccc" stroke-linecap="round" stroke-linejoin="round" stroke-width="2"/>
    </g>
    <path id="Path_771" data-name="Path 771" d="M152.431,579.88c-1.659-1.06-8.019-5.52-8.019-5.52v10.895" transform="translate(-16.869 -13.454)" fill="none" stroke="#ccc" stroke-linecap="round" stroke-linejoin="round" stroke-width="2"/>
    <path id="Path_772" data-name="Path 772" d="M119.747,580.369c1.659-1.059,9.219-6.009,9.219-6.009v10.895" transform="translate(-10.194 -13.454)" fill="none" stroke="#ccc" stroke-linecap="round" stroke-linejoin="round" stroke-width="2"/>
    <path id="Path_773" data-name="Path 773" d="M118.542,575c2.557-2,8.554-7.411,9.9-7.8,1.166-.333,1.326-.26,4.192-.244h.775c2.866-.017,3.026-.089,4.192.244,1.35.386,6.973,5.5,9.53,7.5" transform="translate(-9.868 -11.446)" fill="none" stroke="#ccc" stroke-linecap="round" stroke-linejoin="round" stroke-width="2"/>
    <path id="Path_774" data-name="Path 774" d="M133.7,558.917a3.416,3.416,0,1,1,3.416,3.416A3.416,3.416,0,0,1,133.7,558.917Z" transform="translate(-13.969 -8.35)" fill="none" stroke="#ccc" stroke-linecap="round" stroke-linejoin="round" stroke-width="2"/>
    <path id="Path_775" data-name="Path 775" d="M142.79,603.869s-.007-13.722-.007-14.481,0-2.692-2.193-2.692c-2.566,0-2.158,2.08-2.192,2.554-.037.511.189,14.62.189,14.62s.05,2.2,2,2.2A2.147,2.147,0,0,0,142.79,603.869Z" transform="translate(-15.24 -16.792)" fill="none" stroke="#ccc" stroke-linecap="round" stroke-linejoin="round" stroke-width="2"/>
    <path id="Path_776" data-name="Path 776" d="M136.763,603.869s-.007-13.722-.007-14.481,0-2.692-2.193-2.692c-2.566,0-2.157,2.08-2.192,2.554-.037.511.189,14.62.189,14.62s.05,2.2,2,2.2A2.148,2.148,0,0,0,136.763,603.869Z" transform="translate(-13.609 -16.792)" fill="none" stroke="#ccc" stroke-linecap="round" stroke-linejoin="round" stroke-width="2"/>
    <path id="Path_777" data-name="Path 777" d="M167.242,559.7a3.415,3.415,0,1,1,3.943,2.79A3.416,3.416,0,0,1,167.242,559.7Z" transform="translate(-23.033 -8.407)" fill="none" stroke="#ccc" stroke-linecap="round" stroke-linejoin="round" stroke-width="2"/>
    <path id="Path_778" data-name="Path 778" d="M165.33,569.581s-8.09,6.056-9.173,6.764c-.977.639-1.251,1.563-.823,2.242.476.755,1.37.81,2.412.191,1.267-.752,11.7-5.95,11.7-5.95" transform="translate(-19.771 -12.161)" fill="none" stroke="#ccc" stroke-linecap="round" stroke-linejoin="round" stroke-width="2"/>
    <path id="Path_779" data-name="Path 779" d="M165.708,568.964a11.3,11.3,0,0,1,3.5-1.61c2.356-.271,3.6.457,4.045,3.142.615,3.706,1.007,8.666,1.007,8.666s.207,2.073.19,3.939a3.57,3.57,0,0,1-2.166,3.268,7.145,7.145,0,0,1-.814.277,5.737,5.737,0,0,1-1.52.192l-8.623.011c-.021.8-.49,11.984-.49,11.984s.171,1.839-2.087,1.839c-2.233,0-2.22-1.587-2.22-1.587s.15-12.86.2-13.4c0,0-.074-2.265,1.558-2.963a12.467,12.467,0,0,1,3.728-.511l4.963-.05v-1.307s-.109-3.882-.151-7.15" transform="translate(-20.149 -11.544)" fill="none" stroke="#ccc" stroke-linecap="round" stroke-linejoin="round" stroke-width="2"/>
    <path id="Path_780" data-name="Path 780" d="M106.367,559.7a3.416,3.416,0,1,0-3.943,2.79A3.417,3.417,0,0,0,106.367,559.7Z" transform="translate(-4.737 -8.407)" fill="none" stroke="#ccc" stroke-linecap="round" stroke-linejoin="round" stroke-width="2"/>
    <path id="Path_781" data-name="Path 781" d="M113.09,579.982c-1.266-.752-11.7-5.95-11.7-5.95" transform="translate(-5.227 -13.365)" fill="none" stroke="#ccc" stroke-linecap="round" stroke-linejoin="round" stroke-width="2"/>
    <path id="Path_782" data-name="Path 782" d="M107.031,569.581s7.313,5.425,8.4,6.133" transform="translate(-6.753 -12.161)" fill="none" stroke="#ccc" stroke-linecap="round" stroke-linejoin="round" stroke-width="2"/>
    <path id="Path_783" data-name="Path 783" d="M103.786,568.964a11.308,11.308,0,0,0-3.5-1.61c-2.356-.271-3.6.457-4.045,3.142-.615,3.706-1.007,8.666-1.007,8.666s-.207,2.073-.19,3.939a3.568,3.568,0,0,0,2.166,3.268,7.131,7.131,0,0,0,.813.277,5.747,5.747,0,0,0,1.521.192l8.623.011c.021.8.49,11.984.49,11.984s-.172,1.839,2.087,1.839c2.232,0,2.219-1.587,2.219-1.587s-.15-12.86-.2-13.4c0,0,.074-2.265-1.557-2.963a12.467,12.467,0,0,0-3.728-.511l-4.963-.05v-1.307s.109-3.882.15-7.15" transform="translate(-3.507 -11.544)" fill="none" stroke="#ccc" stroke-linecap="round" stroke-linejoin="round" stroke-width="2"/>
    <path id="Path_784" data-name="Path 784" d="M119.873,580.789c-1.228.934-1.976.78-2.608.264-.656-.537-.742-1.8.811-3.064" transform="translate(-9.401 -14.436)" fill="none" stroke="#ccc" stroke-linecap="round" stroke-linejoin="round" stroke-width="2"/>
  </g>
</svg>
