<svg xmlns="http://www.w3.org/2000/svg" width="83.138" height="83.136" viewBox="0 0 83.138 83.136">
  <g id="icon" transform="translate(-69.504 -134.914)">
    <g id="Group_87" data-name="Group 87" transform="translate(70.504 135.914)">
      <path id="Path_735" data-name="Path 735" d="M111.074,135.914A40.568,40.568,0,1,1,70.5,176.483,40.57,40.57,0,0,1,111.074,135.914Z" transform="translate(-70.504 -135.914)" fill="none" stroke="#ccc" stroke-linecap="round" stroke-linejoin="round" stroke-width="2"/>
    </g>
    <path id="Path_736" data-name="Path 736" d="M88.442,209.219l10.347-17.7a1.12,1.12,0,0,1,1.759-.227l3.242,3.242a.849.849,0,0,0,1.316-.143l11.1-17.414a.95.95,0,0,1,1.576-.038l5.7,8.049a1.047,1.047,0,0,0,1.658.066l2.15-2.576a.8.8,0,0,1,1.3.091l16.51,26.67a1.177,1.177,0,0,1-1,1.8H89.482A1.2,1.2,0,0,1,88.442,209.219Z" transform="translate(-4.896 -11.19)" fill="none" stroke="#ccc" stroke-linecap="round" stroke-linejoin="round" stroke-width="2"/>
    <path id="Path_737" data-name="Path 737" d="M127.611,169.264V151.826" transform="translate(-15.732 -4.383)" fill="none" stroke="#ccc" stroke-linecap="round" stroke-linejoin="round" stroke-width="2"/>
    <path id="Path_738" data-name="Path 738" d="M121.515,151.826H105.561l5.662,5.662-5.743,5.743h16.035" transform="translate(-9.635 -4.383)" fill="none" stroke="#ccc" stroke-linecap="round" stroke-linejoin="round" stroke-width="2"/>
    <path id="Path_739" data-name="Path 739" d="M118.8,189.339,122.855,193a.647.647,0,0,0,.971-.12l1.914-2.85a.648.648,0,0,1,1.02-.071l2.624,2.931a.648.648,0,0,0,1.014-.063l3.147-4.538" transform="translate(-13.303 -14.428)" fill="none" stroke="#ccc" stroke-linecap="round" stroke-linejoin="round" stroke-width="2"/>
  </g>
</svg>
