<svg xmlns="http://www.w3.org/2000/svg" width="83.137" height="83.137" viewBox="0 0 83.137 83.137">
  <g id="icon" transform="translate(-252.173 -333.607)">
    <g id="Group_88" data-name="Group 88" transform="translate(253.173 334.607)">
      <path id="Path_740" data-name="Path 740" d="M293.742,334.607a40.568,40.568,0,1,1-40.569,40.569A40.57,40.57,0,0,1,293.742,334.607Z" transform="translate(-253.173 -334.607)" fill="none" stroke="#ccc" stroke-linecap="round" stroke-linejoin="round" stroke-width="2"/>
    </g>
    <line id="Line_120" data-name="Line 120" x1="10.042" y1="5.846" transform="translate(264.307 357.625)" fill="none" stroke="#ccc" stroke-linecap="round" stroke-linejoin="round" stroke-width="2"/>
    <line id="Line_121" data-name="Line 121" y2="11.465" transform="translate(294.046 340.614)" fill="none" stroke="#ccc" stroke-linecap="round" stroke-linejoin="round" stroke-width="2"/>
    <line id="Line_122" data-name="Line 122" x2="5.733" y2="9.46" transform="translate(276.807 345.228)" fill="none" stroke="#ccc" stroke-linecap="round" stroke-linejoin="round" stroke-width="2"/>
    <line id="Line_123" data-name="Line 123" x1="5.733" y2="10.034" transform="translate(276.807 394.198)" fill="none" stroke="#ccc" stroke-linecap="round" stroke-linejoin="round" stroke-width="2"/>
    <line id="Line_124" data-name="Line 124" x1="10.042" y2="5.733" transform="translate(264.307 385.776)" fill="none" stroke="#ccc" stroke-linecap="round" stroke-linejoin="round" stroke-width="2"/>
    <line id="Line_125" data-name="Line 125" x1="10.766" transform="translate(260.308 374.443)" fill="none" stroke="#ccc" stroke-linecap="round" stroke-linejoin="round" stroke-width="2"/>
    <line id="Line_126" data-name="Line 126" x2="1.57" y2="5.034" transform="translate(286.563 348.025)" fill="none" stroke="#ccc" stroke-linecap="round" stroke-linejoin="round" stroke-width="2"/>
    <line id="Line_127" data-name="Line 127" x2="3.856" y2="3.496" transform="translate(274.349 355.156)" fill="none" stroke="#ccc" stroke-linecap="round" stroke-linejoin="round" stroke-width="2"/>
    <line id="Line_128" data-name="Line 128" x2="5.173" y2="1.483" transform="translate(267.299 367.18)" fill="none" stroke="#ccc" stroke-linecap="round" stroke-linejoin="round" stroke-width="2"/>
    <line id="Line_129" data-name="Line 129" y1="1.268" x2="4.474" transform="translate(267.999 380.314)" fill="none" stroke="#ccc" stroke-linecap="round" stroke-linejoin="round" stroke-width="2"/>
    <line id="Line_130" data-name="Line 130" y1="3.595" x2="3.856" transform="translate(274.349 390.604)" fill="none" stroke="#ccc" stroke-linecap="round" stroke-linejoin="round" stroke-width="2"/>
    <line id="Line_131" data-name="Line 131" y1="5.846" x2="10.042" transform="translate(313.134 357.625)" fill="none" stroke="#ccc" stroke-linecap="round" stroke-linejoin="round" stroke-width="2"/>
    <line id="Line_132" data-name="Line 132" x1="5.733" y2="9.46" transform="translate(304.944 345.228)" fill="none" stroke="#ccc" stroke-linecap="round" stroke-linejoin="round" stroke-width="2"/>
    <line id="Line_133" data-name="Line 133" x2="5.733" y2="10.034" transform="translate(304.944 394.198)" fill="none" stroke="#ccc" stroke-linecap="round" stroke-linejoin="round" stroke-width="2"/>
    <line id="Line_134" data-name="Line 134" x2="10.042" y2="5.733" transform="translate(313.134 385.776)" fill="none" stroke="#ccc" stroke-linecap="round" stroke-linejoin="round" stroke-width="2"/>
    <line id="Line_135" data-name="Line 135" x2="10.766" transform="translate(316.409 374.443)" fill="none" stroke="#ccc" stroke-linecap="round" stroke-linejoin="round" stroke-width="2"/>
    <line id="Line_136" data-name="Line 136" x1="1.57" y2="5.034" transform="translate(299.351 348.025)" fill="none" stroke="#ccc" stroke-linecap="round" stroke-linejoin="round" stroke-width="2"/>
    <line id="Line_137" data-name="Line 137" x1="3.856" y2="3.496" transform="translate(309.278 355.156)" fill="none" stroke="#ccc" stroke-linecap="round" stroke-linejoin="round" stroke-width="2"/>
    <line id="Line_138" data-name="Line 138" x1="5.173" y2="1.483" transform="translate(315.011 367.18)" fill="none" stroke="#ccc" stroke-linecap="round" stroke-linejoin="round" stroke-width="2"/>
    <line id="Line_139" data-name="Line 139" x1="4.474" y1="1.268" transform="translate(315.011 380.314)" fill="none" stroke="#ccc" stroke-linecap="round" stroke-linejoin="round" stroke-width="2"/>
    <line id="Line_140" data-name="Line 140" x1="3.856" y1="3.595" transform="translate(309.278 390.604)" fill="none" stroke="#ccc" stroke-linecap="round" stroke-linejoin="round" stroke-width="2"/>
    <path id="Path_741" data-name="Path 741" d="M300.747,386.264s.063-5.106.249-8.646c.13-2.516,1.348-3.311,2.379-3.281a2.965,2.965,0,0,1,2.267,1.16" transform="translate(-13.106 -10.944)" fill="none" stroke="#ccc" stroke-linecap="round" stroke-linejoin="round" stroke-width="2"/>
    <path id="Path_742" data-name="Path 742" d="M307.113,385.042l.311-11.053s.184-2.389,2.067-2.4c2.368-.014,2.106,2.712,2.106,2.712l-.088,3.683" transform="translate(-14.859 -10.187)" fill="none" stroke="#ccc" stroke-linecap="round" stroke-linejoin="round" stroke-width="2"/>
    <path id="Path_743" data-name="Path 743" d="M313.254,376.148s-.012-2.863,2.226-2.85c2.366.012,2.1,2.712,2.1,2.712l-.065,1.769" transform="translate(-16.551 -10.659)" fill="none" stroke="#ccc" stroke-linecap="round" stroke-linejoin="round" stroke-width="2"/>
    <path id="Path_744" data-name="Path 744" d="M294.611,383.787c.024-.6.033-.843.053-1.331.1-2.453,1.29-3.745,2.558-3.778a2.269,2.269,0,0,1,1.877.731" transform="translate(-11.415 -12.14)" fill="none" stroke="#ccc" stroke-linecap="round" stroke-linejoin="round" stroke-width="2"/>
    <path id="Path_745" data-name="Path 745" d="M311.243,388.258s.276,3.138-1.962,3.126c-2.366-.012-2.1-2.711-2.1-2.711l.107-2.889" transform="translate(-14.875 -14.098)" fill="none" stroke="#ccc" stroke-linecap="round" stroke-linejoin="round" stroke-width="2"/>
    <path id="Path_746" data-name="Path 746" d="M305.4,389.144s-.322,2.844-2.56,2.832c-2.366-.012-2.1-2.712-2.1-2.712l.065-1.769" transform="translate(-13.101 -14.57)" fill="none" stroke="#ccc" stroke-linecap="round" stroke-linejoin="round" stroke-width="2"/>
    <path id="Path_747" data-name="Path 747" d="M299.09,387.009s-.251,3.593-2.489,3.581c-2.366-.012-2.084-3.092-2.084-3.092l.065-1.769" transform="translate(-11.387 -14.083)" fill="none" stroke="#ccc" stroke-linecap="round" stroke-linejoin="round" stroke-width="2"/>
    <path id="Path_748" data-name="Path 748" d="M312.74,384.777c-.013.6,0,1.773-.006,2.261-.049,2.455,1.061,3.817,2.324,3.925a2.268,2.268,0,0,0,1.919-.616" transform="translate(-16.407 -13.821)" fill="none" stroke="#ccc" stroke-linecap="round" stroke-linejoin="round" stroke-width="2"/>
    <path id="Path_749" data-name="Path 749" d="M297.942,423.129l.222-20.449s-3.391.193-3.623-3.714c-.033-.554-.052-1.243-.061-2.029l.149-6.1" transform="translate(-11.379 -15.492)" fill="none" stroke="#ccc" stroke-linecap="round" stroke-linejoin="round" stroke-width="2"/>
    <path id="Path_750" data-name="Path 750" d="M316.331,414.283c.018-1.14-2.111-13.1-1.448-14.1.749-1.133,1.369-.753,3.41-2.091,2.118-1.389,3.076-2.24,3.291-3.785.378-2.715.242-3.484,1.223-5.809a7.2,7.2,0,0,0,.564-3.025c-.22-1.253-2.444-3.42-3.165-4.183-.833-.881-3.213-.982-5.8-1.175a2.537,2.537,0,0,0-2.573,1.31c-.2.614-.3,1.7,1.381,2.55a18.726,18.726,0,0,0,3.932,1.58c1.156.3,1.135,3.445-1.8,4.115" transform="translate(-16.13 -12.535)" fill="none" stroke="#ccc" stroke-linecap="round" stroke-linejoin="round" stroke-width="2"/>
  </g>
</svg>
