<svg xmlns="http://www.w3.org/2000/svg" width="83.136" height="83.286" viewBox="0 0 83.136 83.286">
  <g id="icon" transform="translate(-264.676 -906.919)">
    <g id="Group_96" data-name="Group 96" transform="translate(265.676 907.919)">
      <path id="Path_793" data-name="Path 793" d="M306.245,907.919a40.568,40.568,0,1,1-40.569,40.569A40.57,40.57,0,0,1,306.245,907.919Z" transform="translate(-265.676 -907.919)" fill="none" stroke="#ccc" stroke-linecap="round" stroke-linejoin="round" stroke-width="2"/>
    </g>
    <path id="Path_794" data-name="Path 794" d="M300.651,985.036v5.011s8.588,2.96,10.19,3.667,2.4,2,2.987,4.445c.266,1.1.612,3.82.993,5.75l1.057,6.39" transform="translate(-9.635 -21.244)" fill="none" stroke="#ccc" stroke-linecap="round" stroke-linejoin="round" stroke-width="2"/>
    <path id="Path_795" data-name="Path 795" d="M276.689,993.328c1.6-.708,9.225-3.281,9.225-3.281v-5.011" transform="translate(-3.034 -21.244)" fill="none" stroke="#ccc" stroke-linecap="round" stroke-linejoin="round" stroke-width="2"/>
    <path id="Path_796" data-name="Path 796" d="M299,971.24v-2.491a6.365,6.365,0,1,0-12.729,0v2.491" transform="translate(-5.673 -15.004)" fill="none" stroke="#ccc" stroke-linecap="round" stroke-linejoin="round" stroke-width="2"/>
    <path id="Path_797" data-name="Path 797" d="M299,974.607v2.463a6.365,6.365,0,1,1-12.729,0v-2.463" transform="translate(-5.673 -18.371)" fill="none" stroke="#ccc" stroke-linecap="round" stroke-linejoin="round" stroke-width="2"/>
    <path id="Path_798" data-name="Path 798" d="M329.6,951.833c-.213-.814-.4-1.528-.527-2.076-.294-1.218-.69-1.861-1.487-2.214s-5.075-1.826-5.075-1.826v-2.5" transform="translate(-15.655 -9.725)" fill="none" stroke="#ccc" stroke-linecap="round" stroke-linejoin="round" stroke-width="2"/>
    <path id="Path_799" data-name="Path 799" d="M307.128,951.833c.213-.814.395-1.528.527-2.076.294-1.218.69-1.861,1.487-2.214s5.075-1.826,5.075-1.826v-2.5" transform="translate(-11.419 -9.725)" fill="none" stroke="#ccc" stroke-linecap="round" stroke-linejoin="round" stroke-width="2"/>
    <path id="Path_800" data-name="Path 800" d="M321.682,936.351v-1.24a3.169,3.169,0,1,0-6.339,0v1.24" transform="translate(-13.682 -6.618)" fill="none" stroke="#ccc" stroke-linecap="round" stroke-linejoin="round" stroke-width="2"/>
    <path id="Path_801" data-name="Path 801" d="M321.682,938.028v1.227a3.169,3.169,0,1,1-6.339,0v-1.227" transform="translate(-13.682 -8.295)" fill="none" stroke="#ccc" stroke-linecap="round" stroke-linejoin="round" stroke-width="2"/>
    <path id="Path_802" data-name="Path 802" d="M363.434,951.53c-.213-.814-.4-1.529-.528-2.077-.294-1.218-.69-1.861-1.487-2.213s-5.075-1.827-5.075-1.827v-2.5" transform="translate(-24.978 -9.641)" fill="none" stroke="#ccc" stroke-linecap="round" stroke-linejoin="round" stroke-width="2"/>
    <path id="Path_803" data-name="Path 803" d="M340.966,951.53c.214-.814.4-1.529.528-2.077.294-1.218.69-1.861,1.487-2.213s5.075-1.827,5.075-1.827v-2.5" transform="translate(-20.741 -9.641)" fill="none" stroke="#ccc" stroke-linecap="round" stroke-linejoin="round" stroke-width="2"/>
    <path id="Path_804" data-name="Path 804" d="M355.521,936.047v-1.24a3.169,3.169,0,1,0-6.339,0v1.24" transform="translate(-23.004 -6.534)" fill="none" stroke="#ccc" stroke-linecap="round" stroke-linejoin="round" stroke-width="2"/>
    <path id="Path_805" data-name="Path 805" d="M355.521,937.724v1.227a3.169,3.169,0,1,1-6.339,0v-1.227" transform="translate(-23.004 -8.211)" fill="none" stroke="#ccc" stroke-linecap="round" stroke-linejoin="round" stroke-width="2"/>
    <path id="Path_806" data-name="Path 806" d="M315.651,979.237c3.773-.1,6.648.307,9.924-.922.9-.339,2.755-1.648,3.072-2.56a22.366,22.366,0,0,0,.573-4.9c.078-1.5.016-5.424.016-5.424l-3.163-.014,5.031-5.349,5.274,5.422-3.457-.016s-.1,7.647-.044,9.851c.172,6.876-2.14,9.476-6.175,10.051" transform="translate(-13.767 -14.368)" fill="none" stroke="#ccc" stroke-linecap="round" stroke-linejoin="round" stroke-width="2"/>
  </g>
</svg>
