<svg xmlns="http://www.w3.org/2000/svg" width="83.683" height="83.682" viewBox="0 0 83.683 83.682">
  <g id="icon" transform="translate(-258.06 -507.881)">
    <g id="Group_84" data-name="Group 84" transform="translate(259.06 508.881)">
      <path id="Path_698" data-name="Path 698" d="M299.9,508.881a40.841,40.841,0,1,1-40.842,40.841A40.843,40.843,0,0,1,299.9,508.881Z" transform="translate(-259.06 -508.881)" fill="none" stroke="#ccc" stroke-linecap="round" stroke-linejoin="round" stroke-width="2"/>
    </g>
    <path id="Path_699" data-name="Path 699" d="M338.55,596.879c-.507-1.938-.941-3.64-1.257-4.946-.7-2.9-1.644-4.429-3.542-5.271s-12.085-4.349-12.085-4.349V576.37" transform="translate(-16.942 -18.263)" fill="none" stroke="#ccc" stroke-linecap="round" stroke-linejoin="round" stroke-width="2"/>
    <path id="Path_700" data-name="Path 700" d="M285.294,596.879c.508-1.938.941-3.64,1.257-4.946.7-2.9,1.644-4.429,3.542-5.271s12.085-4.349,12.085-4.349V576.37" transform="translate(-7.099 -18.263)" fill="none" stroke="#ccc" stroke-linecap="round" stroke-linejoin="round" stroke-width="2"/>
    <path id="Path_701" data-name="Path 701" d="M319.822,560.19v-2.953a7.547,7.547,0,1,0-15.095,0v2.953" transform="translate(-12.358 -11.043)" fill="none" stroke="#ccc" stroke-linecap="round" stroke-linejoin="round" stroke-width="2"/>
    <path id="Path_702" data-name="Path 702" d="M319.822,564.086v2.921a7.547,7.547,0,1,1-15.095,0v-2.921" transform="translate(-12.358 -14.939)" fill="none" stroke="#ccc" stroke-linecap="round" stroke-linejoin="round" stroke-width="2"/>
    <path id="Path_703" data-name="Path 703" d="M308.631,522.618a1.72,1.72,0,0,0,2.217-1.11c.415-.83.24-2.276,2.836-2.295a2.851,2.851,0,0,1,3.206,3.155c0,2.242-2.014,3.179-4.815,3.179v3.981a1.191,1.191,0,0,0,1.34,1.411,1.364,1.364,0,0,0,1.417-1.425c.005-.681,0-1.748,0-1.748a5.112,5.112,0,0,0,5-5.394c0-5.292-3.454-6.162-5.769-6.161-1.754,0-5.054.2-6.076,4.469C307.986,520.681,307.511,522.232,308.631,522.618Z" transform="translate(-13.213 -1.984)" fill="none" stroke="#ccc" stroke-linecap="round" stroke-linejoin="round" stroke-width="1.568"/>
    <path id="Path_704" data-name="Path 704" d="M312.828,541.876a1.779,1.779,0,1,1,1.779,1.779A1.779,1.779,0,0,1,312.828,541.876Z" transform="translate(-14.55 -8.447)" fill="none" stroke="#ccc" stroke-linecap="round" stroke-linejoin="round" stroke-width="1.746"/>
    <path id="Path_705" data-name="Path 705" d="M291.621,563.889l-7.027.088v3.8l-5.275-6.13,5.115-5.593.1,3.509,7.178-.048" transform="translate(-5.483 -12.764)" fill="none" stroke="#ccc" stroke-linecap="round" stroke-linejoin="round" stroke-width="1.746"/>
    <path id="Path_706" data-name="Path 706" d="M335.93,563.889l7.027.088v3.8l5.275-6.13-5.115-5.593-.1,3.509-7.178-.048" transform="translate(-20.778 -12.764)" fill="none" stroke="#ccc" stroke-linecap="round" stroke-linejoin="round" stroke-width="1.746"/>
    <path id="Path_707" data-name="Path 707" d="M329.838,546.316c2.314-.254,3.613-2.869,4.765-4.848s4.741-9.071,4.741-9.071l3.183,1.664-2.281-7.52-7.2,2.536,2.912,1.522s-1.813,3.65-2.6,5a18.636,18.636,0,0,1-2.662,3.071,7.536,7.536,0,0,1-2.517,1.585,14.1,14.1,0,0,1-3.987.914" transform="translate(-17.626 -4.779)" fill="none" stroke="#ccc" stroke-linecap="round" stroke-linejoin="round" stroke-width="1.746"/>
    <path id="Path_708" data-name="Path 708" d="M293.469,546.316c-2.314-.254-3.613-2.869-4.766-4.848s-4.741-9.071-4.741-9.071l-3.183,1.664,2.281-7.52,7.2,2.536-2.912,1.522s1.813,3.65,2.6,5a18.636,18.636,0,0,0,2.662,3.071,7.544,7.544,0,0,0,2.517,1.585,14.1,14.1,0,0,0,3.987.914" transform="translate(-5.877 -4.779)" fill="none" stroke="#ccc" stroke-linecap="round" stroke-linejoin="round" stroke-width="1.746"/>
  </g>
</svg>
