<svg xmlns="http://www.w3.org/2000/svg" width="83.137" height="83.137" viewBox="0 0 83.137 83.137">
  <g id="icon" transform="translate(-69.448 -542.117)">
    <g id="Group_78" data-name="Group 78" transform="translate(70.448 543.117)">
      <path id="Path_670" data-name="Path 670" d="M111.017,543.117a40.569,40.569,0,1,1-40.569,40.569A40.57,40.57,0,0,1,111.017,543.117Z" transform="translate(-70.448 -543.117)" fill="none" stroke="#ccc" stroke-linecap="round" stroke-linejoin="round" stroke-width="2"/>
    </g>
    <line id="Line_92" data-name="Line 92" y2="9.901" transform="translate(122.877 545.994)" fill="none" stroke="#ccc" stroke-linecap="round" stroke-linejoin="round" stroke-width="2"/>
    <line id="Line_93" data-name="Line 93" y2="11.96" transform="translate(126.479 545.994)" fill="none" stroke="#ccc" stroke-linecap="round" stroke-linejoin="round" stroke-width="2"/>
    <path id="Path_671" data-name="Path 671" d="M141.491,560.748l4.724,2.412s2.014.675,1.206,2.147c-.748,1.362-2.021.5-2.547.284-1.309-.533-4.612-2.3-4.612-2.3s-1.784-.632-1.03-2.045S141.491,560.748,141.491,560.748Z" transform="translate(-18.897 -4.778)" fill="none" stroke="#ccc" stroke-linecap="round" stroke-linejoin="round" stroke-width="2"/>
    <path id="Path_672" data-name="Path 672" d="M141.491,565.465l4.724,2.412s2.014.674,1.206,2.147c-.748,1.362-2.021.5-2.547.283-1.309-.532-4.612-2.3-4.612-2.3s-1.784-.632-1.03-2.045S141.491,565.465,141.491,565.465Z" transform="translate(-18.897 -6.077)" fill="none" stroke="#ccc" stroke-linecap="round" stroke-linejoin="round" stroke-width="2"/>
    <path id="Path_673" data-name="Path 673" d="M144.216,572.257c2.739,1.813,5.39,5.843,3.811,9.274a5.835,5.835,0,0,1-5.695,3.413c-2.56,0-5.42-1.506-5.646-4.517a6.977,6.977,0,0,1,1.7-5.5,21.471,21.471,0,0,1,1.836-1.656,42.049,42.049,0,0,1,3.539,3.313c.927,1.1,1.4,1.513,1.21,3.37a2,2,0,0,1-1,1.516,2.741,2.741,0,0,1-2.893-.067A2.117,2.117,0,0,1,140,579.9c-.226-1.656.315-3.028,2.581-4.527" transform="translate(-18.239 -8.027)" fill="none" stroke="#ccc" stroke-linecap="round" stroke-linejoin="round" stroke-width="2"/>
    <path id="Path_674" data-name="Path 674" d="M141.356,572.5c-.862-.743-.661-2.066-.139-3.063" transform="translate(-19.371 -7.25)" fill="none" stroke="#ccc" stroke-linecap="round" stroke-linejoin="round" stroke-width="2"/>
    <path id="Path_675" data-name="Path 675" d="M129.019,605.764a4.439,4.439,0,1,1,4.439,4.438A4.439,4.439,0,0,1,129.019,605.764Z" transform="translate(-16.135 -16.035)" fill="none" stroke="#ccc" stroke-linecap="round" stroke-linejoin="round" stroke-width="2"/>
    <path id="Path_676" data-name="Path 676" d="M120.1,615.439a2.448,2.448,0,1,1,3.023,1.686A2.447,2.447,0,0,1,120.1,615.439Z" transform="translate(-13.651 -19.064)" fill="none" stroke="#ccc" stroke-linecap="round" stroke-linejoin="round" stroke-width="2"/>
    <path id="Path_677" data-name="Path 677" d="M127.505,646.339c-.419-1.6-2.211-8-2.471-9.079-.579-2.395-1.358-3.658-2.926-4.354s-9.982-3.593-9.982-3.593V624.4" transform="translate(-11.481 -22.393)" fill="none" stroke="#ccc" stroke-linecap="round" stroke-linejoin="round" stroke-width="2"/>
    <path id="Path_678" data-name="Path 678" d="M85.917,633.543a4.334,4.334,0,0,1,1.038-.637c1.569-.693,9.982-3.593,9.982-3.593V624.4" transform="translate(-4.261 -22.393)" fill="none" stroke="#ccc" stroke-linecap="round" stroke-linejoin="round" stroke-width="2"/>
    <path id="Path_679" data-name="Path 679" d="M110.507,610.891v-2.439a6.235,6.235,0,1,0-12.469,0v2.439" transform="translate(-7.6 -16.28)" fill="none" stroke="#ccc" stroke-linecap="round" stroke-linejoin="round" stroke-width="2"/>
    <path id="Path_680" data-name="Path 680" d="M110.507,614.189V616.6a6.235,6.235,0,1,1-12.469,0v-2.413" transform="translate(-7.6 -19.579)" fill="none" stroke="#ccc" stroke-linecap="round" stroke-linejoin="round" stroke-width="2"/>
    <path id="Path_681" data-name="Path 681" d="M158.406,570.762c-1.006,1.289-2.067,1.669-4.254,1.669,0,0,.053,6-4.036,8.777s-10.042,0-10.042,0-1.337,3.019-6.029,3.152-5.954-3.4-5.954-3.4-5.81,3.789-11.115.506a9.769,9.769,0,0,1-4.613-9.03s-7.008-1.052-6.755-7.379,8.084-6.93,8.084-6.93.311-5,4.588-7.36a11.031,11.031,0,0,1,9.811-.878s1.29-3.331,7.826-2.722" transform="translate(-9.684 -1.094)" fill="none" stroke="#ccc" stroke-linecap="round" stroke-linejoin="round" stroke-width="2"/>
  </g>
</svg>
