<svg xmlns="http://www.w3.org/2000/svg" width="83.139" height="83.139" viewBox="0 0 83.139 83.139">
  <g id="icon" transform="translate(-725.928 -534.577)">
    <g id="Group_101" data-name="Group 101" transform="translate(726.928 535.577)">
      <path id="Path_836" data-name="Path 836" d="M767.5,535.577a40.57,40.57,0,1,1-40.57,40.57A40.57,40.57,0,0,1,767.5,535.577Z" transform="translate(-726.928 -535.577)" fill="none" stroke="#ccc" stroke-linecap="round" stroke-linejoin="round" stroke-width="2"/>
    </g>
    <path id="Path_837" data-name="Path 837" d="M772.216,594.659l.064-9.416s-11.036-12.905-12.133-14.417a2.664,2.664,0,0,1,.2-3.82c1.193-1.112,2.869-.4,4.171.9s7.918,10.14,9.678,11.524a8.113,8.113,0,0,0,4.5,1.466,6.592,6.592,0,0,0,4.314-1.516c1.052-.972,7.973-9.709,8.943-11.048.927-1.28,2.83-1.982,3.955-1.095a2.278,2.278,0,0,1,.61,3.4c-1.136,1.574-11.719,15.191-11.719,15.191l-.217,5.617" transform="translate(-8.957 -8.506)" fill="none" stroke="#ccc" stroke-linecap="round" stroke-linejoin="round" stroke-width="2"/>
    <path id="Path_838" data-name="Path 838" d="M769.632,604.659a13.283,13.283,0,0,1,4.413.768c1.482.8,5.243,10.371,5.813,12.423a8.063,8.063,0,0,1,0,5.015c-.382.9-.684,1.71-3.419.912s-9.232-5.129-10.6-5.813-2.736-2.849-1.6-4.559,3.192-1.484,4.673-.8,7.294,4.219,7.294,4.219" transform="translate(-10.162 -19.03)" fill="none" stroke="#ccc" stroke-linecap="round" stroke-linejoin="round" stroke-width="2"/>
    <path id="Path_839" data-name="Path 839" d="M751.1,614.3s1.659-1.372,2.571-2.056a2.622,2.622,0,0,1,3.355.637,3.047,3.047,0,0,1-.659,4.241c-.923.713-3.021,2.833-5.13,4.581-1.224,1.015-2.771,1.521-3.907.647-1.343-1.034-1.307-2.768-.222-4.5s6.081-11.121,8.439-11.771" transform="translate(-5.339 -19.42)" fill="none" stroke="#ccc" stroke-linecap="round" stroke-linejoin="round" stroke-width="2"/>
    <circle id="Ellipse_11" data-name="Ellipse 11" cx="5.922" cy="5.922" r="5.922" transform="translate(747.744 586.918) rotate(-80.783)" fill="none" stroke="#ccc" stroke-linecap="round" stroke-linejoin="round" stroke-width="2"/>
    <path id="Path_840" data-name="Path 840" d="M803.142,600.066a5.732,5.732,0,0,1,9.062,1.483" transform="translate(-20.994 -17.323)" fill="none" stroke="#ccc" stroke-linecap="round" stroke-linejoin="round" stroke-width="2"/>
    <path id="Path_841" data-name="Path 841" d="M811.206,610a5.919,5.919,0,0,1-4.984,2.723c-3.271,0-5.922-2.211-5.922-5.481" transform="translate(-20.211 -19.742)" fill="none" stroke="#ccc" stroke-linecap="round" stroke-linejoin="round" stroke-width="2"/>
    <path id="Path_842" data-name="Path 842" d="M779.448,574.048a4.763,4.763,0,1,1,4.763,4.762A4.763,4.763,0,0,1,779.448,574.048Z" transform="translate(-14.467 -9.285)" fill="none" stroke="#ccc" stroke-linecap="round" stroke-linejoin="round" stroke-width="2"/>
    <line id="Line_182" data-name="Line 182" x2="0.477" y2="8.033" transform="translate(765.36 604.412)" fill="none" stroke="#ccc" stroke-linecap="round" stroke-linejoin="round" stroke-width="2"/>
    <line id="Line_183" data-name="Line 183" x2="1.187" y2="13.681" transform="translate(749.819 598.763)" fill="none" stroke="#ccc" stroke-linecap="round" stroke-linejoin="round" stroke-width="2"/>
    <path id="Path_843" data-name="Path 843" d="M801.886,628.49l3.508-11.418s2.492,2.124,3.139,2.77a2.193,2.193,0,0,0,2.4.615,3.392,3.392,0,0,0,2.031-2.739c.185-1.385.219-15.358.127-16.65s.188-3.883-2.466-3.883c-2.389,0-3.1,1.908-3.034,4,.042,1.292-.114,10.814-.114,10.814a24.446,24.446,0,0,0-5.038-2.308,79.635,79.635,0,0,0-8.031-1.016c-.831.093.277-1.2.277-1.2.738-1.662,3.161-7.3,3.807-8.775s.909-3.777-.945-4.612c-1.431-.645-3.109-.147-4.212,2.173-.585,1.231-6.556,12.783-6.943,13.8s-.478,2.862.445,3.786,3.97.185,4.893,0L788.5,628.49" transform="translate(-16.304 -16.045)" fill="none" stroke="#ccc" stroke-linecap="round" stroke-linejoin="round" stroke-width="2"/>
    <path id="Path_844" data-name="Path 844" d="M749.52,579.53l.7,4.629h-4.41l2.1,4.049-4.088.994,1.991,3.4-3.4,2.225" transform="translate(-4.265 -12.108)" fill="none" stroke="#ccc" stroke-linecap="round" stroke-linejoin="round" stroke-width="2"/>
    <path id="Path_845" data-name="Path 845" d="M740.947,575.366l.7,4.629h-4.41l2.1,4.049-4.088.994,1.991,3.4-3.4,2.225" transform="translate(-1.903 -10.96)" fill="none" stroke="#ccc" stroke-linecap="round" stroke-linejoin="round" stroke-width="2"/>
    <line id="Line_184" data-name="Line 184" y1="5.728" x2="2.837" transform="translate(788.72 570.782)" fill="none" stroke="#ccc" stroke-linecap="round" stroke-linejoin="round" stroke-width="2"/>
    <line id="Line_185" data-name="Line 185" y1="3.598" x2="4.043" transform="translate(791.558 574.83)" fill="none" stroke="#ccc" stroke-linecap="round" stroke-linejoin="round" stroke-width="2"/>
    <line id="Line_186" data-name="Line 186" y1="5.848" transform="translate(785.163 570.782)" fill="none" stroke="#ccc" stroke-linecap="round" stroke-linejoin="round" stroke-width="2"/>
    <path id="Path_846" data-name="Path 846" d="M766.716,557.579l-7.284-9.149a.412.412,0,0,1,.458-.645l10.927,3.82a.412.412,0,0,0,.547-.408l-.53-11.2a.412.412,0,0,1,.752-.251l6.158,9.061a.412.412,0,0,0,.677.007l6.535-9.221a.412.412,0,0,1,.748.238v11.641a.412.412,0,0,0,.557.385l10.217-3.832a.412.412,0,0,1,.472.636l-6.6,8.622" transform="translate(-8.928 -1.059)" fill="none" stroke="#ccc" stroke-linecap="round" stroke-linejoin="round" stroke-width="2"/>
  </g>
</svg>
