<svg xmlns="http://www.w3.org/2000/svg" width="83.136" height="83.135" viewBox="0 0 83.136 83.135">
  <g id="icon" transform="translate(1 1)">
    <g id="Group_34" data-name="Group 34">
      <path id="Path_370" data-name="Path 370" d="M111.88,460.72a40.568,40.568,0,1,1-40.568,40.568A40.569,40.569,0,0,1,111.88,460.72Z" transform="translate(-71.312 -460.72)" fill="none" stroke="#ccc" stroke-linecap="round" stroke-linejoin="round" stroke-width="2"/>
    </g>
    <path id="Path_371" data-name="Path 371" d="M134.683,533.187c-2.976-5.013-3.546-7.6-3.344-11.441s1.619-4.047,5.059-11.535a23.027,23.027,0,0,0-2.539-24.082c-3.09-3.91-8.42-5.422-13.179-5.884-7.126-.692-17.979,2.2-19.955,10.163a20.206,20.206,0,0,0-.551,8.672c.607,3.036-3.441,9.511-4.452,10.928s3.44,1.675,3.44,1.675l-.405,3.633,2.834,1.169-1.953,1.75s1.735.73,1.826,1.644,0,3.378.091,3.835,1.37.64,2.192.822a62.149,62.149,0,0,0,8.219.548c2.627-.582,3.92,8.205,3.92,9.5" transform="translate(-77.995 -466.072)" fill="none" stroke="#ccc" stroke-linecap="round" stroke-linejoin="round" stroke-width="2"/>
    <path id="Path_372" data-name="Path 372" d="M117.337,509.978l8.677-17.781-.3,11.877,4.619-.513L122.3,521.237l.3-11.84Z" transform="translate(-83.991 -469.392)" fill="none" stroke="#ccc" stroke-linecap="round" stroke-linejoin="round" stroke-width="2"/>
  </g>
</svg>
