<svg xmlns="http://www.w3.org/2000/svg" width="83.137" height="83.137" viewBox="0 0 83.137 83.137">
  <g id="icon" transform="translate(-69.491 -329.062)">
    <g id="Group_98" data-name="Group 98" transform="translate(70.491 330.062)">
      <path id="Path_814" data-name="Path 814" d="M111.06,330.062a40.568,40.568,0,1,1-40.569,40.569A40.569,40.569,0,0,1,111.06,330.062Z" transform="translate(-70.491 -330.062)" fill="none" stroke="#ccc" stroke-linecap="round" stroke-linejoin="round" stroke-width="2"/>
    </g>
    <path id="Path_815" data-name="Path 815" d="M98.436,377.55l-6.79,2.357s-3.074,2.643-4.04,3.535c-.676.624-1.153,1.5-.164,2.4.93.848,1.851-.015,2.263-.327A41.938,41.938,0,0,1,93.4,382.5a35.422,35.422,0,0,1,3.818-1.064,14.108,14.108,0,0,1,3.749,1.415,10.415,10.415,0,0,1,3.51,2.779,28.152,28.152,0,0,1,1.878,3.192c.125.376.533,2.934.751,4.256.2,1.232.58,2.221,1.772,2.076,1.039-.127,1.308-.843,1.193-2.152-.089-1-.273-3.554-.461-4.242s-3.255-6.884-3.693-7.51,1.189-5.195,1.314-5.508,8.637.5,9.325.564,9.467-3.391,9.951-3.568a1.848,1.848,0,0,0,1.127-2.379,2.078,2.078,0,0,0-2.62-1.284c-.939.25-8.583,3.1-8.959,3.224s-7.7-1.565-7.7-1.565,4.694-5.194,5.007-5.82,1.069-9.671,1.142-10.544c.093-1.115,0-2.555-1.6-2.648a2.005,2.005,0,0,0-2.192,1.884l-1.529,9.806s-5.268,2.754-5.894,3.255a9.356,9.356,0,0,0-1.69,1.877,18.829,18.829,0,0,0-1.377,3.192C99.97,372.547,98.436,377.55,98.436,377.55Z" transform="translate(-4.514 -5.965)" fill="none" stroke="#ccc" stroke-linecap="round" stroke-linejoin="round" stroke-width="2"/>
    <path id="Path_816" data-name="Path 816" d="M161.9,348.981l-6.389,1.693-4.244-1.767H146.9v12.678l6.443,5.4-8.729,7.47,5.923,5.208v23.07" transform="translate(-20.419 -5.192)" fill="none" stroke="#ccc" stroke-linecap="round" stroke-linejoin="round" stroke-width="2"/>
    <path id="Path_817" data-name="Path 817" d="M157.81,396.813v5.3l4.572,3.845-3.238,2.7v7.274" transform="translate(-24.054 -18.389)" fill="none" stroke="#ccc" stroke-linecap="round" stroke-linejoin="round" stroke-width="2"/>
    <path id="Path_818" data-name="Path 818" d="M163.725,356.366v6.027l3.429,2.494v7.794l-4.468,3.833v5" transform="translate(-25.398 -7.246)" fill="none" stroke="#ccc" stroke-linecap="round" stroke-linejoin="round" stroke-width="2"/>
    <line id="Line_171" data-name="Line 171" x2="60.49" transform="translate(80.706 397.545)" fill="none" stroke="#ccc" stroke-linecap="round" stroke-linejoin="round" stroke-width="2"/>
    <path id="Path_819" data-name="Path 819" d="M97.017,400.8a3.946,3.946,0,1,1,3.946,3.946A3.945,3.945,0,0,1,97.017,400.8Z" transform="translate(-7.307 -18.4)" fill="none" stroke="#ccc" stroke-linecap="round" stroke-linejoin="round" stroke-width="2"/>
  </g>
</svg>
