<svg xmlns="http://www.w3.org/2000/svg" width="83.134" height="83.135" viewBox="0 0 83.134 83.135">
  <g id="icon" transform="translate(1 1)">
    <g id="Group_42" data-name="Group 42" transform="translate(22.113 17.554)">
      <path id="Path_381" data-name="Path 381" d="M113.252,722.148l.054-3.146a4.013,4.013,0,0,0,3.962-4.174c.015-1.032-.075-6.171-.056-7.281a1.515,1.515,0,0,0-2.242.172" transform="translate(-103.53 -699.656)" fill="none" stroke="#ccc" stroke-linecap="round" stroke-linejoin="round" stroke-width="2"/>
      <path id="Path_382" data-name="Path 382" d="M104.073,706.7s.157-4.016.273-6.189c.082-1.545.83-2.032,1.463-2.013a1.821,1.821,0,0,1,1.391.714" transform="translate(-101.002 -697.279)" fill="none" stroke="#ccc" stroke-linecap="round" stroke-linejoin="round" stroke-width="2"/>
      <path id="Path_383" data-name="Path 383" d="M108,705.829l.3-7.54s.114-1.466,1.27-1.474c1.454-.006,1.291,1.666,1.291,1.666l-.172,6.971" transform="translate(-102.085 -696.815)" fill="none" stroke="#ccc" stroke-linecap="round" stroke-linejoin="round" stroke-width="2"/>
      <path id="Path_384" data-name="Path 384" d="M111.918,699.619s-.006-1.758,1.368-1.749c1.453.009,1.29,1.666,1.29,1.666l-.036,9.708" transform="translate(-103.163 -697.106)" fill="none" stroke="#ccc" stroke-linecap="round" stroke-linejoin="round" stroke-width="2"/>
      <path id="Path_385" data-name="Path 385" d="M102.439,720.314l-.07-2.782a2.161,2.161,0,0,1-2.221-2.281c-.141-2.4.138-8.884.254-11.77.062-1.506.794-2.3,1.572-2.318a1.394,1.394,0,0,1,1.153.449" transform="translate(-99.91 -698.013)" fill="none" stroke="#ccc" stroke-linecap="round" stroke-linejoin="round" stroke-width="2"/>
      <line id="Line_46" data-name="Line 46" x1="0.015" y2="8.402" transform="translate(11.834 41.76)" fill="none" stroke="#ccc" stroke-linecap="round" stroke-linejoin="round" stroke-width="2"/>
      <path id="Path_386" data-name="Path 386" d="M100.3,735.775c.111-4.521.206-7.978.206-7.978l11.336.224-.009,5.135" transform="translate(-99.963 -705.351)" fill="none" stroke="#ccc" stroke-linecap="round" stroke-linejoin="round" stroke-width="2"/>
      <path id="Path_387" data-name="Path 387" d="M99.84,762.652c-.025-1.707.02-5.1.093-8.94" transform="translate(-99.834 -712.49)" fill="none" stroke="#ccc" stroke-linecap="round" stroke-linejoin="round" stroke-width="2"/>
    </g>
    <g id="Group_43" data-name="Group 43" transform="translate(13.774 22.738)">
      <path id="Path_388" data-name="Path 388" d="M126.527,717.568l3.146.07a4.011,4.011,0,0,0,4.154,3.981c1.032.02,6.172-.045,7.282-.02a1.514,1.514,0,0,0-.162-2.242" transform="translate(-98.848 -707.717)" fill="none" stroke="#ccc" stroke-linecap="round" stroke-linejoin="round" stroke-width="2"/>
      <path id="Path_389" data-name="Path 389" d="M144.61,708.477s4.016.177,6.188.3c1.544.089,2.028.839,2.005,1.472a1.818,1.818,0,0,1-.719,1.388" transform="translate(-103.83 -705.212)" fill="none" stroke="#ccc" stroke-linecap="round" stroke-linejoin="round" stroke-width="2"/>
      <path id="Path_390" data-name="Path 390" d="M145.157,712.411l7.538.333s1.466.121,1.469,1.277c0,1.454-1.673,1.283-1.673,1.283l-6.97-.206" transform="translate(-103.981 -706.296)" fill="none" stroke="#ccc" stroke-linecap="round" stroke-linejoin="round" stroke-width="2"/>
      <path id="Path_391" data-name="Path 391" d="M150.446,716.368s1.757,0,1.742,1.377c-.016,1.453-1.672,1.282-1.672,1.282l-9.707-.084" transform="translate(-102.783 -707.386)" fill="none" stroke="#ccc" stroke-linecap="round" stroke-linejoin="round" stroke-width="2"/>
      <path id="Path_392" data-name="Path 392" d="M126.84,706.769l2.781-.057a2.162,2.162,0,0,1,2.293-2.21c2.4-.128,8.883.181,11.769.312,1.506.069,2.294.8,2.31,1.583a1.392,1.392,0,0,1-.455,1.151" transform="translate(-98.935 -704.109)" fill="none" stroke="#ccc" stroke-linecap="round" stroke-linejoin="round" stroke-width="2"/>
      <line id="Line_47" data-name="Line 47" x1="8.579" y1="0.057" transform="translate(0 11.83)" fill="none" stroke="#ccc" stroke-linecap="round" stroke-linejoin="round" stroke-width="2"/>
      <path id="Path_393" data-name="Path 393" d="M100.164,720.378" transform="translate(-91.585 -708.491)" fill="none" stroke="#ccc" stroke-linecap="round" stroke-linejoin="round" stroke-width="2"/>
      <path id="Path_394" data-name="Path 394" d="M118.188,720.5" transform="translate(-96.551 -708.524)" fill="none" stroke="#ccc" stroke-linecap="round" stroke-linejoin="round" stroke-width="2"/>
      <path id="Path_395" data-name="Path 395" d="M115.57,704.564c4.546.134,8.028.247,8.028.247l-.278,11.335-5.412-.038" transform="translate(-95.83 -704.134)" fill="none" stroke="#ccc" stroke-linecap="round" stroke-linejoin="round" stroke-width="2"/>
      <path id="Path_396" data-name="Path 396" d="M115.57,704.564" transform="translate(-95.83 -704.134)" fill="none" stroke="#ccc" stroke-linecap="round" stroke-linejoin="round" stroke-width="2"/>
      <path id="Path_397" data-name="Path 397" d="M88.4,703.973c1.684-.015,5,.044,8.779.133" transform="translate(-88.345 -703.971)" fill="none" stroke="#ccc" stroke-linecap="round" stroke-linejoin="round" stroke-width="2"/>
    </g>
    <g id="Group_44" data-name="Group 44" transform="translate(46.229 13.419)">
      <path id="Path_398" data-name="Path 398" d="M137.082,729.4l-.031,3.146a4.012,4.012,0,0,0-3.93,4.2c-.007,1.032.121,6.171.11,7.281a1.514,1.514,0,0,0,2.24-.189" transform="translate(-133.121 -701.656)" fill="none" stroke="#ccc" stroke-linecap="round" stroke-linejoin="round" stroke-width="2"/>
      <path id="Path_399" data-name="Path 399" d="M146.734,747.367s-.128,4.017-.227,6.192c-.07,1.545-.815,2.037-1.448,2.023a1.819,1.819,0,0,1-1.4-.7" transform="translate(-136.025 -706.607)" fill="none" stroke="#ccc" stroke-linecap="round" stroke-linejoin="round" stroke-width="2"/>
      <path id="Path_400" data-name="Path 400" d="M142.907,747.962l-.241,7.541s-.1,1.468-1.259,1.484c-1.453.017-1.3-1.656-1.3-1.656l.12-6.972" transform="translate(-135.043 -706.771)" fill="none" stroke="#ccc" stroke-linecap="round" stroke-linejoin="round" stroke-width="2"/>
      <path id="Path_401" data-name="Path 401" d="M139.1,753.312s.019,1.757-1.355,1.758c-1.453,0-1.3-1.656-1.3-1.656l-.036-9.707" transform="translate(-134.027 -705.599)" fill="none" stroke="#ccc" stroke-linecap="round" stroke-linejoin="round" stroke-width="2"/>
      <path id="Path_402" data-name="Path 402" d="M148.309,729.588l.09,2.781a2.162,2.162,0,0,1,2.239,2.265c.158,2.4-.072,8.885-.167,11.772-.051,1.506-.777,2.3-1.555,2.329a1.393,1.393,0,0,1-1.156-.441" transform="translate(-137.154 -701.709)" fill="none" stroke="#ccc" stroke-linecap="round" stroke-linejoin="round" stroke-width="2"/>
      <line id="Line_48" data-name="Line 48" x1="0.053" y1="9.423" transform="translate(1.644 0.088)" fill="none" stroke="#ccc" stroke-linecap="round" stroke-linejoin="round" stroke-width="2"/>
      <path id="Path_403" data-name="Path 403" d="M135.463,704.235" transform="translate(-133.766 -694.724)" fill="none" stroke="#ccc" stroke-linecap="round" stroke-linejoin="round" stroke-width="2"/>
      <path id="Path_404" data-name="Path 404" d="M135.571,723.166" transform="translate(-133.796 -699.94)" fill="none" stroke="#ccc" stroke-linecap="round" stroke-linejoin="round" stroke-width="2"/>
      <path id="Path_405" data-name="Path 405" d="M147.059,720.014c-.069,3.917-.127,6.776-.127,6.776l-11.337-.14-.025-4.352" transform="translate(-133.796 -699.071)" fill="none" stroke="#ccc" stroke-linecap="round" stroke-linejoin="round" stroke-width="2"/>
      <path id="Path_406" data-name="Path 406" d="M151.7,691.108c.04,1.867.013,5.75-.041,10.033" transform="translate(-138.228 -691.108)" fill="none" stroke="#ccc" stroke-linecap="round" stroke-linejoin="round" stroke-width="2"/>
    </g>
    <g id="Group_45" data-name="Group 45" transform="translate(18.184 45.549)">
      <path id="Path_407" data-name="Path 407" d="M119.641,739.3l-3.147.018a4.012,4.012,0,0,0-4.264-3.864c-1.032.008-6.168.217-7.278.222a1.515,1.515,0,0,0,.224,2.237" transform="translate(-97.205 -735.456)" fill="none" stroke="#ccc" stroke-linecap="round" stroke-linejoin="round" stroke-width="2"/>
      <path id="Path_408" data-name="Path 408" d="M104.422,749.233s-4.019-.065-6.194-.131c-1.546-.046-2.05-.782-2.046-1.416a1.819,1.819,0,0,1,.681-1.406" transform="translate(-94.898 -738.437)" fill="none" stroke="#ccc" stroke-linecap="round" stroke-linejoin="round" stroke-width="2"/>
      <path id="Path_409" data-name="Path 409" d="M103.458,745.416l-7.544-.123s-1.469-.08-1.5-1.236c-.04-1.453,1.636-1.329,1.636-1.329l6.973.012" transform="translate(-94.41 -737.458)" fill="none" stroke="#ccc" stroke-linecap="round" stroke-linejoin="round" stroke-width="2"/>
      <path id="Path_410" data-name="Path 410" d="M97.162,741.651s-1.757.046-1.78-1.327c-.024-1.452,1.636-1.328,1.636-1.328l9.705-.187" transform="translate(-94.678 -736.38)" fill="none" stroke="#ccc" stroke-linecap="round" stroke-linejoin="round" stroke-width="2"/>
      <path id="Path_411" data-name="Path 411" d="M118.065,750.6l-2.779.134a2.161,2.161,0,0,1-2.23,2.273c-2.4.2-8.885.067-11.773.016-1.507-.028-2.316-.74-2.353-1.519a1.391,1.391,0,0,1,.423-1.162" transform="translate(-95.654 -739.556)" fill="none" stroke="#ccc" stroke-linecap="round" stroke-linejoin="round" stroke-width="2"/>
      <line id="Line_49" data-name="Line 49" y1="0.18" x2="8.237" transform="translate(41.813 1.098)" fill="none" stroke="#ccc" stroke-linecap="round" stroke-linejoin="round" stroke-width="2"/>
      <path id="Path_412" data-name="Path 412" d="M151.8,737.22" transform="translate(-110.222 -735.942)" fill="none" stroke="#ccc" stroke-linecap="round" stroke-linejoin="round" stroke-width="2"/>
      <path id="Path_413" data-name="Path 413" d="M133.121,737.617" transform="translate(-105.075 -736.051)" fill="none" stroke="#ccc" stroke-linecap="round" stroke-linejoin="round" stroke-width="2"/>
      <path id="Path_414" data-name="Path 414" d="M133.017,749.094c-4.248-.008-7.425-.022-7.425-.022l-.037-11.339,5.482-.116" transform="translate(-102.99 -736.051)" fill="none" stroke="#ccc" stroke-linecap="round" stroke-linejoin="round" stroke-width="2"/>
      <path id="Path_415" data-name="Path 415" d="M160.583,753.293c-1.723.064-4.748.1-8.637.112" transform="translate(-110.261 -740.37)" fill="none" stroke="#ccc" stroke-linecap="round" stroke-linejoin="round" stroke-width="2"/>
    </g>
    <path id="Path_416" data-name="Path 416" d="M109.88,672.586a40.567,40.567,0,1,1-40.568,40.568A40.569,40.569,0,0,1,109.88,672.586Z" transform="translate(-69.312 -672.586)" fill="none" stroke="#ccc" stroke-linecap="round" stroke-linejoin="round" stroke-width="2"/>
  </g>
</svg>
