<svg xmlns="http://www.w3.org/2000/svg" width="83.815" height="83.814" viewBox="0 0 83.815 83.814">
  <g id="icon" transform="translate(-74.697 -148.135)">
    <g id="Group_61" data-name="Group 61" transform="translate(75.697 149.135)">
      <path id="Path_596" data-name="Path 596" d="M116.6,149.135A40.907,40.907,0,1,1,75.7,190.043,40.908,40.908,0,0,1,116.6,149.135Z" transform="translate(-75.697 -149.135)" fill="none" stroke="#ccc" stroke-linecap="round" stroke-linejoin="round" stroke-width="2"/>
    </g>
    <g id="Group_62" data-name="Group 62" transform="translate(105.067 165.904)">
      <rect id="Rectangle_17" data-name="Rectangle 17" width="30.764" height="8.923" rx="2" transform="translate(3.44 41.261) rotate(-63.836)" fill="none" stroke="#c5c5c5" stroke-linecap="round" stroke-linejoin="round" stroke-width="2"/>
      <rect id="Rectangle_18" data-name="Rectangle 18" width="7.231" height="4.924" rx="1" transform="translate(18.888 14.574) rotate(-63.836)" fill="none" stroke="#c5c5c5" stroke-linecap="round" stroke-linejoin="round" stroke-width="2"/>
      <line id="Line_63" data-name="Line 63" y1="9.127" x2="4.484" transform="translate(24.198 0)" fill="none" stroke="#c5c5c5" stroke-linecap="round" stroke-linejoin="round" stroke-width="2"/>
      <line id="Line_64" data-name="Line 64" y1="9.127" x2="4.484" transform="translate(3.049 43.272)" fill="none" stroke="#c5c5c5" stroke-linecap="round" stroke-linejoin="round" stroke-width="2"/>
      <line id="Line_65" data-name="Line 65" x2="3.336" y2="1.639" transform="translate(14.748 18.244)" fill="none" stroke="#c5c5c5" stroke-linecap="round" stroke-linejoin="round" stroke-width="2"/>
      <line id="Line_66" data-name="Line 66" x2="3.336" y2="1.639" transform="translate(12.465 22.892)" fill="none" stroke="#c5c5c5" stroke-linecap="round" stroke-linejoin="round" stroke-width="2"/>
      <line id="Line_67" data-name="Line 67" x2="3.336" y2="1.639" transform="translate(10.223 27.455)" fill="none" stroke="#c5c5c5" stroke-linecap="round" stroke-linejoin="round" stroke-width="2"/>
      <line id="Line_68" data-name="Line 68" x2="3.336" y2="1.639" transform="translate(7.966 32.049)" fill="none" stroke="#c5c5c5" stroke-linecap="round" stroke-linejoin="round" stroke-width="2"/>
      <line id="Line_69" data-name="Line 69" x2="13.603" y2="6.683" transform="translate(0.64 39.885)" fill="none" stroke="#c5c5c5" stroke-linecap="round" stroke-linejoin="round" stroke-width="2"/>
      <line id="Line_70" data-name="Line 70" x2="6.098" y2="2.996" transform="translate(0 50.9)" fill="none" stroke="#c5c5c5" stroke-linecap="round" stroke-linejoin="round" stroke-width="2"/>
    </g>
    <g id="Group_63" data-name="Group 63" transform="translate(125.839 206.991)">
      <path id="Path_597" data-name="Path 597" d="M144.472,237.011l2.012-6.474a3.151,3.151,0,0,1,3.933-2.068h0a3.151,3.151,0,0,1,2.068,3.933l-2.012,6.475a3.15,3.15,0,0,1-3.932,2.068h0A3.151,3.151,0,0,1,144.472,237.011Z" transform="translate(-144.331 -228.327)" fill="none" stroke="#c5c5c5" stroke-linecap="round" stroke-linejoin="round" stroke-width="2"/>
      <line id="Line_71" data-name="Line 71" x1="6.001" y1="1.865" transform="translate(1.147 5.447)" fill="none" stroke="#c5c5c5" stroke-linecap="round" stroke-linejoin="round" stroke-width="2"/>
    </g>
    <g id="Group_64" data-name="Group 64" transform="translate(134.607 195.68)">
      <path id="Path_598" data-name="Path 598" d="M163.2,222.459l-5.541-3.908a3.15,3.15,0,0,1-.757-4.378h0a3.15,3.15,0,0,1,4.378-.757l5.541,3.907a3.151,3.151,0,0,1,.757,4.378h0A3.151,3.151,0,0,1,163.2,222.459Z" transform="translate(-156.332 -212.845)" fill="none" stroke="#c5c5c5" stroke-linecap="round" stroke-linejoin="round" stroke-width="2"/>
      <line id="Line_72" data-name="Line 72" x1="3.621" y2="5.135" transform="translate(4.099 2.525)" fill="none" stroke="#c5c5c5" stroke-linecap="round" stroke-linejoin="round" stroke-width="2"/>
    </g>
    <g id="Group_65" data-name="Group 65" transform="translate(137.703 179.104)">
      <path id="Path_599" data-name="Path 599" d="M170.859,195.639,165.8,200.15a3.151,3.151,0,0,1-4.436-.254h0a3.152,3.152,0,0,1,.254-4.436l5.061-4.511a3.151,3.151,0,0,1,4.436.254h0A3.152,3.152,0,0,1,170.859,195.639Z" transform="translate(-160.57 -190.155)" fill="none" stroke="#c5c5c5" stroke-linecap="round" stroke-linejoin="round" stroke-width="2"/>
      <line id="Line_73" data-name="Line 73" x2="4.182" y2="4.69" transform="translate(3.578 3.049)" fill="none" stroke="#c5c5c5" stroke-linecap="round" stroke-linejoin="round" stroke-width="2"/>
    </g>
    <g id="Group_66" data-name="Group 66" transform="translate(84.029 176.158)">
      <rect id="Rectangle_19" data-name="Rectangle 19" width="37.775" height="3.968" rx="1.984" transform="matrix(0.701, -0.713, 0.713, 0.701, 0, 26.943)" fill="none" stroke="#c5c5c5" stroke-linecap="round" stroke-linejoin="round" stroke-width="2"/>
      <line id="Line_74" data-name="Line 74" x2="2.83" y2="2.781" transform="translate(24.661 1.848)" fill="none" stroke="#c5c5c5" stroke-linecap="round" stroke-linejoin="round" stroke-width="2"/>
      <line id="Line_75" data-name="Line 75" x2="2.83" y2="2.781" transform="translate(10.63 16.126)" fill="none" stroke="#c5c5c5" stroke-linecap="round" stroke-linejoin="round" stroke-width="2"/>
    </g>
    <path id="Path_600" data-name="Path 600" d="M123.043,157.072a2.258,2.258,0,0,0-.153,2.34,4.864,4.864,0,0,1-.181,4.858,4.99,4.99,0,0,0-.007,4.318,4.458,4.458,0,0,1,.479,4.439A4.4,4.4,0,0,0,123,174.97" transform="translate(-12.533 -2.138)" fill="none" stroke="#c5c5c5" stroke-linecap="round" stroke-linejoin="round" stroke-width="2"/>
  </g>
</svg>
