<svg xmlns="http://www.w3.org/2000/svg" width="83.138" height="83.137" viewBox="0 0 83.138 83.137">
  <g id="icon" transform="translate(-69.124 -532.056)">
    <g id="Group_89" data-name="Group 89" transform="translate(70.124 533.056)">
      <path id="Path_751" data-name="Path 751" d="M110.693,533.056a40.568,40.568,0,1,1-40.569,40.569A40.57,40.57,0,0,1,110.693,533.056Z" transform="translate(-70.124 -533.056)" fill="none" stroke="#ccc" stroke-linecap="round" stroke-linejoin="round" stroke-width="2"/>
    </g>
    <line id="Line_141" data-name="Line 141" x1="10.614" y1="6.18" transform="translate(79.581 556.279)" fill="none" stroke="#ccc" stroke-linecap="round" stroke-linejoin="round" stroke-width="2"/>
    <line id="Line_142" data-name="Line 142" y2="12.119" transform="translate(111.015 538.299)" fill="none" stroke="#ccc" stroke-linecap="round" stroke-linejoin="round" stroke-width="2"/>
    <line id="Line_143" data-name="Line 143" x2="6.059" y2="9.999" transform="translate(92.793 543.176)" fill="none" stroke="#ccc" stroke-linecap="round" stroke-linejoin="round" stroke-width="2"/>
    <line id="Line_144" data-name="Line 144" y2="12.267" transform="translate(111.015 597.563)" fill="none" stroke="#ccc" stroke-linecap="round" stroke-linejoin="round" stroke-width="2"/>
    <line id="Line_145" data-name="Line 145" x1="6.059" y2="10.606" transform="translate(92.793 594.937)" fill="none" stroke="#ccc" stroke-linecap="round" stroke-linejoin="round" stroke-width="2"/>
    <line id="Line_146" data-name="Line 146" x1="10.614" y2="6.059" transform="translate(79.581 586.035)" fill="none" stroke="#ccc" stroke-linecap="round" stroke-linejoin="round" stroke-width="2"/>
    <line id="Line_147" data-name="Line 147" x1="11.38" transform="translate(75.354 574.056)" fill="none" stroke="#ccc" stroke-linecap="round" stroke-linejoin="round" stroke-width="2"/>
    <line id="Line_148" data-name="Line 148" x2="1.66" y2="5.32" transform="translate(103.104 546.132)" fill="none" stroke="#ccc" stroke-linecap="round" stroke-linejoin="round" stroke-width="2"/>
    <line id="Line_149" data-name="Line 149" x2="4.076" y2="3.695" transform="translate(90.195 553.669)" fill="none" stroke="#ccc" stroke-linecap="round" stroke-linejoin="round" stroke-width="2"/>
    <line id="Line_150" data-name="Line 150" x2="5.468" y2="1.568" transform="translate(82.743 566.379)" fill="none" stroke="#ccc" stroke-linecap="round" stroke-linejoin="round" stroke-width="2"/>
    <line id="Line_151" data-name="Line 151" y1="1.34" x2="4.729" transform="translate(83.482 580.261)" fill="none" stroke="#ccc" stroke-linecap="round" stroke-linejoin="round" stroke-width="2"/>
    <line id="Line_152" data-name="Line 152" y1="3.799" x2="4.076" transform="translate(90.195 591.138)" fill="none" stroke="#ccc" stroke-linecap="round" stroke-linejoin="round" stroke-width="2"/>
    <line id="Line_153" data-name="Line 153" y1="4.877" x2="1.66" transform="translate(103.104 596.972)" fill="none" stroke="#ccc" stroke-linecap="round" stroke-linejoin="round" stroke-width="2"/>
    <line id="Line_154" data-name="Line 154" y1="6.18" x2="10.614" transform="translate(131.191 556.279)" fill="none" stroke="#ccc" stroke-linecap="round" stroke-linejoin="round" stroke-width="2"/>
    <line id="Line_155" data-name="Line 155" x1="6.059" y2="9.999" transform="translate(122.533 543.176)" fill="none" stroke="#ccc" stroke-linecap="round" stroke-linejoin="round" stroke-width="2"/>
    <line id="Line_156" data-name="Line 156" x2="6.059" y2="10.606" transform="translate(122.533 594.937)" fill="none" stroke="#ccc" stroke-linecap="round" stroke-linejoin="round" stroke-width="2"/>
    <line id="Line_157" data-name="Line 157" x2="10.614" y2="6.059" transform="translate(131.191 586.035)" fill="none" stroke="#ccc" stroke-linecap="round" stroke-linejoin="round" stroke-width="2"/>
    <line id="Line_158" data-name="Line 158" x2="11.38" transform="translate(134.652 574.056)" fill="none" stroke="#ccc" stroke-linecap="round" stroke-linejoin="round" stroke-width="2"/>
    <line id="Line_159" data-name="Line 159" x1="1.66" y2="5.32" transform="translate(116.621 546.132)" fill="none" stroke="#ccc" stroke-linecap="round" stroke-linejoin="round" stroke-width="2"/>
    <line id="Line_160" data-name="Line 160" x1="4.076" y2="3.695" transform="translate(127.115 553.669)" fill="none" stroke="#ccc" stroke-linecap="round" stroke-linejoin="round" stroke-width="2"/>
    <line id="Line_161" data-name="Line 161" x1="5.468" y2="1.568" transform="translate(133.174 566.379)" fill="none" stroke="#ccc" stroke-linecap="round" stroke-linejoin="round" stroke-width="2"/>
    <line id="Line_162" data-name="Line 162" x1="4.729" y1="1.34" transform="translate(133.174 580.261)" fill="none" stroke="#ccc" stroke-linecap="round" stroke-linejoin="round" stroke-width="2"/>
    <line id="Line_163" data-name="Line 163" x1="4.076" y1="3.799" transform="translate(127.115 591.138)" fill="none" stroke="#ccc" stroke-linecap="round" stroke-linejoin="round" stroke-width="2"/>
    <line id="Line_164" data-name="Line 164" x1="1.66" y1="4.877" transform="translate(116.621 596.972)" fill="none" stroke="#ccc" stroke-linecap="round" stroke-linejoin="round" stroke-width="2"/>
    <path id="Path_752" data-name="Path 752" d="M133.689,587.444c-1.991.166-7.634,0-9.127-1.064s-5.476-4.412-9.956-4.246-6.971,3.153-8.63,5.311a32.849,32.849,0,0,0,7.965,1.411,42.666,42.666,0,0,0,8.763-1.079" transform="translate(-9.876 -13.518)" fill="none" stroke="#ccc" stroke-linecap="round" stroke-linejoin="round" stroke-width="2"/>
    <path id="Path_753" data-name="Path 753" d="M104.6,577.4c3.983-.83,5.054-2.812,10.311-2.812,2.71,0,4.869.205,9.438,2.812,4.154,2.371,5.171,2.65,12.048.9" transform="translate(-9.498 -11.442)" fill="none" stroke="#ccc" stroke-linecap="round" stroke-linejoin="round" stroke-width="2"/>
    <path id="Path_754" data-name="Path 754" d="M117.533,600.123c.022-3.542,0-7.085,0-7.085" transform="translate(-13.06 -16.524)" fill="none" stroke="#ccc" stroke-linecap="round" stroke-linejoin="round" stroke-width="2"/>
    <path id="Path_755" data-name="Path 755" d="M121.347,593.038c2.016,1.612,4.5,3.286,6.333,4.549a14.335,14.335,0,0,0,5.643,2.591c2.706.461,4.716.552,6.587-.626s1.1-2.784-.064-3.654c-1.215-.907-2.98-1.151-3.441-.207-.622,1.275,1.519,2.135,1.519,2.135" transform="translate(-14.111 -16.524)" fill="none" stroke="#ccc" stroke-linecap="round" stroke-linejoin="round" stroke-width="2"/>
    <path id="Path_756" data-name="Path 756" d="M120.651,582.38c1.837.675,1.835,2.082,1.837,3.485a2.8,2.8,0,0,1-2.388,2.988" transform="translate(-13.767 -13.588)" fill="none" stroke="#ccc" stroke-linecap="round" stroke-linejoin="round" stroke-width="2"/>
    <path id="Path_757" data-name="Path 757" d="M114.385,582.542c-1.769.789-1.769,2.872-1.769,3.433a2.788,2.788,0,0,0,1.845,2.922" transform="translate(-11.706 -13.632)" fill="none" stroke="#ccc" stroke-linecap="round" stroke-linejoin="round" stroke-width="2"/>
  </g>
</svg>
