<svg xmlns="http://www.w3.org/2000/svg" width="83.137" height="83.137" viewBox="0 0 83.137 83.137">
  <g id="icon" transform="translate(-58.512 -693.326)">
    <g id="Group_85" data-name="Group 85" transform="translate(59.512 694.326)">
      <path id="Path_709" data-name="Path 709" d="M100.081,694.326a40.569,40.569,0,1,1-40.569,40.569A40.57,40.57,0,0,1,100.081,694.326Z" transform="translate(-59.512 -694.326)" fill="none" stroke="#ccc" stroke-linecap="round" stroke-linejoin="round" stroke-width="2"/>
    </g>
    <path id="Path_710" data-name="Path 710" d="M107.272,733.538a6.241,6.241,0,1,0,12.481,0v-3.519a6.241,6.241,0,0,0-12.481,0Z" transform="translate(-13.157 -8.114)" fill="none" stroke="#ccc" stroke-linecap="round" stroke-linejoin="round" stroke-width="2"/>
    <path id="Path_711" data-name="Path 711" d="M107.8,753.654c1.558-1.893,3.41-3.379,5.86-3.379a7.167,7.167,0,0,1,4.675,2.147" transform="translate(-13.302 -15.413)" fill="none" stroke="#ccc" stroke-linecap="round" stroke-linejoin="round" stroke-width="2"/>
    <line id="Line_118" data-name="Line 118" y1="16.695" transform="translate(94.115 749.924)" fill="none" stroke="#ccc" stroke-linecap="round" stroke-linejoin="round" stroke-width="2"/>
    <line id="Line_119" data-name="Line 119" y2="16.695" transform="translate(106.597 749.924)" fill="none" stroke="#ccc" stroke-linecap="round" stroke-linejoin="round" stroke-width="2"/>
    <path id="Path_712" data-name="Path 712" d="M122.338,753.239s7.563,8.266,11.977,13.146l9.973,2.842a2.915,2.915,0,0,1,1.791,3.522c-.677,2.614-3.5,2.359-4.5,2.2-2.474-.4-8.733-2.257-8.733-2.257-1.987-1.534-8.943-6.537-8.943-6.537" transform="translate(-17.307 -16.229)" fill="none" stroke="#ccc" stroke-linecap="round" stroke-linejoin="round" stroke-width="2"/>
    <path id="Path_713" data-name="Path 713" d="M100.269,753.239s-7.563,8.266-11.977,13.146l-9.974,2.842a2.915,2.915,0,0,0-1.791,3.522c.678,2.614,3.5,2.359,4.5,2.2,2.474-.4,8.733-2.257,8.733-2.257,1.987-1.534,8.943-6.537,8.943-6.537" transform="translate(-4.655 -16.229)" fill="none" stroke="#ccc" stroke-linecap="round" stroke-linejoin="round" stroke-width="2"/>
    <path id="Path_714" data-name="Path 714" d="M94.04,799.047a7.942,7.942,0,0,1,4.08-1.91c2.7-.675,25.206-5.356,25.206-5.356,4.726-.945,6.963-1.231,7.863,2.145a3.929,3.929,0,0,1,.262,1.51" transform="translate(-9.512 -26.674)" fill="none" stroke="#ccc" stroke-linecap="round" stroke-linejoin="round" stroke-width="2"/>
    <path id="Path_715" data-name="Path 715" d="M92.357,804.562" transform="translate(-9.048 -30.367)" fill="none" stroke="#ccc" stroke-linecap="round" stroke-linejoin="round" stroke-width="2"/>
    <path id="Path_716" data-name="Path 716" d="M107.551,794.726c-6.168-1.3-13.526-2.818-13.526-2.818-4.726-.945-7.57.39-8.4,4.1" transform="translate(-7.194 -26.801)" fill="none" stroke="#ccc" stroke-linecap="round" stroke-linejoin="round" stroke-width="2"/>
    <path id="Path_717" data-name="Path 717" d="M97.32,726.192a7.59,7.59,0,0,0-2.2,5.422,9.215,9.215,0,0,0,2.2,5.827" transform="translate(-9.809 -8.778)" fill="none" stroke="#ccc" stroke-linecap="round" stroke-linejoin="round" stroke-width="2"/>
    <path id="Path_718" data-name="Path 718" d="M93.25,719.8a13.835,13.835,0,0,0-4.009,9.883,16.792,16.792,0,0,0,4.009,10.621" transform="translate(-8.19 -7.019)" fill="none" stroke="#ccc" stroke-linecap="round" stroke-linejoin="round" stroke-width="2"/>
    <path id="Path_719" data-name="Path 719" d="M88.467,712.452a21.027,21.027,0,0,0-6.092,15.018,25.524,25.524,0,0,0,6.092,16.14" transform="translate(-6.298 -4.993)" fill="none" stroke="#ccc" stroke-linecap="round" stroke-linejoin="round" stroke-width="2"/>
    <path id="Path_720" data-name="Path 720" d="M132.667,737.892a7.588,7.588,0,0,0,2.2-5.421,9.214,9.214,0,0,0-2.2-5.827" transform="translate(-20.152 -8.903)" fill="none" stroke="#ccc" stroke-linecap="round" stroke-linejoin="round" stroke-width="2"/>
    <path id="Path_721" data-name="Path 721" d="M136.049,740.761a13.837,13.837,0,0,0,4.009-9.882,16.8,16.8,0,0,0-4.009-10.621" transform="translate(-21.084 -7.144)" fill="none" stroke="#ccc" stroke-linecap="round" stroke-linejoin="round" stroke-width="2"/>
    <path id="Path_722" data-name="Path 722" d="M140.04,744.062a21.025,21.025,0,0,0,6.092-15.017,25.523,25.523,0,0,0-6.092-16.14" transform="translate(-22.184 -5.118)" fill="none" stroke="#ccc" stroke-linecap="round" stroke-linejoin="round" stroke-width="2"/>
  </g>
</svg>
