<svg xmlns="http://www.w3.org/2000/svg" width="83.137" height="83.137" viewBox="0 0 83.137 83.137">
  <g id="icon" transform="translate(1 1)">
    <g id="Group_51" data-name="Group 51" transform="translate(0)">
      <path id="Path_438" data-name="Path 438" d="M289.057,541.489a40.568,40.568,0,1,1-40.569,40.569A40.569,40.569,0,0,1,289.057,541.489Z" transform="translate(-248.488 -541.489)" fill="none" stroke="#ccc" stroke-linecap="round" stroke-linejoin="round" stroke-width="2"/>
    </g>
    <g id="Group_52" data-name="Group 52" transform="translate(11.918 18.773)">
      <path id="Path_439" data-name="Path 439" d="M299.255,585.335a3.587,3.587,0,1,0,7.175,0v-2.023a3.587,3.587,0,1,0-7.175,0Z" transform="translate(-274.391 -570.795)" fill="none" stroke="#ccc" stroke-linecap="round" stroke-linejoin="round" stroke-width="2"/>
      <path id="Path_440" data-name="Path 440" d="M299.557,597.335a4.428,4.428,0,0,1,3.368-1.942,4.121,4.121,0,0,1,2.688,1.235" transform="translate(-274.474 -575.111)" fill="none" stroke="#ccc" stroke-linecap="round" stroke-linejoin="round" stroke-width="2"/>
      <path id="Path_441" data-name="Path 441" d="M306.43,607.343v12.005h-7.175V607.343" transform="translate(-274.391 -578.404)" fill="none" stroke="#ccc" stroke-linecap="round" stroke-linejoin="round" stroke-width="2"/>
      <path id="Path_442" data-name="Path 442" d="M314.8,604.653c-2.538-2.805-6.885-7.557-6.885-7.557" transform="translate(-276.777 -575.581)" fill="none" stroke="#ccc" stroke-linecap="round" stroke-linejoin="round" stroke-width="2"/>
      <path id="Path_443" data-name="Path 443" d="M309.158,607.343s4,2.876,5.141,3.757" transform="translate(-277.119 -578.404)" fill="none" stroke="#ccc" stroke-linecap="round" stroke-linejoin="round" stroke-width="2"/>
      <path id="Path_444" data-name="Path 444" d="M291.39,604.357c2.538-2.805,6.555-7.261,6.555-7.261" transform="translate(-272.224 -575.581)" fill="none" stroke="#ccc" stroke-linecap="round" stroke-linejoin="round" stroke-width="2"/>
      <path id="Path_445" data-name="Path 445" d="M297.416,607.343s-3.538,2.876-4.68,3.757" transform="translate(-272.595 -578.404)" fill="none" stroke="#ccc" stroke-linecap="round" stroke-linejoin="round" stroke-width="2"/>
      <path id="Path_446" data-name="Path 446" d="M340.38,574.9a4.795,4.795,0,0,1-9.589,0v-2.7a4.795,4.795,0,1,1,9.589,0Z" transform="translate(-283.078 -567.4)" fill="none" stroke="#ccc" stroke-linecap="round" stroke-linejoin="round" stroke-width="2"/>
      <path id="Path_447" data-name="Path 447" d="M330.791,598.494v15.619h9.589V593.134a4.793,4.793,0,0,0-4.794-4.8c-1.991,0-3.5,1.285-4.712,2.9" transform="translate(-283.078 -573.168)" fill="none" stroke="#ccc" stroke-linecap="round" stroke-linejoin="round" stroke-width="2"/>
      <path id="Path_448" data-name="Path 448" d="M326.6,599.207s-5.973,5.777-7.508,7.1c-.89.767-2.294,1.03-2.987.309-.676-.7-.355-1.536.169-2.315.884-1.314,11.25-13.238,11.25-13.238" transform="translate(-278.928 -573.918)" fill="none" stroke="#ccc" stroke-linecap="round" stroke-linejoin="round" stroke-width="2"/>
      <path id="Path_449" data-name="Path 449" d="M317.97,607.527" transform="translate(-279.547 -578.454)" fill="none" stroke="#ccc" stroke-linecap="round" stroke-linejoin="round" stroke-width="2"/>
      <path id="Path_450" data-name="Path 450" d="M330.791,602.355" transform="translate(-283.078 -577.029)" fill="none" stroke="#ccc" stroke-linecap="round" stroke-linejoin="round" stroke-width="2"/>
      <path id="Path_451" data-name="Path 451" d="M264.937,574.9a4.794,4.794,0,0,0,9.588,0v-2.7a4.794,4.794,0,1,0-9.588,0Z" transform="translate(-264.937 -567.4)" fill="none" stroke="#ccc" stroke-linecap="round" stroke-linejoin="round" stroke-width="2"/>
      <path id="Path_452" data-name="Path 452" d="M274.525,598.494v15.619h-9.588V593.134a4.793,4.793,0,0,1,4.794-4.8c1.99,0,3.5,1.285,4.712,2.9" transform="translate(-264.937 -573.168)" fill="none" stroke="#ccc" stroke-linecap="round" stroke-linejoin="round" stroke-width="2"/>
      <path id="Path_453" data-name="Path 453" d="M277.872,599.207s5.973,5.777,7.508,7.1c.89.767,2.293,1.03,2.987.309.675-.7.354-1.536-.17-2.315-.884-1.314-11.25-13.238-11.25-13.238" transform="translate(-268.246 -573.918)" fill="none" stroke="#ccc" stroke-linecap="round" stroke-linejoin="round" stroke-width="2"/>
      <path id="Path_454" data-name="Path 454" d="M278.171,602.355" transform="translate(-268.583 -577.029)" fill="none" stroke="#ccc" stroke-linecap="round" stroke-linejoin="round" stroke-width="2"/>
      <path id="Path_455" data-name="Path 455" d="M309.8,606.905" transform="translate(-277.294 -578.283)" fill="none" stroke="#ccc" stroke-linecap="round" stroke-linejoin="round" stroke-width="2"/>
    </g>
  </g>
</svg>
