<svg xmlns="http://www.w3.org/2000/svg" width="83.136" height="83.137" viewBox="0 0 83.136 83.137">
  <g id="icon" transform="translate(-69.291 153.261)">
    <path id="Path_828" data-name="Path 828" d="M118.285-93.134H107.723a1.523,1.523,0,0,1-1.519-1.519v-27.613a1.523,1.523,0,0,1,1.519-1.519h42.714a1.523,1.523,0,0,1,1.519,1.519v27.613a1.523,1.523,0,0,1-1.519,1.519H124.752" transform="translate(-9.893 -7.845)" fill="none" stroke="#ccc" stroke-linecap="round" stroke-linejoin="round" stroke-width="2"/>
    <path id="Path_829" data-name="Path 829" d="M137.778-81.48v15.458l9.874,9.874" transform="translate(-18.591 -19.499)" fill="none" stroke="#ccc" stroke-linecap="round" stroke-linejoin="round" stroke-width="2"/>
    <path id="Path_830" data-name="Path 830" d="M123.762-49.991l10.154-10.154v10.154" transform="translate(-14.73 -25.376)" fill="none" stroke="#ccc" stroke-linecap="round" stroke-linejoin="round" stroke-width="2"/>
    <line id="Line_177" data-name="Line 177" x2="33.378" transform="translate(102.038 -125.276)" fill="none" stroke="#ccc" stroke-linecap="round" stroke-linejoin="round" stroke-width="2"/>
    <line id="Line_178" data-name="Line 178" x2="30.699" transform="translate(102.038 -121.05)" fill="none" stroke="#ccc" stroke-linecap="round" stroke-linejoin="round" stroke-width="2"/>
    <line id="Line_179" data-name="Line 179" x2="33.378" transform="translate(102.038 -116.985)" fill="none" stroke="#ccc" stroke-linecap="round" stroke-linejoin="round" stroke-width="2"/>
    <line id="Line_180" data-name="Line 180" x2="27.022" transform="translate(102.038 -112.713)" fill="none" stroke="#ccc" stroke-linecap="round" stroke-linejoin="round" stroke-width="2"/>
    <line id="Line_181" data-name="Line 181" x2="27.022" transform="translate(102.038 -108.784)" fill="none" stroke="#ccc" stroke-linecap="round" stroke-linejoin="round" stroke-width="2"/>
    <g id="Group_100" data-name="Group 100" transform="translate(70.291 -152.261)">
      <path id="Path_831" data-name="Path 831" d="M110.86-152.261a40.57,40.57,0,0,1,40.567,40.569,40.57,40.57,0,0,1-40.569,40.569,40.569,40.569,0,0,1-40.567-40.567A40.571,40.571,0,0,1,110.86-152.261Z" transform="translate(-70.291 152.261)" fill="none" stroke="#ccc" stroke-linecap="round" stroke-linejoin="round" stroke-width="2"/>
    </g>
    <path id="Path_832" data-name="Path 832" d="M95.721-84.469v3.752s6.429,2.216,7.628,2.745l7.536,2.342s5.526-8.692,6.872-10.807,1.441-2.914,3.172-2.145,1.7,2.758.935,5.067-5.027,9.786-5.8,11.325a5.684,5.684,0,0,1-2.884,3.076c-1.346.577-4.393-.033-5.845-.218-1.1-.141-5.168-1.065-7.092-1.343v13.007" transform="translate(-7.006 -17.463)" fill="none" stroke="#ccc" stroke-linecap="round" stroke-linejoin="round" stroke-width="2"/>
    <path id="Path_833" data-name="Path 833" d="M75.693-75.812a3.288,3.288,0,0,1,.793-.487c1.2-.53,7.628-2.745,7.628-2.745V-82.8" transform="translate(-1.488 -19.136)" fill="none" stroke="#ccc" stroke-linecap="round" stroke-linejoin="round" stroke-width="2"/>
    <path id="Path_834" data-name="Path 834" d="M94.484-93.123v-1.864a4.764,4.764,0,0,0-4.764-4.765,4.765,4.765,0,0,0-4.764,4.765v1.864" transform="translate(-4.04 -14.465)" fill="none" stroke="#ccc" stroke-linecap="round" stroke-linejoin="round" stroke-width="2"/>
    <path id="Path_835" data-name="Path 835" d="M94.484-90.6v1.844a4.764,4.764,0,0,1-4.764,4.765,4.765,4.765,0,0,1-4.764-4.765V-90.6" transform="translate(-4.04 -16.986)" fill="none" stroke="#ccc" stroke-linecap="round" stroke-linejoin="round" stroke-width="2"/>
  </g>
</svg>
