<svg xmlns="http://www.w3.org/2000/svg" width="83.616" height="83.615" viewBox="0 0 83.616 83.615">
  <g id="icon" transform="translate(-424.064 -539.514)">
    <g id="Group_68" data-name="Group 68" transform="translate(425.064 540.514)">
      <path id="Path_608" data-name="Path 608" d="M465.872,540.514a40.808,40.808,0,1,1-40.808,40.808A40.809,40.809,0,0,1,465.872,540.514Z" transform="translate(-425.064 -540.514)" fill="none" stroke="#ccc" stroke-linecap="round" stroke-linejoin="round" stroke-width="2"/>
    </g>
    <line id="Line_76" data-name="Line 76" x1="7.285" y1="0.608" transform="translate(444.285 576.606)" fill="none" stroke="#ccc" stroke-linecap="round" stroke-linejoin="round" stroke-width="2"/>
    <line id="Line_77" data-name="Line 77" y1="0.473" x2="7.285" transform="translate(444.285 580.321)" fill="none" stroke="#ccc" stroke-linecap="round" stroke-linejoin="round" stroke-width="2"/>
    <path id="Path_609" data-name="Path 609" d="M449.109,586.86s-1.516-2.149-3.264-.945c-1.81,1.247,0,3.512,0,3.512s-2.994-.608-2.994,2.227c0,2.123,3.123,1.669,3.123,1.669s-1.478,2.868.738,3.625a1.948,1.948,0,0,0,2.758-1.655" transform="translate(-4.824 -12.214)" fill="none" stroke="#ccc" stroke-linecap="round" stroke-linejoin="round" stroke-width="2"/>
    <line id="Line_78" data-name="Line 78" y1="0.608" x2="7.285" transform="translate(480.174 576.606)" fill="none" stroke="#ccc" stroke-linecap="round" stroke-linejoin="round" stroke-width="2"/>
    <line id="Line_79" data-name="Line 79" x1="7.285" y1="0.473" transform="translate(480.174 580.321)" fill="none" stroke="#ccc" stroke-linecap="round" stroke-linejoin="round" stroke-width="2"/>
    <path id="Path_610" data-name="Path 610" d="M510.543,586.86s1.516-2.149,3.264-.945c1.811,1.247,0,3.512,0,3.512s2.995-.608,2.995,2.227c0,2.123-3.124,1.669-3.124,1.669s1.479,2.868-.738,3.625a1.948,1.948,0,0,1-2.758-1.655" transform="translate(-23.084 -12.214)" fill="none" stroke="#ccc" stroke-linecap="round" stroke-linejoin="round" stroke-width="2"/>
    <path id="Path_611" data-name="Path 611" d="M504.54,628.5c-.507-1.937-.94-3.637-1.256-4.942-.7-2.9-1.643-4.426-3.539-5.267s-12.075-4.345-12.075-4.345V608" transform="translate(-16.979 -18.303)" fill="none" stroke="#ccc" stroke-linecap="round" stroke-linejoin="round" stroke-width="2"/>
    <path id="Path_612" data-name="Path 612" d="M451.3,628.5c.507-1.937.94-3.637,1.256-4.942.7-2.9,1.642-4.426,3.539-5.267s12.074-4.345,12.074-4.345V608" transform="translate(-7.115 -18.303)" fill="none" stroke="#ccc" stroke-linecap="round" stroke-linejoin="round" stroke-width="2"/>
    <path id="Path_613" data-name="Path 613" d="M485.812,591.814v-2.95a7.541,7.541,0,1,0-15.082,0v2.95" transform="translate(-12.385 -11.067)" fill="none" stroke="#ccc" stroke-linecap="round" stroke-linejoin="round" stroke-width="2"/>
    <path id="Path_614" data-name="Path 614" d="M485.812,595.719v2.919a7.541,7.541,0,1,1-15.082,0v-2.919" transform="translate(-12.385 -14.972)" fill="none" stroke="#ccc" stroke-linecap="round" stroke-linejoin="round" stroke-width="2"/>
    <path id="Path_615" data-name="Path 615" d="M475.435,558.115l6.511-13.343-.225,8.913,3.466-.385-6.029,13.265.228-8.885Z" transform="translate(-13.661 -1.155)" fill="none" stroke="#ccc" stroke-linecap="round" stroke-linejoin="round" stroke-width="2"/>
    <path id="Path_616" data-name="Path 616" d="M445.675,563.343" transform="translate(-5.59 -6.191)" fill="none" stroke="#ccc" stroke-linecap="round" stroke-linejoin="round" stroke-width="2"/>
    <path id="Path_617" data-name="Path 617" d="M500.935,568.528l7.476-7.173s1.96-1.779.547-3.192a2,2,0,0,0-2.874.042l-7.631,8.125s-1.221,1.2-.177,2.2A1.752,1.752,0,0,0,500.935,568.528Z" transform="translate(-19.741 -4.619)" fill="none" stroke="#ccc" stroke-linecap="round" stroke-linejoin="round" stroke-width="2"/>
    <path id="Path_618" data-name="Path 618" d="M492.325,576.147a1.62,1.62,0,1,1,1.62,1.62A1.62,1.62,0,0,1,492.325,576.147Z" transform="translate(-18.242 -9.225)" fill="none" stroke="#ccc" stroke-linecap="round" stroke-linejoin="round" stroke-width="2"/>
    <path id="Path_619" data-name="Path 619" d="M465.312,577.313a1.62,1.62,0,1,1,1.62,1.62A1.62,1.62,0,0,1,465.312,577.313Z" transform="translate(-10.915 -9.541)" fill="none" stroke="#ccc" stroke-linecap="round" stroke-linejoin="round" stroke-width="2"/>
    <path id="Path_620" data-name="Path 620" d="M452.161,565.283c-.883.709-1.958-.468-2.445-1.164s-3.622-4.2.762-7.261a5.509,5.509,0,0,1,7.516.556,5.031,5.031,0,0,1,.719,5.322s1.807,2.608,2.4,3.667c.259.461.528,1.563-.291,2.038-1.157.673-2.12-.7-2.12-.7l-3.065-4.387s1.309-1.486.543-2.809A2.383,2.383,0,0,0,453,559.507a1.921,1.921,0,0,0-1.065,3.1S453.358,564.321,452.161,565.283Z" transform="translate(-6.268 -4.099)" fill="none" stroke="#ccc" stroke-linecap="round" stroke-linejoin="round" stroke-width="2"/>
  </g>
</svg>
