<svg xmlns="http://www.w3.org/2000/svg" width="83.137" height="83.137" viewBox="0 0 83.137 83.137">
  <g id="icon" transform="translate(-58.512 -891.357)">
    <g id="Group_86" data-name="Group 86" transform="translate(59.512 892.357)">
      <path id="Path_723" data-name="Path 723" d="M100.081,892.357a40.568,40.568,0,1,1-40.569,40.569A40.57,40.57,0,0,1,100.081,892.357Z" transform="translate(-59.512 -892.357)" fill="none" stroke="#ccc" stroke-linecap="round" stroke-linejoin="round" stroke-width="2"/>
    </g>
    <path id="Path_724" data-name="Path 724" d="M101.921,929.251a5.373,5.373,0,0,0,10.747,0v-3.03a5.373,5.373,0,1,0-10.747,0Z" transform="translate(-11.683 -7.848)" fill="none" stroke="#ccc" stroke-linecap="round" stroke-linejoin="round" stroke-width="2"/>
    <path id="Path_725" data-name="Path 725" d="M102.373,946.572c1.342-1.631,2.937-2.91,5.046-2.91a6.171,6.171,0,0,1,4.025,1.849" transform="translate(-11.807 -14.133)" fill="none" stroke="#ccc" stroke-linecap="round" stroke-linejoin="round" stroke-width="2"/>
    <path id="Path_726" data-name="Path 726" d="M98.906,967.589v14.366h14.729l-.3-18.9" transform="translate(-10.852 -19.475)" fill="none" stroke="#ccc" stroke-linecap="round" stroke-linejoin="round" stroke-width="2"/>
    <path id="Path_727" data-name="Path 727" d="M117.739,958.413s4.026,3.86,5.737,5.181c0,0,5.854.966,7.985,1.311.864.139,3.291.359,3.875-1.892a2.51,2.51,0,0,0-1.543-3.032l-8.587-2.447c-3.8-4.2-10.313-11.318-10.313-11.318" transform="translate(-15.256 -14.836)" fill="none" stroke="#ccc" stroke-linecap="round" stroke-linejoin="round" stroke-width="2"/>
    <path id="Path_728" data-name="Path 728" d="M105.823,961.938a2.367,2.367,0,0,1,2.49,2.518c0,2.814-2.495,2.831-3.689,2.813-1.772-.025-10.238-.012-13.208-.006a3.314,3.314,0,0,1-2.588-1.143c-1.56-1.9.291-4.283.291-4.283" transform="translate(-7.904 -19.14)" fill="none" stroke="#ccc" stroke-linecap="round" stroke-linejoin="round" stroke-width="2"/>
    <path id="Path_729" data-name="Path 729" d="M99.781,946.214s-6.512,7.117-10.313,11.318" transform="translate(-8.252 -14.836)" fill="none" stroke="#ccc" stroke-linecap="round" stroke-linejoin="round" stroke-width="2"/>
    <path id="Path_730" data-name="Path 730" d="M108.537,913.27V908.8l3.625,2.236V905.3" transform="translate(-13.505 -3.565)" fill="none" stroke="#ccc" stroke-linecap="round" stroke-linejoin="round" stroke-width="2"/>
    <path id="Path_731" data-name="Path 731" d="M116.691,917.246l3.143-3.181,1.007,4.138,4.031-4.079" transform="translate(-15.752 -5.98)" fill="none" stroke="#ccc" stroke-linecap="round" stroke-linejoin="round" stroke-width="2"/>
    <path id="Path_732" data-name="Path 732" d="M98.873,917.2l-3.143-3.181-1.007,4.138-4.031-4.079" transform="translate(-8.589 -5.967)" fill="none" stroke="#ccc" stroke-linecap="round" stroke-linejoin="round" stroke-width="2"/>
    <path id="Path_733" data-name="Path 733" d="M105.805,962.965l2.916-16.751-16.231,8.9" transform="translate(-9.085 -14.836)" fill="none" stroke="#ccc" stroke-linecap="round" stroke-linejoin="round" stroke-width="2"/>
    <path id="Path_734" data-name="Path 734" d="M142.257,932.547H137.98V928.27a1.857,1.857,0,0,0-1.852-1.852h-3.52a1.857,1.857,0,0,0-1.852,1.852v4.277h-4.277a1.857,1.857,0,0,0-1.852,1.852v3.52a1.858,1.858,0,0,0,1.852,1.853h4.277v4.277a1.857,1.857,0,0,0,1.852,1.852h3.52a1.857,1.857,0,0,0,1.852-1.852v-4.277h4.277a1.858,1.858,0,0,0,1.852-1.853V934.4A1.857,1.857,0,0,0,142.257,932.547Z" transform="translate(-17.938 -9.383)" fill="none" stroke="#ccc" stroke-linecap="round" stroke-linejoin="round" stroke-width="2"/>
  </g>
</svg>
