<svg xmlns="http://www.w3.org/2000/svg" width="83.137" height="83.137" viewBox="0 0 83.137 83.137">
  <g id="icon" transform="translate(1 1)">
    <g id="Group_59" data-name="Group 59">
      <path id="Path_487" data-name="Path 487" d="M469.009,533.416a40.568,40.568,0,1,1-40.569,40.569A40.57,40.57,0,0,1,469.009,533.416Z" transform="translate(-428.44 -533.416)" fill="none" stroke="#ccc" stroke-linecap="round" stroke-linejoin="round" stroke-width="2"/>
    </g>
    <g id="Group_60" data-name="Group 60" transform="translate(16.336 9.689)">
      <path id="Path_488" data-name="Path 488" d="M487.84,552.278h-.008a5.634,5.634,0,0,0-5.629-5.489c-1.613,0-4.083.848-4.3,3.572-.034.582-.066.878-.264.854a3.963,3.963,0,0,0-4.38,3.766c0,3.113,2.524,4.81,5.637,4.81h8.946a3.757,3.757,0,1,0,0-7.513Z" transform="translate(-457.122 -546.789)" fill="none" stroke="#ccc" stroke-linecap="round" stroke-linejoin="round" stroke-width="2"/>
      <path id="Path_489" data-name="Path 489" d="M497.482,599.577v-10.4c0-1.494-1.655-2.717-3.678-2.717H459.176c-2.022,0-3.678,1.223-3.678,2.717v10.4" transform="translate(-452.23 -557.717)" fill="none" stroke="#ccc" stroke-linecap="round" stroke-linejoin="round" stroke-width="2"/>
      <path id="Path_490" data-name="Path 490" d="M463.384,623.928v1.459c0,.695-.77,1.264-1.711,1.264h-2.581c-.941,0-1.711-.569-1.711-1.264v-1.459" transform="translate(-452.749 -568.039)" fill="none" stroke="#ccc" stroke-linecap="round" stroke-linejoin="round" stroke-width="2"/>
      <path id="Path_491" data-name="Path 491" d="M507.813,623.928v1.459c0,.695-.77,1.264-1.712,1.264h-2.58c-.941,0-1.711-.569-1.711-1.264v-1.459" transform="translate(-464.988 -568.039)" fill="none" stroke="#ccc" stroke-linecap="round" stroke-linejoin="round" stroke-width="2"/>
      <path id="Path_492" data-name="Path 492" d="M473.925,602.049a37.083,37.083,0,0,0,3.032-3.132,3,3,0,0,0-.272-3.591c-1.014-1.04-2.846-1.456-4.713.56-1.866-2.016-3.7-1.6-4.713-.56a3,3,0,0,0-.272,3.591,37.835,37.835,0,0,0,3.086,3.184" transform="translate(-455.265 -559.921)" fill="none" stroke="#ccc" stroke-linecap="round" stroke-linejoin="round" stroke-width="2"/>
      <path id="Path_493" data-name="Path 493" d="M494.757,602.049a37.12,37.12,0,0,0,3.033-3.132,3,3,0,0,0-.273-3.591c-1.014-1.04-2.846-1.456-4.712.56-1.867-2.016-3.7-1.6-4.713-.56a3,3,0,0,0-.273,3.591,37.986,37.986,0,0,0,3.087,3.184" transform="translate(-461.004 -559.921)" fill="none" stroke="#ccc" stroke-linecap="round" stroke-linejoin="round" stroke-width="2"/>
      <rect id="Rectangle_16" data-name="Rectangle 16" width="48.493" height="13.003" rx="6.502" transform="translate(0 42.373)" fill="none" stroke="#ccc" stroke-linecap="round" stroke-linejoin="round" stroke-width="2"/>
      <path id="Path_494" data-name="Path 494" d="M461.524,605.273c3.245,4.158,10.248,8.235,16.613,8.235s12.6-4.035,16.8-8.235" transform="translate(-453.89 -562.9)" fill="none" stroke="#ccc" stroke-linecap="round" stroke-linejoin="round" stroke-width="2"/>
      <path id="Path_495" data-name="Path 495" d="M480.27,565.137l-3.123,5.083h4.3l-3.574,6.906,10.566-9.473-4.591-.089,2.035-2.427" transform="translate(-458.194 -551.844)" fill="none" stroke="#ccc" stroke-linecap="round" stroke-linejoin="round" stroke-width="2"/>
    </g>
  </g>
</svg>
