<svg xmlns="http://www.w3.org/2000/svg" width="83.135" height="83.135" viewBox="0 0 83.135 83.135">
  <g id="icon" transform="translate(1 1)">
    <g id="Group_48" data-name="Group 48">
      <path id="Path_428" data-name="Path 428" d="M287.312,335.749a40.567,40.567,0,1,1-40.568,40.568A40.568,40.568,0,0,1,287.312,335.749Z" transform="translate(-246.744 -335.749)" fill="none" stroke="#ccc" stroke-linecap="round" stroke-linejoin="round" stroke-width="2"/>
    </g>
    <g id="Group_50" data-name="Group 50" transform="translate(13.037 13.3)">
      <g id="Group_49" data-name="Group 49" transform="translate(0 6.085)">
        <path id="Path_429" data-name="Path 429" d="M308.772,397.048A18.979,18.979,0,0,0,319.518,380.2a17.858,17.858,0,0,0-18.11-17.691,18.826,18.826,0,0,0-16.619,10.866l4.206.033c3.1-4.238,5.955-6.661,12.075-7.081,7.958-.546,14.808,6.475,14.444,14.444-.277,6.061-2.881,9.06-6.871,12.151Z" transform="translate(-270.263 -362.505)" fill="none" stroke="#ccc" stroke-linecap="round" stroke-linejoin="round" stroke-width="2"/>
        <path id="Path_430" data-name="Path 430" d="M276.192,387.234a14.741,14.741,0,0,0-7.569,12.572,14.513,14.513,0,0,0,14.643,14.324c5.473,0,9.747-3.178,12.2-7.667l4.157-.014A17.866,17.866,0,0,1,282.9,417.877a18.355,18.355,0,0,1-18.158-18.226,17.908,17.908,0,0,1,11.414-16.518Z" transform="translate(-264.739 -368.188)" fill="none" stroke="#ccc" stroke-linecap="round" stroke-linejoin="round" stroke-width="2"/>
        <path id="Path_431" data-name="Path 431" d="M308.987,395.183a18.434,18.434,0,0,0-12.979-13.015l.021,3.959a13.445,13.445,0,0,1,8.937,9.056Z" transform="translate(-273.354 -367.922)" fill="none" stroke="#ccc" stroke-linecap="round" stroke-linejoin="round" stroke-width="2"/>
        <path id="Path_432" data-name="Path 432" d="M283.622,393.412a18,18,0,0,0,13.014,12.974l.159-4.013A14.315,14.315,0,0,1,287.518,393Z" transform="translate(-269.941 -370.907)" fill="none" stroke="#ccc" stroke-linecap="round" stroke-linejoin="round" stroke-width="2"/>
      </g>
      <path id="Path_433" data-name="Path 433" d="M278.62,384.134" transform="translate(-268.563 -362.379)" fill="none" stroke="#ccc" stroke-linecap="round" stroke-linejoin="round" stroke-width="2"/>
      <path id="Path_434" data-name="Path 434" d="M278.62,384.134" transform="translate(-268.563 -362.379)" fill="none" stroke="#ccc" stroke-linecap="round" stroke-linejoin="round" stroke-width="2"/>
      <line id="Line_53" data-name="Line 53" x2="3.118" y2="3.118" transform="translate(42.888 48.201)" fill="none" stroke="#ccc" stroke-linecap="round" stroke-linejoin="round" stroke-width="2"/>
      <line id="Line_54" data-name="Line 54" x2="4.333" transform="translate(45.718 41.638)" fill="none" stroke="#ccc" stroke-linecap="round" stroke-linejoin="round" stroke-width="2"/>
      <line id="Line_55" data-name="Line 55" y2="4.201" transform="translate(36.39 50.91)" fill="none" stroke="#ccc" stroke-linecap="round" stroke-linejoin="round" stroke-width="2"/>
      <line id="Line_56" data-name="Line 56" x1="3.118" y1="3.118" transform="translate(3.91 9.21)" fill="none" stroke="#ccc" stroke-linecap="round" stroke-linejoin="round" stroke-width="2"/>
      <line id="Line_57" data-name="Line 57" x1="4.333" transform="translate(0 18.866)" fill="none" stroke="#ccc" stroke-linecap="round" stroke-linejoin="round" stroke-width="2"/>
      <line id="Line_58" data-name="Line 58" y1="4.202" transform="translate(13.566 5.34)" fill="none" stroke="#ccc" stroke-linecap="round" stroke-linejoin="round" stroke-width="2"/>
      <path id="Path_435" data-name="Path 435" d="M326.518,367.825l8.852-2.31.394-4.89-6.555-6.518-4.828.529-2.623,8.586" transform="translate(-280.447 -354.107)" fill="none" stroke="#ccc" stroke-linecap="round" stroke-linejoin="round" stroke-width="2"/>
      <line id="Line_59" data-name="Line 59" x2="10.99" y2="10.879" transform="translate(43.932 0.529)" fill="none" stroke="#ccc" stroke-linecap="round" stroke-linejoin="round" stroke-width="2"/>
      <path id="Path_436" data-name="Path 436" d="M334.99,360.285l-1.48,3.348-6.884,4.341" transform="translate(-281.789 -355.809)" fill="none" stroke="#ccc" stroke-linecap="round" stroke-linejoin="round" stroke-width="2"/>
      <path id="Path_437" data-name="Path 437" d="M331.824,356.9l-3.356,1.7-3.731,6.185" transform="translate(-281.268 -354.876)" fill="none" stroke="#ccc" stroke-linecap="round" stroke-linejoin="round" stroke-width="2"/>
    </g>
  </g>
</svg>
