<svg xmlns="http://www.w3.org/2000/svg" width="83.136" height="83.136" viewBox="0 0 83.136 83.136">
  <g id="icon" transform="translate(-73.422 -1051.692)">
    <g id="Group_71" data-name="Group 71" transform="translate(74.422 1052.692)">
      <path id="Path_625" data-name="Path 625" d="M114.99,1052.692a40.568,40.568,0,1,1-40.568,40.568A40.569,40.569,0,0,1,114.99,1052.692Z" transform="translate(-74.422 -1052.692)" fill="none" stroke="#ccc" stroke-linecap="round" stroke-linejoin="round" stroke-width="2"/>
    </g>
    <g id="Group_72" data-name="Group 72" transform="translate(81.341 1061.795)">
      <path id="Path_626" data-name="Path 626" d="M150.68,1079.88H140.475v-10.2a4.432,4.432,0,0,0-4.419-4.42h-8.4a4.432,4.432,0,0,0-4.419,4.42v10.2H113.032a4.432,4.432,0,0,0-4.42,4.419v1.663c5.872.188,13.117,2.829,14.59,8.765a17.287,17.287,0,0,1,.471,7.417c-.519,2.6,2.942,8.135,3.808,9.346a.652.652,0,0,1,.112.249c.021,0,.042,0,.063,0h8.4a4.432,4.432,0,0,0,4.419-4.42v-10.205H150.68a4.433,4.433,0,0,0,4.42-4.42v-8.4A4.432,4.432,0,0,0,150.68,1079.88Z" transform="translate(-90.76 -1065.256)" fill="none" stroke="#ccc" stroke-linecap="round" stroke-linejoin="round" stroke-width="2"/>
      <path id="Path_627" data-name="Path 627" d="M110.276,1152.26c0-1.1,1.523-10.7,3.77-10.2a52.954,52.954,0,0,0,7.029-.469c.7-.156,1.8-.312,1.875-.7s0-2.5.078-3.281,1.562-1.406,1.562-1.406l-1.669-1.5,2.423-1L125,1130.6s3.265-.191,3.054-1.184" transform="translate(-91.219 -1082.931)" fill="none" stroke="#ccc" stroke-linecap="round" stroke-linejoin="round" stroke-width="2"/>
      <path id="Path_628" data-name="Path 628" d="M101.824,1093.832a19.458,19.458,0,0,0-2.477.073c-4.07.4-8.628,1.689-11.271,5.032a19.7,19.7,0,0,0-2.172,20.6c2.942,6.4,4.154,6.577,4.327,9.866a13.265,13.265,0,0,1-.459,4.687" transform="translate(-83.973 -1073.125)" fill="none" stroke="#ccc" stroke-linecap="round" stroke-linejoin="round" stroke-width="2"/>
    </g>
    <g id="Group_73" data-name="Group 73" transform="translate(85.078 1086.56)">
      <path id="Path_629" data-name="Path 629" d="M103.487,1113.384h8.641s2.566.389,3.126-1.677a1.911,1.911,0,0,0-1.455-2.476,1.634,1.634,0,0,0,.969-1.672c.061-2.363-2.606-2.363-2.606-2.363a2.281,2.281,0,0,0-1.272-2.485,2.632,2.632,0,0,0-2.485,0,2.1,2.1,0,0,0-1.516-2.363,2.589,2.589,0,0,0-2.484.667,2.235,2.235,0,0,0-2.182-1.576,2.2,2.2,0,0,0-2.061,1.879,1.726,1.726,0,0,0-2.182-.848,2.28,2.28,0,0,0-1.515,2.061,3.3,3.3,0,0,0-2.849.364,2.78,2.78,0,0,0-.969,2.909,1.713,1.713,0,0,0-2.424.635c-.861,1.22.424,2.794.424,2.794a2.422,2.422,0,0,0-1.515,1.9,3.9,3.9,0,0,0,1.273,2.545,2.929,2.929,0,0,0-.485,2.606,3.337,3.337,0,0,0,2.242,2.061h5.273s3.076-.289,1.889-2.786l2.2-.033a1.743,1.743,0,0,0,1.669-.791A1.66,1.66,0,0,0,103.487,1113.384Z" transform="translate(-89.129 -1099.438)" fill="none" stroke="#ccc" stroke-linecap="round" stroke-linejoin="round" stroke-width="2"/>
      <line id="Line_88" data-name="Line 88" x2="5.149" transform="translate(6.684 16.091)" fill="none" stroke="#ccc" stroke-linecap="round" stroke-linejoin="round" stroke-width="2"/>
      <path id="Path_630" data-name="Path 630" d="M101.8,1116.95a2.1,2.1,0,0,1,.256-2.245c.9-.9,3.885-.349,3.885-.349s2.81.852,3.878.217a2.118,2.118,0,0,0,1.059-2.085" transform="translate(-92.559 -1103.033)" fill="none" stroke="#ccc" stroke-linecap="round" stroke-linejoin="round" stroke-width="2"/>
      <path id="Path_631" data-name="Path 631" d="M96.428,1111.47a2.268,2.268,0,0,1,.449-2.374,3.418,3.418,0,0,1,2.245-.609,8.97,8.97,0,0,0,2.919-.036,1.954,1.954,0,0,0,1.091-1.953" transform="translate(-91.096 -1101.383)" fill="none" stroke="#ccc" stroke-linecap="round" stroke-linejoin="round" stroke-width="2"/>
      <path id="Path_632" data-name="Path 632" d="M104.011,1109.545a2.813,2.813,0,0,0,2.38.96,2.027,2.027,0,0,0,2.159-1.236" transform="translate(-93.229 -1102.146)" fill="none" stroke="#ccc" stroke-linecap="round" stroke-linejoin="round" stroke-width="2"/>
      <path id="Path_633" data-name="Path 633" d="M107.9,1102.314s-.589,1.586.577,2.277c.866.514,1.343.395,2.855.449a4.746,4.746,0,0,1,3.334,1.11,3.878,3.878,0,0,1,.948,3.053" transform="translate(-94.259 -1100.23)" fill="none" stroke="#ccc" stroke-linecap="round" stroke-linejoin="round" stroke-width="2"/>
      <line id="Line_89" data-name="Line 89" x1="1.225" transform="translate(1.275 14.243)" fill="none" stroke="#ccc" stroke-linecap="round" stroke-linejoin="round" stroke-width="2"/>
      <path id="Path_634" data-name="Path 634" d="M93.956,1116.242a2.053,2.053,0,0,0-1.376,2.068,1.738,1.738,0,0,0,1.39,1.848" transform="translate(-90.08 -1104.067)" fill="none" stroke="#ccc" stroke-linecap="round" stroke-linejoin="round" stroke-width="2"/>
    </g>
  </g>
</svg>
