<svg xmlns="http://www.w3.org/2000/svg" width="83.133" height="83.133" viewBox="0 0 83.133 83.133">
  <g id="icon" transform="translate(-74.697 -340.98)">
    <g id="Group_67" data-name="Group 67" transform="translate(75.697 341.98)">
      <path id="Path_601" data-name="Path 601" d="M116.264,341.98A40.567,40.567,0,1,1,75.7,382.547,40.568,40.568,0,0,1,116.264,341.98Z" transform="translate(-75.697 -341.98)" fill="none" stroke="#ccc" stroke-linecap="round" stroke-linejoin="round" stroke-width="2"/>
    </g>
    <path id="Path_602" data-name="Path 602" d="M134.761,405.115a4.938,4.938,0,0,1-9.877,0V402.33a4.938,4.938,0,1,1,9.877,0Z" transform="translate(-13.552 -15.266)" fill="none" stroke="#ccc" stroke-linecap="round" stroke-linejoin="round" stroke-width="2"/>
    <path id="Path_603" data-name="Path 603" d="M131.786,417.693v13.28H120.9V417.946a2.779,2.779,0,0,0-.869-2.018l-9.609-7.082,5.356-17.062a2.594,2.594,0,0,1,2.7-1.359c.893.265,1.511.985,1.225,2.467l-3.572,13.92,5.671,3.634a11.29,11.29,0,0,0,1.642.811,9.425,9.425,0,0,0,2.4.493,8.864,8.864,0,0,0,2.273-.022" transform="translate(-9.567 -13.336)" fill="none" stroke="#ccc" stroke-linecap="round" stroke-linejoin="round" stroke-width="2"/>
    <path id="Path_604" data-name="Path 604" d="M138.513,417.816a2.778,2.778,0,0,1,.869-2.018l7.893-6.31-4.453-17.349c-.548-1.724-1.59-2.154-2.791-1.724a2.018,2.018,0,0,0-1.328,2.47l3.073,14.556L136.47,411a6.881,6.881,0,0,1-1.632.7" transform="translate(-16.294 -13.301)" fill="none" stroke="#ccc" stroke-linecap="round" stroke-linejoin="round" stroke-width="2"/>
    <path id="Path_605" data-name="Path 605" d="M131.159,353.971l-2.976,9.662,3.56-.692-1.276,10.811,6.657-14.064-3.819.666,2.5-7.286Z" transform="translate(-14.46 -3.055)" fill="none" stroke="#ccc" stroke-linecap="round" stroke-linejoin="round" stroke-width="2"/>
    <path id="Path_606" data-name="Path 606" d="M151.757,360.7l-8.034,6.137,3.3,1.5-7.317,8.059,13.588-7.583-3.5-1.676,6.269-4.477Z" transform="translate(-17.635 -5.157)" fill="none" stroke="#ccc" stroke-linecap="round" stroke-linejoin="round" stroke-width="2"/>
    <path id="Path_607" data-name="Path 607" d="M110.635,358.33l6.709,7.563-3.527.844,5.637,9.313L107.571,366l3.752-.974-5.295-5.6Z" transform="translate(-8.357 -4.505)" fill="none" stroke="#ccc" stroke-linecap="round" stroke-linejoin="round" stroke-width="2"/>
  </g>
</svg>
