<svg xmlns="http://www.w3.org/2000/svg" width="83.136" height="83.135" viewBox="0 0 83.136 83.135">
  <g id="icon" transform="translate(1 1)">
    <g id="Group_46" data-name="Group 46">
      <path id="Path_417" data-name="Path 417" d="M455.166,141.933A40.567,40.567,0,1,1,414.6,182.5,40.569,40.569,0,0,1,455.166,141.933Z" transform="translate(-414.598 -141.933)" fill="none" stroke="#ccc" stroke-linecap="round" stroke-linejoin="round" stroke-width="2"/>
    </g>
    <g id="Group_47" data-name="Group 47" transform="translate(0.454 25.033)">
      <path id="Path_418" data-name="Path 418" d="M431.631,198.89s1.5,6.224,2.307,8.155,1.923,2.142,2.629,1.824c.962-.431.8-1.127.8-1.127s-3.649-16.955-3.97-17.277c0,0-1.442-.93-4.911-.989H426.8c-3.469.059-4.91.989-4.91.989-.322.322-3.971,17.277-3.971,17.277s-.157.7.8,1.127c.706.317,1.824.107,2.629-1.824s2.307-8.155,2.307-8.155" transform="translate(-415.964 -180.063)" fill="none" stroke="#ccc" stroke-linecap="round" stroke-linejoin="round" stroke-width="1.568"/>
      <path id="Path_419" data-name="Path 419" d="M432.644,231.691s-1.137-19.168-.654-19.49a4.162,4.162,0,0,1,2.415-.7c1.18,0,2.2.7,2.2,1.556v18.814s.237,2.084-1.424,1.942" transform="translate(-419.81 -186.132)" fill="none" stroke="#ccc" stroke-linecap="round" stroke-linejoin="round" stroke-width="1.568"/>
      <path id="Path_420" data-name="Path 420" d="M424.91,225.383s-.619-11.465-.619-12.324,1.019-1.556,2.2-1.556a4.162,4.162,0,0,1,2.414.7c.483.322-.309,17.629-.309,17.629" transform="translate(-417.722 -186.132)" fill="none" stroke="#ccc" stroke-linecap="round" stroke-linejoin="round" stroke-width="1.568"/>
      <ellipse id="Ellipse_4" data-name="Ellipse 4" cx="3.688" cy="3.688" rx="3.688" ry="3.688" transform="translate(7.994)" fill="none" stroke="#ccc" stroke-linecap="round" stroke-linejoin="round" stroke-width="1.568"/>
      <path id="Path_421" data-name="Path 421" d="M454.677,198.89s-1.5,6.224-2.307,8.155-1.924,2.142-2.629,1.824c-.962-.431-.8-1.127-.8-1.127s3.738-16.4,4.06-16.718c0,0,1.352-1.489,4.821-1.548h1.691c3.47.059,4.647,1.09,4.647,1.09.322.322,4.614,12.059,4.614,12.059s.157.695-.8,1.127c-.706.317-1.824.107-2.629-1.824a22.623,22.623,0,0,1-1.044-2.906l-.515,7.97" transform="translate(-424.509 -180.063)" fill="none" stroke="#ccc" stroke-linecap="round" stroke-linejoin="round" stroke-width="1.568"/>
      <path id="Path_422" data-name="Path 422" d="M467.62,231V213.678c0-.859,0-3.046-2.368-3.046-2.771,0-2.329,2.353-2.367,2.889-.04.579.766,17.482.766,17.482s-.106,1.554,1.947,1.554C467.686,232.557,467.62,231,467.62,231Z" transform="translate(-428.353 -185.892)" fill="none" stroke="#ccc" stroke-linecap="round" stroke-linejoin="round" stroke-width="1.568"/>
      <path id="Path_423" data-name="Path 423" d="M489.156,216.13h-1.364c-.167.843-4.072,15.128-4.072,15.128s-.237,1.537-2.285,1.13c-2.014-.4-1.608-1.9-1.608-1.9s2.989-16.5,3.141-17.06a4.008,4.008,0,0,1,.99-1.973c1.2-1.277,4.735-.846,4.735-.846" transform="translate(-433.012 -185.865)" fill="none" stroke="#ccc" stroke-linecap="round" stroke-linejoin="round" stroke-width="1.568"/>
      <path id="Path_424" data-name="Path 424" d="M459.635,231V213.678c0-.859,0-3.046-2.368-3.046-2.771,0-2.329,2.353-2.366,2.889-.041.579.765,17.482.765,17.482s-.106,1.554,1.948,1.554C459.7,232.557,459.635,231,459.635,231Z" transform="translate(-426.153 -185.892)" fill="none" stroke="#ccc" stroke-linecap="round" stroke-linejoin="round" stroke-width="1.568"/>
      <ellipse id="Ellipse_5" data-name="Ellipse 5" cx="3.688" cy="3.688" rx="3.688" ry="3.688" transform="translate(30.466)" fill="none" stroke="#ccc" stroke-linecap="round" stroke-linejoin="round" stroke-width="1.568"/>
      <ellipse id="Ellipse_6" data-name="Ellipse 6" cx="3.688" cy="3.688" rx="3.688" ry="3.688" transform="translate(65.333)" fill="none" stroke="#ccc" stroke-linecap="round" stroke-linejoin="round" stroke-width="1.568"/>
      <path id="Path_425" data-name="Path 425" d="M501.565,199.5s.877-3.552,1.585-6.282,1.9-2.9,3.422-2.726c2.544.293,3.508,1.336,3.054,4.238-.627,4.008-2.037,10.02-2.037,10.02L496.594,203a1.785,1.785,0,0,1-.74-2.152c.482-1.514,2.626-.856,2.626-.856l6.439.943,1.357-5.7" transform="translate(-437.407 -180.33)" fill="none" stroke="#ccc" stroke-linecap="round" stroke-linejoin="round" stroke-width="1.568"/>
      <path id="Path_426" data-name="Path 426" d="M514.667,209.081v-18.9s-.521-1.571-3.434,0-4.772,14.307-4.772,14.307H494.619s-2.385,0-2.815,1.755c-.564,2.305.62,2.392.935,2.9.731,1.171.42,14.9.42,14.9H505.32" transform="translate(-436.28 -180.064)" fill="none" stroke="#ccc" stroke-linecap="round" stroke-linejoin="round" stroke-width="1.568"/>
      <path id="Path_427" data-name="Path 427" d="M415.224,189.476h45.544V203.93a1.531,1.531,0,0,1,1.692.8c.764,1.4-.8,2.538-1.374,3.283s-.14,16.467-.14,16.467h-6.24" transform="translate(-415.224 -180.063)" fill="none" stroke="#ccc" stroke-linecap="round" stroke-linejoin="round" stroke-width="1.568"/>
      <line id="Line_50" data-name="Line 50" x1="12.442" transform="translate(17.038 44.421)" fill="none" stroke="#ccc" stroke-linecap="round" stroke-linejoin="round" stroke-width="1.568"/>
      <line id="Line_51" data-name="Line 51" x1="12.01" transform="translate(16.794 29.476)" fill="none" stroke="#ccc" stroke-linecap="round" stroke-linejoin="round" stroke-width="1.568"/>
      <line id="Line_52" data-name="Line 52" x1="5.861" transform="translate(39.683 23.867)" fill="none" stroke="#ccc" stroke-linecap="round" stroke-linejoin="round" stroke-width="1.568"/>
    </g>
  </g>
</svg>
