<svg xmlns="http://www.w3.org/2000/svg" width="83.137" height="83.137" viewBox="0 0 83.137 83.137">
  <g id="icon" transform="translate(1 1)">
    <path id="Path_467" data-name="Path 467" d="M434.794,201.088c1.361-1.083,4.563-2.495,5.159-4.228.672-1.961-.812-4.067-.645-6.067.2-2.4,1.451-4.993,2.476-7.141A102.418,102.418,0,0,1,447.363,174c1.4-2.265,2.964-6.437,6.168-3.935,3.6,2.808.369,10.456-1.719,13.17" transform="translate(-421.448 -152.052)" fill="none" stroke="#ccc" stroke-linecap="round" stroke-linejoin="round" stroke-width="2.151"/>
    <path id="Path_468" data-name="Path 468" d="M498.165,222.619c-.583-.938-2.2-2.466-2.183-3.63.017-1.316,1.354-2.259,1.681-3.491a14.1,14.1,0,0,0,.043-4.8,65.169,65.169,0,0,0-1.276-6.965c-.355-1.653-.4-4.482-2.849-3.67-2.75.912-2.452,6.174-1.784,8.244" transform="translate(-437.026 -160.491)" fill="none" stroke="#ccc" stroke-linecap="round" stroke-linejoin="round" stroke-width="2.151"/>
    <path id="Path_469" data-name="Path 469" d="M471.014,210.326s-3.228-5.46-4.933-8.441c-1.214-2.117-.638-3.4.217-3.92a2.873,2.873,0,0,1,2.455-.244" transform="translate(-429.875 -159.838)" fill="none" stroke="#ccc" stroke-linecap="round" stroke-linejoin="round" stroke-width="2.151"/>
    <path id="Path_470" data-name="Path 470" d="M475.432,205.876l-6.058-10.252s-1.1-2.042.423-3.042c1.921-1.253,3.138,1.1,3.138,1.1l5.736,9.391" transform="translate(-430.867 -158.368)" fill="none" stroke="#ccc" stroke-linecap="round" stroke-linejoin="round" stroke-width="2.151"/>
    <path id="Path_471" data-name="Path 471" d="M475.172,194.36s-1.511-2.326.318-3.489c1.934-1.231,3.136,1.1,3.136,1.1l8.556,13.741" transform="translate(-432.409 -157.899)" fill="none" stroke="#ccc" stroke-linecap="round" stroke-linejoin="round" stroke-width="2.151"/>
    <path id="Path_472" data-name="Path 472" d="M480.566,229.711l-2.472-3.628s-2.66,1.935-4.9-1.125-7.418-11.9-9.732-15.826c-1.206-2.05-.914-3.727.1-4.418a2.2,2.2,0,0,1,1.913-.39" transform="translate(-429.128 -161.683)" fill="none" stroke="#ccc" stroke-linecap="round" stroke-linejoin="round" stroke-width="2.151"/>
    <path id="Path_473" data-name="Path 473" d="M486.4,195.746s6.116-4.827,10.222-8.346c2.921-2.5,2.749-4.71,1.753-5.929a4.519,4.519,0,0,0-3.511-1.661" transform="translate(-435.663 -154.95)" fill="none" stroke="#ccc" stroke-linecap="round" stroke-linejoin="round" stroke-width="2.151"/>
    <path id="Path_474" data-name="Path 474" d="M479.479,187.171l13.074-10.659s2.718-2.445.982-4.735c-2.187-2.875-5.238-.022-5.238-.022l-13.478,10.892" transform="translate(-432.474 -152.383)" fill="none" stroke="#ccc" stroke-linecap="round" stroke-linejoin="round" stroke-width="2.151"/>
    <path id="Path_475" data-name="Path 475" d="M482.106,171.547s3.473-2.648,1.376-5.343c-2.216-2.85-5.236-.021-5.236-.021l-19.963,15.849a13.181,13.181,0,0,1,.767,4.945,20.661,20.661,0,0,1-.767,5.648" transform="translate(-427.918 -150.852)" fill="none" stroke="#ccc" stroke-linecap="round" stroke-linejoin="round" stroke-width="2.151"/>
    <path id="Path_476" data-name="Path 476" d="M498.236,200.9l1.56-1.3c2.874-2.4,3.328-5.044,2.189-6.607a3.461,3.461,0,0,0-2.631-1.59" transform="translate(-438.925 -158.142)" fill="none" stroke="#ccc" stroke-linecap="round" stroke-linejoin="round" stroke-width="2.151"/>
    <path id="Path_477" data-name="Path 477" d="M450.343,230.456l5.587-4.073s2.921,4.278,7.86.924c.7-.475,1.551-1.093,2.509-1.813" transform="translate(-425.731 -167.535)" fill="none" stroke="#ccc" stroke-linecap="round" stroke-linejoin="round" stroke-width="2.151"/>
    <g id="Group_57" data-name="Group 57">
      <path id="Path_478" data-name="Path 478" d="M456.942,145.5a40.568,40.568,0,1,1-40.569,40.569A40.569,40.569,0,0,1,456.942,145.5Z" transform="translate(-416.373 -145.498)" fill="none" stroke="#ccc" stroke-linecap="round" stroke-linejoin="round" stroke-width="2"/>
    </g>
  </g>
</svg>
