<svg xmlns="http://www.w3.org/2000/svg" width="83.139" height="83.139" viewBox="0 0 83.139 83.139">
  <g id="icon" transform="translate(-56.525 1)">
    <g id="Group_79" data-name="Group 79" transform="translate(57.525)">
      <path id="Path_682" data-name="Path 682" d="M98.095,0a40.57,40.57,0,1,1-40.57,40.57A40.571,40.571,0,0,1,98.095,0Z" transform="translate(-57.525)" fill="none" stroke="#ccc" stroke-linecap="round" stroke-linejoin="round" stroke-width="2"/>
    </g>
    <path id="Path_683" data-name="Path 683" d="M128.3,43.063" transform="translate(-19.496 -11.862)" fill="none" stroke="#ccc" stroke-linecap="round" stroke-linejoin="round" stroke-width="2"/>
    <path id="Path_684" data-name="Path 684" d="M136.143,40.835" transform="translate(-21.656 -11.248)" fill="none" stroke="#ccc" stroke-linecap="round" stroke-linejoin="round" stroke-width="2"/>
    <g id="Group_80" data-name="Group 80" transform="translate(81.564 12.167)">
      <path id="Path_685" data-name="Path 685" d="M109.3,47.044s3.2,6.193,3.926,6.922a58.238,58.238,0,0,1,1.821-7.322v-2.06a6.594,6.594,0,0,1-1.3-.047" transform="translate(-95.827 -24.435)" fill="none" stroke="#ccc" stroke-linecap="round" stroke-linejoin="round" stroke-width="2"/>
      <path id="Path_686" data-name="Path 686" d="M101.784,35.13a8.818,8.818,0,0,1-.217-1.087c-.359-.017-.728-.027-1.111-.027-8.5,0-9.754,6.958-9.754,9.542V75.043h19.226V63.086a4.275,4.275,0,0,1-1.269.2c-1.766,0-3.873-1.706-5.371-4.7-1.714-3.426-6.969-10.29-6.969-10.29" transform="translate(-90.703 -21.537)" fill="none" stroke="#ccc" stroke-linecap="round" stroke-linejoin="round" stroke-width="2"/>
      <path id="Path_687" data-name="Path 687" d="M112.843,42.062a8.209,8.209,0,0,1-5.625-3.86A8.49,8.49,0,0,1,106,35.553" transform="translate(-94.916 -21.96)" fill="none" stroke="#ccc" stroke-linecap="round" stroke-linejoin="round" stroke-width="2"/>
      <path id="Path_688" data-name="Path 688" d="M114.03,37.379v-.438a6.293,6.293,0,0,0,.881-.116h0a7.014,7.014,0,0,1,.589-1c1.227-1.679,4.1-6.555,9.405-4.74a8.413,8.413,0,0,0,.358-10.575,8.605,8.605,0,0,0-11.967-2.2L109.3,21.068a8.6,8.6,0,0,0-3.634,8.23" transform="translate(-94.805 -16.793)" fill="none" stroke="#ccc" stroke-linecap="round" stroke-linejoin="round" stroke-width="2"/>
      <path id="Path_689" data-name="Path 689" d="M117.238,63.776a7.753,7.753,0,0,0,3.076-2.173c1.069-1.069,2.355-13.509,4.076-18.078.769-2.04,6.575-6.029,3.723-7" transform="translate(-98.012 -22.227)" fill="none" stroke="#ccc" stroke-linecap="round" stroke-linejoin="round" stroke-width="2"/>
      <path id="Path_690" data-name="Path 690" d="M118.119,44.442a17.8,17.8,0,0,0-.881,2.176" transform="translate(-98.012 -24.409)" fill="none" stroke="#ccc" stroke-linecap="round" stroke-linejoin="round" stroke-width="2"/>
    </g>
    <path id="Path_691" data-name="Path 691" d="M133.409,48.294s-2.345,5.128-2.871,6.4c-1.4,3.383-.448,7.056,3.127,7.056,3.163,0,4.654-3.915,3.108-6.815C136.392,54.22,133.409,48.294,133.409,48.294Z" transform="translate(-19.942 -13.303)" fill="none" stroke="#ccc" stroke-linecap="round" stroke-linejoin="round" stroke-width="2"/>
    <path id="Path_692" data-name="Path 692" d="M128.255,72.07s-2.345,5.128-2.871,6.4c-1.4,3.384-.448,7.056,3.127,7.056,3.163,0,4.654-3.915,3.108-6.814C131.238,78,128.255,72.07,128.255,72.07Z" transform="translate(-18.522 -19.852)" fill="none" stroke="#ccc" stroke-linecap="round" stroke-linejoin="round" stroke-width="2"/>
  </g>
</svg>
