<svg xmlns="http://www.w3.org/2000/svg" width="83.137" height="83.137" viewBox="0 0 83.137 83.137">
  <g id="icon" transform="translate(1 1)">
    <path id="Path_479" data-name="Path 479" d="M125.633,406.774c-2.7-2.764-7.568-3.87-12.531,1.488-4.963-5.358-9.835-4.252-12.531-1.488a7.983,7.983,0,0,0-.725,9.546c2.041,2.849,13.255,13.23,13.255,13.23s11.214-10.381,13.255-13.23A7.984,7.984,0,0,0,125.633,406.774Z" transform="translate(-83.335 -356.832)" fill="none" stroke="#ccc" stroke-linecap="round" stroke-linejoin="round" stroke-width="2"/>
    <path id="Path_480" data-name="Path 480" d="M155.448,406.774c-2.7-2.764-7.568-3.87-12.531,1.488-4.963-5.358-9.835-4.252-12.53-1.488a7.983,7.983,0,0,0-.725,9.546c2.041,2.849,13.255,13.23,13.255,13.23s11.214-10.381,13.255-13.23A7.982,7.982,0,0,0,155.448,406.774Z" transform="translate(-91.548 -356.832)" fill="none" stroke="#ccc" stroke-linecap="round" stroke-linejoin="round" stroke-width="2"/>
    <g id="Group_58" data-name="Group 58">
      <path id="Path_481" data-name="Path 481" d="M118.1,338.719a40.568,40.568,0,1,1-40.569,40.569A40.569,40.569,0,0,1,118.1,338.719Z" transform="translate(-77.532 -338.719)" fill="none" stroke="#ccc" stroke-linecap="round" stroke-linejoin="round" stroke-width="2"/>
    </g>
    <path id="Path_482" data-name="Path 482" d="M120.576,373.309H140.73a3.391,3.391,0,0,0,3.381-3.381V356.979a3.392,3.392,0,0,0-3.381-3.381h-27.4a3.391,3.391,0,0,0-3.381,3.381v12.949a3.391,3.391,0,0,0,3.381,3.381H115.7" transform="translate(-86.463 -342.818)" fill="none" stroke="#ccc" stroke-linecap="round" stroke-linejoin="round" stroke-width="2.32"/>
    <path id="Path_483" data-name="Path 483" d="M146.58,387.71a3.006,3.006,0,1,0-3.006,3.006A3.007,3.007,0,0,0,146.58,387.71Z" transform="translate(-94.897 -351.387)" fill="none" stroke="#ccc" stroke-linecap="round" stroke-linejoin="round" stroke-width="2"/>
    <path id="Path_484" data-name="Path 484" d="M149.277,399.348a1.658,1.658,0,1,0-2.047,1.142A1.658,1.658,0,0,0,149.277,399.348Z" transform="translate(-96.4 -354.839)" fill="none" stroke="#ccc" stroke-linecap="round" stroke-linejoin="round" stroke-width="2"/>
    <path id="Path_485" data-name="Path 485" d="M117.625,387.71a3.006,3.006,0,1,1,3.007,3.006A3.007,3.007,0,0,1,117.625,387.71Z" transform="translate(-88.577 -351.387)" fill="none" stroke="#ccc" stroke-linecap="round" stroke-linejoin="round" stroke-width="2"/>
    <path id="Path_486" data-name="Path 486" d="M115.953,399.348A1.658,1.658,0,1,1,118,400.49,1.659,1.659,0,0,1,115.953,399.348Z" transform="translate(-88.099 -354.839)" fill="none" stroke="#ccc" stroke-linecap="round" stroke-linejoin="round" stroke-width="2"/>
    <circle id="Ellipse_7" data-name="Ellipse 7" cx="5.365" cy="5.365" r="5.365" transform="translate(29.874 22.098) rotate(-45)" fill="none" stroke="#ccc" stroke-linecap="round" stroke-linejoin="round" stroke-width="2.32"/>
    <circle id="Ellipse_8" data-name="Ellipse 8" cx="5.365" cy="5.365" r="5.365" transform="translate(36.089 19.173) rotate(-45)" fill="none" stroke="#ccc" stroke-linecap="round" stroke-linejoin="round" stroke-width="2.32"/>
  </g>
</svg>
