<svg xmlns="http://www.w3.org/2000/svg" width="83.135" height="83.135" viewBox="0 0 83.135 83.135">
  <g id="icon" transform="translate(1 1)">
    <g id="Group_31" data-name="Group 31">
      <path id="Path_359" data-name="Path 359" d="M466.94,41.207a40.567,40.567,0,1,1-40.568,40.568A40.568,40.568,0,0,1,466.94,41.207Z" transform="translate(-426.372 -41.207)" fill="none" stroke="#ccc" stroke-linecap="round" stroke-linejoin="round" stroke-width="2"/>
    </g>
    <g id="Group_32" data-name="Group 32">
      <path id="Path_360" data-name="Path 360" d="M466.94,41.207a40.567,40.567,0,1,1-40.568,40.568A40.568,40.568,0,0,1,466.94,41.207Z" transform="translate(-426.372 -41.207)" fill="none" stroke="#ccc" stroke-linecap="round" stroke-linejoin="round" stroke-width="2"/>
    </g>
    <path id="Path_361" data-name="Path 361" d="M436.295,121.567c.514-1.953,1.582-7.8,1.729-8.4.506-2.092,1.186-3.194,2.555-3.8s8.711-3.136,8.711-3.136v-4.287" transform="translate(-429.106 -57.939)" fill="none" stroke="#ccc" stroke-linecap="round" stroke-linejoin="round" stroke-width="2"/>
    <path id="Path_362" data-name="Path 362" d="M480.889,138.352c-.365-1.4-5.581-24.247-5.81-25.188-.5-2.092-1.185-3.194-2.553-3.8s-8.715-3.136-8.715-3.136v-4.287" transform="translate(-436.686 -57.939)" fill="none" stroke="#ccc" stroke-linecap="round" stroke-linejoin="round" stroke-width="2"/>
    <path id="Path_363" data-name="Path 363" d="M482.215,121.773c.365-1.4,2.028-7.667,2.256-8.609.506-2.092,1.185-3.194,2.555-3.8s8.712-3.136,8.712-3.136v-4.287" transform="translate(-441.757 -57.939)" fill="none" stroke="#ccc" stroke-linecap="round" stroke-linejoin="round" stroke-width="2"/>
    <path id="Path_364" data-name="Path 364" d="M523.876,120.99c-.642-2.676-2.076-7.522-2.15-7.825-.5-2.092-1.184-3.194-2.552-3.8s-8.715-3.136-8.715-3.136v-4.287" transform="translate(-449.538 -57.939)" fill="none" stroke="#ccc" stroke-linecap="round" stroke-linejoin="round" stroke-width="2"/>
    <path id="Path_365" data-name="Path 365" d="M462.4,90.2V85.012a5.443,5.443,0,1,0-10.886,0V90.2" transform="translate(-433.298 -51.775)" fill="none" stroke="#ccc" stroke-linecap="round" stroke-linejoin="round" stroke-width="2"/>
    <path id="Path_366" data-name="Path 366" d="M453.483,99.819a5.68,5.68,0,0,1-1.971-4.354V94.24" transform="translate(-433.298 -55.818)" fill="none" stroke="#ccc" stroke-linecap="round" stroke-linejoin="round" stroke-width="2"/>
    <path id="Path_367" data-name="Path 367" d="M465.787,94.24v1.226a5.72,5.72,0,0,1-1.976,4.354" transform="translate(-436.686 -55.818)" fill="none" stroke="#ccc" stroke-linecap="round" stroke-linejoin="round" stroke-width="2"/>
    <path id="Path_368" data-name="Path 368" d="M509.045,91.424a5.443,5.443,0,0,1-10.886,0V85.012a5.443,5.443,0,1,1,10.886,0Z" transform="translate(-446.149 -51.775)" fill="none" stroke="#ccc" stroke-linecap="round" stroke-linejoin="round" stroke-width="2"/>
    <path id="Path_369" data-name="Path 369" d="M473.122,68.015l10.2-20.909-.352,13.966,5.431-.6-9.447,20.786.357-13.924Z" transform="translate(-439.252 -42.832)" fill="none" stroke="#ccc" stroke-linecap="round" stroke-linejoin="round" stroke-width="2.267"/>
  </g>
</svg>
