<svg xmlns="http://www.w3.org/2000/svg" width="29.69" height="29.691" viewBox="0 0 29.69 29.691">
  <g id="IG_icon" data-name="IG icon" transform="translate(1 1)">
    <path id="Path_293" data-name="Path 293" d="M247.236,616.609a13.845,13.845,0,1,1-13.846,13.846A13.846,13.846,0,0,1,247.236,616.609Z" transform="translate(-233.391 -616.609)" fill="none" stroke="#9e9ea0" stroke-linecap="round" stroke-linejoin="round" stroke-width="2"/>
    <g id="Group_19" data-name="Group 19" transform="translate(6.536 6.536)">
      <path id="Path_304" data-name="Path 304" d="M11.389,5.4c1.952,0,2.183.007,2.954.043A4.046,4.046,0,0,1,15.7,5.69a2.421,2.421,0,0,1,1.387,1.387,4.046,4.046,0,0,1,.252,1.357c.035.771.043,1,.043,2.954s-.007,2.183-.043,2.954a4.046,4.046,0,0,1-.252,1.357A2.421,2.421,0,0,1,15.7,17.087a4.046,4.046,0,0,1-1.357.252c-.771.035-1,.043-2.954.043s-2.183-.007-2.954-.043a4.046,4.046,0,0,1-1.357-.252A2.421,2.421,0,0,1,5.69,15.7a4.046,4.046,0,0,1-.252-1.357c-.035-.771-.043-1-.043-2.954s.007-2.183.043-2.954A4.046,4.046,0,0,1,5.69,7.078,2.421,2.421,0,0,1,7.078,5.69a4.046,4.046,0,0,1,1.357-.252c.771-.035,1-.043,2.954-.043m0-1.317c-1.985,0-2.234.008-3.014.044a5.365,5.365,0,0,0-1.774.34A3.738,3.738,0,0,0,4.463,6.6a5.365,5.365,0,0,0-.34,1.774c-.036.78-.044,1.029-.044,3.014s.008,2.234.044,3.014a5.365,5.365,0,0,0,.34,1.774A3.738,3.738,0,0,0,6.6,18.315a5.365,5.365,0,0,0,1.774.34c.78.036,1.029.044,3.014.044s2.234-.008,3.014-.044a5.365,5.365,0,0,0,1.774-.34,3.738,3.738,0,0,0,2.138-2.138,5.365,5.365,0,0,0,.34-1.774c.036-.78.044-1.029.044-3.014s-.008-2.234-.044-3.014a5.365,5.365,0,0,0-.34-1.774,3.738,3.738,0,0,0-2.138-2.138,5.365,5.365,0,0,0-1.774-.34c-.78-.036-1.029-.044-3.014-.044Z" transform="translate(-4.079 -4.079)" fill="#9e9ea0"/>
      <path id="Path_305" data-name="Path 305" d="M130.389,126.635a3.754,3.754,0,1,0,3.754,3.754A3.754,3.754,0,0,0,130.389,126.635Zm0,6.19a2.437,2.437,0,1,1,2.437-2.437A2.437,2.437,0,0,1,130.389,132.825Z" transform="translate(-123.079 -123.079)" fill="#9e9ea0"/>
      <circle id="Ellipse_3" data-name="Ellipse 3" cx="0.877" cy="0.877" r="0.877" transform="translate(10.335 2.531)" fill="#9e9ea0"/>
    </g>
  </g>
</svg>
