<svg xmlns="http://www.w3.org/2000/svg" width="29.69" height="29.691" viewBox="0 0 29.69 29.691">
  <g id="Linkedin_icon" data-name="Linkedin icon" transform="translate(1 1)">
    <path id="Path_296" data-name="Path 296" d="M247.236,616.609a13.845,13.845,0,1,1-13.846,13.846A13.846,13.846,0,0,1,247.236,616.609Z" transform="translate(-233.391 -616.609)" fill="none" stroke="#9e9ea0" stroke-linecap="round" stroke-linejoin="round" stroke-width="2"/>
    <g id="Group_21" data-name="Group 21" transform="translate(7.503 7.519)">
      <path id="Path_309" data-name="Path 309" d="M957.624,1420.181h-2.651v-8.444h2.535v1.089l.029.01c.021-.026.045-.05.064-.078a2.725,2.725,0,0,1,2.1-1.235,4.3,4.3,0,0,1,1.438.119,2.428,2.428,0,0,1,1.806,1.812,6.122,6.122,0,0,1,.231,1.709c.006,1.608,0,3.216,0,4.825v.193h-2.643c-.005-.087-.015-.167-.015-.247,0-1.377.006-2.754-.006-4.13a4.874,4.874,0,0,0-.109-1.028,1.082,1.082,0,0,0-1.161-.914,2.316,2.316,0,0,0-.572.052,1.249,1.249,0,0,0-.943,1.039,3.955,3.955,0,0,0-.1.832c-.01,1.388,0,2.776,0,4.163Z" transform="translate(-950.492 -1407.529)" fill="#9e9ea0"/>
      <path id="Path_310" data-name="Path 310" d="M801.566,1428.219v-8.441h2.64v8.441Z" transform="translate(-801.355 -1415.568)" fill="#9e9ea0"/>
      <path id="Path_311" data-name="Path 311" d="M795.528,1271.6a1.532,1.532,0,1,1,1.536-1.52A1.519,1.519,0,0,1,795.528,1271.6Z" transform="translate(-793.999 -1268.532)" fill="#9e9ea0"/>
    </g>
  </g>
</svg>
