<svg xmlns="http://www.w3.org/2000/svg" width="29.69" height="29.691" viewBox="0 0 29.69 29.691">
  <g id="Pinterest_icon" data-name="Pinterest icon" transform="translate(1 1)">
    <path id="Path_297" data-name="Path 297" d="M247.236,616.609a13.845,13.845,0,1,1-13.846,13.846A13.846,13.846,0,0,1,247.236,616.609Z" transform="translate(-233.391 -616.609)" fill="none" stroke="#9e9ea0" stroke-linecap="round" stroke-linejoin="round" stroke-width="2"/>
    <g id="art" transform="translate(6.171 5.942)">
      <g id="Group_23" data-name="Group 23">
        <g id="Group_22" data-name="Group 22">
          <path id="Path_312" data-name="Path 312" d="M7.911,0A7.913,7.913,0,0,0,5.026,15.281a7.616,7.616,0,0,1,.026-2.272c.143-.619.925-3.932.925-3.932A2.881,2.881,0,0,1,5.742,7.9c0-1.1.638-1.921,1.432-1.921a.994.994,0,0,1,1,1.113A15.641,15.641,0,0,1,7.52,9.734a1.151,1.151,0,0,0,1.172,1.432c1.406,0,2.487-1.484,2.487-3.62A3.122,3.122,0,0,0,7.871,4.33,3.424,3.424,0,0,0,4.3,7.761a3.088,3.088,0,0,0,.586,1.8.236.236,0,0,1,.052.228c-.059.247-.2.788-.221.9-.033.143-.117.176-.267.1A3.544,3.544,0,0,1,2.839,7.728c0-2.494,1.81-4.785,5.228-4.785a4.643,4.643,0,0,1,4.877,4.571c0,2.728-1.719,4.922-4.1,4.922a2.1,2.1,0,0,1-1.81-.911l-.495,1.882a8.618,8.618,0,0,1-.983,2.077A7.918,7.918,0,1,0,7.911,0Z" fill="#9e9ea0"/>
        </g>
      </g>
    </g>
  </g>
</svg>
