<svg xmlns="http://www.w3.org/2000/svg" width="29.69" height="29.691" viewBox="0 0 29.69 29.691">
  <g id="Twitter_icon" data-name="Twitter icon" transform="translate(1 1)">
    <path id="Path_294" data-name="Path 294" d="M247.236,616.609a13.845,13.845,0,1,1-13.846,13.846A13.846,13.846,0,0,1,247.236,616.609Z" transform="translate(-233.391 -616.609)" fill="none" stroke="#9e9ea0" stroke-linecap="round" stroke-linejoin="round" stroke-width="2"/>
    <path id="Path_306" data-name="Path 306" d="M79.753,110.694a8.762,8.762,0,0,0,8.822-8.822c0-.134,0-.268-.009-.4a6.309,6.309,0,0,0,1.547-1.605,6.189,6.189,0,0,1-1.781.488A3.111,3.111,0,0,0,89.7,98.638a6.213,6.213,0,0,1-1.969.753,3.1,3.1,0,0,0-5.284,2.828,8.8,8.8,0,0,1-6.391-3.24,3.1,3.1,0,0,0,.96,4.14,3.078,3.078,0,0,1-1.4-.388c0,.013,0,.026,0,.04a3.1,3.1,0,0,0,2.488,3.04,3.1,3.1,0,0,1-1.4.053,3.1,3.1,0,0,0,2.9,2.154,6.222,6.222,0,0,1-3.851,1.327A6.308,6.308,0,0,1,75,109.3a8.779,8.779,0,0,0,4.753,1.393" transform="translate(-68.209 -90.299)" fill="#9e9ea0"/>
  </g>
</svg>
